<svg xmlns="http://www.w3.org/2000/svg" width="62.31" height="55.387" viewBox="0 0 62.31 55.387"><defs><style>.a{fill:#fff;}</style></defs><path class="a" d="M21.847,22.8,24.586,4.627H10.344L4.394,20.2a5.461,5.461,0,0,0-.28,1.731c0,3.822,3.981,6.923,8.9,6.923,4.535,0,8.284-2.645,8.834-6.058Zm13.421,6.058c4.916,0,8.9-3.1,8.9-6.923,0-.142-.01-.284-.017-.419L42.389,4.627H28.147L26.382,21.5c-.007.142-.014.284-.014.433,0,3.822,3.984,6.923,8.9,6.923ZM52.577,32.48V46.167H17.96V32.5a14.565,14.565,0,0,1-4.947.859,14.273,14.273,0,0,1-1.977-.17V55.168a4.857,4.857,0,0,0,4.839,4.846H54.654A4.863,4.863,0,0,0,59.5,55.168V33.193a14.873,14.873,0,0,1-1.977.17A14.385,14.385,0,0,1,52.577,32.48ZM66.146,20.2,60.189,4.627H45.951l2.735,18.146c.533,3.427,4.282,6.086,8.838,6.086,4.916,0,8.9-3.1,8.9-6.923a5.559,5.559,0,0,0-.277-1.731Z" transform="translate(-4.113 -4.627)"/></svg>