<svg xmlns="http://www.w3.org/2000/svg" width="69.815" height="45.372" viewBox="0 0 69.815 45.372"><defs><style>.a{fill:#fff;}</style></defs><path class="a" d="M44.359,42.656c-1.741-.622-4.587-.653-5.846-1.135a8.26,8.26,0,0,1-2.706-1.259c-.451-.544-.451-4.431-.451-4.431A7.159,7.159,0,0,0,36.9,33.653a24.193,24.193,0,0,0,.746-4.276s1.026.435,1.431-1.617c.342-1.773,1-2.706.824-4.012-.187-1.306-.9-1-.9-1s.9-1.322.9-5.815c0-4.634-3.5-9.19-10.045-9.19-6.531,0-10.06,4.571-10.06,9.19,0,4.494.886,5.815.886,5.815s-.731-.311-.9,1c-.187,1.306.466,2.239.824,4.012.4,2.068,1.431,1.617,1.431,1.617a24.427,24.427,0,0,0,.746,4.276,7.159,7.159,0,0,0,1.539,2.177s0,3.887-.451,4.431a7.949,7.949,0,0,1-2.706,1.244c-1.244.482-4.089.544-5.846,1.166A10.974,10.974,0,0,0,8.191,53.121H51.465A10.952,10.952,0,0,0,44.359,42.656Z" transform="translate(5.025 -7.748)"/><path class="a" d="M19.086,30.893s3.716-.124,5.193-1.446c-2.41-3.654-1.1-7.914-1.6-11.9-.5-3.965-2.752-6.344-7.261-6.344h-.062c-4.354,0-6.7,2.363-7.2,6.344-.5,3.965.886,8.707-1.586,11.9,1.477,1.337,5.209,1.291,5.209,1.291h0s.155,2.239-.155,2.612a3.926,3.926,0,0,1-1.866.855,36.08,36.08,0,0,0-4.027,1.12,6.547,6.547,0,0,0-3.514,5.784H14.7c.342-1.244,2.69-3.467,4.976-4.634a10.441,10.441,0,0,1,3.841-.809s.591-.933-1.353-1.291a13.255,13.255,0,0,1-2.985-1.042C18.883,32.992,19.086,30.893,19.086,30.893Z" transform="translate(-2.215 -3.558)"/><path class="a" d="M29,30.893s-3.716-.124-5.193-1.446c2.41-3.654,1.1-7.914,1.6-11.9.5-3.965,2.752-6.344,7.261-6.344h.062c4.354,0,6.7,2.363,7.2,6.344.5,3.965-.886,8.707,1.586,11.9-1.477,1.337-5.209,1.291-5.209,1.291h0s-.155,2.239.155,2.612a3.926,3.926,0,0,0,1.866.855,36.08,36.08,0,0,1,4.027,1.12,6.547,6.547,0,0,1,3.514,5.784H33.386c-.342-1.244-2.69-3.467-4.976-4.634a10.441,10.441,0,0,0-3.841-.809s-.591-.933,1.353-1.291a13.255,13.255,0,0,0,2.985-1.042C29.2,32.992,29,30.893,29,30.893Z" transform="translate(23.943 -3.558)"/></svg>