<svg xmlns="http://www.w3.org/2000/svg" width="52.036" height="48.976" viewBox="0 0 52.036 48.976"><defs><style>.a{fill:#fff;}</style></defs><path class="a" d="M24.641,13.8l4.783,1.368a.8.8,0,0,1-.22,1.578H26.066a2.461,2.461,0,0,1-.985-.21,1.186,1.186,0,0,0-1.349.191L22.058,18.4a1.147,1.147,0,0,0,.143,1.76,6.989,6.989,0,0,0,3.042,1.1v1.693a1.535,1.535,0,0,0,1.53,1.53H28.3a1.535,1.535,0,0,0,1.53-1.53V21.274a5.382,5.382,0,0,0,4.716-6.026,5.613,5.613,0,0,0-4.1-4.563L25.664,9.317a.8.8,0,0,1,.22-1.578h3.137a2.461,2.461,0,0,1,.985.21,1.186,1.186,0,0,0,1.349-.191L33.03,6.084a1.147,1.147,0,0,0-.143-1.76,6.989,6.989,0,0,0-3.042-1.1V1.53A1.535,1.535,0,0,0,28.314,0h-1.53a1.535,1.535,0,0,0-1.53,1.53V3.214A5.382,5.382,0,0,0,20.537,9.24,5.613,5.613,0,0,0,24.641,13.8ZM51.07,31.385a2.873,2.873,0,0,0-3.855,0l-8.341,7.069a5.563,5.563,0,0,1-3.616,1.339H24.574a1.533,1.533,0,0,1,0-3.061h7.069A3.063,3.063,0,0,0,31.8,30.61H17.342a10.228,10.228,0,0,0-6.686,2.516l-4.2,3.606H1.444A1.494,1.494,0,0,0,0,38.262v9.183a1.494,1.494,0,0,0,1.444,1.53H33.671a5.6,5.6,0,0,0,3.616-1.339l13.66-11.574a3.178,3.178,0,0,0,.124-4.678Z"/></svg>