<svg xmlns="http://www.w3.org/2000/svg" xmlns:xlink="http://www.w3.org/1999/xlink" width="665.485" height="525.086" viewBox="0 0 665.485 525.086"><defs><style>.a,.ac{fill:none;}.b{fill:#ffcf6b;}.c{fill:#263238;}.d{fill:#898989;}.e{fill:#f9a531;}.f{fill:#5c8bc6;}.g{fill:#f57e2a;}.h{fill:#e05d00;}.i{fill:#40649f;}.j{fill:#6fa1d8;}.k{fill:#9e1117;}.l{fill:#c7161d;}.m{fill:#1c344d;}.n{fill:#f7f7ff;}.o{fill:#ebebeb;}.p{fill:#e9e4f2;}.q{clip-path:url(#a);}.r{fill:#cec7dd;}.s{fill:#f2f0f7;}.t{fill:#b0a8c6;}.u{fill:#b6b6b6;}.v{fill:#fff;}.w{clip-path:url(#b);}.x{fill:url(#c);}.y{fill:#8e7d7e;}.z{fill:#f26b51;}.aa{fill:#4ea2e5;}.ab{fill:#d20400;}.ac{stroke:#fff;stroke-miterlimit:10;stroke-width:0.494px;}</style><clipPath id="a"><rect class="a" width="223.754" height="98.169" transform="translate(273.104 245.308)"/></clipPath><clipPath id="b"><path class="a" d="M240.331,245.308H153.853V385.334l86.478.132Z"/></clipPath><linearGradient id="c" y1="0.5" x2="1" y2="0.5" gradientUnits="objectBoundingBox"><stop offset="0"/><stop offset="0.029" stop-color="#170000"/><stop offset="0.097" stop-color="#470100"/><stop offset="0.17" stop-color="#730200"/><stop offset="0.246" stop-color="#980300"/><stop offset="0.328" stop-color="#b80400"/><stop offset="0.417" stop-color="#d20400"/><stop offset="0.514" stop-color="#e60500"/><stop offset="0.625" stop-color="#f40500"/><stop offset="0.762" stop-color="#fc0500"/><stop offset="1" stop-color="#ff0601"/></linearGradient></defs><g transform="translate(-271.871 -297.433)"><g transform="translate(189 210)"><g transform="translate(82.871 87.433)"><circle class="b" cx="17.772" cy="17.772" r="17.772" transform="translate(570.327 43.623)"/><ellipse class="b" cx="12.925" cy="12.117" rx="12.925" ry="12.117" transform="translate(334.443)"/><ellipse class="b" cx="13.733" cy="12.925" rx="13.733" ry="12.925" transform="translate(0 153.487)"/><ellipse class="b" cx="12.117" cy="12.925" rx="12.117" ry="12.925" transform="translate(180.956 499.236)"/><circle class="b" cx="9.694" cy="9.694" r="9.694" transform="translate(32.313 92.092)"/><circle class="b" cx="8.078" cy="8.078" r="8.078" transform="translate(591.331 208.419)"/><circle class="b" cx="9.694" cy="9.694" r="9.694" transform="translate(499.239 478.232)"/><circle class="b" cx="4.847" cy="4.847" r="4.847" transform="translate(576.79 151.871)"/><circle class="b" cx="4.039" cy="4.039" r="4.039" transform="translate(6.463 355.443)"/></g></g><g transform="translate(-2824 2109)"><g transform="translate(3084.1 -1813.886)"><path class="c" d="M570.514,293.112q-.357,0-.718-.005a1.5,1.5,0,0,1-1.48-1.563v-.02a1.5,1.5,0,0,1,1.538-1.43c27.591.408,32.832-23.139,33.724-29.223a1.489,1.489,0,0,1,1.6-1.263h0a1.494,1.494,0,0,1,1.357,1.733C605.452,268.01,599.448,293.112,570.514,293.112Z"/><path class="d" d="M553.359,416.476c0,1.361,7.4,2.465,16.525,2.465s16.526-1.1,16.526-2.465-7.4-2.465-16.526-2.465S553.359,415.114,553.359,416.476Z"/><circle class="e" cx="79.076" cy="79.076" r="79.076" transform="translate(479.163 123.107) rotate(-9.217)"/><circle class="f" cx="23.881" cy="23.881" r="23.881" transform="translate(473.685 207.236) rotate(-9.217)"/><circle class="f" cx="23.881" cy="23.881" r="23.881" transform="translate(496.727 221.689) rotate(-0.623)"/><circle class="g" cx="23.88" cy="23.88" r="23.88" transform="translate(523.944 230.656)"/><circle class="g" cx="23.881" cy="23.881" r="23.881" transform="translate(580.236 237.41) rotate(-9.217)"/><circle class="g" cx="23.88" cy="23.88" r="23.88" transform="translate(624.865 174.734)"/><circle class="g" cx="23.881" cy="23.881" r="23.881" transform="translate(589.213 98.802)"/><circle class="e" cx="23.881" cy="23.881" r="23.881" transform="translate(504.034 98.802)"/><circle class="f" cx="23.88" cy="23.88" r="23.88" transform="translate(477.202 137.831)"/><circle class="g" cx="25.427" cy="25.427" r="25.427" transform="translate(512.495 97.928) rotate(-12.856)"/><circle class="f" cx="13.578" cy="13.578" r="13.578" transform="translate(371.169 258.338) rotate(-43.117)"/><circle class="f" cx="11.426" cy="11.426" r="11.426" transform="translate(480.208 177.069)"/><circle class="f" cx="11.426" cy="11.426" r="11.426" transform="translate(475.717 195.002) rotate(-0.729)"/><circle class="f" cx="11.426" cy="11.426" r="11.426" transform="translate(494.068 121.475)"/><circle class="e" cx="11.426" cy="11.426" r="11.426" transform="translate(552.013 97.106) rotate(-8.49)"/><circle class="e" cx="14.425" cy="14.425" r="14.425" transform="translate(563.9 90.133)"/><circle class="e" cx="11.426" cy="11.426" r="11.426" transform="translate(578.209 107.025) rotate(-39.806)"/><circle class="e" cx="13.287" cy="13.287" r="13.287" transform="translate(622.168 140.506) rotate(-53.122)"/><circle class="g" cx="11.426" cy="11.426" r="11.426" transform="translate(628.034 142.702) rotate(-9.528)"/><circle class="g" cx="11.426" cy="11.426" r="11.426" transform="translate(639.168 213.083)"/><circle class="g" cx="11.426" cy="11.426" r="11.426" transform="translate(633.098 230.081) rotate(-13.783)"/><circle class="g" cx="11.426" cy="11.426" r="11.426" transform="translate(625.016 236.592)"/><circle class="g" cx="11.426" cy="11.426" r="11.426" transform="translate(573.398 276.898) rotate(-67.295)"/><circle class="g" cx="11.426" cy="11.426" r="11.426" transform="translate(558.952 259.342)"/><circle class="g" cx="11.426" cy="11.426" r="11.426" transform="translate(623.895 225.289) rotate(-13.283)"/><circle class="g" cx="11.426" cy="11.426" r="11.426" transform="translate(639.174 153.785)"/><path class="h" d="M670.756,192.114c-2.085,2.085-2.811,4.739-1.622,5.928s3.844.464,5.929-1.621,2.811-4.739,1.621-5.928S672.84,190.029,670.756,192.114Z"/><path class="h" d="M549.667,274.683c-2.348-1.783-5.076-2.143-6.094-.8s.061,3.871,2.409,5.654,5.076,2.143,6.094.8S552.014,276.466,549.667,274.683Z"/><path class="h" d="M635.146,118.478c-2.084,2.085-2.81,4.739-1.621,5.929s3.844.464,5.929-1.621,2.81-4.739,1.621-5.929S637.231,116.394,635.146,118.478Z"/><path class="h" d="M636.907,122.762c-2.923.386-5.114,2.05-4.895,3.717s2.768,2.708,5.691,2.323,5.115-2.05,4.9-3.717S639.83,122.377,636.907,122.762Z"/><path class="i" d="M485.134,144.063c2.085,2.084,4.739,2.81,5.928,1.621s.464-3.844-1.621-5.929-4.739-2.81-5.928-1.621S483.049,141.978,485.134,144.063Z"/><path class="i" d="M488.713,138.547c.385,2.923,2.049,5.115,3.717,4.9s2.707-2.768,2.322-5.691-2.049-5.114-3.717-4.894S488.328,135.624,488.713,138.547Z"/><path class="i" d="M505.574,107.118c.385,2.923,2.05,5.115,3.717,4.9s2.708-2.768,2.323-5.691-2.05-5.114-3.718-4.894S505.189,104.195,505.574,107.118Z"/><path class="i" d="M475.136,233.126c2.9.529,5.5-.383,5.8-2.038s-1.8-3.425-4.7-3.955-5.5.383-5.8,2.037S472.235,232.6,475.136,233.126Z"/><path class="h" d="M666.409,203.469c-2.085,2.085-2.811,4.739-1.621,5.929s3.843.463,5.928-1.622,2.811-4.739,1.621-5.928S668.494,201.384,666.409,203.469Z"/><path class="i" d="M478.8,153.753c2.938.243,5.432-.919,5.571-2.6s-2.131-3.232-5.07-3.475-5.432.92-5.571,2.6S475.861,153.511,478.8,153.753Z"/><path class="i" d="M487.383,243.6c.769-2.846.075-5.509-1.549-5.948s-3.563,1.513-4.332,4.36-.075,5.509,1.549,5.948S486.614,246.443,487.383,243.6Z"/><path class="h" d="M555.829,95.756c2.251-1.9,3.194-4.49,2.108-5.774s-3.792-.781-6.043,1.123-3.194,4.489-2.108,5.773S553.578,97.66,555.829,95.756Z"/><path class="h" d="M626.47,273.127c-.156-2.944-1.644-5.259-3.323-5.17s-2.916,2.548-2.76,5.492,1.644,5.259,3.324,5.17S626.626,276.071,626.47,273.127Z"/><path class="h" d="M559.082,182.707c2.251-1.9,3.194-4.489,2.108-5.773s-3.792-.781-6.043,1.123-3.194,4.489-2.108,5.773S556.831,184.612,559.082,182.707Z"/><path class="i" d="M474.944,226.554c1.979,2.185,4.594,3.042,5.841,1.913s.654-3.816-1.325-6-4.594-3.042-5.841-1.913S472.965,224.368,474.944,226.554Z"/><path class="e" d="M656.19,154.272c-2.085,2.085-2.811,4.739-1.621,5.929s3.844.463,5.928-1.621,2.811-4.739,1.622-5.929S658.275,152.187,656.19,154.272Z"/><path class="h" d="M525.761,140.571c-2.084,2.085-2.81,4.739-1.621,5.929s3.844.464,5.929-1.621,2.81-4.739,1.621-5.929S527.846,138.487,525.761,140.571Z"/><path class="h" d="M654.394,240.649c-2.085,2.085-2.811,4.739-1.621,5.929s3.843.463,5.928-1.622,2.811-4.739,1.621-5.928S656.478,238.564,654.394,240.649Z"/><path class="i" d="M520.9,137.976c-.243,2.939.919,5.433,2.6,5.571s3.232-2.131,3.474-5.069-.919-5.433-2.6-5.571S521.14,135.038,520.9,137.976Z"/><path class="h" d="M616.718,138.652c-.581,2.89.284,5.5,1.933,5.834s3.458-1.743,4.039-4.633-.284-5.5-1.933-5.834S617.3,135.761,616.718,138.652Z"/><path class="h" d="M602.261,100.089c-.581,2.89.284,5.5,1.933,5.834s3.458-1.742,4.039-4.633-.284-5.5-1.933-5.834S602.843,97.2,602.261,100.089Z"/><path class="h" d="M546.433,91.193c-.581,2.89.284,5.5,1.934,5.834s3.457-1.742,4.038-4.633-.284-5.5-1.933-5.834S547.015,88.3,546.433,91.193Z"/><path class="e" d="M661.457,158.692c-2.923.385-5.114,2.049-4.894,3.717s2.767,2.707,5.69,2.322,5.115-2.05,4.9-3.717S664.38,158.306,661.457,158.692Z"/><path class="h" d="M611.009,279.727c-1.461,2.561-1.46,5.312,0,6.146s3.83-.568,5.29-3.129,1.461-5.312,0-6.146S612.47,277.166,611.009,279.727Z"/><path class="h" d="M608.808,269.2c-2.624,1.345-4.128,3.649-3.36,5.146s3.516,1.619,6.14.274,4.127-3.65,3.36-5.146S611.431,267.857,608.808,269.2Z"/><path class="h" d="M611.7,194.118c-2.624,1.345-4.128,3.649-3.36,5.146s3.516,1.619,6.14.274,4.127-3.649,3.36-5.146S614.327,192.772,611.7,194.118Z"/><path class="h" d="M582.539,234.03c-1.071-2.747-3.209-4.478-4.776-3.867s-1.97,3.333-.9,6.08,3.21,4.478,4.777,3.867S583.61,236.777,582.539,234.03Z"/><path class="h" d="M558.734,165.7c-1.071-2.747-3.209-4.479-4.777-3.868s-1.97,3.333-.9,6.08,3.209,4.478,4.777,3.868S559.8,168.449,558.734,165.7Z"/><path class="i" d="M505.363,112.252c-2.658-1.276-5.4-1.081-6.131.436s.836,3.78,3.494,5.056,5.4,1.081,6.131-.435S508.021,113.528,505.363,112.252Z"/><path class="h" d="M630.289,109.4c-.582,2.89.284,5.5,1.933,5.834s3.457-1.742,4.039-4.633-.285-5.5-1.934-5.834S630.87,106.509,630.289,109.4Z"/><path class="h" d="M668.663,206.362c-2.923.385-5.114,2.05-4.9,3.717s2.768,2.708,5.691,2.323,5.114-2.05,4.9-3.718S671.586,205.977,668.663,206.362Z"/><path class="j" d="M486.581,181.278c1.814-1.814,2.445-4.123,1.41-5.158s-3.344-.4-5.158,1.41-2.445,4.123-1.41,5.158S484.767,183.092,486.581,181.278Z"/><path class="h" d="M591.932,109.44c2.043,1.552,4.416,1.864,5.3.7s-.053-3.368-2.1-4.919-4.416-1.865-5.3-.7S589.889,107.889,591.932,109.44Z"/><path class="j" d="M517.562,245.343c1.814-1.814,2.445-4.123,1.41-5.158s-3.344-.4-5.158,1.41-2.445,4.124-1.41,5.158S515.748,247.157,517.562,245.343Z"/><path class="j" d="M516.03,241.616c2.543-.335,4.45-1.783,4.259-3.234s-2.408-2.356-4.951-2.021-4.45,1.783-4.259,3.234S513.487,241.951,516.03,241.616Z"/><path class="e" d="M648.077,223.084c-1.814-1.814-4.123-2.445-5.158-1.41s-.4,3.344,1.411,5.158,4.123,2.445,5.158,1.41S649.891,224.9,648.077,223.084Z"/><path class="e" d="M644.963,227.882c-.335-2.543-1.783-4.449-3.234-4.258s-2.355,2.408-2.02,4.951,1.783,4.45,3.234,4.258S645.3,230.425,644.963,227.882Z"/><path class="e" d="M630.294,255.227c-.336-2.544-1.784-4.45-3.234-4.259s-2.356,2.408-2.021,4.951,1.783,4.45,3.234,4.259S630.629,257.77,630.294,255.227Z"/><path class="h" d="M656.776,145.6c-2.524-.461-4.782.332-5.045,1.772s1.57,2.98,4.093,3.441,4.782-.333,5.045-1.772S659.3,146.057,656.776,145.6Z"/><path class="j" d="M490.363,171.4c1.814-1.814,2.445-4.124,1.41-5.158s-3.344-.4-5.158,1.41-2.445,4.123-1.41,5.158S488.549,173.212,490.363,171.4Z"/><path class="e" d="M653.589,214.653c-2.556-.211-4.727.8-4.847,2.258s1.854,2.812,4.411,3.024,4.726-.8,4.847-2.259S656.145,214.864,653.589,214.653Z"/><path class="h" d="M646.12,136.486c-.668,2.477-.065,4.793,1.348,5.175s3.1-1.317,3.769-3.793.066-4.793-1.347-5.175S646.789,134.01,646.12,136.486Z"/><path class="e" d="M586.57,265.112c-1.958,1.657-2.779,3.906-1.833,5.023s3.3.68,5.257-.977,2.779-3.9,1.834-5.023S588.529,263.456,586.57,265.112Z"/><path class="e" d="M525.11,110.794c.136,2.561,1.431,4.575,2.892,4.5s2.536-2.217,2.4-4.778-1.43-4.576-2.892-4.5S524.975,108.232,525.11,110.794Z"/><path class="h" d="M583.74,189.462c-1.958,1.657-2.779,3.906-1.834,5.023s3.3.68,5.258-.977,2.779-3.906,1.834-5.023S585.7,187.8,583.74,189.462Z"/><path class="h" d="M656.943,151.314c-1.722-1.9-4-2.646-5.082-1.664s-.569,3.32,1.153,5.221,4,2.647,5.082,1.665S658.664,153.216,656.943,151.314Z"/><path class="j" d="M499.253,214.2c1.814-1.814,2.446-4.123,1.411-5.158s-3.344-.4-5.158,1.411-2.445,4.123-1.411,5.158S497.44,216.015,499.253,214.2Z"/><path class="h" d="M612.73,226.121c1.814-1.814,2.445-4.123,1.411-5.158s-3.344-.4-5.158,1.411-2.446,4.123-1.411,5.158S610.916,227.935,612.73,226.121Z"/><path class="j" d="M500.816,139.051c1.814-1.814,2.446-4.123,1.411-5.158s-3.344-.4-5.158,1.41-2.445,4.123-1.411,5.158S499,140.865,500.816,139.051Z"/><path class="h" d="M616.962,228.379c.211-2.556-.8-4.726-2.259-4.847s-2.812,1.855-3.023,4.411.8,4.726,2.259,4.847S616.751,230.936,616.962,228.379Z"/><path class="e" d="M546.173,261.342c.506-2.514-.247-4.787-1.682-5.076s-3.008,1.516-3.514,4.031.248,4.788,1.682,5.076S545.667,263.857,546.173,261.342Z"/><path class="e" d="M594.745,269.082c.506-2.515-.247-4.787-1.682-5.076s-3.008,1.516-3.514,4.031.247,4.787,1.682,5.076S594.239,271.6,594.745,269.082Z"/><path class="j" d="M494.671,210.356c2.543-.335,4.45-1.783,4.258-3.234s-2.408-2.355-4.951-2.02-4.449,1.783-4.258,3.234S492.128,210.691,494.671,210.356Z"/><path class="e" d="M538.562,105.052c1.271-2.228,1.271-4.622,0-5.347s-3.332.493-4.6,2.722-1.271,4.622,0,5.347S537.291,107.28,538.562,105.052Z"/><path class="e" d="M540.477,114.208c2.283-1.17,3.592-3.175,2.924-4.477s-3.06-1.409-5.342-.238-3.591,3.175-2.924,4.477S538.2,115.379,540.477,114.208Z"/><path class="h" d="M625.2,105.694c.932,2.39,2.792,3.9,4.156,3.365s1.714-2.9.782-5.29-2.792-3.9-4.155-3.365S624.266,103.3,625.2,105.694Z"/><path class="h" d="M581.5,222.138c.932,2.39,2.792,3.9,4.156,3.365s1.714-2.9.782-5.289-2.792-3.9-4.155-3.366S580.568,219.748,581.5,222.138Z"/><path class="e" d="M630.478,250.76c2.312,1.11,4.7.94,5.334-.379s-.728-3.289-3.041-4.4-4.7-.941-5.334.379S628.165,249.65,630.478,250.76Z"/><path class="j" d="M521.788,253.242c.506-2.514-.247-4.787-1.682-5.076s-3.007,1.516-3.513,4.031.247,4.787,1.682,5.076S521.283,255.757,521.788,253.242Z"/><path class="j" d="M488.4,168.881c2.543-.335,4.449-1.783,4.258-3.234s-2.408-2.355-4.951-2.02-4.45,1.783-4.258,3.234S485.858,169.217,488.4,168.881Z"/><path class="c" d="M569.884,416.476h0a2.465,2.465,0,0,1-2.213-2.656V218.069a2.465,2.465,0,0,1,2.213-2.655h0a2.465,2.465,0,0,1,2.213,2.655V413.82A2.465,2.465,0,0,1,569.884,416.476Z"/><path class="c" d="M566.965,250.083c-39.265,0-46.712-34.815-47.894-42.722a1.494,1.494,0,0,1,1.362-1.7l.984-.078a1.488,1.488,0,0,1,1.6,1.281c.99,7.346,7.519,40.013,45.3,39.209a1.5,1.5,0,0,1,1.543,1.427l.044,1.011a1.491,1.491,0,0,1-1.446,1.56Q567.7,250.082,566.965,250.083Z"/></g><g transform="translate(3084.1 -1813.886)"><rect class="k" width="449.57" height="16.6" transform="translate(99.707 402.318)"/><rect class="l" width="374.697" height="15.946" transform="translate(137.143 66.886)"/><rect class="m" width="35.681" height="6.02" transform="translate(99.707 94.372)"/><rect class="m" width="35.681" height="6.02" transform="translate(99.707 133.046)"/><rect class="n" width="404.702" height="289.327" transform="translate(122.141 97.732)"/><rect class="l" width="107.056" height="160.286" transform="translate(143.564 235.432)"/><rect class="o" width="86.478" height="150.411" transform="translate(153.853 245.308)"/><rect class="k" width="239.154" height="127.606" transform="translate(265.404 235.432)"/><rect class="p" width="86.478" height="120.244" transform="translate(153.853 245.308)"/><rect class="p" width="223.754" height="98.169" transform="translate(273.104 245.308)"/><g class="q"><path class="r" d="M396.732,314.09s-.783,2.588-1.038,3.505-.968,2.676-1.35,2.575.382-3.543.178-3.747-1.835,1.555-1.988,2.013.357,3.925,0,3.951-1.249-1.759-1.478-3.747,2.636-6.005,2.636-6.005Z"/><path class="r" d="M414.083,314.33c-.159-8.4-6.246-9.142-6.246-9.142s-6.087-.74-6.347,7.612c-.2,6.408,1.6,23.881,2.441,31.668a4.6,4.6,0,0,0,3.644,4.224h0c1.849.224,3.425-1.2,3.69-3.333C412.2,337.789,414.2,320.777,414.083,314.33Z"/><path class="r" d="M428.436,314.33c-.159-8.4-6.246-9.142-6.246-9.142s-6.087-.74-6.347,7.612c-.2,6.408,1.6,23.881,2.441,31.668a4.6,4.6,0,0,0,3.644,4.224h0c1.85.224,3.425-1.2,3.69-3.333C426.557,337.789,428.559,320.777,428.436,314.33Z"/><path class="r" d="M411.356,344.707a3.578,3.578,0,0,0-7.154,0c-.167,3.5,1.713,30.24,1.713,30.24h4.416S411.522,348.21,411.356,344.707Z"/><path class="r" d="M406.067,374.947s-7.682,3.432-8.594,3.869-1.29,1.31,1.063,1.31h9.81a1.838,1.838,0,0,0,1.988-1.634v-3.545Z"/><path class="r" d="M425.144,342.325a3.577,3.577,0,0,0-6.875,1.976c.807,3.413,10,28.591,10,28.591l4.244-1.22S426.272,345.646,425.144,342.325Z"/><path class="r" d="M423.634,273.066s4.591-.727,4.851,5.5c.228,5.451.773,13.488.911,16.8a2.492,2.492,0,0,1-2.369,2.295h0a2.492,2.492,0,0,1-2.9-1.568c-.764-3.226-2.5-11.094-3.673-16.419C419.116,273.6,423.634,273.066,423.634,273.066Z"/><path class="r" d="M422.539,272.431c-.167-.052-.335-.1-.5-.154a25.483,25.483,0,0,0-14.72,0q-.255.076-.509.156a1.886,1.886,0,0,0-1.149,1.6c-.795,5.474-.045,23.323.233,29.224.05,1.078.714,1.913,1.516,1.913h14.532c.8,0,1.466-.835,1.517-1.913.277-5.9,1.027-23.75.232-29.225A1.886,1.886,0,0,0,422.539,272.431Z"/><path class="r" d="M427.666,309.735c-1.445-7.794-4.2-10.51-4.2-10.51H405.714s-2.623,3.755-4.068,11.55a2.836,2.836,0,0,0,1.278,2.9,23.64,23.64,0,0,0,23.073,0A4.966,4.966,0,0,0,427.666,309.735Z"/><rect class="r" width="7.016" height="8.519" transform="translate(411.149 264.253)"/><path class="r" d="M417.966,267.184s-2.033,2.578-6.817,2.578V266.1Z"/><path class="r" d="M406.448,273.066s-4.591-.727-4.851,5.5c-.227,5.451-.772,13.488-.911,16.8a2.493,2.493,0,0,0,2.369,2.295h0a2.493,2.493,0,0,0,2.9-1.568c.764-3.226,2.5-11.094,3.672-16.419C410.967,273.6,406.448,273.066,406.448,273.066Z"/><path class="r" d="M403.924,292.629s-2.906-1.316-4.932,4.58c-1.774,5.164-4.533,12.75-5.612,15.888a1.963,1.963,0,0,0,.929,2.51h0a1.962,1.962,0,0,0,2.439-1.1c1.478-2.97,5-10.233,7.376-15.149C406.839,293.748,403.924,292.629,403.924,292.629Z"/><path class="r" d="M427.7,342.939c0-2,7.292-34.81-4.025-44.691h-18s-4.99,6.769-4.99,22.546.914,52.938.914,52.938h10.89l2.663-57.055s.948,20.084,1.8,27.212,7.846,29,7.846,29l9.642-2.581S427.7,344.935,427.7,342.939Z"/><path class="r" d="M411.149,270.58s-7.2.61-9.55,4.023c-1.883,2.736-1.681,16.918-2.334,19.1s-8.669,17.232-5.885,19.39,4.295,2.906,5.042,2.158,2.662-5.581,2.662-5.581,13.116,1.71,21.242,1.71,9.456-4.269,8.791-7.267-.807-16.493-1.719-23.336-.805-7.666-11.233-10.2A10.148,10.148,0,0,1,411.149,270.58Z"/><path class="r" d="M429.387,296.242s-.92,3.054-6.694.7c-5.056-2.061-12.584-4.974-15.657-6.226a1.962,1.962,0,0,1-1.279-2.351h0a1.962,1.962,0,0,1,2.433-1.113c3.21.842,10.995,2.97,16.262,4.412C430.462,293.31,429.387,296.242,429.387,296.242Z"/><path class="r" d="M408.3,293.113a2.8,2.8,0,0,1-1.359-3.125,9.227,9.227,0,0,1,1.641-3.79c1.386-1.386,13.749,3.327,13.749,3.327s-.513-12.12,2.476-16.752c4.414,1.26,4.509,3.351,5.65,13.8s-.941,13.5-5.65,13.5C421.147,300.074,412.145,295.267,408.3,293.113Z"/><path class="r" d="M405.887,374.537s-6.012,1.85-8.382,2.627a2,2,0,0,0-1.222,2.962h14.051v-5.179A4.906,4.906,0,0,1,405.887,374.537Z"/><path class="r" d="M428.4,372.487s-6.488,5.358-7.249,6.022-.894,1.607,1.374.979l9.453-2.619a1.838,1.838,0,0,0,1.481-2.1l-.947-3.416Z"/><path class="r" d="M428.114,372.14s-5.3,3.387-7.376,4.769a2,2,0,0,0-.387,3.18l13.541-3.75-1.383-4.991A4.906,4.906,0,0,1,428.114,372.14Z"/><path class="r" d="M401.234,289.74c.026-.352,2.686-.3,2.686-.3s-3.614-.847-3.566-1.218,3.684.28,3.684.28-3.8-1.423-3.677-1.778,3.789.788,3.789.788-3.489-1.655-3.235-1.983,4.9,1.424,4.9,1.424-2.3-1.622-2.257-1.969c.034-.242.651.076,1.656.511a13.9,13.9,0,0,1,3.234,2.006l-.622,2.99S401.208,290.092,401.234,289.74Z"/><path class="r" d="M411.539,268.9h1.813a8.042,8.042,0,0,0,8.019-8.019v-3.651a5.039,5.039,0,0,0-5.025-5.025H414.2a5.039,5.039,0,0,0-5.025,5.025v9.31A2.367,2.367,0,0,0,411.539,268.9Z"/><path class="r" d="M409.179,260.55s-3.163,4.013,0,4.013"/><path class="r" d="M416.211,261.457s-2.088-2.3-1.6-6.972c-4.054,0-5.132,1.042-5.132,1.042s-2.484-2.148.71-4.789,11.3-1.965,12.467,3.317.5,10.718-4.6,13.306A6.979,6.979,0,0,0,416.211,261.457Z"/><line class="r" x1="2.824" y2="1.922" transform="translate(413.927 260.176)"/><line class="r" x1="3.461" y2="3.586" transform="translate(414.769 263.257)"/><path class="r" d="M414.369,261.748h-5.948a4.085,4.085,0,0,0-.871,2.407c0,1.383,1.8,4.324,3.621,4.855a8.56,8.56,0,0,0,4.393-.425Z"/><path class="r" d="M415.362,261.386a1.923,1.923,0,1,0,2.6-1.582A2.185,2.185,0,0,0,415.362,261.386Z"/><rect class="s" width="230.358" height="85.02" transform="translate(270.964 302.797)"/><rect class="t" width="230.358" height="22.266" transform="translate(270.964 365.552)"/><path class="r" d="M323.62,311.066a13.637,13.637,0,0,1,.747,3.2c-.047.914-.359,2.711-.754,2.7s-.4-3.4-.646-3.548-1.45,1.843-1.5,2.3,1.207,3.6.864,3.7-1.6-1.385-2.262-3.2.889-4.58.889-4.58Z"/><path class="r" d="M365.877,303.845a15.183,15.183,0,0,0,3.326.746c.951-.038,2.826-.322,2.814-.7s-3.537-.415-3.69-.65,1.932-1.377,2.413-1.42,3.741,1.19,3.847.862-1.428-1.551-3.312-2.2-4.778.814-4.778.814Z"/><path class="r" d="M319.631,289.264s-3.178.268-2.05,6.156c.989,5.157,2.308,12.8,2.909,15.938a1.943,1.943,0,0,0,2.041,1.662h0a1.9,1.9,0,0,0,1.585-2.071c-.17-3.182-.669-10.916-1.009-16.151C322.72,288.827,319.631,289.264,319.631,289.264Z"/><path class="r" d="M343.371,271.359c-.166-.051-.334-.1-.5-.148a26.505,26.505,0,0,0-14.721,0c-.17.049-.34.1-.508.15a1.817,1.817,0,0,0-1.149,1.539c-.795,5.256-.045,22.4.232,28.062a1.747,1.747,0,0,0,1.516,1.837h14.533a1.748,1.748,0,0,0,1.516-1.837c.277-5.666,1.027-22.806.232-28.062A1.817,1.817,0,0,0,343.371,271.359Z"/><path class="r" d="M323.1,341.775l0-.115C322.987,341.386,323.076,341.761,323.1,341.775Z"/><path class="r" d="M348.544,310.587a32.231,32.231,0,0,0-.54-5.594l-.007-.036c-1.445-7.484-3.7-7.869-3.7-7.869H326.29s-1.768.9-3.212,8.383l-.188,1.384a60.311,60.311,0,0,0-.536,7.091c-.131,7.885-.058,21.562.747,27.829.1,5.8,1.953,28.025,1.953,28.025h7.434s1.353-25.674,1.164-29.038c0-.015-.005-.028-.006-.043.5-3.419,1.208-8.476,1.824-13.547.616,5.071,1.326,10.128,1.824,13.547,0,.015,0,.028-.005.043-.189,3.364,1.163,29.038,1.163,29.038h7.435s1.848-22.224,1.952-28.025C348.664,335.358,348.622,318.946,348.544,310.587Z"/><rect class="r" width="7.016" height="8.181" transform="translate(333.347 263.506)"/><path class="r" d="M329.218,260.452a1.592,1.592,0,1,0,1.557-1.927A1.772,1.772,0,0,0,329.218,260.452Z"/><path class="r" d="M341.41,260.452a1.593,1.593,0,1,0,1.557-1.927A1.772,1.772,0,0,0,341.41,260.452Z"/><path class="r" d="M336.748,267.6h.245a5.991,5.991,0,0,0,5.974-5.973v-5.134a4.939,4.939,0,0,0-4.924-4.924H335.7a4.938,4.938,0,0,0-4.924,4.924v5.134A5.991,5.991,0,0,0,336.748,267.6Z"/><path class="r" d="M328.214,272.264s-4.292-1.713-6,4.038c-1.5,5.037-3.916,12.417-4.827,15.477a2.389,2.389,0,0,0,1.764,2.677h0a2.551,2.551,0,0,0,3.188-.811c1.5-2.839,5.034-9.792,7.423-14.5C332.482,273.777,328.214,272.264,328.214,272.264Z"/><path class="r" d="M344.644,270.753s-4.514,1.065-2.342,6.672c1.9,4.909,4.515,12.227,5.671,15.21a2.533,2.533,0,0,0,3.073,1.151h0a2.413,2.413,0,0,0,2.067-2.468c-.545-3.14-1.994-10.751-2.977-15.9C349.015,269.541,344.644,270.753,344.644,270.753Z"/><path class="r" d="M348.3,289.838s-2.542,2.15,2.752,5.313c4.637,2.77,11.725,6.653,14.542,8.336a2.018,2.018,0,0,0,2.654-.33h0a1.837,1.837,0,0,0-.527-2.519c-2.565-2.022-8.857-6.875-13.116-10.157C349.741,286.735,348.3,289.838,348.3,289.838Z"/><path class="r" d="M333.347,269.813s-7.582,1.562-10.453,2.849-5.555,15.071-5.555,15.071l6.78,2.9-2.791,18.207a4.075,4.075,0,0,0,3.57,4.6,76.427,76.427,0,0,0,22.036-.15,4.1,4.1,0,0,0,3.439-4.28c-1.1-16.358-3.361-30.077-3.361-30.077l.854,11.632,6.567-2.408-2.724-15.6a4.928,4.928,0,0,0-3.822-2.754l-7.451-1.007A7.177,7.177,0,0,1,333.347,269.813Z"/><path class="r" d="M327.474,369.8s-9.23.006-9.23,4.972H332.7l-.209-4.972"/><path class="r" d="M343.466,369.8s9.231.006,9.231,4.972H338.243l.209-4.972"/><path class="r" d="M336.551,268.294a7.028,7.028,0,0,0,6.434-4.173c1.989-4.379,2.925-8.739-.694-12.214a8.042,8.042,0,0,0-10.515-.51c-1.824,1.751-3.472,4.173-2.648,8.809S333.171,268.294,336.551,268.294Z"/><rect class="r" width="54.178" height="98.515" transform="translate(250.62 266.843)"/><rect class="r" width="54.178" height="89.024" transform="translate(447.143 276.334)"/></g><rect class="l" width="413.889" height="16.984" transform="translate(117.547 385.334)"/><rect class="u" width="94.214" height="16.984" transform="translate(149.985 385.334)"/><rect class="d" width="107.056" height="16.6" transform="translate(143.564 402.318)"/><rect class="k" width="4.114" height="6.929" transform="translate(88.482 421.973)"/><rect class="k" width="4.114" height="6.929" transform="translate(125.074 421.973)"/><rect class="l" width="44.819" height="66.039" transform="translate(86.425 358.75)"/><rect class="k" width="40.056" height="61.275" transform="translate(88.807 361.132)"/><rect class="r" width="70.003" height="102.406" transform="translate(153.853 263.146)"/><path class="v" d="M164.684,297.153l24.262-7.313V265.578l-24.262,7.313Z"/><g class="w"><path class="c" d="M194.164,240.017V367.985l-34.7,10.593V250.611l37.108-10.594m3.2-6.887-45.924,12.31V385.466l45.924-12.311V233.13Z"/><path class="c" d="M154.993,315.845h0c0,1.582.681,2.661,1.521,2.408l40.6-12.182c.84-.253,1.521-1.74,1.521-3.322h0c0-1.582-.681-2.66-1.521-2.408l-40.6,12.183C155.674,312.776,154.993,314.263,154.993,315.845Z"/></g><path class="k" d="M83.615,206.63v29.365a68.569,68.569,0,0,0,53.528,0h0V206.63Z"/><path class="k" d="M244.2,206.63v29.365l-.628.267a66.965,66.965,0,0,1-52.271,0l-.629-.267V206.63"/><path class="k" d="M351.256,206.63v29.365h0a68.569,68.569,0,0,1-53.528,0h0V206.63"/><path class="k" d="M458.312,206.63v29.365h0a68.569,68.569,0,0,1-53.528,0h0V206.63"/><path class="k" d="M565.369,206.63v29.365h0a68.569,68.569,0,0,1-53.528,0h0V206.63"/><path class="p" d="M190.671,206.63v29.365h0a68.569,68.569,0,0,1-53.528,0h0V206.63"/><path class="p" d="M297.727,206.63v29.365h0a65.182,65.182,0,0,1-50.987,1.021l-2.541-1.021V206.63"/><path class="p" d="M404.784,206.63v29.365h0a68.569,68.569,0,0,1-53.528,0h0V206.63"/><path class="p" d="M511.84,206.63v29.365h0a68.569,68.569,0,0,1-53.528,0h0V206.63"/><path class="l" d="M83.615,206.63,122.141,151.3h44.967L137.143,206.63"/><path class="l" d="M511.84,206.63,481.876,151.3h44.967l38.526,55.325"/><path class="s" d="M137.143,206.63,167.108,151.3h44.967l-21.4,55.325"/><path class="l" d="M190.671,206.63l21.4-55.325h44.967L244.2,206.63"/><path class="s" d="M244.2,206.63,257.041,151.3h44.967l-4.281,55.325"/><path class="l" d="M297.728,206.63l4.281-55.325h44.967l4.281,55.325"/><path class="s" d="M351.256,206.63,346.975,151.3h44.967l12.842,55.325"/><path class="l" d="M404.784,206.63,391.942,151.3h44.967l21.4,55.325"/><path class="s" d="M458.312,206.63l-21.4-55.325h44.967L511.84,206.63"/><rect class="k" width="404.702" height="14.9" transform="translate(122.141 136.405)"/><rect class="v" width="63.935" height="63.935" rx="11.175" transform="translate(44.9 84.886)"/><rect class="k" width="404.702" height="14.9" transform="translate(122.141 82.832)"/></g><g transform="translate(2737.416 -2065.372)"><g transform="translate(401.831 355.894)"><path class="x" d="M198.61,159.967l.786-3.166q22.332-9.774,21.31-14.493-.819-3.782-16.639-4.318l.43-1.729q26.119-.534,27.177,4.355Q232.935,146.44,198.61,159.967Z" transform="translate(-187.643 -136.208)"/><path d="M76.144,157.745l-4.671,18.811q-5.235,2.291-11.754,4.859l5.887-23.706Q71.517,157.589,76.144,157.745Z" transform="translate(-59.72 -155.963)"/></g></g><g transform="translate(3088.1 -1809.886)"><ellipse class="y" cx="32.252" cy="7.673" rx="32.252" ry="7.673" transform="translate(198.01 434.727)"/><path class="z" d="M216.633,370.716a15.9,15.9,0,0,1,.809,3.609c-.051,1.03-.389,3.057-.817,3.04s-.436-3.834-.7-4-1.571,2.078-1.624,2.6,1.308,4.063.937,4.174-1.737-1.562-2.45-3.608.962-5.167.962-5.167Z"/><path class="z" d="M212.313,346.129s-3.442.3-2.219,6.942c1.07,5.816,2.5,14.44,3.149,17.973a2.127,2.127,0,0,0,2.21,1.875h0a2.125,2.125,0,0,0,1.717-2.335c-.184-3.588-.725-12.311-1.093-18.214C215.658,345.635,212.313,346.129,212.313,346.129Z"/><path class="z" d="M238.022,325.935c-.18-.056-.362-.112-.544-.166a27.6,27.6,0,0,0-15.941,0c-.185.055-.368.111-.551.168a2.042,2.042,0,0,0-1.244,1.736c-.861,5.928-.049,25.258.251,31.648.055,1.167.774,2.072,1.642,2.072h15.738c.868,0,1.587-.9,1.642-2.072.3-6.39,1.113-25.72.251-31.648A2.04,2.04,0,0,0,238.022,325.935Z"/><path class="aa" d="M216.071,405.348c0-.043,0-.088,0-.129C215.948,404.909,216.044,405.332,216.071,405.348Z"/><path class="m" d="M243.623,370.175a37.789,37.789,0,0,0-.584-6.308l-.007-.04c-1.565-8.441-4.009-8.875-4.009-8.875h-19.5s-1.914,1.013-3.479,9.454l-.2,1.56a70.615,70.615,0,0,0-.581,8c-.142,8.893-.063,24.317.809,31.385.114,6.543,2.115,31.605,2.115,31.605h8.051S227.7,408,227.5,404.2c0-.017,0-.031-.006-.048.539-3.856,1.308-9.559,1.975-15.278.667,5.719,1.436,11.422,1.975,15.278,0,.017,0,.031-.006.048-.205,3.794,1.26,32.748,1.26,32.748h8.051s2-25.063,2.115-31.605C243.754,398.111,243.709,379.6,243.623,370.175Z"/><rect class="z" width="7.598" height="9.226" transform="translate(227.166 317.079)"/><path class="z" d="M222.7,313.635a1.741,1.741,0,1,0,1.686-2.173A1.977,1.977,0,0,0,222.7,313.635Z"/><path class="z" d="M235.9,313.635a1.74,1.74,0,1,0,1.685-2.173A1.976,1.976,0,0,0,235.9,313.635Z"/><path class="z" d="M230.983,321.692h0a6.62,6.62,0,0,0,6.6-6.6v-6.037a5.456,5.456,0,0,0-5.441-5.441h-2.32a5.457,5.457,0,0,0-5.442,5.441v6.037A6.621,6.621,0,0,0,230.983,321.692Z"/><path class="z" d="M221.608,326.956s-4.648-1.931-6.5,4.555c-1.625,5.68-4.241,14-5.228,17.454a2.7,2.7,0,0,0,1.911,3.018h0a2.7,2.7,0,0,0,3.453-.914c1.624-3.2,5.451-11.043,8.038-16.351C226.23,328.662,221.608,326.956,221.608,326.956Z"/><path class="z" d="M231.886,330.135s1.921,4.653,7.819,1.378c5.165-2.868,12.9-6.9,16.039-8.645a2.7,2.7,0,0,0,.783-3.485h0a2.7,2.7,0,0,0-3.088-1.8c-3.412,1.116-11.663,3.955-17.246,5.879C229.824,325.661,231.886,330.135,231.886,330.135Z"/><path class="z" d="M256.1,322.176s2.864-2.293-2.7-6.125c-4.869-3.355-12.332-8.088-15.291-10.127a2.123,2.123,0,0,0-2.887.237h0a2.125,2.125,0,0,0,.437,2.865c2.667,2.407,9.217,8.193,13.652,12.107C254.371,325.6,256.1,322.176,256.1,322.176Z"/><path class="k" d="M227.166,324.192s-8.21,1.762-11.319,3.213-6.016,17-6.016,17l7.342,3.271-3.022,20.534a4.57,4.57,0,0,0,3.891,5.194,79.5,79.5,0,0,0,23.839-.173,4.556,4.556,0,0,0,3.725-4.8c-1.193-18.459-3.642-33.946-3.642-33.946l7.67-3.864-3.271-10.645-11.52,3.072A7.542,7.542,0,0,1,227.166,324.192Z"/><path class="m" d="M220.806,436.953s-9.995.007-9.995,5.608h15.652l-.226-5.608"/><path class="m" d="M238.125,436.953s10,.007,10,5.608H232.469l.226-5.608"/><path class="m" d="M230.636,322.479a7.554,7.554,0,0,0,6.968-4.706c2.153-4.938,3.167-9.855-.752-13.774a8.451,8.451,0,0,0-11.387-.576c-1.975,1.975-3.76,4.706-2.868,9.935S226.976,322.479,230.636,322.479Z"/></g><g transform="translate(3056.1 -1809.886)"><ellipse class="y" cx="32.252" cy="7.673" rx="32.252" ry="7.673" transform="translate(312.852 434.727)"/><path class="z" d="M348.628,378c1.367-8.466-4.61-10.314-4.61-10.314s-6.124-3.563-7.9,4.775c-1.365,6.4-2.591,25.982-3.157,33.954a4.689,4.689,0,0,0,2.892,4.9h0c1.816.562,3.656-.58,4.31-2.675C342.477,401.213,347.579,384.495,348.628,378Z"/><path class="z" d="M340.369,408.005a3.651,3.651,0,0,0-7.183-1.3c-.8,3.487-3.775,30.674-3.775,30.674l4.434.8S339.9,411.553,340.369,408.005Z"/><path class="z" d="M329.66,437.277s-7.839,3.5-8.769,3.947-1.317,1.337,1.085,1.337h10.009a1.874,1.874,0,0,0,2.029-1.667v-3.617Z"/><path class="z" d="M363.439,375.424c-.163-8.573-6.373-9.328-6.373-9.328s-6.211-.754-6.477,7.767c-.2,6.539,1.627,24.368,2.491,32.314a4.687,4.687,0,0,0,3.718,4.309h0c1.887.23,3.495-1.222,3.765-3.4C361.521,399.362,363.564,382,363.439,375.424Z"/><path class="z" d="M360.656,406.421a3.651,3.651,0,0,0-7.3,0c-.17,3.574,1.749,30.856,1.749,30.856h4.5S360.826,409.995,360.656,406.421Z"/><path class="z" d="M353.155,332.1a12.653,12.653,0,0,1,10.55,2.938c4.13,3.733,10.369,9.084,12.879,11.352a2.545,2.545,0,0,1-.023,3.366h0a2.544,2.544,0,0,1-3.217.99c-2.894-1.751-9.863-6.114-14.577-9.07A12.693,12.693,0,0,1,353.155,332.1Z"/><path class="z" d="M357.477,332.672q-.255-.081-.513-.157a26.011,26.011,0,0,0-15.02,0q-.261.078-.519.159a1.922,1.922,0,0,0-1.172,1.635c-.812,5.586-.046,23.8.237,29.82.052,1.1.729,1.952,1.547,1.952h14.828c.819,0,1.5-.852,1.548-1.952.283-6.021,1.048-24.234.236-29.82A1.92,1.92,0,0,0,357.477,332.672Z"/><path class="z" d="M362.709,370.736c-1.475-7.953-4.288-10.724-4.288-10.724H340.309s-2.676,3.831-4.151,11.785a2.9,2.9,0,0,0,1.3,2.965,24.126,24.126,0,0,0,23.544,0A5.071,5.071,0,0,0,362.709,370.736Z"/><rect class="z" width="7.159" height="8.693" transform="translate(347.248 324.327)"/><path class="z" d="M354.2,327.318s-2.074,2.631-6.956,2.631v-3.738Z"/><path class="z" d="M343.035,321.082a1.64,1.64,0,1,0,1.589-2.048A1.863,1.863,0,0,0,343.035,321.082Z"/><path class="z" d="M355.476,321.082a1.64,1.64,0,1,0,1.589-2.048A1.863,1.863,0,0,0,355.476,321.082Z"/><path class="z" d="M350.844,328.674h0a6.239,6.239,0,0,0,6.221-6.221v-5.687a5.144,5.144,0,0,0-5.128-5.128h-2.186a5.143,5.143,0,0,0-5.127,5.128v5.687A6.239,6.239,0,0,0,350.844,328.674Z"/><path class="z" d="M343.339,332.139s-6.965.439-7.23,6.789c-.232,5.562-.789,13.763-.93,17.143a2.543,2.543,0,0,0,2.417,2.342h0a2.543,2.543,0,0,0,2.961-1.6c.78-3.291,2.551-11.32,3.748-16.754C345.669,333.86,343.339,332.139,343.339,332.139Z"/><path class="z" d="M338.483,353.282s-2.965-1.344-5.033,4.673c-1.81,5.269-4.375,14.115-5.475,17.317-.368,1.069-.2,1.078.7,1.455h0a2,2,0,0,0,2.489-1.122c1.508-3.032,5.1-10.442,7.526-15.459C341.457,354.424,338.483,353.282,338.483,353.282Z"/><path class="z" d="M376.9,347.119s1.884,2.655-3.629,5.831c-4.828,2.781-11.89,7.02-14.823,8.71a2,2,0,0,1-2.7-.442h0a2,2,0,0,1,.628-2.657c2.688-2.058,9.279-6.995,13.741-10.334C375.213,344.417,376.9,347.119,376.9,347.119Z"/><path class="m" d="M359.315,342.023s-9.845-2.677-19.42-.344c-3.038,2.155-.441,9.33-.441,9.33v9s-4.477,9.344-7.074,33.88-3.94,41.73-3.94,41.73l8.417,1.655,12.377-59.448,3.458,58.868h8.344s1.056-27.671,2.408-40.566,3.144-27.308-4.11-37.116A108.577,108.577,0,0,1,359.315,342.023Z"/><path class="ab" d="M326.768,438.571l.056.061c.248.284,1.2,1.479.132,2-1.218.593-2.291-1.118-2.291-1.118s-3.486,1.243-4.3,1.555-.53,1.492-.53,1.492h14.177a4.676,4.676,0,0,0,0-3.99c-2.031,0-4.6,1.686-4.6,1.686l-1.647-2.132"/><path class="z" d="M355.233,437.277s-7.839,3.5-8.769,3.947-1.317,1.337,1.085,1.337h10.009a1.874,1.874,0,0,0,2.029-1.667v-3.617Z"/><path class="ab" d="M352.341,438.571s.021.022.055.061c.249.284,1.2,1.479.133,2-1.218.593-2.291-1.118-2.291-1.118s-3.486,1.243-4.3,1.555-.531,1.492-.531,1.492h14.178a4.676,4.676,0,0,0,0-3.99c-2.031,0-4.6,1.686-4.6,1.686l-1.648-2.132"/><path class="m" d="M344.624,320.826a7.511,7.511,0,0,1-.406-6.689c1.576-3.613-.923-4.959,3.306-8.342s15.507,3.422,9.541,15.031c-.469-4.152-4.544-.922-7.081-6.842A5.5,5.5,0,0,0,344.624,320.826Z"/><path class="z" d="M330.757,375.272a14.982,14.982,0,0,1,0,3.484c-.26.937-.988,2.731-1.378,2.627s.39-3.615.182-3.823-1.873,1.587-2.029,2.055.365,4.005,0,4.031-1.274-1.795-1.508-3.823,1.951-4.551,1.951-4.551Z"/><path class="z" d="M358.2,363.732c-.287-.217,1.23-2.468,1.23-2.468s-2.726,2.63-3.017,2.383,2.278-3,2.278-3-3.321,2.47-3.559,2.169S357.9,360,357.9,360s-3.349,2.076-3.49,1.677,3.931-3.413,3.931-3.413-2.667,1.079-2.937.846c-.189-.162.425-.516,1.354-1.137a13.618,13.618,0,0,1,2.19-1.175,2.06,2.06,0,0,1,2.255.433h0a2.068,2.068,0,0,1,.2,2.72C360.2,361.549,358.387,363.875,358.2,363.732Z"/><path class="v" d="M347.059,321.406h7.763l.952,4.569a5.852,5.852,0,0,1-10.184.076Z"/><line class="ac" x2="3.625" y2="2.867" transform="translate(344.102 319.208)"/><line class="ac" x1="3.625" y2="2.867" transform="translate(353.961 319.208)"/></g></g></g></svg>