<svg xmlns="http://www.w3.org/2000/svg" width="93.999" height="93.999" viewBox="0 0 93.999 93.999"><defs><style>.a{fill:#fff;}</style></defs><g transform="translate(0 0.001)"><g transform="translate(0 -0.001)"><path class="a" d="M81.4,47.642l5.332-5.332A24.782,24.782,0,1,0,51.688,7.263L7.264,51.687A24.782,24.782,0,0,0,42.311,86.734L47.643,81.4A24.778,24.778,0,1,0,81.4,47.642ZM44.43,69.211a24.728,24.728,0,0,0,.92,6.7L38.417,82.84A19.275,19.275,0,0,1,11.158,55.582l20.1-20.1L49.708,53.938A24.66,24.66,0,0,0,44.43,69.211ZM66.458,88.288a19.275,19.275,0,0,1,0-38.155ZM53.566,50.007,35.149,31.591,55.582,11.158A19.275,19.275,0,0,1,82.841,38.416l-6.933,6.933a24.759,24.759,0,0,0-22.342,4.658Zm18.4,38.281V50.134a19.275,19.275,0,0,1,0,38.155Z" transform="translate(0 0.001)"/></g></g></svg>