<svg xmlns="http://www.w3.org/2000/svg" width="102.782" height="98.825" viewBox="0 0 102.782 98.825"><defs><style>.a{fill:#fff;}</style></defs><path class="a" d="M100.8,104.725H94.886v-51.7a7.928,7.928,0,0,0,5.979-7.676V41.524c0-.045.005-.089.005-.136a1.967,1.967,0,0,0-.361-1.14l-5.623-9.232V17.779A1.978,1.978,0,0,0,92.908,15.8H86.763A7.925,7.925,0,0,0,79.1,9.858H23.79A7.924,7.924,0,0,0,16.126,15.8H9.875A1.978,1.978,0,0,0,7.9,17.779V31.016l-5.69,9.341a1.978,1.978,0,0,0-.279.846,1.824,1.824,0,0,0-.01.2v3.941A7.928,7.928,0,0,0,7.9,53.022v51.7H1.979a1.979,1.979,0,0,0,0,3.958H100.8a1.979,1.979,0,0,0,0-3.958Zm-3.9-59.379A3.963,3.963,0,0,1,92.949,49.3h-.042a3.964,3.964,0,0,1-3.916-3.958V43.384h7.916v1.962ZM21.719,33.554h5.962l-1.526,5.855H18.926Zm16.457,0-.435,5.855h-7.5l1.524-5.855Zm43.05,0,2.793,5.855H76.791l-1.526-5.855Zm-10.051,0L72.7,39.409H65.2l-.435-5.855Zm-10.377,0,.435,5.855H53.452V33.554Zm-11.3,5.855H41.712l.435-5.855h7.347v5.855ZM17.749,43.384h7.916v1.962a3.958,3.958,0,1,1-7.916,0Zm11.874,0h7.916v1.962a3.958,3.958,0,1,1-7.916,0V43.384Zm11.874,0h7.916v1.962a3.958,3.958,0,0,1-7.916,0V43.384Zm11.874,0h7.916v1.962a3.958,3.958,0,0,1-7.916,0Zm11.874,0H73.16v1.962a3.958,3.958,0,1,1-7.916,0Zm11.874,0h7.916v1.962a3.958,3.958,0,1,1-7.916,0Zm18.246-3.975H88.405l-2.793-5.855H91.8ZM23.79,13.816H79.1a3.963,3.963,0,0,1,0,7.926H23.79a3.963,3.963,0,0,1,0-7.926ZM11.854,19.758h4.27A7.925,7.925,0,0,0,23.79,25.7H79.1a7.924,7.924,0,0,0,7.664-5.942h4.168V29.6H11.854Zm-.891,13.833.022-.037h6.348L14.54,39.409H7.419ZM5.875,45.346V43.384h7.916v1.962A3.964,3.964,0,0,1,9.86,49.3H9.833A3.963,3.963,0,0,1,5.875,45.346Zm57.2,59.379V63.258H83.055v41.467H63.079ZM85.034,59.3H61.1a1.978,1.978,0,0,0-1.979,1.979v43.446H11.854V53a7.946,7.946,0,0,0,3.916-2.422,7.908,7.908,0,0,0,11.874,0,7.908,7.908,0,0,0,11.874,0,7.908,7.908,0,0,0,11.874,0,7.908,7.908,0,0,0,11.874,0,7.908,7.908,0,0,0,11.874,0,7.908,7.908,0,0,0,11.874,0A7.945,7.945,0,0,0,90.929,53v51.725H87.013V61.279A1.978,1.978,0,0,0,85.034,59.3Z" transform="translate(0 -9.858)"/><path class="a" d="M327.084,364.537a1.976,1.976,0,1,0,1.4.579A1.99,1.99,0,0,0,327.084,364.537Z" transform="translate(-259.841 -293.336)"/><path class="a" d="M116.174,256.148H80.634a1.98,1.98,0,0,0-1.979,1.979v31.654a1.98,1.98,0,0,0,1.979,1.979h35.54a1.978,1.978,0,0,0,1.979-1.979V258.127A1.978,1.978,0,0,0,116.174,256.148ZM114.195,287.8H82.613v-27.7h31.582Z" transform="translate(-62.865 -206.706)"/></svg>