<svg xmlns="http://www.w3.org/2000/svg" width="55.855" height="76.782" viewBox="0 0 77.855 102.782"><defs><style>.a{fill:#fff;}</style></defs><g transform="translate(10.407 84.288)"><path class="a" d="M123.835,419.871h-8.422a1.484,1.484,0,1,0,0,2.967h8.422a1.484,1.484,0,1,0,0-2.967Z" transform="translate(-113.929 -419.871)"/></g><g transform="translate(31.227 82.956)"><path class="a" d="M230.373,413.235H219.126a1.484,1.484,0,1,0,0,2.967h11.248a1.484,1.484,0,1,0,0-2.967Z" transform="translate(-217.642 -413.235)"/></g><g transform="translate(31.227 87.609)"><path class="a" d="M230.373,436.414H219.126a1.484,1.484,0,1,0,0,2.967h11.248a1.484,1.484,0,1,0,0-2.967Z" transform="translate(-217.642 -436.414)"/></g><g transform="translate(52.074 86.296)"><path class="a" d="M338.525,429.873H322.97a1.484,1.484,0,0,0,0,2.967h15.555a1.484,1.484,0,0,0,0-2.967Z" transform="translate(-321.486 -429.873)"/></g><g transform="translate(9.551 59.047)"><path class="a" d="M116.216,294.137a6.551,6.551,0,1,0,6.551,6.551A6.558,6.558,0,0,0,116.216,294.137Zm0,10.134a3.583,3.583,0,1,1,3.583-3.583A3.587,3.587,0,0,1,116.216,304.271Z" transform="translate(-109.665 -294.137)"/></g><g transform="translate(28.887 37.525)"><path class="a" d="M222.515,188.371a18.094,18.094,0,0,0-14.162-.005,3.889,3.889,0,0,0-2.365,3.728l.118,2.86a2.115,2.115,0,0,0,3.276,1.68,10.473,10.473,0,0,1,12.1.005,2.115,2.115,0,0,0,3.277-1.679l.118-2.862A3.889,3.889,0,0,0,222.515,188.371Zm-.662,5.04a13.259,13.259,0,0,0-12.84-.005l-.059-1.434a.908.908,0,0,1,.551-.871,14.948,14.948,0,0,1,11.857,0,.908.908,0,0,1,.55.871Z" transform="translate(-205.986 -186.925)"/></g><g transform="translate(29.99 52.326)"><path class="a" d="M227.467,261.389a2.428,2.428,0,0,0-1.746-.733h-11.8a2.447,2.447,0,0,0-2.447,2.492l.165,9.02a2.459,2.459,0,0,0,2.447,2.4h11.465a2.459,2.459,0,0,0,2.447-2.4l.165-9.02A2.428,2.428,0,0,0,227.467,261.389ZM225.044,271.6H214.6l-.146-7.979h10.736Z" transform="translate(-211.478 -260.656)"/></g><g transform="translate(52.353 69.398)"><path class="a" d="M331.86,345.7c-5.037,0-8.982,2.91-8.982,6.624s3.945,6.624,8.982,6.624,8.982-2.91,8.982-6.624S336.9,345.7,331.86,345.7Zm0,10.28c-3.26,0-6.014-1.674-6.014-3.656s2.754-3.656,6.014-3.656,6.014,1.674,6.014,3.656S335.12,355.978,331.86,355.978Z" transform="translate(-322.878 -345.698)"/></g><g transform="translate(0)"><path class="a" d="M137.472,46.674l-6.559-5.222a16.619,16.619,0,0,0,.612-5.086,29.988,29.988,0,0,0-1.444-9.086,2.285,2.285,0,0,0,.676-1.623V16.83a2.294,2.294,0,0,0-2.292-2.292H118.377a2.294,2.294,0,0,0-2.292,2.292v8.827a2.284,2.284,0,0,0,.676,1.623,29.988,29.988,0,0,0-1.444,9.086,16.624,16.624,0,0,0,.612,5.086l-1.226.976.121-6.943a4.665,4.665,0,0,0-1.31-3.408l-5.736-5.9a3.182,3.182,0,0,1-.9-2.229v-2.47A2.294,2.294,0,0,0,107.406,20V2.305A2.307,2.307,0,0,0,105.1,0h-9.36a2.308,2.308,0,0,0-2.305,2.305V20a2.294,2.294,0,0,0,.533,1.472v2.47a3.183,3.183,0,0,1-.9,2.229l-5.736,5.9a4.665,4.665,0,0,0-1.31,3.409l.2,11.575a4.632,4.632,0,0,1-2.742-3.948,2.249,2.249,0,0,0,1.043-1.9V33.681a2.253,2.253,0,0,0-2.251-2.251H74.1a2.253,2.253,0,0,0-2.251,2.251v7.535a2.249,2.249,0,0,0,1.043,1.9,4.63,4.63,0,0,1-4.044,4.312h0a7.723,7.723,0,0,0-6.766,7.654v4.638a1.484,1.484,0,0,0,2.967,0V55.079A4.752,4.752,0,0,1,69.2,50.372c.145-.011.517-.021,1.058-.03h.005l.426-.006.157,0h.341c3.484-.036,10.511-.036,14,0l.172,0h.085l.128,0h.113l.594.009.08,4.609H69.692A3.449,3.449,0,0,0,66.247,58.4V89A2.9,2.9,0,0,0,69.14,91.9H86.97a.329.329,0,0,1-.106.17,2.788,2.788,0,0,0-1.15,2.335l.131,4.845a3.71,3.71,0,0,0,.063.568H66.315a1.262,1.262,0,0,1-1.26-1.26V66.627a1.484,1.484,0,1,0-2.967,0V98.554a4.233,4.233,0,0,0,4.228,4.228H135.46a4.486,4.486,0,0,0,4.481-4.481V51.795A6.514,6.514,0,0,0,137.472,46.674ZM74.822,34.4h6.732v6.1H74.822V34.4Zm1.436,12.939h-.011l-1.844.006H74.39a7.569,7.569,0,0,0,1.462-3.876h4.673a7.569,7.569,0,0,0,1.462,3.876C80.188,47.335,78.168,47.333,76.258,47.337ZM69.214,58.4a.478.478,0,0,1,.477-.477H86.409l.268,15.418H69.214Zm0,17.908H86.729l.041,2.352H69.214Zm0,12.622h0v-7.3H86.821l.127,7.3H69.214ZM96.4,2.968h8.034V5.26H96.4Zm0,5.26h8.034V19.34H96.4ZM112.03,99.167a.663.663,0,0,1-.666.648H89.478a.663.663,0,0,1-.666-.648l-.128-4.755a3.377,3.377,0,0,0,1.28-2.742l-.978-56.252s0-.032,0-.035a1.685,1.685,0,0,1,.473-1.238l5.736-5.9a6.135,6.135,0,0,0,1.743-4.3V22.307h6.969v1.637a6.134,6.134,0,0,0,1.743,4.3l5.736,5.9a1.685,1.685,0,0,1,.473,1.238v.035l-.978,56.252a3.377,3.377,0,0,0,1.28,2.742Zm7.023-81.661h8.737v2.283h-8.737Zm0,5.034h8.737v2.442h-8.737Zm.611,5.41h7.515a27.173,27.173,0,0,1,1.306,6.476H118.358A27.164,27.164,0,0,1,119.664,27.949Zm15.8,71.866H114.933a3.714,3.714,0,0,0,.063-.568l.074-2.757h21.9V98.3h0A1.515,1.515,0,0,1,135.46,99.815Zm1.514-46.493H123.967a1.484,1.484,0,1,0,0,2.967h13.007V93.522H115.006a2.782,2.782,0,0,0-1.029-1.456.43.43,0,0,1-.132-.345l.432-24.863a2.65,2.65,0,0,0,2.942.535,14.292,14.292,0,0,1,12.4,0h0a2.658,2.658,0,0,0,3.367-1.077l1.143-1.928a2.666,2.666,0,0,0-1.176-3.778,21.75,21.75,0,0,0-18.566-.226l.071-4.1H117a1.484,1.484,0,0,0,0-2.967h-2.491l.122-7.047,4.06-3.233a1.484,1.484,0,0,0,.224-2.1,8.558,8.558,0,0,1-.616-3.547h10.235a8.559,8.559,0,0,1-.616,3.547,1.484,1.484,0,0,0,.224,2.1L135.624,49a3.561,3.561,0,0,1,1.35,2.8Zm-6.4,11.249a17.223,17.223,0,0,0-14.308,0l-.833-1.4a18.887,18.887,0,0,1,15.974,0Z" transform="translate(-62.086)"/></g></svg>