<svg xmlns="http://www.w3.org/2000/svg" width="33.412" height="53.459" viewBox="0 0 33.412 53.459"><defs><style>.a{fill:#d20400;}</style></defs><path class="a" d="M25.061,1.928A16.706,16.706,0,0,0,8.355,18.634c0,16.706,16.706,36.753,16.706,36.753S41.767,35.34,41.767,18.634A16.706,16.706,0,0,0,25.061,1.928Zm0,26.938A10.232,10.232,0,1,1,35.293,18.634,10.232,10.232,0,0,1,25.061,28.866ZM18.587,18.634a6.474,6.474,0,1,1,6.474,6.474A6.474,6.474,0,0,1,18.587,18.634Z" transform="translate(-8.355 -1.928)"/></svg>