<svg xmlns="http://www.w3.org/2000/svg" xmlns:xlink="http://www.w3.org/1999/xlink" width="431.72" height="386.099" viewBox="0 0 431.72 386.099"><defs><style>.a,.ac{fill:none;}.b{fill:#fff;}.c{fill:#ffcf6b;}.d{fill:#263238;}.e{fill:#898989;}.f{fill:#f9a531;}.g{fill:#5c8bc6;}.h{fill:#f57e2a;}.i{fill:#e05d00;}.j{fill:#40649f;}.k{fill:#6fa1d8;}.l{fill:#9e1117;}.m{fill:#c7161d;}.n{fill:#1c344d;}.o{fill:#f7f7ff;}.p{fill:#ebebeb;}.q{fill:#e9e4f2;}.r{clip-path:url(#a);}.s{fill:#cec7dd;}.t{fill:#f2f0f7;}.u{fill:#b0a8c6;}.v{fill:#b6b6b6;}.w{clip-path:url(#b);}.x{fill:url(#c);}.y{fill:#8e7d7e;}.z{fill:#f26b51;}.aa{fill:#4ea2e5;}.ab{fill:#d20400;}.ac{stroke:#fff;stroke-miterlimit:10;stroke-width:0.494px;}</style><clipPath id="a"><rect class="a" width="144.208" height="63.269"/></clipPath><clipPath id="b"><path class="a" d="M209.588,245.308H153.853v90.245l55.734.085Z" transform="translate(-153.853 -245.308)"/></clipPath><linearGradient id="c" y1="0.5" x2="1" y2="0.5" gradientUnits="objectBoundingBox"><stop offset="0"/><stop offset="0.029" stop-color="#170000"/><stop offset="0.097" stop-color="#470100"/><stop offset="0.17" stop-color="#730200"/><stop offset="0.246" stop-color="#980300"/><stop offset="0.328" stop-color="#b80400"/><stop offset="0.417" stop-color="#d20400"/><stop offset="0.514" stop-color="#e60500"/><stop offset="0.625" stop-color="#f40500"/><stop offset="0.762" stop-color="#fc0500"/><stop offset="1" stop-color="#ff0601"/></linearGradient></defs><path class="b" d="M936.55,332.887c-4.936-10.769-9.555-21.922-11.863-34.015-7.389-38.72,1.082-85.591-33.578-113.335a81.454,81.454,0,0,0-57.863-17.3c-20.105,1.892-39.109,11.486-59.416,11.625-22.668.153-44.2-10.922-67.048-11.306-32.9-.549-65.634,16.862-82.174,45.552-9.038,15.675-11.447,35.567-23.424,49.542-12.4,14.477-33.342,21.119-47.908,34.069-32.01,28.46-45.047,77.217-15.408,112.239,15.8,18.668,39.865,29.036,53.987,49.209C603.1,475.229,603.3,496.105,611.22,513.77c22.007,49.1,96.588,46.885,137.9,26.952,13.39-6.458,23.048-12.738,38.49-12.463,14.973.265,29.311,5.923,44.371,5.653,30.966-.552,38.1-25.372,49.5-49.567,14.657-31.1,53.328-37.5,66.684-68.362C959.853,388.977,947.992,357.846,936.55,332.887Z" transform="translate(-521.256 -167.891)"/><g transform="translate(1.289 12.269)"><g transform="translate(0 0)"><g transform="translate(0 0)"><circle class="c" cx="11.454" cy="11.454" r="11.454" transform="translate(367.571 28.114)"/><ellipse class="c" cx="8.33" cy="7.81" rx="8.33" ry="7.81" transform="translate(215.545)"/><ellipse class="c" cx="8.851" cy="8.33" rx="8.851" ry="8.33" transform="translate(0 98.921)"/><ellipse class="c" cx="7.81" cy="8.33" rx="7.81" ry="8.33" transform="translate(116.624 321.753)"/><ellipse class="c" cx="6.248" cy="6.248" rx="6.248" ry="6.248" transform="translate(20.825 59.353)"/><ellipse class="c" cx="5.206" cy="5.206" rx="5.206" ry="5.206" transform="translate(381.108 134.324)"/><ellipse class="c" cx="6.248" cy="6.248" rx="6.248" ry="6.248" transform="translate(321.755 308.216)"/><ellipse class="c" cx="3.124" cy="3.124" rx="3.124" ry="3.124" transform="translate(371.736 97.88)"/><ellipse class="c" cx="2.603" cy="2.603" rx="2.603" ry="2.603" transform="translate(4.165 229.08)"/></g></g><g transform="translate(21.352 41.613)"><g transform="translate(0 0)"><g transform="translate(210.277 12.657)"><g transform="translate(127.058 111.547)"><path class="d" d="M569.732,281.2q-.23,0-.463,0a.967.967,0,0,1-.954-1.007v-.013a.969.969,0,0,1,.991-.922c17.782.263,21.16-14.913,21.735-18.834a.96.96,0,0,1,1.029-.814h0a.963.963,0,0,1,.875,1.117C592.249,265.021,588.38,281.2,569.732,281.2Z" transform="translate(-568.315 -259.603)"/></g><path class="e" d="M553.359,415.6c0,.877,4.769,1.589,10.65,1.589s10.651-.712,10.651-1.589-4.769-1.589-10.651-1.589S553.359,414.722,553.359,415.6Z" transform="translate(-435.939 -202.949)"/><ellipse class="f" cx="50.964" cy="50.964" rx="50.964" ry="50.964" transform="translate(69.601 23.576) rotate(-9.217)"/><ellipse class="g" cx="15.391" cy="15.391" rx="15.391" ry="15.391" transform="translate(66.071 77.797) rotate(-9.217)"/><ellipse class="g" cx="15.391" cy="15.391" rx="15.391" ry="15.391" transform="translate(80.921 87.112) rotate(-0.623)"/><ellipse class="h" cx="15.391" cy="15.391" rx="15.391" ry="15.391" transform="translate(98.462 92.891)"/><ellipse class="h" cx="15.391" cy="15.391" rx="15.391" ry="15.391" transform="translate(134.741 97.244) rotate(-9.217)"/><ellipse class="h" cx="15.391" cy="15.391" rx="15.391" ry="15.391" transform="translate(163.505 56.85)"/><circle class="h" cx="15.391" cy="15.391" r="15.391" transform="translate(140.527 7.912)"/><circle class="f" cx="15.391" cy="15.391" r="15.391" transform="translate(85.63 7.912)"/><ellipse class="g" cx="15.391" cy="15.391" rx="15.391" ry="15.391" transform="translate(68.337 33.066)"/><ellipse class="h" cx="16.387" cy="16.387" rx="16.387" ry="16.387" transform="translate(91.083 7.349) rotate(-12.856)"/><circle class="g" cx="8.751" cy="8.751" r="8.751" transform="translate(0 110.732) rotate(-43.117)"/><ellipse class="g" cx="7.364" cy="7.364" rx="7.364" ry="7.364" transform="translate(70.275 58.355)"/><ellipse class="g" cx="7.364" cy="7.364" rx="7.364" ry="7.364" transform="translate(67.38 69.913) rotate(-0.729)"/><ellipse class="g" cx="7.364" cy="7.364" rx="7.364" ry="7.364" transform="translate(79.207 22.525)"/><ellipse class="f" cx="7.364" cy="7.364" rx="7.364" ry="7.364" transform="translate(116.552 6.82) rotate(-8.49)"/><circle class="f" cx="9.297" cy="9.297" r="9.297" transform="translate(124.214 2.325)"/><circle class="f" cx="7.364" cy="7.364" r="7.364" transform="translate(133.436 13.212) rotate(-39.806)"/><circle class="f" cx="8.564" cy="8.564" r="8.564" transform="translate(161.767 34.79) rotate(-53.122)"/><ellipse class="h" cx="7.364" cy="7.364" rx="7.364" ry="7.364" transform="translate(165.547 36.206) rotate(-9.528)"/><ellipse class="h" cx="7.364" cy="7.364" rx="7.364" ry="7.364" transform="translate(172.723 81.566)"/><ellipse class="h" cx="7.364" cy="7.364" rx="7.364" ry="7.364" transform="translate(168.811 92.521) rotate(-13.783)"/><ellipse class="h" cx="7.364" cy="7.364" rx="7.364" ry="7.364" transform="translate(163.602 96.717)"/><ellipse class="h" cx="7.364" cy="7.364" rx="7.364" ry="7.364" transform="translate(130.335 122.694) rotate(-67.295)"/><ellipse class="h" cx="7.364" cy="7.364" rx="7.364" ry="7.364" transform="translate(121.024 111.379)"/><ellipse class="h" cx="7.364" cy="7.364" rx="7.364" ry="7.364" transform="translate(162.879 89.432) rotate(-13.283)"/><ellipse class="h" cx="7.364" cy="7.364" rx="7.364" ry="7.364" transform="translate(172.727 43.349)"/><g transform="translate(63.955 0)"><g transform="translate(127.713 66.638)"><path class="i" d="M669.976,191.334c-1.344,1.344-1.812,3.054-1.045,3.821s2.477.3,3.821-1.045,1.812-3.054,1.045-3.821S671.319,189.991,669.976,191.334Z" transform="translate(-668.563 -189.921)"/></g><g transform="translate(46.911 120.227)"><path class="i" d="M547.364,274.11c-1.513-1.149-3.271-1.381-3.927-.518s.039,2.495,1.553,3.644,3.271,1.381,3.928.518S548.877,275.259,547.364,274.11Z" transform="translate(-543.19 -273.07)"/></g><g transform="translate(104.763 19.18)"><path class="i" d="M634.367,117.7c-1.343,1.344-1.811,3.054-1.045,3.821s2.477.3,3.821-1.045,1.811-3.054,1.045-3.821S635.71,116.355,634.367,117.7Z" transform="translate(-632.953 -116.285)"/></g><g transform="translate(104.146 23.303)"><path class="i" d="M635.161,122.734c-1.884.249-3.3,1.321-3.155,2.4s1.784,1.745,3.668,1.5,3.3-1.321,3.155-2.4S637.045,122.485,635.161,122.734Z" transform="translate(-631.997 -122.682)"/></g><g transform="translate(8.081 32.893)"><path class="j" d="M484.354,141.752c1.344,1.343,3.054,1.811,3.821,1.045s.3-2.477-1.045-3.821-3.054-1.811-3.821-1.045S483.011,140.408,484.354,141.752Z" transform="translate(-482.941 -137.562)"/></g><g transform="translate(11.749 29.851)"><path class="j" d="M488.685,136.519c.248,1.884,1.321,3.3,2.4,3.155s1.745-1.784,1.5-3.668-1.321-3.3-2.4-3.154S488.436,134.635,488.685,136.519Z" transform="translate(-488.633 -132.842)"/></g><g transform="translate(22.616 9.595)"><path class="j" d="M505.546,105.09c.248,1.884,1.321,3.3,2.4,3.155s1.745-1.784,1.5-3.668-1.321-3.3-2.4-3.154S505.3,103.206,505.546,105.09Z" transform="translate(-505.494 -101.413)"/></g><g transform="translate(0 90.524)"><path class="j" d="M473.453,230.942c1.869.341,3.542-.247,3.737-1.313s-1.163-2.207-3.032-2.549-3.542.247-3.737,1.313S471.583,230.6,473.453,230.942Z" transform="translate(-470.402 -226.983)"/></g><g transform="translate(124.911 73.956)"><path class="i" d="M665.629,202.689c-1.344,1.344-1.812,3.054-1.045,3.821s2.477.3,3.821-1.045,1.812-3.054,1.045-3.821S666.973,201.346,665.629,202.689Z" transform="translate(-664.216 -201.276)"/></g><g transform="translate(2.14 39.395)"><path class="j" d="M476.994,151.583c1.893.157,3.5-.592,3.59-1.673s-1.373-2.083-3.268-2.24-3.5.593-3.59,1.674S475.1,151.427,476.994,151.583Z" transform="translate(-473.723 -147.65)"/></g><g transform="translate(6.952 97.358)"><path class="j" d="M485.181,241.461c.5-1.834.048-3.551-1-3.833s-2.3.975-2.792,2.81-.048,3.551,1,3.833S484.685,243.295,485.181,241.461Z" transform="translate(-481.188 -237.587)"/></g><g transform="translate(50.872 1.77)"><path class="i" d="M553.52,93.451c1.451-1.228,2.059-2.894,1.359-3.721s-2.444-.5-3.895.724-2.059,2.893-1.359,3.721S552.07,94.678,553.52,93.451Z" transform="translate(-549.335 -89.271)"/></g><g transform="translate(96.655 116.93)"><path class="i" d="M624.3,271.288c-.1-1.9-1.06-3.389-2.142-3.332s-1.879,1.642-1.779,3.54,1.059,3.389,2.142,3.332S624.4,273.186,624.3,271.288Z" transform="translate(-620.374 -267.955)"/></g><g transform="translate(52.968 57.81)"><path class="i" d="M556.773,180.4c1.451-1.227,2.059-2.893,1.359-3.721s-2.444-.5-3.895.724-2.058,2.893-1.359,3.721S555.323,181.63,556.773,180.4Z" transform="translate(-552.588 -176.223)"/></g><g transform="translate(1.653 86.058)"><path class="j" d="M474.241,224.243c1.275,1.408,2.961,1.961,3.764,1.233s.421-2.459-.854-3.868-2.961-1.961-3.764-1.233S472.965,222.834,474.241,224.243Z" transform="translate(-472.966 -220.054)"/></g><g transform="translate(118.325 42.249)"><path class="f" d="M655.41,153.492c-1.344,1.344-1.812,3.054-1.045,3.821s2.477.3,3.821-1.045,1.812-3.054,1.045-3.821S656.754,152.149,655.41,153.492Z" transform="translate(-653.997 -152.079)"/></g><g transform="translate(34.265 33.419)"><path class="i" d="M524.982,139.792c-1.343,1.344-1.811,3.054-1.045,3.821s2.478.3,3.821-1.045,1.811-3.054,1.045-3.821S526.325,138.448,524.982,139.792Z" transform="translate(-523.568 -138.378)"/></g><g transform="translate(117.168 97.918)"><path class="i" d="M653.614,239.869c-1.344,1.344-1.812,3.054-1.045,3.821s2.477.3,3.821-1.045,1.812-3.054,1.045-3.821S654.958,238.526,653.614,239.869Z" transform="translate(-652.201 -238.456)"/></g><g transform="translate(32.523 29.889)"><path class="j" d="M520.887,136.172c-.157,1.894.592,3.5,1.673,3.59s2.083-1.373,2.239-3.267-.592-3.5-1.673-3.59S521.043,134.278,520.887,136.172Z" transform="translate(-520.866 -132.901)"/></g><g transform="translate(94.183 30.587)"><path class="i" d="M616.654,136.993c-.374,1.863.183,3.546,1.246,3.76s2.229-1.123,2.6-2.986-.183-3.547-1.246-3.76S617.029,135.129,616.654,136.993Z" transform="translate(-616.537 -133.984)"/></g><g transform="translate(84.865 5.733)"><path class="i" d="M602.2,98.43c-.374,1.863.183,3.546,1.246,3.76s2.229-1.123,2.6-2.986-.183-3.546-1.246-3.76S602.572,96.567,602.2,98.43Z" transform="translate(-602.08 -95.421)"/></g><g transform="translate(48.885)"><path class="i" d="M546.369,89.534c-.374,1.863.183,3.546,1.246,3.76s2.228-1.123,2.6-2.986-.183-3.546-1.246-3.76S546.744,87.671,546.369,89.534Z" transform="translate(-546.252 -86.525)"/></g><g transform="translate(119.969 46.459)"><path class="f" d="M659.712,158.663c-1.884.248-3.3,1.321-3.154,2.4s1.783,1.745,3.667,1.5,3.3-1.321,3.155-2.4S661.6,158.415,659.712,158.663Z" transform="translate(-656.548 -158.612)"/></g><g transform="translate(89.914 122.345)"><path class="i" d="M610.62,278.529c-.942,1.651-.941,3.424,0,3.961s2.468-.366,3.409-2.017.942-3.424,0-3.961S611.561,276.879,610.62,278.529Z" transform="translate(-609.914 -276.358)"/></g><g transform="translate(86.906 117.132)"><path class="i" d="M607.542,268.871c-1.691.867-2.66,2.352-2.165,3.317s2.266,1.043,3.957.177,2.66-2.352,2.166-3.317S609.233,268,607.542,268.871Z" transform="translate(-605.247 -268.269)"/></g><g transform="translate(88.773 68.741)"><path class="i" d="M610.438,193.786c-1.691.867-2.661,2.352-2.166,3.317s2.266,1.043,3.957.177,2.66-2.352,2.165-3.317S612.129,192.918,610.438,193.786Z" transform="translate(-608.143 -193.184)"/></g><g transform="translate(68.227 92.494)"><path class="i" d="M580.308,232.612c-.69-1.77-2.068-2.886-3.078-2.492s-1.27,2.148-.58,3.919,2.069,2.886,3.079,2.492S581,234.382,580.308,232.612Z" transform="translate(-576.264 -230.04)"/></g><g transform="translate(52.885 48.457)"><path class="i" d="M556.5,164.283c-.69-1.77-2.068-2.887-3.079-2.493s-1.27,2.148-.579,3.919,2.068,2.886,3.079,2.493S557.193,166.054,556.5,164.283Z" transform="translate(-552.459 -161.711)"/></g><g transform="translate(18.465 16.038)"><path class="j" d="M503.12,111.952c-1.713-.822-3.482-.7-3.951.281s.539,2.436,2.252,3.259,3.482.7,3.951-.28S504.833,112.775,503.12,111.952Z" transform="translate(-499.053 -111.409)"/></g><g transform="translate(102.929 11.734)"><path class="i" d="M630.225,107.74c-.375,1.863.183,3.546,1.246,3.76s2.228-1.123,2.6-2.986-.184-3.546-1.246-3.76S630.6,105.877,630.225,107.74Z" transform="translate(-630.108 -104.731)"/></g><g transform="translate(124.613 77.182)"><path class="i" d="M666.917,206.334c-1.884.248-3.3,1.321-3.155,2.4s1.784,1.745,3.668,1.5,3.3-1.321,3.155-2.4S668.8,206.085,666.917,206.334Z" transform="translate(-663.753 -206.282)"/></g></g><g transform="translate(70.737 8.359)"><g transform="translate(0 49.063)"><path class="k" d="M484.57,179.267c1.169-1.169,1.576-2.657.909-3.324s-2.155-.26-3.324.909-1.576,2.657-.909,3.324S483.4,180.436,484.57,179.267Z" transform="translate(-480.925 -175.622)"/></g><g transform="translate(69.977 2.785)"><path class="i" d="M591.068,107.441c1.317,1,2.846,1.2,3.416.451s-.034-2.171-1.351-3.17-2.846-1.2-3.416-.451S589.752,106.441,591.068,107.441Z" transform="translate(-589.503 -103.816)"/></g><g transform="translate(19.967 90.352)"><path class="k" d="M515.551,243.332c1.169-1.169,1.576-2.657.909-3.324s-2.155-.26-3.324.909-1.576,2.658-.909,3.324S514.382,244.5,515.551,243.332Z" transform="translate(-511.906 -239.687)"/></g><g transform="translate(19.425 88.164)"><path class="k" d="M514.265,239.723c1.639-.216,2.868-1.149,2.745-2.084s-1.552-1.518-3.191-1.3-2.868,1.149-2.745,2.084S512.626,239.939,514.265,239.723Z" transform="translate(-511.066 -236.291)"/></g><g transform="translate(104.083 78.422)"><path class="f" d="M646.067,222.406c-1.169-1.169-2.657-1.576-3.324-.909s-.26,2.155.909,3.324,2.657,1.576,3.324.909S647.236,223.575,646.067,222.406Z" transform="translate(-642.422 -221.176)"/></g><g transform="translate(102.29 79.991)"><path class="f" d="M643.07,226.364c-.216-1.639-1.149-2.867-2.084-2.744s-1.518,1.552-1.3,3.191,1.149,2.868,2.084,2.744S643.286,228,643.07,226.364Z" transform="translate(-639.639 -223.611)"/></g><g transform="translate(92.835 97.614)"><path class="f" d="M628.4,253.708c-.217-1.64-1.15-2.868-2.084-2.745s-1.518,1.552-1.3,3.191,1.149,2.868,2.084,2.745S628.617,255.347,628.4,253.708Z" transform="translate(-624.969 -250.955)"/></g><g transform="translate(110.067 29.627)"><path class="i" d="M654.974,145.55c-1.627-.3-3.082.214-3.251,1.142s1.012,1.921,2.638,2.218,3.082-.215,3.251-1.142S656.6,145.847,654.974,145.55Z" transform="translate(-651.706 -145.466)"/></g><g transform="translate(2.437 42.696)"><path class="k" d="M488.352,169.388c1.169-1.169,1.576-2.658.909-3.324s-2.155-.26-3.324.909-1.576,2.657-.909,3.324S487.183,170.557,488.352,169.388Z" transform="translate(-484.707 -165.743)"/></g><g transform="translate(108.153 74.2)"><path class="f" d="M651.864,214.643c-1.647-.136-3.047.516-3.124,1.455s1.195,1.812,2.843,1.949,3.046-.516,3.124-1.456S653.511,214.779,651.864,214.643Z" transform="translate(-648.737 -214.625)"/></g><g transform="translate(106.291 21.361)"><path class="i" d="M646.023,135.119c-.431,1.6-.042,3.089.869,3.335s2-.849,2.429-2.445.042-3.089-.868-3.335S646.454,133.523,646.023,135.119Z" transform="translate(-645.848 -132.64)"/></g><g transform="translate(66.652 105.71)"><path class="f" d="M585.779,264.545c-1.262,1.068-1.791,2.517-1.181,3.237s2.126.438,3.388-.63,1.791-2.517,1.182-3.237S587.041,263.478,585.779,264.545Z" transform="translate(-584.344 -263.517)"/></g><g transform="translate(28.469 4.201)"><path class="f" d="M525.106,109.095c.088,1.651.922,2.949,1.864,2.9s1.634-1.429,1.547-3.079-.922-2.949-1.864-2.9S525.019,107.443,525.106,109.095Z" transform="translate(-525.099 -106.014)"/></g><g transform="translate(64.828 56.954)"><path class="i" d="M582.948,188.895c-1.262,1.068-1.791,2.517-1.182,3.237s2.126.438,3.389-.63,1.791-2.517,1.182-3.237S584.211,187.827,582.948,188.895Z" transform="translate(-581.514 -187.866)"/></g><g transform="translate(109.8 32.045)"><path class="i" d="M654.934,150.569c-1.11-1.225-2.576-1.705-3.275-1.072s-.367,2.14.743,3.365,2.576,1.706,3.275,1.073S656.044,151.794,654.934,150.569Z" transform="translate(-651.293 -149.217)"/></g><g transform="translate(8.167 70.282)"><path class="k" d="M497.243,212.19c1.169-1.169,1.576-2.657.909-3.324s-2.155-.26-3.324.909-1.576,2.657-.909,3.324S496.074,213.36,497.243,212.19Z" transform="translate(-493.598 -208.545)"/></g><g transform="translate(81.302 77.964)"><path class="i" d="M610.719,224.11c1.169-1.169,1.576-2.657.909-3.324s-2.155-.26-3.324.909-1.576,2.657-.909,3.324S609.55,225.28,610.719,224.11Z" transform="translate(-607.074 -220.465)"/></g><g transform="translate(9.175 21.848)"><path class="k" d="M498.806,137.04c1.169-1.169,1.576-2.657.909-3.324s-2.155-.26-3.324.909-1.576,2.657-.909,3.324S497.637,138.21,498.806,137.04Z" transform="translate(-495.161 -133.395)"/></g><g transform="translate(84.252 79.937)"><path class="i" d="M615.074,226.654c.136-1.647-.516-3.046-1.456-3.124s-1.812,1.2-1.948,2.843.516,3.046,1.456,3.124S614.938,228.3,615.074,226.654Z" transform="translate(-611.652 -223.527)"/></g><g transform="translate(38.601 101.018)"><path class="f" d="M544.27,259.527c.326-1.62-.159-3.085-1.084-3.271s-1.939.977-2.265,2.6.16,3.086,1.084,3.271S543.944,261.148,544.27,259.527Z" transform="translate(-540.82 -256.236)"/></g><g transform="translate(69.905 106.006)"><path class="f" d="M592.842,267.267c.326-1.621-.159-3.085-1.084-3.271s-1.939.977-2.265,2.6.159,3.085,1.084,3.271S592.516,268.888,592.842,267.267Z" transform="translate(-589.391 -263.976)"/></g><g transform="translate(5.66 68.017)"><path class="k" d="M492.906,208.463c1.639-.216,2.868-1.149,2.744-2.084s-1.552-1.518-3.191-1.3-2.867,1.149-2.744,2.084S491.267,208.679,492.906,208.463Z" transform="translate(-489.707 -205.032)"/></g><g transform="translate(33.565)"><path class="f" d="M536.587,103.077c.819-1.436.819-2.979,0-3.446s-2.147.318-2.966,1.754-.819,2.979,0,3.446S535.768,104.513,536.587,103.077Z" transform="translate(-533.006 -99.496)"/></g><g transform="translate(34.825 5.919)"><path class="f" d="M538.516,112.243c1.471-.754,2.315-2.046,1.884-2.885s-1.972-.908-3.443-.153-2.314,2.046-1.885,2.885S537.045,113,538.516,112.243Z" transform="translate(-534.961 -108.68)"/></g><g transform="translate(92.646 0.517)"><path class="i" d="M625.012,103.775c.6,1.54,1.8,2.511,2.679,2.169s1.1-1.869.5-3.409-1.8-2.512-2.678-2.169S624.412,102.235,625.012,103.775Z" transform="translate(-624.676 -100.297)"/></g><g transform="translate(64.483 75.564)"><path class="i" d="M581.314,220.219c.6,1.54,1.8,2.512,2.679,2.169s1.1-1.869.5-3.409-1.8-2.512-2.678-2.169S580.714,218.679,581.314,220.219Z" transform="translate(-580.978 -216.742)"/></g><g transform="translate(94.325 93.937)"><path class="f" d="M629.342,248.8c1.49.715,3.029.606,3.438-.244s-.469-2.12-1.96-2.835-3.029-.606-3.438.244S627.851,248.085,629.342,248.8Z" transform="translate(-627.282 -245.249)"/></g><g transform="translate(22.886 95.797)"><path class="k" d="M519.885,251.427c.326-1.62-.159-3.085-1.084-3.271s-1.938.977-2.264,2.6.159,3.085,1.084,3.271S519.56,253.048,519.885,251.427Z" transform="translate(-516.435 -248.136)"/></g><g transform="translate(1.619 41.287)"><path class="k" d="M486.637,166.988c1.639-.216,2.867-1.149,2.744-2.084s-1.552-1.518-3.191-1.3-2.868,1.149-2.744,2.084S485,167.2,486.637,166.988Z" transform="translate(-483.438 -163.557)"/></g></g><g transform="translate(126.644 83.068)"><path class="d" d="M569.1,345h0a1.589,1.589,0,0,1-1.426-1.712V217.125a1.588,1.588,0,0,1,1.426-1.711h0a1.588,1.588,0,0,1,1.426,1.711v126.16A1.589,1.589,0,0,1,569.1,345Z" transform="translate(-567.671 -215.414)"/></g><g transform="translate(95.311 76.725)"><path class="d" d="M549.932,234.259c-25.306,0-30.106-22.438-30.867-27.534a.963.963,0,0,1,.878-1.1l.634-.05a.959.959,0,0,1,1.031.826c.638,4.734,4.846,25.788,29.2,25.27a.968.968,0,0,1,.995.92l.028.652a.961.961,0,0,1-.932,1.005Q550.409,234.259,549.932,234.259Z" transform="translate(-519.054 -205.573)"/></g></g><g transform="translate(0 0)"><rect class="l" width="289.744" height="10.699" transform="translate(35.322 216.183)"/><rect class="m" width="241.489" height="10.277" transform="translate(59.45 0)"/><g transform="translate(35.322 17.715)"><rect class="n" width="22.996" height="3.88"/><rect class="n" width="22.996" height="3.88" transform="translate(0 24.925)"/></g><rect class="o" width="260.827" height="186.469" transform="translate(49.781 19.88)"/><rect class="m" width="68.997" height="103.303" transform="translate(63.588 108.627)"/><rect class="p" width="55.734" height="96.938" transform="translate(70.219 114.991)"/><rect class="l" width="154.133" height="82.241" transform="translate(142.113 108.627)"/><rect class="q" width="55.734" height="77.496" transform="translate(70.219 114.991)"/><rect class="q" width="144.208" height="63.269" transform="translate(147.075 114.991)"/><g transform="translate(147.075 114.991)"><g class="r"><g transform="translate(-14.49 2.531)"><g transform="translate(90.501)"><g transform="translate(0 40.861)"><path class="s" d="M394.709,313.573s-.5,1.668-.669,2.259-.624,1.725-.87,1.66.246-2.283.115-2.415-1.183,1-1.281,1.3.23,2.53,0,2.546-.8-1.134-.953-2.415,1.7-3.87,1.7-3.87Z" transform="translate(-391.043 -312.635)"/></g><g transform="translate(6.723 36.051)"><path class="s" d="M409.6,311.074c-.1-5.416-4.026-5.892-4.026-5.892s-3.923-.477-4.091,4.906c-.129,4.13,1.028,15.391,1.573,20.41a2.962,2.962,0,0,0,2.349,2.722h0a2.224,2.224,0,0,0,2.378-2.148C408.389,326.193,409.679,315.229,409.6,311.074Z" transform="translate(-401.475 -305.171)"/></g><g transform="translate(15.974 36.051)"><path class="s" d="M423.954,311.074c-.1-5.416-4.026-5.892-4.026-5.892s-3.923-.477-4.091,4.906c-.129,4.13,1.028,15.391,1.573,20.41a2.963,2.963,0,0,0,2.349,2.722h0a2.223,2.223,0,0,0,2.378-2.148C422.743,326.193,424.033,315.229,423.954,311.074Z" transform="translate(-415.828 -305.171)"/></g><g transform="translate(8.474 59.274)"><path class="s" d="M408.809,343.462a2.306,2.306,0,0,0-4.611,0c-.108,2.258,1.1,19.489,1.1,19.489h2.846S408.916,345.719,408.809,343.462Z" transform="translate(-404.191 -341.204)"/></g><g transform="translate(3.689 81.021)"><path class="s" d="M402.761,374.947s-4.951,2.212-5.539,2.494-.831.844.685.844h6.322a1.184,1.184,0,0,0,1.281-1.053v-2.285Z" transform="translate(-396.767 -374.947)"/></g><g transform="translate(17.464 58.383)"><path class="s" d="M422.654,341.435a2.306,2.306,0,0,0-4.431,1.273c.52,2.2,6.443,18.427,6.443,18.427l2.735-.786S423.381,343.576,422.654,341.435Z" transform="translate(-418.141 -339.823)"/></g><g transform="translate(18.795 15.342)"><path class="s" d="M422.415,273.057s2.959-.469,3.126,3.543c.147,3.513.5,8.693.587,10.827a1.606,1.606,0,0,1-1.527,1.479h0a1.606,1.606,0,0,1-1.87-1.011c-.492-2.079-1.612-7.15-2.367-10.582C419.5,273.4,422.415,273.057,422.415,273.057Z" transform="translate(-420.206 -273.04)"/></g><g transform="translate(9.191 14.15)"><path class="s" d="M416.411,271.99l-.324-.1a16.423,16.423,0,0,0-9.487,0l-.328.1a1.216,1.216,0,0,0-.741,1.033c-.512,3.528-.029,15.031.15,18.835.032.695.46,1.233.977,1.233h9.366c.517,0,.945-.538.978-1.233.178-3.8.662-15.307.15-18.835A1.216,1.216,0,0,0,416.411,271.99Z" transform="translate(-405.303 -271.19)"/></g><g transform="translate(6.803 32.218)"><path class="s" d="M418.4,306c-.931-5.023-2.709-6.774-2.709-6.774H404.251a20.455,20.455,0,0,0-2.622,7.444,1.828,1.828,0,0,0,.824,1.872,15.236,15.236,0,0,0,14.87,0A3.2,3.2,0,0,0,418.4,306Z" transform="translate(-401.599 -299.225)"/></g><g transform="translate(12.958 9.679)"><rect class="s" width="4.522" height="5.491"/><g transform="translate(0 1.19)"><path class="s" d="M415.543,266.8a5.623,5.623,0,0,1-4.394,1.661V266.1Z" transform="translate(-411.149 -266.099)"/></g></g><g transform="translate(6.214 15.342)"><path class="s" d="M404.4,273.057s-2.959-.469-3.126,3.543c-.146,3.513-.5,8.693-.587,10.827a1.606,1.606,0,0,0,1.527,1.479h0a1.607,1.607,0,0,0,1.87-1.011c.492-2.079,1.611-7.15,2.367-10.582C407.311,273.4,404.4,273.057,404.4,273.057Z" transform="translate(-400.685 -273.04)"/></g><g transform="translate(1.422 27.887)"><path class="s" d="M400.129,292.584s-1.873-.848-3.179,2.952c-1.143,3.328-2.921,8.217-3.617,10.24a1.265,1.265,0,0,0,.6,1.618h0a1.265,1.265,0,0,0,1.572-.71c.953-1.914,3.221-6.6,4.754-9.763C402.008,293.306,400.129,292.584,400.129,292.584Z" transform="translate(-393.249 -292.504)"/></g><g transform="translate(6.214 31.589)"><path class="s" d="M418.094,327.051c0-1.286,4.7-22.435-2.594-28.8H403.9s-3.216,4.363-3.216,14.531.589,34.118.589,34.118h7.018l1.716-36.771s.611,12.944,1.163,17.538,5.057,18.692,5.057,18.692l6.214-1.663S418.094,328.337,418.094,327.051Z" transform="translate(-400.685 -298.248)"/></g><g transform="translate(1.129 13.757)"><path class="s" d="M404.624,270.58s-4.642.393-6.155,2.593c-1.214,1.763-1.083,10.9-1.5,12.312s-5.587,11.106-3.793,12.5,2.768,1.873,3.25,1.391a22.942,22.942,0,0,0,1.716-3.6s8.453,1.1,13.69,1.1,6.094-2.751,5.666-4.684-.52-10.63-1.108-15.04-.519-4.941-7.24-6.574A6.54,6.54,0,0,1,404.624,270.58Z" transform="translate(-392.795 -270.58)"/></g><g transform="translate(9.43 24.451)"><path class="s" d="M420.957,293.018s-.593,1.968-4.314.452c-3.259-1.328-8.11-3.206-10.091-4.013a1.265,1.265,0,0,1-.824-1.515h0a1.264,1.264,0,0,1,1.568-.717c2.069.543,7.086,1.914,10.481,2.844C421.65,291.128,420.957,293.018,420.957,293.018Z" transform="translate(-405.675 -287.174)"/></g><g transform="translate(10.189 15.17)"><path class="s" d="M407.782,285.882a1.807,1.807,0,0,1-.876-2.014,5.946,5.946,0,0,1,1.058-2.443c.893-.893,8.861,2.144,8.861,2.144s-.331-7.811,1.6-10.8c2.845.812,2.906,2.16,3.641,8.9s-.606,8.7-3.641,8.7C416.065,290.368,410.263,287.27,407.782,285.882Z" transform="translate(-406.852 -272.773)"/></g><g transform="translate(3.198 80.756)"><path class="s" d="M402.374,374.537s-3.875,1.192-5.4,1.693a1.287,1.287,0,0,0-.788,1.909h9.056V374.8A3.162,3.162,0,0,1,402.374,374.537Z" transform="translate(-396.005 -374.537)"/></g><g transform="translate(19.081 78.701)"><path class="s" d="M425.643,372.082s-4.181,3.453-4.672,3.881-.576,1.036.886.631l6.092-1.688a1.184,1.184,0,0,0,.954-1.357l-.61-2.2Z" transform="translate(-420.649 -371.348)"/></g><g transform="translate(18.471 78.701)"><path class="s" d="M425.124,371.858s-3.416,2.183-4.754,3.074a1.286,1.286,0,0,0-.249,2.049l8.727-2.417-.891-3.217A3.162,3.162,0,0,1,425.124,371.858Z" transform="translate(-419.703 -371.348)"/></g><g transform="translate(6.001 22.987)"><path class="s" d="M400.921,288.02c.017-.227,1.731-.193,1.731-.193s-2.329-.546-2.3-.785,2.374.18,2.374.18-2.448-.917-2.37-1.146,2.442.508,2.442.508-2.249-1.067-2.085-1.278,3.157.918,3.157.918-1.486-1.045-1.455-1.269c.022-.156.42.049,1.067.329a8.96,8.96,0,0,1,2.084,1.293l-.4,1.927S400.9,288.247,400.921,288.02Z" transform="translate(-400.354 -284.901)"/></g><g transform="translate(11.689 1.913)"><path class="s" d="M410.7,262.962h1.168a5.183,5.183,0,0,0,5.168-5.168v-2.353A3.248,3.248,0,0,0,413.8,252.2h-1.381a3.248,3.248,0,0,0-3.239,3.239v6A1.525,1.525,0,0,0,410.7,262.962Z" transform="translate(-409.179 -252.202)"/></g><g transform="translate(10.783 7.293)"><path class="s" d="M408.679,260.55s-2.039,2.586,0,2.586" transform="translate(-407.773 -260.55)"/></g><g transform="translate(11.291)"><path class="s" d="M413.492,257.112a5.941,5.941,0,0,1-1.029-4.493c-2.613,0-3.307.672-3.307.672s-1.6-1.384.458-3.086,7.283-1.266,8.035,2.138.321,6.908-2.967,8.576A4.5,4.5,0,0,0,413.492,257.112Z" transform="translate(-408.563 -249.234)"/></g><g transform="translate(10.639 7.052)"><g transform="translate(4.11)"><line class="s" x1="1.82" y2="1.238"/></g><g transform="translate(4.653 1.986)"><line class="s" x1="2.231" y2="2.311"/></g><g transform="translate(0 1.013)"><path class="s" d="M411.945,261.748h-3.833a2.633,2.633,0,0,0-.561,1.551,4.233,4.233,0,0,0,2.334,3.129,5.517,5.517,0,0,0,2.831-.274Z" transform="translate(-407.55 -261.748)"/></g></g><g transform="translate(15.545 6.75)"><path class="s" d="M415.291,260.789a1.239,1.239,0,1,0,1.672-1.02A1.408,1.408,0,0,0,415.291,260.789Z" transform="translate(-415.163 -259.708)"/></g></g><g transform="translate(13.111 0.289)"><g transform="translate(0 34.232)"><rect class="t" width="148.464" height="54.795"/></g><g transform="translate(0 74.676)"><rect class="u" width="148.464" height="14.35"/></g><g transform="translate(29.873)"><g transform="translate(1.67 39.561)"><path class="s" d="M322.3,311.066a8.788,8.788,0,0,1,.481,2.062c-.03.589-.231,1.747-.486,1.738s-.26-2.191-.416-2.287-.935,1.188-.966,1.486.778,2.321.557,2.385-1.033-.893-1.458-2.062.573-2.952.573-2.952Z" transform="translate(-319.907 -311.066)"/></g><g transform="translate(31.298 32.632)"><path class="s" d="M365.877,302.59a9.786,9.786,0,0,0,2.144.481c.613-.025,1.821-.208,1.814-.452s-2.28-.267-2.378-.419,1.245-.887,1.555-.915,2.411.767,2.479.556-.92-1-2.135-1.418-3.079.525-3.079.525Z" transform="translate(-365.877 -300.315)"/></g><g transform="translate(0.015 25.505)"><path class="s" d="M318.816,289.261s-2.048.173-1.321,3.968c.637,3.324,1.487,8.252,1.875,10.272a1.252,1.252,0,0,0,1.315,1.071h0a1.223,1.223,0,0,0,1.022-1.335c-.11-2.051-.431-7.035-.65-10.409C320.807,288.98,318.816,289.261,318.816,289.261Z" transform="translate(-317.339 -289.257)"/></g><g transform="translate(5.685 13.202)"><path class="s" d="M337.244,270.935c-.107-.033-.215-.064-.324-.1a17.082,17.082,0,0,0-9.488,0l-.327.1a1.171,1.171,0,0,0-.741.992c-.512,3.387-.029,14.434.15,18.086a1.126,1.126,0,0,0,.977,1.184h9.366a1.127,1.127,0,0,0,.977-1.184c.178-3.652.662-14.7.15-18.086A1.171,1.171,0,0,0,337.244,270.935Z" transform="translate(-326.136 -270.168)"/></g><g transform="translate(3.214 30.552)"><g transform="translate(0.478 28.662)"><path class="s" d="M323.081,341.7v-.074C323.007,341.448,323.065,341.69,323.081,341.7Z" transform="translate(-323.044 -341.56)"/></g><path class="s" d="M339.215,305.788a20.771,20.771,0,0,0-.348-3.605l0-.023c-.931-4.823-2.385-5.072-2.385-5.072h-11.6s-1.139.579-2.07,5.4l-.121.892a38.861,38.861,0,0,0-.345,4.57,169.844,169.844,0,0,0,.481,17.936c.068,3.739,1.259,18.062,1.259,18.062h4.791s.872-16.547.75-18.715c0-.01,0-.018,0-.028.321-2.2.779-5.463,1.176-8.731.4,3.268.855,6.527,1.176,8.731,0,.01,0,.018,0,.028-.122,2.168.75,18.715.75,18.715H337.5s1.191-14.323,1.258-18.062C339.292,321.753,339.265,311.175,339.215,305.788Z" transform="translate(-322.302 -297.088)"/></g><g transform="translate(10.332 8.909)"><rect class="s" width="4.522" height="5.272"/></g><g transform="translate(7.671 1.213)"><g transform="translate(0 4.486)"><path class="s" d="M329.218,259.767a1.026,1.026,0,1,0,1-1.242A1.142,1.142,0,0,0,329.218,259.767Z" transform="translate(-329.218 -258.525)"/></g><g transform="translate(7.858 4.486)"><path class="s" d="M341.41,259.767a1.026,1.026,0,1,0,1-1.242A1.142,1.142,0,0,0,341.41,259.767Z" transform="translate(-341.41 -258.525)"/></g><g transform="translate(1.003)"><path class="s" d="M334.625,261.9h.158a3.861,3.861,0,0,0,3.85-3.85v-3.309a3.183,3.183,0,0,0-3.173-3.173h-1.511a3.183,3.183,0,0,0-3.173,3.173v3.309A3.861,3.861,0,0,0,334.625,261.9Z" transform="translate(-330.775 -251.565)"/></g></g><g transform="translate(0 14.399)"><path class="s" d="M324.339,272.179s-2.766-1.1-3.87,2.6c-.967,3.246-2.524,8-3.111,9.975a1.539,1.539,0,0,0,1.137,1.725h0a1.644,1.644,0,0,0,2.055-.523c.967-1.83,3.244-6.311,4.784-9.344C327.09,273.154,324.339,272.179,324.339,272.179Z" transform="translate(-317.315 -272.025)"/></g><g transform="translate(15.723 13.513)"><path class="s" d="M343.6,270.716s-2.909.686-1.509,4.3c1.227,3.164,2.91,7.88,3.655,9.8a1.632,1.632,0,0,0,1.98.742h0a1.555,1.555,0,0,0,1.332-1.591c-.351-2.024-1.285-6.929-1.919-10.248C346.418,269.935,343.6,270.716,343.6,270.716Z" transform="translate(-341.711 -270.65)"/></g><g transform="translate(19.574 25.102)"><path class="s" d="M348.079,289.409s-1.638,1.386,1.774,3.424c2.988,1.785,7.557,4.288,9.372,5.372a1.3,1.3,0,0,0,1.711-.213h0a1.184,1.184,0,0,0-.34-1.624c-1.653-1.3-5.708-4.431-8.453-6.546C349.01,287.409,348.079,289.409,348.079,289.409Z" transform="translate(-347.686 -288.631)"/></g><g transform="translate(0.015 12.318)"><path class="s" d="M327.656,269.451a49.474,49.474,0,0,0-6.737,1.836c-1.85.829-3.58,9.713-3.58,9.713l4.37,1.87-1.8,11.734a2.627,2.627,0,0,0,2.3,2.967,49.257,49.257,0,0,0,14.2-.1,2.639,2.639,0,0,0,2.216-2.758c-.711-10.543-2.166-19.384-2.166-19.384l.55,7.5,4.232-1.552L339.49,271.22a3.176,3.176,0,0,0-2.463-1.775l-4.8-.649A4.625,4.625,0,0,1,327.656,269.451Z" transform="translate(-317.339 -268.796)"/></g><g transform="translate(0.598 77.414)"><path class="s" d="M324.193,369.8s-5.949,0-5.949,3.2h9.315l-.135-3.2" transform="translate(-318.244 -369.8)"/></g><g transform="translate(13.488 77.414)"><path class="s" d="M341.609,369.8s5.949,0,5.949,3.2h-9.315l.135-3.2" transform="translate(-338.243 -369.8)"/></g><g transform="translate(7.473)"><path class="s" d="M333.835,261.678a4.529,4.529,0,0,0,4.147-2.689c1.282-2.822,1.885-5.632-.447-7.872a5.183,5.183,0,0,0-6.777-.329,5.683,5.683,0,0,0-1.707,5.677C329.582,259.453,331.656,261.678,333.835,261.678Z" transform="translate(-328.91 -249.683)"/></g></g></g><rect class="s" width="34.917" height="63.492" transform="translate(0 11.349)"/><rect class="s" width="34.917" height="57.375" transform="translate(126.657 17.465)"/></g></g></g><rect class="m" width="266.748" height="10.946" transform="translate(46.82 205.237)"/><rect class="v" width="60.72" height="10.946" transform="translate(67.726 205.237)"/><rect class="e" width="68.997" height="10.699" transform="translate(63.588 216.183)"/><g transform="translate(26.763 188.104)"><rect class="l" width="2.651" height="4.465" transform="translate(1.326 40.747)"/><rect class="l" width="2.651" height="4.465" transform="translate(24.909 40.747)"/><rect class="m" width="28.886" height="42.561"/><rect class="l" width="25.816" height="39.491" transform="translate(1.535 1.535)"/></g><rect class="s" width="45.116" height="66" transform="translate(70.219 126.488)"/><path class="b" d="M164.684,285.928l15.637-4.713V265.578l-15.637,4.713Z" transform="translate(-87.485 -137.523)"/><g transform="translate(70.219 114.991)"><g class="w"><path class="d" d="M179.833,237.569v82.474l-22.362,6.827V244.4l23.916-6.828m2.064-4.439-29.6,7.934v90.246l29.6-7.934V233.13Z" transform="translate(-153.853 -240.979)"/><path class="d" d="M154.993,310.32h0c0,1.02.439,1.715.98,1.552l26.168-7.851c.541-.163.98-1.121.98-2.141h0c0-1.02-.439-1.714-.98-1.552l-26.168,7.852C155.432,308.342,154.993,309.3,154.993,310.32Z" transform="translate(-154.258 -264.86)"/></g></g><g transform="translate(24.951 54.407)"><path class="l" d="M83.615,206.63v18.925a44.192,44.192,0,0,0,34.5,0h0V206.63Z" transform="translate(-83.615 -170.973)"/><path class="l" d="M225.169,206.63v18.925l-.4.172a43.158,43.158,0,0,1-33.688,0l-.405-.172V206.63" transform="translate(-121.674 -170.973)"/><path class="l" d="M332.226,206.63v18.925h0a44.192,44.192,0,0,1-34.5,0h0V206.63" transform="translate(-159.734 -170.973)"/><path class="l" d="M439.282,206.63v18.925h0a44.192,44.192,0,0,1-34.5,0h0V206.63" transform="translate(-197.793 -170.973)"/><path class="l" d="M546.339,206.63v18.925h0a44.192,44.192,0,0,1-34.5,0h0V206.63" transform="translate(-235.853 -170.973)"/><path class="q" d="M171.641,206.63v18.925h0a44.192,44.192,0,0,1-34.5,0h0V206.63" transform="translate(-102.645 -170.973)"/><path class="q" d="M278.7,206.63v18.925h0a42.009,42.009,0,0,1-32.861.658l-1.638-.658V206.63" transform="translate(-140.704 -170.973)"/><path class="q" d="M385.754,206.63v18.925h0a44.192,44.192,0,0,1-34.5,0h0V206.63" transform="translate(-178.764 -170.973)"/><path class="q" d="M492.81,206.63v18.925h0a44.192,44.192,0,0,1-34.5,0h0V206.63" transform="translate(-216.823 -170.973)"/><path class="m" d="M83.615,186.961l24.83-35.657h28.981l-19.312,35.657" transform="translate(-83.615 -151.305)"/><path class="m" d="M501.188,186.961,481.876,151.3h28.981l24.83,35.657" transform="translate(-225.2 -151.305)"/><path class="t" d="M137.143,186.961,156.455,151.3h28.981l-13.794,35.657" transform="translate(-102.645 -151.305)"/><path class="m" d="M190.671,186.961,204.466,151.3h28.981l-8.277,35.657" transform="translate(-121.674 -151.305)"/><path class="t" d="M244.2,186.961l8.277-35.657h28.981L278.7,186.961" transform="translate(-140.704 -151.305)"/><path class="m" d="M297.727,186.961l2.759-35.657h28.981l2.759,35.657" transform="translate(-159.734 -151.305)"/><path class="t" d="M349.734,186.961,346.975,151.3h28.981l8.276,35.657" transform="translate(-177.242 -151.305)"/><path class="m" d="M400.219,186.961,391.942,151.3h28.981l13.794,35.657" transform="translate(-193.228 -151.305)"/><path class="t" d="M450.7,186.961,436.909,151.3H465.89L485.2,186.961" transform="translate(-209.214 -151.305)"/></g><rect class="l" width="260.827" height="9.603" transform="translate(49.781 44.805)"/><rect class="b" width="41.205" height="41.205" rx="11.175" transform="translate(0 11.601)"/><rect class="l" width="260.827" height="9.603" transform="translate(49.781 10.277)"/></g><g transform="translate(6.604 24.183)"><g transform="translate(0 0)"><path class="x" d="M198.61,151.52l.507-2.04q14.393-6.3,13.734-9.341-.528-2.437-10.724-2.783l.277-1.115q16.834-.344,17.515,2.807Q220.732,142.8,198.61,151.52Z" transform="translate(-191.542 -136.208)"/><path d="M70.305,157.714,67.3,169.838q-3.374,1.476-7.575,3.132l3.794-15.279Q67.323,157.613,70.305,157.714Z" transform="translate(-59.72 -156.565)"/></g></g></g><g transform="translate(101.256 153.779)"><ellipse class="y" cx="20.786" cy="4.945" rx="20.786" ry="4.945" transform="translate(0 85.87)"/><g transform="translate(7.602 0)"><path class="z" d="M215.2,370.716a10.25,10.25,0,0,1,.521,2.326c-.033.664-.251,1.97-.527,1.959s-.281-2.471-.451-2.579-1.012,1.339-1.047,1.675.843,2.619.6,2.69-1.119-1.007-1.579-2.325.62-3.33.62-3.33Z" transform="translate(-210.803 -326.101)"/><path class="z" d="M211.431,346.126s-2.218.195-1.43,4.474c.69,3.748,1.611,9.306,2.029,11.583a1.371,1.371,0,0,0,1.424,1.208h0a1.37,1.37,0,0,0,1.107-1.5c-.119-2.312-.467-7.934-.7-11.739C213.587,345.808,211.431,346.126,211.431,346.126Z" transform="translate(-209.815 -317.357)"/><path class="z" d="M231.387,325.458l-.351-.107a17.788,17.788,0,0,0-10.274,0l-.355.108a1.316,1.316,0,0,0-.8,1.119c-.555,3.821-.032,16.279.162,20.4.035.752.5,1.335,1.058,1.335h10.143c.559,0,1.023-.583,1.058-1.335.193-4.118.717-16.576.162-20.4A1.315,1.315,0,0,0,231.387,325.458Z" transform="translate(-213.201 -309.704)"/><g transform="translate(3.481 34.455)"><path class="aa" d="M216.049,405.262c0-.028,0-.057,0-.083C215.97,404.979,216.032,405.252,216.049,405.262Z" transform="translate(-215.492 -372.782)"/><path class="n" d="M233.52,364.763a24.354,24.354,0,0,0-.376-4.065l0-.026c-1.009-5.44-2.584-5.72-2.584-5.72H217.989s-1.234.653-2.242,6.093l-.13,1.005a45.516,45.516,0,0,0-.374,5.154c-.092,5.731-.041,15.672.521,20.227.073,4.217,1.363,20.369,1.363,20.369h5.189s.944-18.661.812-21.106c0-.011,0-.02,0-.031.347-2.485.843-6.161,1.273-9.847.43,3.686.925,7.361,1.273,9.847,0,.011,0,.02,0,.031-.132,2.445.812,21.106.812,21.106h5.189s1.29-16.153,1.363-20.369C233.6,382.768,233.576,370.839,233.52,364.763Z" transform="translate(-215.206 -354.952)"/></g><g transform="translate(11.189 10.047)"><rect class="z" width="4.897" height="5.946"/></g><g transform="translate(8.307 1.368)"><path class="z" d="M222.7,312.862a1.122,1.122,0,1,0,1.087-1.4A1.274,1.274,0,0,0,222.7,312.862Z" transform="translate(-222.695 -306.403)"/><path class="z" d="M235.9,312.862a1.122,1.122,0,1,0,1.086-1.4A1.274,1.274,0,0,0,235.9,312.862Z" transform="translate(-227.389 -306.403)"/><path class="z" d="M228.636,315.265h0a4.266,4.266,0,0,0,4.254-4.254V307.12a3.517,3.517,0,0,0-3.507-3.507h-1.5a3.517,3.517,0,0,0-3.507,3.507v3.891A4.267,4.267,0,0,0,228.636,315.265Z" transform="translate(-223.294 -303.613)"/></g><path class="z" d="M217.412,326.86s-3-1.245-4.191,2.936c-1.047,3.661-2.733,9.024-3.369,11.249a1.74,1.74,0,0,0,1.232,1.945h0a1.739,1.739,0,0,0,2.225-.589c1.047-2.063,3.513-7.117,5.18-10.538C220.391,327.96,217.412,326.86,217.412,326.86Z" transform="translate(-209.805 -310.448)"/><path class="z" d="M231.773,325.641s1.238,3,5.039.888c3.329-1.848,8.314-4.448,10.337-5.572a1.74,1.74,0,0,0,.5-2.246h0a1.74,1.74,0,0,0-1.99-1.158c-2.2.719-7.517,2.549-11.115,3.789C230.444,322.758,231.773,325.641,231.773,325.641Z" transform="translate(-217.542 -307.18)"/><path class="z" d="M248.542,316.239s1.846-1.478-1.738-3.947c-3.138-2.162-7.948-5.213-9.855-6.527a1.369,1.369,0,0,0-1.861.153h0a1.369,1.369,0,0,0,.282,1.846c1.719,1.551,5.94,5.28,8.8,7.8C247.429,318.444,248.542,316.239,248.542,316.239Z" transform="translate(-218.707 -302.907)"/><path class="l" d="M221,322.692a51.927,51.927,0,0,0-7.295,2.071c-2,.935-3.877,10.954-3.877,10.954l4.732,2.108-1.948,13.234a2.945,2.945,0,0,0,2.508,3.348,51.235,51.235,0,0,0,15.364-.112,2.937,2.937,0,0,0,2.4-3.094c-.769-11.9-2.347-21.878-2.347-21.878l4.943-2.49-2.108-6.861-7.425,1.98A4.861,4.861,0,0,1,221,322.692Z" transform="translate(-209.814 -308.061)"/><path class="n" d="M217.253,436.953s-6.442,0-6.442,3.614H220.9l-.146-3.614" transform="translate(-210.163 -349.649)"/><path class="n" d="M236.114,436.953s6.442,0,6.442,3.614H232.469l.146-3.614" transform="translate(-217.862 -349.649)"/><path class="n" d="M227.694,315.018a4.869,4.869,0,0,0,4.491-3.033c1.388-3.183,2.041-6.351-.485-8.877a5.446,5.446,0,0,0-7.339-.371c-1.273,1.273-2.423,3.033-1.848,6.4S225.335,315.018,227.694,315.018Z" transform="translate(-214.269 -301.491)"/></g></g><g transform="translate(154.647 155.993)"><ellipse class="y" cx="20.786" cy="4.945" rx="20.786" ry="4.945" transform="translate(0 83.656)"/><g transform="translate(4.471)"><path class="z" d="M343.052,374.064c.881-5.456-2.971-6.647-2.971-6.647s-3.947-2.3-5.094,3.077c-.88,4.123-1.67,16.745-2.035,21.883a3.022,3.022,0,0,0,1.864,3.16h0a2.268,2.268,0,0,0,2.778-1.724C339.088,389.025,342.376,378.25,343.052,374.064Z" transform="translate(-324.466 -326.969)"/><path class="z" d="M336.473,406.508a2.353,2.353,0,0,0-4.629-.838c-.518,2.247-2.433,19.769-2.433,19.769l2.858.518S336.17,408.8,336.473,406.508Z" transform="translate(-323.21 -340.075)"/><path class="z" d="M326.286,437.277s-5.052,2.257-5.652,2.544-.849.862.7.862h6.451a1.208,1.208,0,0,0,1.308-1.074v-2.331Z" transform="translate(-319.925 -351.978)"/><path class="z" d="M358.865,372.1c-.105-5.525-4.107-6.012-4.107-6.012s-4-.486-4.174,5.006c-.131,4.214,1.049,15.7,1.605,20.826a3.021,3.021,0,0,0,2.4,2.777h0a2.268,2.268,0,0,0,2.427-2.191C357.629,387.53,358.946,376.342,358.865,372.1Z" transform="translate(-330.733 -326.667)"/><path class="z" d="M358.057,405.15a2.353,2.353,0,0,0-4.7,0c-.11,2.3,1.127,19.886,1.127,19.886h2.9S358.167,407.453,358.057,405.15Z" transform="translate(-331.719 -339.738)"/><path class="z" d="M353.155,332.034a8.155,8.155,0,0,1,6.8,1.894c2.662,2.406,6.683,5.855,8.3,7.316a1.64,1.64,0,0,1-.015,2.169h0a1.64,1.64,0,0,1-2.073.638c-1.865-1.129-6.357-3.94-9.395-5.846A8.181,8.181,0,0,1,353.155,332.034Z" transform="translate(-331.651 -314.519)"/><path class="z" d="M351.225,332.222q-.164-.052-.331-.1a16.764,16.764,0,0,0-9.68,0l-.334.1a1.239,1.239,0,0,0-.755,1.054c-.523,3.6-.03,15.338.153,19.219.034.709.47,1.258,1,1.258h9.557c.528,0,.964-.549,1-1.258.182-3.881.675-15.619.152-19.219A1.238,1.238,0,0,0,351.225,332.222Z" transform="translate(-326.936 -314.34)"/><path class="z" d="M353.253,366.924c-.951-5.126-2.764-6.912-2.764-6.912H338.816a20.876,20.876,0,0,0-2.675,7.6,1.867,1.867,0,0,0,.84,1.911,15.549,15.549,0,0,0,15.174,0A3.268,3.268,0,0,0,353.253,366.924Z" transform="translate(-325.592 -324.51)"/><g transform="translate(17.697 12.504)"><rect class="z" width="4.614" height="5.602" transform="translate(0)"/><path class="z" d="M351.731,326.924a5.737,5.737,0,0,1-4.483,1.7v-2.409Z" transform="translate(-347.248 -324.997)"/></g><g transform="translate(14.981 4.326)"><path class="z" d="M343.035,320.354a1.057,1.057,0,1,0,1.024-1.32A1.2,1.2,0,0,0,343.035,320.354Z" transform="translate(-343.035 -314.267)"/><path class="z" d="M355.476,320.354a1.057,1.057,0,1,0,1.024-1.32A1.2,1.2,0,0,0,355.476,320.354Z" transform="translate(-347.458 -314.267)"/><path class="z" d="M348.633,322.618h0a4.021,4.021,0,0,0,4.009-4.009v-3.665a3.315,3.315,0,0,0-3.3-3.3h-1.409a3.314,3.314,0,0,0-3.3,3.3v3.665A4.021,4.021,0,0,0,348.633,322.618Z" transform="translate(-343.6 -311.638)"/></g><path class="z" d="M340.438,332.139s-4.489.283-4.66,4.375c-.15,3.585-.508,8.87-.6,11.049a1.639,1.639,0,0,0,1.558,1.509h0a1.639,1.639,0,0,0,1.908-1.031c.5-2.121,1.644-7.3,2.416-10.8C341.939,333.248,340.438,332.139,340.438,332.139Z" transform="translate(-325.26 -314.601)"/><path class="z" d="M334.682,353.236s-1.911-.866-3.244,3.012c-1.167,3.4-2.82,9.1-3.529,11.161-.237.689-.132.695.449.938h0a1.29,1.29,0,0,0,1.6-.723c.972-1.954,3.286-6.73,4.85-9.963C336.6,353.972,334.682,353.236,334.682,353.236Z" transform="translate(-322.634 -322.072)"/><path class="z" d="M369.284,346.789s1.214,1.711-2.339,3.758c-3.112,1.792-7.663,4.524-9.553,5.614a1.291,1.291,0,0,1-1.737-.285h0a1.29,1.29,0,0,1,.4-1.712c1.732-1.326,5.98-4.508,8.856-6.66C368.2,345.047,369.284,346.789,369.284,346.789Z" transform="translate(-332.476 -319.596)"/><path class="n" d="M348.339,341.561a28.4,28.4,0,0,0-12.516-.222c-1.958,1.389-.284,6.013-.284,6.013v5.8s-2.885,6.022-4.559,21.835-2.539,26.895-2.539,26.895l5.425,1.067,7.977-38.314,2.229,37.94h5.378s.681-17.834,1.552-26.144,2.026-17.6-2.649-23.921A69.977,69.977,0,0,1,348.339,341.561Z" transform="translate(-322.865 -317.653)"/><path class="ab" d="M324.287,438.412l.036.039c.16.183.774.953.085,1.289-.785.382-1.477-.721-1.477-.721s-2.247.8-2.77,1-.342.962-.342.962h9.137a3.014,3.014,0,0,0,0-2.572,6.861,6.861,0,0,0-2.967,1.087l-1.061-1.374" transform="translate(-319.79 -352.28)"/><path class="z" d="M351.859,437.277s-5.052,2.257-5.652,2.544-.849.862.7.862h6.451a1.208,1.208,0,0,0,1.308-1.074v-2.331Z" transform="translate(-329.016 -351.978)"/><path class="ab" d="M349.86,438.412l.035.039c.16.183.775.953.086,1.289-.785.382-1.477-.721-1.477-.721s-2.247.8-2.77,1-.342.962-.342.962h9.138a3.014,3.014,0,0,0,0-2.572,6.861,6.861,0,0,0-2.967,1.087l-1.062-1.374" transform="translate(-328.881 -352.28)"/><path class="n" d="M344.263,315.174a4.841,4.841,0,0,1-.262-4.311c1.016-2.329-.595-3.2,2.131-5.376s9.994,2.205,6.149,9.687c-.3-2.676-2.929-.594-4.564-4.41A3.547,3.547,0,0,0,344.263,315.174Z" transform="translate(-328.258 -304.926)"/><path class="z" d="M329.068,375.272a9.656,9.656,0,0,1,0,2.245c-.168.6-.637,1.76-.888,1.693s.251-2.33.117-2.464-1.207,1.023-1.308,1.324.235,2.581,0,2.6-.821-1.157-.972-2.464,1.257-2.933,1.257-2.933Z" transform="translate(-322 -329.935)"/><path class="z" d="M356.85,361.208c-.185-.14.793-1.591.793-1.591s-1.757,1.7-1.944,1.536,1.468-1.936,1.468-1.936-2.14,1.592-2.294,1.4,1.787-1.812,1.787-1.812-2.158,1.338-2.249,1.081,2.534-2.2,2.534-2.2-1.719.7-1.893.545c-.122-.1.274-.333.873-.733a8.779,8.779,0,0,1,1.411-.757,1.328,1.328,0,0,1,1.453.279h0a1.333,1.333,0,0,1,.128,1.753A13.769,13.769,0,0,1,356.85,361.208Z" transform="translate(-332.097 -323.309)"/><g transform="translate(15.669 9.204)"><path class="b" d="M346.537,321.406h5l.614,2.945a3.772,3.772,0,0,1-6.563.049Z" transform="translate(-344.631 -319.989)"/><line class="ac" x2="2.337" y2="1.848"/><line class="ac" x1="2.337" y2="1.848" transform="translate(6.354)"/></g></g></g></g></g></svg>