<svg xmlns="http://www.w3.org/2000/svg" xmlns:xlink="http://www.w3.org/1999/xlink" width="823.254" height="691.513" viewBox="0 0 823.254 691.513"><defs><style>.a{fill:none;}.b{fill:#fdfbef;}.an,.c{fill:#ffcf6b;}.d{fill:#263238;}.e{fill:#898989;}.f{fill:#f9a531;}.g{fill:#5c8bc6;}.h{fill:#f57e2a;}.i{fill:#e05d00;}.j{fill:#40649f;}.k{fill:#6fa1d8;}.l{fill:#9e1117;}.m{fill:#c7161d;}.n{fill:#f7f7ff;}.o{fill:#ebebeb;}.p{fill:#e9e4f2;}.q{clip-path:url(#a);}.r{fill:#cec7dd;}.s{fill:#f2f0f7;}.t{fill:#b0a8c6;}.u{fill:#b6b6b6;}.v{fill:#fff;}.w{clip-path:url(#b);}.x{fill:#ffbe9d;}.y{opacity:0.2;}.z{fill:#f5f5f5;}.aa{fill:#fafafa;}.ab{fill:#e0e0e0;}.ac{fill:#f7942e;}.ad{fill:url(#c);}.ae{fill:#455a64;}.af,.bo{opacity:0.4;}.ag,.bk{opacity:0.3;}.ah{fill:#d20400;}.ai{fill:#eb996e;}.aj{fill:#ef5f3d;}.ak{fill:#ffe0a0;}.al{opacity:0.15;}.am{fill:#a91319;}.an,.aq,.bb{opacity:0.7;}.ao{fill:#fff3d9;}.ap{fill:#efd59e;}.aq{fill:#ffdd97;}.ar{fill:#fdfab6;}.as{fill:#38c7c2;}.at{fill:#00b5b8;}.au{fill:#fcde76;}.av{fill:#f59f3f;}.aw{fill:#f2821c;}.ax{fill:#d1d1d1;}.ay{fill:#e6608d;}.az{fill:#d4506f;}.ba{fill:#ffd9e4;}.bb{fill:#ffe7b6;}.bc{fill:#ffb531;}.bd{fill:#fa5d3f;}.be{fill:#fac850;}.bf{fill:#fff9f8;}.bg{fill:#9ae2f0;}.bh{fill:#79d8eb;}.bi{fill:#f29a49;}.bj{opacity:0.1;}.bl{fill:#37474f;}.bm{fill:#ffa8a7;}.bn{fill:#f28f8f;}.bp{fill:#00a5ff;}.bq{fill:#006ef4;}.br{fill:#e1e1e3;}.bs{fill:#d9d9db;}.bt{fill:#55fbfe;}.bu{fill:#00e8f2;}.bv{fill:#ff623f;}.bw{fill:#e70020;}.bx{fill:#ffd782;}.by{fill:#ffaf5f;}.bz{fill:#b4e1fa;}.ca{fill:#a0d2f0;}.cb{fill:#daf0fd;}.cc{fill:#d2555a;}.cd{fill:#c7cfe2;}.ce{fill:#ff6464;}.cf{fill:#eff2fa;}.cg{fill:#8f96ac;}.ch{fill:#afb9d2;}.ci{fill:url(#d);}.cj{font-size:13px;font-family:SegoeUI, Segoe UI;}</style><clipPath id="a"><rect class="a" width="223.754" height="98.169" transform="translate(273.104 245.308)"/></clipPath><clipPath id="b"><path class="a" d="M240.331,245.308H153.853V385.334l86.478.132Z"/></clipPath><linearGradient id="c" x1="0.5" x2="0.5" y2="1" gradientUnits="objectBoundingBox"><stop offset="0" stop-color="#f57e2a"/><stop offset="1" stop-color="#f9a531"/></linearGradient><linearGradient id="d" y1="0.5" x2="1" y2="0.5" gradientUnits="objectBoundingBox"><stop offset="0"/><stop offset="0.029" stop-color="#170000"/><stop offset="0.097" stop-color="#470100"/><stop offset="0.17" stop-color="#730200"/><stop offset="0.246" stop-color="#980300"/><stop offset="0.328" stop-color="#b80400"/><stop offset="0.417" stop-color="#d20400"/><stop offset="0.514" stop-color="#e60500"/><stop offset="0.625" stop-color="#f40500"/><stop offset="0.762" stop-color="#fc0500"/><stop offset="1" stop-color="#ff0601"/></linearGradient></defs><g transform="translate(-2973 1024)"><g transform="translate(2998 -1024)"><path class="b" d="M1265.059,463.4c-8.84-19.287-17.114-39.262-21.247-60.923-13.234-69.349,1.938-153.3-60.139-202.987A145.886,145.886,0,0,0,1080.04,168.5c-36.009,3.388-70.046,20.572-106.416,20.82-40.6.274-79.16-19.561-120.086-20.249-58.933-.984-117.552,30.2-147.177,81.586-16.186,28.075-20.5,63.7-41.953,88.732-22.209,25.928-59.716,37.825-85.806,61.018-57.33,50.972-80.68,138.3-27.6,201.023,28.3,33.436,71.4,52,96.692,88.135,20.141,28.776,20.506,66.166,34.686,97.8C721.8,875.3,855.375,871.341,929.375,835.641c23.982-11.566,41.279-22.815,68.936-22.322,26.816.475,52.5,10.608,79.469,10.125,55.462-.989,68.234-45.442,88.649-88.775,26.251-55.7,95.512-67.163,119.433-122.437C1306.794,563.863,1285.552,508.105,1265.059,463.4Z" transform="translate(-521.256 -167.891)"/><g transform="translate(82.871 87.433)"><circle class="c" cx="17.772" cy="17.772" r="17.772" transform="translate(570.327 43.623)"/><ellipse class="c" cx="12.925" cy="12.117" rx="12.925" ry="12.117" transform="translate(334.443)"/><ellipse class="c" cx="13.733" cy="12.925" rx="13.733" ry="12.925" transform="translate(0 153.487)"/><ellipse class="c" cx="12.117" cy="12.925" rx="12.117" ry="12.925" transform="translate(180.956 499.236)"/><circle class="c" cx="9.694" cy="9.694" r="9.694" transform="translate(32.313 92.092)"/><circle class="c" cx="8.078" cy="8.078" r="8.078" transform="translate(591.331 208.419)"/><circle class="c" cx="9.694" cy="9.694" r="9.694" transform="translate(499.239 478.232)"/><circle class="c" cx="4.847" cy="4.847" r="4.847" transform="translate(576.79 151.871)"/><circle class="c" cx="4.039" cy="4.039" r="4.039" transform="translate(6.463 355.443)"/></g></g><g transform="translate(-0.085 934.756)"><g transform="translate(3021.877 -1864.886)"><path class="d" d="M570.514,293.112q-.357,0-.718-.005a1.5,1.5,0,0,1-1.48-1.563v-.02a1.5,1.5,0,0,1,1.538-1.43c27.591.408,32.832-23.139,33.724-29.223a1.489,1.489,0,0,1,1.6-1.263h0a1.494,1.494,0,0,1,1.357,1.733C605.452,268.01,599.448,293.112,570.514,293.112Z"/><path class="e" d="M553.359,416.476c0,1.361,7.4,2.465,16.525,2.465s16.526-1.1,16.526-2.465-7.4-2.465-16.526-2.465S553.359,415.114,553.359,416.476Z"/><circle class="f" cx="79.076" cy="79.076" r="79.076" transform="translate(479.163 123.107) rotate(-9.217)"/><circle class="g" cx="23.881" cy="23.881" r="23.881" transform="translate(473.685 207.236) rotate(-9.217)"/><circle class="g" cx="23.881" cy="23.881" r="23.881" transform="translate(496.727 221.689) rotate(-0.623)"/><circle class="h" cx="23.88" cy="23.88" r="23.88" transform="translate(523.944 230.656)"/><circle class="h" cx="23.881" cy="23.881" r="23.881" transform="translate(580.236 237.41) rotate(-9.217)"/><circle class="h" cx="23.88" cy="23.88" r="23.88" transform="translate(624.865 174.734)"/><circle class="h" cx="23.881" cy="23.881" r="23.881" transform="translate(589.213 98.802)"/><circle class="f" cx="23.881" cy="23.881" r="23.881" transform="translate(504.034 98.802)"/><circle class="g" cx="23.88" cy="23.88" r="23.88" transform="translate(477.202 137.831)"/><circle class="h" cx="25.427" cy="25.427" r="25.427" transform="translate(512.495 97.928) rotate(-12.856)"/><circle class="g" cx="13.578" cy="13.578" r="13.578" transform="translate(371.169 258.338) rotate(-43.117)"/><circle class="g" cx="11.426" cy="11.426" r="11.426" transform="translate(480.208 177.069)"/><circle class="g" cx="11.426" cy="11.426" r="11.426" transform="translate(475.717 195.002) rotate(-0.729)"/><circle class="g" cx="11.426" cy="11.426" r="11.426" transform="translate(494.068 121.475)"/><circle class="f" cx="11.426" cy="11.426" r="11.426" transform="translate(552.013 97.106) rotate(-8.49)"/><circle class="f" cx="14.425" cy="14.425" r="14.425" transform="translate(563.9 90.133)"/><circle class="f" cx="11.426" cy="11.426" r="11.426" transform="translate(578.209 107.025) rotate(-39.806)"/><circle class="f" cx="13.287" cy="13.287" r="13.287" transform="translate(622.168 140.506) rotate(-53.122)"/><circle class="h" cx="11.426" cy="11.426" r="11.426" transform="translate(628.034 142.702) rotate(-9.528)"/><circle class="h" cx="11.426" cy="11.426" r="11.426" transform="translate(639.168 213.083)"/><circle class="h" cx="11.426" cy="11.426" r="11.426" transform="translate(633.098 230.081) rotate(-13.783)"/><circle class="h" cx="11.426" cy="11.426" r="11.426" transform="translate(625.016 236.592)"/><circle class="h" cx="11.426" cy="11.426" r="11.426" transform="translate(573.398 276.898) rotate(-67.295)"/><circle class="h" cx="11.426" cy="11.426" r="11.426" transform="translate(558.952 259.342)"/><circle class="h" cx="11.426" cy="11.426" r="11.426" transform="translate(623.895 225.289) rotate(-13.283)"/><circle class="h" cx="11.426" cy="11.426" r="11.426" transform="translate(639.174 153.785)"/><path class="i" d="M670.756,192.114c-2.085,2.085-2.811,4.739-1.622,5.928s3.844.464,5.929-1.621,2.811-4.739,1.621-5.928S672.84,190.029,670.756,192.114Z"/><path class="i" d="M549.667,274.683c-2.348-1.783-5.076-2.143-6.094-.8s.061,3.871,2.409,5.654,5.076,2.143,6.094.8S552.014,276.466,549.667,274.683Z"/><path class="i" d="M635.146,118.478c-2.084,2.085-2.81,4.739-1.621,5.929s3.844.464,5.929-1.621,2.81-4.739,1.621-5.929S637.231,116.394,635.146,118.478Z"/><path class="i" d="M636.907,122.762c-2.923.386-5.114,2.05-4.895,3.717s2.768,2.708,5.691,2.323,5.115-2.05,4.9-3.717S639.83,122.377,636.907,122.762Z"/><path class="j" d="M485.134,144.063c2.085,2.084,4.739,2.81,5.928,1.621s.464-3.844-1.621-5.929-4.739-2.81-5.928-1.621S483.049,141.978,485.134,144.063Z"/><path class="j" d="M488.713,138.547c.385,2.923,2.049,5.115,3.717,4.9s2.707-2.768,2.322-5.691-2.049-5.114-3.717-4.894S488.328,135.624,488.713,138.547Z"/><path class="j" d="M505.574,107.118c.385,2.923,2.05,5.115,3.717,4.9s2.708-2.768,2.323-5.691-2.05-5.114-3.718-4.894S505.189,104.195,505.574,107.118Z"/><path class="j" d="M475.136,233.126c2.9.529,5.5-.383,5.8-2.038s-1.8-3.425-4.7-3.955-5.5.383-5.8,2.037S472.235,232.6,475.136,233.126Z"/><path class="i" d="M666.409,203.469c-2.085,2.085-2.811,4.739-1.621,5.929s3.843.463,5.928-1.622,2.811-4.739,1.621-5.928S668.494,201.384,666.409,203.469Z"/><path class="j" d="M478.8,153.753c2.938.243,5.432-.919,5.571-2.6s-2.131-3.232-5.07-3.475-5.432.92-5.571,2.6S475.861,153.511,478.8,153.753Z"/><path class="j" d="M487.383,243.6c.769-2.846.075-5.509-1.549-5.948s-3.563,1.513-4.332,4.36-.075,5.509,1.549,5.948S486.614,246.443,487.383,243.6Z"/><path class="i" d="M555.829,95.756c2.251-1.9,3.194-4.49,2.108-5.774s-3.792-.781-6.043,1.123-3.194,4.489-2.108,5.773S553.578,97.66,555.829,95.756Z"/><path class="i" d="M626.47,273.127c-.156-2.944-1.644-5.259-3.323-5.17s-2.916,2.548-2.76,5.492,1.644,5.259,3.324,5.17S626.626,276.071,626.47,273.127Z"/><path class="i" d="M559.082,182.707c2.251-1.9,3.194-4.489,2.108-5.773s-3.792-.781-6.043,1.123-3.194,4.489-2.108,5.773S556.831,184.612,559.082,182.707Z"/><path class="j" d="M474.944,226.554c1.979,2.185,4.594,3.042,5.841,1.913s.654-3.816-1.325-6-4.594-3.042-5.841-1.913S472.965,224.368,474.944,226.554Z"/><path class="f" d="M656.19,154.272c-2.085,2.085-2.811,4.739-1.621,5.929s3.844.463,5.928-1.621,2.811-4.739,1.622-5.929S658.275,152.187,656.19,154.272Z"/><path class="i" d="M525.761,140.571c-2.084,2.085-2.81,4.739-1.621,5.929s3.844.464,5.929-1.621,2.81-4.739,1.621-5.929S527.846,138.487,525.761,140.571Z"/><path class="i" d="M654.394,240.649c-2.085,2.085-2.811,4.739-1.621,5.929s3.843.463,5.928-1.622,2.811-4.739,1.621-5.928S656.478,238.564,654.394,240.649Z"/><path class="j" d="M520.9,137.976c-.243,2.939.919,5.433,2.6,5.571s3.232-2.131,3.474-5.069-.919-5.433-2.6-5.571S521.14,135.038,520.9,137.976Z"/><path class="i" d="M616.718,138.652c-.581,2.89.284,5.5,1.933,5.834s3.458-1.743,4.039-4.633-.284-5.5-1.933-5.834S617.3,135.761,616.718,138.652Z"/><path class="i" d="M602.261,100.089c-.581,2.89.284,5.5,1.933,5.834s3.458-1.742,4.039-4.633-.284-5.5-1.933-5.834S602.843,97.2,602.261,100.089Z"/><path class="i" d="M546.433,91.193c-.581,2.89.284,5.5,1.934,5.834s3.457-1.742,4.038-4.633-.284-5.5-1.933-5.834S547.015,88.3,546.433,91.193Z"/><path class="f" d="M661.457,158.692c-2.923.385-5.114,2.049-4.894,3.717s2.767,2.707,5.69,2.322,5.115-2.05,4.9-3.717S664.38,158.306,661.457,158.692Z"/><path class="i" d="M611.009,279.727c-1.461,2.561-1.46,5.312,0,6.146s3.83-.568,5.29-3.129,1.461-5.312,0-6.146S612.47,277.166,611.009,279.727Z"/><path class="i" d="M608.808,269.2c-2.624,1.345-4.128,3.649-3.36,5.146s3.516,1.619,6.14.274,4.127-3.65,3.36-5.146S611.431,267.857,608.808,269.2Z"/><path class="i" d="M611.7,194.118c-2.624,1.345-4.128,3.649-3.36,5.146s3.516,1.619,6.14.274,4.127-3.649,3.36-5.146S614.327,192.772,611.7,194.118Z"/><path class="i" d="M582.539,234.03c-1.071-2.747-3.209-4.478-4.776-3.867s-1.97,3.333-.9,6.08,3.21,4.478,4.777,3.867S583.61,236.777,582.539,234.03Z"/><path class="i" d="M558.734,165.7c-1.071-2.747-3.209-4.479-4.777-3.868s-1.97,3.333-.9,6.08,3.209,4.478,4.777,3.868S559.8,168.449,558.734,165.7Z"/><path class="j" d="M505.363,112.252c-2.658-1.276-5.4-1.081-6.131.436s.836,3.78,3.494,5.056,5.4,1.081,6.131-.435S508.021,113.528,505.363,112.252Z"/><path class="i" d="M630.289,109.4c-.582,2.89.284,5.5,1.933,5.834s3.457-1.742,4.039-4.633-.285-5.5-1.934-5.834S630.87,106.509,630.289,109.4Z"/><path class="i" d="M668.663,206.362c-2.923.385-5.114,2.05-4.9,3.717s2.768,2.708,5.691,2.323,5.114-2.05,4.9-3.718S671.586,205.977,668.663,206.362Z"/><path class="k" d="M486.581,181.278c1.814-1.814,2.445-4.123,1.41-5.158s-3.344-.4-5.158,1.41-2.445,4.123-1.41,5.158S484.767,183.092,486.581,181.278Z"/><path class="i" d="M591.932,109.44c2.043,1.552,4.416,1.864,5.3.7s-.053-3.368-2.1-4.919-4.416-1.865-5.3-.7S589.889,107.889,591.932,109.44Z"/><path class="k" d="M517.562,245.343c1.814-1.814,2.445-4.123,1.41-5.158s-3.344-.4-5.158,1.41-2.445,4.124-1.41,5.158S515.748,247.157,517.562,245.343Z"/><path class="k" d="M516.03,241.616c2.543-.335,4.45-1.783,4.259-3.234s-2.408-2.356-4.951-2.021-4.45,1.783-4.259,3.234S513.487,241.951,516.03,241.616Z"/><path class="f" d="M648.077,223.084c-1.814-1.814-4.123-2.445-5.158-1.41s-.4,3.344,1.411,5.158,4.123,2.445,5.158,1.41S649.891,224.9,648.077,223.084Z"/><path class="f" d="M644.963,227.882c-.335-2.543-1.783-4.449-3.234-4.258s-2.355,2.408-2.02,4.951,1.783,4.45,3.234,4.258S645.3,230.425,644.963,227.882Z"/><path class="f" d="M630.294,255.227c-.336-2.544-1.784-4.45-3.234-4.259s-2.356,2.408-2.021,4.951,1.783,4.45,3.234,4.259S630.629,257.77,630.294,255.227Z"/><path class="i" d="M656.776,145.6c-2.524-.461-4.782.332-5.045,1.772s1.57,2.98,4.093,3.441,4.782-.333,5.045-1.772S659.3,146.057,656.776,145.6Z"/><path class="k" d="M490.363,171.4c1.814-1.814,2.445-4.124,1.41-5.158s-3.344-.4-5.158,1.41-2.445,4.123-1.41,5.158S488.549,173.212,490.363,171.4Z"/><path class="f" d="M653.589,214.653c-2.556-.211-4.727.8-4.847,2.258s1.854,2.812,4.411,3.024,4.726-.8,4.847-2.259S656.145,214.864,653.589,214.653Z"/><path class="i" d="M646.12,136.486c-.668,2.477-.065,4.793,1.348,5.175s3.1-1.317,3.769-3.793.066-4.793-1.347-5.175S646.789,134.01,646.12,136.486Z"/><path class="f" d="M586.57,265.112c-1.958,1.657-2.779,3.906-1.833,5.023s3.3.68,5.257-.977,2.779-3.9,1.834-5.023S588.529,263.456,586.57,265.112Z"/><path class="f" d="M525.11,110.794c.136,2.561,1.431,4.575,2.892,4.5s2.536-2.217,2.4-4.778-1.43-4.576-2.892-4.5S524.975,108.232,525.11,110.794Z"/><path class="i" d="M583.74,189.462c-1.958,1.657-2.779,3.906-1.834,5.023s3.3.68,5.258-.977,2.779-3.906,1.834-5.023S585.7,187.8,583.74,189.462Z"/><path class="i" d="M656.943,151.314c-1.722-1.9-4-2.646-5.082-1.664s-.569,3.32,1.153,5.221,4,2.647,5.082,1.665S658.664,153.216,656.943,151.314Z"/><path class="k" d="M499.253,214.2c1.814-1.814,2.446-4.123,1.411-5.158s-3.344-.4-5.158,1.411-2.445,4.123-1.411,5.158S497.44,216.015,499.253,214.2Z"/><path class="i" d="M612.73,226.121c1.814-1.814,2.445-4.123,1.411-5.158s-3.344-.4-5.158,1.411-2.446,4.123-1.411,5.158S610.916,227.935,612.73,226.121Z"/><path class="k" d="M500.816,139.051c1.814-1.814,2.446-4.123,1.411-5.158s-3.344-.4-5.158,1.41-2.445,4.123-1.411,5.158S499,140.865,500.816,139.051Z"/><path class="i" d="M616.962,228.379c.211-2.556-.8-4.726-2.259-4.847s-2.812,1.855-3.023,4.411.8,4.726,2.259,4.847S616.751,230.936,616.962,228.379Z"/><path class="f" d="M546.173,261.342c.506-2.514-.247-4.787-1.682-5.076s-3.008,1.516-3.514,4.031.248,4.788,1.682,5.076S545.667,263.857,546.173,261.342Z"/><path class="f" d="M594.745,269.082c.506-2.515-.247-4.787-1.682-5.076s-3.008,1.516-3.514,4.031.247,4.787,1.682,5.076S594.239,271.6,594.745,269.082Z"/><path class="k" d="M494.671,210.356c2.543-.335,4.45-1.783,4.258-3.234s-2.408-2.355-4.951-2.02-4.449,1.783-4.258,3.234S492.128,210.691,494.671,210.356Z"/><path class="f" d="M538.562,105.052c1.271-2.228,1.271-4.622,0-5.347s-3.332.493-4.6,2.722-1.271,4.622,0,5.347S537.291,107.28,538.562,105.052Z"/><path class="f" d="M540.477,114.208c2.283-1.17,3.592-3.175,2.924-4.477s-3.06-1.409-5.342-.238-3.591,3.175-2.924,4.477S538.2,115.379,540.477,114.208Z"/><path class="i" d="M625.2,105.694c.932,2.39,2.792,3.9,4.156,3.365s1.714-2.9.782-5.29-2.792-3.9-4.155-3.365S624.266,103.3,625.2,105.694Z"/><path class="i" d="M581.5,222.138c.932,2.39,2.792,3.9,4.156,3.365s1.714-2.9.782-5.289-2.792-3.9-4.155-3.366S580.568,219.748,581.5,222.138Z"/><path class="f" d="M630.478,250.76c2.312,1.11,4.7.94,5.334-.379s-.728-3.289-3.041-4.4-4.7-.941-5.334.379S628.165,249.65,630.478,250.76Z"/><path class="k" d="M521.788,253.242c.506-2.514-.247-4.787-1.682-5.076s-3.007,1.516-3.513,4.031.247,4.787,1.682,5.076S521.283,255.757,521.788,253.242Z"/><path class="k" d="M488.4,168.881c2.543-.335,4.449-1.783,4.258-3.234s-2.408-2.355-4.951-2.02-4.45,1.783-4.258,3.234S485.858,169.217,488.4,168.881Z"/><path class="d" d="M569.884,416.476h0a2.465,2.465,0,0,1-2.213-2.656V218.069a2.465,2.465,0,0,1,2.213-2.655h0a2.465,2.465,0,0,1,2.213,2.655V413.82A2.465,2.465,0,0,1,569.884,416.476Z"/><path class="d" d="M566.965,250.083c-39.265,0-46.712-34.815-47.894-42.722a1.494,1.494,0,0,1,1.362-1.7l.984-.078a1.488,1.488,0,0,1,1.6,1.281c.99,7.346,7.519,40.013,45.3,39.209a1.5,1.5,0,0,1,1.543,1.427l.044,1.011a1.491,1.491,0,0,1-1.446,1.56Q567.7,250.082,566.965,250.083Z"/></g><g transform="translate(3021.877 -1864.886)"><rect class="l" width="449.57" height="16.6" transform="translate(99.707 402.318)"/><rect class="m" width="374.697" height="15.946" transform="translate(137.143 66.886)"/><rect class="n" width="404.702" height="289.327" transform="translate(122.141 97.732)"/><rect class="m" width="107.056" height="160.286" transform="translate(143.564 235.432)"/><rect class="o" width="86.478" height="150.411" transform="translate(153.853 245.308)"/><rect class="l" width="239.154" height="127.606" transform="translate(265.404 235.432)"/><rect class="p" width="86.478" height="120.244" transform="translate(153.853 245.308)"/><rect class="p" width="223.754" height="98.169" transform="translate(273.104 245.308)"/><g class="q"><path class="r" d="M396.732,314.09s-.783,2.588-1.038,3.505-.968,2.676-1.35,2.575.382-3.543.178-3.747-1.835,1.555-1.988,2.013.357,3.925,0,3.951-1.249-1.759-1.478-3.747,2.636-6.005,2.636-6.005Z"/><path class="r" d="M414.083,314.33c-.159-8.4-6.246-9.142-6.246-9.142s-6.087-.74-6.347,7.612c-.2,6.408,1.6,23.881,2.441,31.668a4.6,4.6,0,0,0,3.644,4.224h0c1.849.224,3.425-1.2,3.69-3.333C412.2,337.789,414.2,320.777,414.083,314.33Z"/><path class="r" d="M428.436,314.33c-.159-8.4-6.246-9.142-6.246-9.142s-6.087-.74-6.347,7.612c-.2,6.408,1.6,23.881,2.441,31.668a4.6,4.6,0,0,0,3.644,4.224h0c1.85.224,3.425-1.2,3.69-3.333C426.557,337.789,428.559,320.777,428.436,314.33Z"/><path class="r" d="M411.356,344.707a3.578,3.578,0,0,0-7.154,0c-.167,3.5,1.713,30.24,1.713,30.24h4.416S411.522,348.21,411.356,344.707Z"/><path class="r" d="M406.067,374.947s-7.682,3.432-8.594,3.869-1.29,1.31,1.063,1.31h9.81a1.838,1.838,0,0,0,1.988-1.634v-3.545Z"/><path class="r" d="M425.144,342.325a3.577,3.577,0,0,0-6.875,1.976c.807,3.413,10,28.591,10,28.591l4.244-1.22S426.272,345.646,425.144,342.325Z"/><path class="r" d="M423.634,273.066s4.591-.727,4.851,5.5c.228,5.451.773,13.488.911,16.8a2.492,2.492,0,0,1-2.369,2.295h0a2.492,2.492,0,0,1-2.9-1.568c-.764-3.226-2.5-11.094-3.673-16.419C419.116,273.6,423.634,273.066,423.634,273.066Z"/><path class="r" d="M422.539,272.431c-.167-.052-.335-.1-.5-.154a25.483,25.483,0,0,0-14.72,0q-.255.076-.509.156a1.886,1.886,0,0,0-1.149,1.6c-.795,5.474-.045,23.323.233,29.224.05,1.078.714,1.913,1.516,1.913h14.532c.8,0,1.466-.835,1.517-1.913.277-5.9,1.027-23.75.232-29.225A1.886,1.886,0,0,0,422.539,272.431Z"/><path class="r" d="M427.666,309.735c-1.445-7.794-4.2-10.51-4.2-10.51H405.714s-2.623,3.755-4.068,11.55a2.836,2.836,0,0,0,1.278,2.9,23.64,23.64,0,0,0,23.073,0A4.966,4.966,0,0,0,427.666,309.735Z"/><rect class="r" width="7.016" height="8.519" transform="translate(411.149 264.253)"/><path class="r" d="M417.966,267.184s-2.033,2.578-6.817,2.578V266.1Z"/><path class="r" d="M406.448,273.066s-4.591-.727-4.851,5.5c-.227,5.451-.772,13.488-.911,16.8a2.493,2.493,0,0,0,2.369,2.295h0a2.493,2.493,0,0,0,2.9-1.568c.764-3.226,2.5-11.094,3.672-16.419C410.967,273.6,406.448,273.066,406.448,273.066Z"/><path class="r" d="M403.924,292.629s-2.906-1.316-4.932,4.58c-1.774,5.164-4.533,12.75-5.612,15.888a1.963,1.963,0,0,0,.929,2.51h0a1.962,1.962,0,0,0,2.439-1.1c1.478-2.97,5-10.233,7.376-15.149C406.839,293.748,403.924,292.629,403.924,292.629Z"/><path class="r" d="M427.7,342.939c0-2,7.292-34.81-4.025-44.691h-18s-4.99,6.769-4.99,22.546.914,52.938.914,52.938h10.89l2.663-57.055s.948,20.084,1.8,27.212,7.846,29,7.846,29l9.642-2.581S427.7,344.935,427.7,342.939Z"/><path class="r" d="M411.149,270.58s-7.2.61-9.55,4.023c-1.883,2.736-1.681,16.918-2.334,19.1s-8.669,17.232-5.885,19.39,4.295,2.906,5.042,2.158,2.662-5.581,2.662-5.581,13.116,1.71,21.242,1.71,9.456-4.269,8.791-7.267-.807-16.493-1.719-23.336-.805-7.666-11.233-10.2A10.148,10.148,0,0,1,411.149,270.58Z"/><path class="r" d="M429.387,296.242s-.92,3.054-6.694.7c-5.056-2.061-12.584-4.974-15.657-6.226a1.962,1.962,0,0,1-1.279-2.351h0a1.962,1.962,0,0,1,2.433-1.113c3.21.842,10.995,2.97,16.262,4.412C430.462,293.31,429.387,296.242,429.387,296.242Z"/><path class="r" d="M408.3,293.113a2.8,2.8,0,0,1-1.359-3.125,9.227,9.227,0,0,1,1.641-3.79c1.386-1.386,13.749,3.327,13.749,3.327s-.513-12.12,2.476-16.752c4.414,1.26,4.509,3.351,5.65,13.8s-.941,13.5-5.65,13.5C421.147,300.074,412.145,295.267,408.3,293.113Z"/><path class="r" d="M405.887,374.537s-6.012,1.85-8.382,2.627a2,2,0,0,0-1.222,2.962h14.051v-5.179A4.906,4.906,0,0,1,405.887,374.537Z"/><path class="r" d="M428.4,372.487s-6.488,5.358-7.249,6.022-.894,1.607,1.374.979l9.453-2.619a1.838,1.838,0,0,0,1.481-2.1l-.947-3.416Z"/><path class="r" d="M428.114,372.14s-5.3,3.387-7.376,4.769a2,2,0,0,0-.387,3.18l13.541-3.75-1.383-4.991A4.906,4.906,0,0,1,428.114,372.14Z"/><path class="r" d="M401.234,289.74c.026-.352,2.686-.3,2.686-.3s-3.614-.847-3.566-1.218,3.684.28,3.684.28-3.8-1.423-3.677-1.778,3.789.788,3.789.788-3.489-1.655-3.235-1.983,4.9,1.424,4.9,1.424-2.3-1.622-2.257-1.969c.034-.242.651.076,1.656.511a13.9,13.9,0,0,1,3.234,2.006l-.622,2.99S401.208,290.092,401.234,289.74Z"/><path class="r" d="M411.539,268.9h1.813a8.042,8.042,0,0,0,8.019-8.019v-3.651a5.039,5.039,0,0,0-5.025-5.025H414.2a5.039,5.039,0,0,0-5.025,5.025v9.31A2.367,2.367,0,0,0,411.539,268.9Z"/><path class="r" d="M409.179,260.55s-3.163,4.013,0,4.013"/><path class="r" d="M416.211,261.457s-2.088-2.3-1.6-6.972c-4.054,0-5.132,1.042-5.132,1.042s-2.484-2.148.71-4.789,11.3-1.965,12.467,3.317.5,10.718-4.6,13.306A6.979,6.979,0,0,0,416.211,261.457Z"/><line class="r" x1="2.824" y2="1.922" transform="translate(413.927 260.176)"/><line class="r" x1="3.461" y2="3.586" transform="translate(414.769 263.257)"/><path class="r" d="M414.369,261.748h-5.948a4.085,4.085,0,0,0-.871,2.407c0,1.383,1.8,4.324,3.621,4.855a8.56,8.56,0,0,0,4.393-.425Z"/><path class="r" d="M415.362,261.386a1.923,1.923,0,1,0,2.6-1.582A2.185,2.185,0,0,0,415.362,261.386Z"/><rect class="s" width="230.358" height="85.02" transform="translate(270.964 302.797)"/><rect class="t" width="230.358" height="22.266" transform="translate(270.964 365.552)"/><path class="r" d="M323.62,311.066a13.637,13.637,0,0,1,.747,3.2c-.047.914-.359,2.711-.754,2.7s-.4-3.4-.646-3.548-1.45,1.843-1.5,2.3,1.207,3.6.864,3.7-1.6-1.385-2.262-3.2.889-4.58.889-4.58Z"/><path class="r" d="M365.877,303.845a15.183,15.183,0,0,0,3.326.746c.951-.038,2.826-.322,2.814-.7s-3.537-.415-3.69-.65,1.932-1.377,2.413-1.42,3.741,1.19,3.847.862-1.428-1.551-3.312-2.2-4.778.814-4.778.814Z"/><path class="r" d="M319.631,289.264s-3.178.268-2.05,6.156c.989,5.157,2.308,12.8,2.909,15.938a1.943,1.943,0,0,0,2.041,1.662h0a1.9,1.9,0,0,0,1.585-2.071c-.17-3.182-.669-10.916-1.009-16.151C322.72,288.827,319.631,289.264,319.631,289.264Z"/><path class="r" d="M343.371,271.359c-.166-.051-.334-.1-.5-.148a26.505,26.505,0,0,0-14.721,0c-.17.049-.34.1-.508.15a1.817,1.817,0,0,0-1.149,1.539c-.795,5.256-.045,22.4.232,28.062a1.747,1.747,0,0,0,1.516,1.837h14.533a1.748,1.748,0,0,0,1.516-1.837c.277-5.666,1.027-22.806.232-28.062A1.817,1.817,0,0,0,343.371,271.359Z"/><path class="r" d="M323.1,341.775l0-.115C322.987,341.386,323.076,341.761,323.1,341.775Z"/><path class="r" d="M348.544,310.587a32.231,32.231,0,0,0-.54-5.594l-.007-.036c-1.445-7.484-3.7-7.869-3.7-7.869H326.29s-1.768.9-3.212,8.383l-.188,1.384a60.311,60.311,0,0,0-.536,7.091c-.131,7.885-.058,21.562.747,27.829.1,5.8,1.953,28.025,1.953,28.025h7.434s1.353-25.674,1.164-29.038c0-.015-.005-.028-.006-.043.5-3.419,1.208-8.476,1.824-13.547.616,5.071,1.326,10.128,1.824,13.547,0,.015,0,.028-.005.043-.189,3.364,1.163,29.038,1.163,29.038h7.435s1.848-22.224,1.952-28.025C348.664,335.358,348.622,318.946,348.544,310.587Z"/><rect class="r" width="7.016" height="8.181" transform="translate(333.347 263.506)"/><path class="r" d="M329.218,260.452a1.592,1.592,0,1,0,1.557-1.927A1.772,1.772,0,0,0,329.218,260.452Z"/><path class="r" d="M341.41,260.452a1.593,1.593,0,1,0,1.557-1.927A1.772,1.772,0,0,0,341.41,260.452Z"/><path class="r" d="M336.748,267.6h.245a5.991,5.991,0,0,0,5.974-5.973v-5.134a4.939,4.939,0,0,0-4.924-4.924H335.7a4.938,4.938,0,0,0-4.924,4.924v5.134A5.991,5.991,0,0,0,336.748,267.6Z"/><path class="r" d="M328.214,272.264s-4.292-1.713-6,4.038c-1.5,5.037-3.916,12.417-4.827,15.477a2.389,2.389,0,0,0,1.764,2.677h0a2.551,2.551,0,0,0,3.188-.811c1.5-2.839,5.034-9.792,7.423-14.5C332.482,273.777,328.214,272.264,328.214,272.264Z"/><path class="r" d="M344.644,270.753s-4.514,1.065-2.342,6.672c1.9,4.909,4.515,12.227,5.671,15.21a2.533,2.533,0,0,0,3.073,1.151h0a2.413,2.413,0,0,0,2.067-2.468c-.545-3.14-1.994-10.751-2.977-15.9C349.015,269.541,344.644,270.753,344.644,270.753Z"/><path class="r" d="M348.3,289.838s-2.542,2.15,2.752,5.313c4.637,2.77,11.725,6.653,14.542,8.336a2.018,2.018,0,0,0,2.654-.33h0a1.837,1.837,0,0,0-.527-2.519c-2.565-2.022-8.857-6.875-13.116-10.157C349.741,286.735,348.3,289.838,348.3,289.838Z"/><path class="r" d="M333.347,269.813s-7.582,1.562-10.453,2.849-5.555,15.071-5.555,15.071l6.78,2.9-2.791,18.207a4.075,4.075,0,0,0,3.57,4.6,76.427,76.427,0,0,0,22.036-.15,4.1,4.1,0,0,0,3.439-4.28c-1.1-16.358-3.361-30.077-3.361-30.077l.854,11.632,6.567-2.408-2.724-15.6a4.928,4.928,0,0,0-3.822-2.754l-7.451-1.007A7.177,7.177,0,0,1,333.347,269.813Z"/><path class="r" d="M327.474,369.8s-9.23.006-9.23,4.972H332.7l-.209-4.972"/><path class="r" d="M343.466,369.8s9.231.006,9.231,4.972H338.243l.209-4.972"/><path class="r" d="M336.551,268.294a7.028,7.028,0,0,0,6.434-4.173c1.989-4.379,2.925-8.739-.694-12.214a8.042,8.042,0,0,0-10.515-.51c-1.824,1.751-3.472,4.173-2.648,8.809S333.171,268.294,336.551,268.294Z"/><rect class="r" width="54.178" height="98.515" transform="translate(250.62 266.843)"/><rect class="r" width="54.178" height="89.024" transform="translate(447.143 276.334)"/></g><rect class="m" width="413.889" height="16.984" transform="translate(117.547 385.334)"/><rect class="u" width="94.214" height="16.984" transform="translate(149.985 385.334)"/><rect class="e" width="107.056" height="16.6" transform="translate(143.564 402.318)"/><rect class="r" width="70.003" height="102.406" transform="translate(153.853 263.146)"/><path class="v" d="M164.684,297.153l24.262-7.313V265.578l-24.262,7.313Z"/><g class="w"><path class="d" d="M194.164,240.017V367.985l-34.7,10.593V250.611l37.108-10.594m3.2-6.887-45.924,12.31V385.466l45.924-12.311V233.13Z"/><path class="d" d="M154.993,315.845h0c0,1.582.681,2.661,1.521,2.408l40.6-12.182c.84-.253,1.521-1.74,1.521-3.322h0c0-1.582-.681-2.66-1.521-2.408l-40.6,12.183C155.674,312.776,154.993,314.263,154.993,315.845Z"/></g><path class="l" d="M83.615,206.63v29.365a68.569,68.569,0,0,0,53.528,0h0V206.63Z"/><path class="l" d="M244.2,206.63v29.365l-.628.267a66.965,66.965,0,0,1-52.271,0l-.629-.267V206.63"/><path class="l" d="M351.256,206.63v29.365h0a68.569,68.569,0,0,1-53.528,0h0V206.63"/><path class="l" d="M458.312,206.63v29.365h0a68.569,68.569,0,0,1-53.528,0h0V206.63"/><path class="l" d="M565.369,206.63v29.365h0a68.569,68.569,0,0,1-53.528,0h0V206.63"/><path class="p" d="M190.671,206.63v29.365h0a68.569,68.569,0,0,1-53.528,0h0V206.63"/><path class="p" d="M297.727,206.63v29.365h0a65.182,65.182,0,0,1-50.987,1.021l-2.541-1.021V206.63"/><path class="p" d="M404.784,206.63v29.365h0a68.569,68.569,0,0,1-53.528,0h0V206.63"/><path class="p" d="M511.84,206.63v29.365h0a68.569,68.569,0,0,1-53.528,0h0V206.63"/><path class="m" d="M83.615,206.63,122.141,151.3h44.967L137.143,206.63"/><path class="m" d="M511.84,206.63,481.876,151.3h44.967l38.526,55.325"/><path class="s" d="M137.143,206.63,167.108,151.3h44.967l-21.4,55.325"/><path class="m" d="M190.671,206.63l21.4-55.325h44.967L244.2,206.63"/><path class="s" d="M244.2,206.63,257.041,151.3h44.967l-4.281,55.325"/><path class="m" d="M297.728,206.63l4.281-55.325h44.967l4.281,55.325"/><path class="s" d="M351.256,206.63,346.975,151.3h44.967l12.842,55.325"/><path class="m" d="M404.784,206.63,391.942,151.3h44.967l21.4,55.325"/><path class="s" d="M458.312,206.63l-21.4-55.325h44.967L511.84,206.63"/><rect class="l" width="404.702" height="14.9" transform="translate(122.141 136.405)"/><rect class="l" width="404.702" height="14.9" transform="translate(122.141 82.832)"/></g><g transform="translate(3601.928 -1612.153)"><path class="x" d="M554.769,252.13s8.824,1.488,9.536,1.68,3.507,1.515,3.649,2.369a25.575,25.575,0,0,1,0,3.365s-.509.41-.821-.41a8.377,8.377,0,0,1-.268-2.446l-1.565-.6.854,1.515.142,3.551s-1.094-.1-1.307-.946a8.383,8.383,0,0,1-.208-1.8l-1.138-.963.853,1.154.284,2.555s-.832.274-1.094-.3a8.808,8.808,0,0,1-.285-2.259l-3.217-1.127-2.128,1.187-3.977-2.221Z" transform="translate(-432.803 -197.498)"/><path class="m" d="M495.228,212.26c.044.175,10.635,14.771,10.635,14.771l21.282,6.62-.968,7.993-26.08-5.252-9.257-10.624Z" transform="translate(-404.161 -179.441)"/><g class="y" transform="translate(86.679 32.819)"><path d="M495.228,212.26c.044.175,10.635,14.771,10.635,14.771l21.282,6.62-.968,7.993-26.08-5.252-9.257-10.624Z" transform="translate(-490.84 -212.26)"/></g><rect class="z" width="46.82" height="8.474" rx="3.05" transform="translate(8.845 52.892)"/><path class="d" d="M393.609,257.266a1.483,1.483,0,0,0,.274-.038,1.641,1.641,0,0,0,1.335-1.439v-5.367a1.641,1.641,0,0,0-.547-1.171,1.592,1.592,0,0,0-.618-.323,2.511,2.511,0,0,0-.739-.049h-5.072l-38.083.044a1.532,1.532,0,0,0-1.133.5,1.57,1.57,0,0,0-.394,1.176v4.787a2.287,2.287,0,0,0,.055.624A1.543,1.543,0,0,0,350,257.129h10.756l17.118.033,11.544.044,3.14.027h0l-3.14.027-11.544.044-17.118.033H349.924a1.864,1.864,0,0,1-.678-.219,1.811,1.811,0,0,1-.864-1.094,2.221,2.221,0,0,1-.066-.7v-4.765a1.888,1.888,0,0,1,.476-1.368,1.794,1.794,0,0,1,1.34-.591l38.083.044h5.071a3.15,3.15,0,0,1,.782.066,1.729,1.729,0,0,1,.678.361,1.762,1.762,0,0,1,.607,1.286v3.567c0,.684,0,1.28-.027,1.816a1.728,1.728,0,0,1-.662,1.143,1.641,1.641,0,0,1-.755.312.975.975,0,0,1-.3.071Z" transform="translate(-339.608 -195.899)"/><circle class="d" cx="22.37" cy="22.37" r="22.37" transform="translate(147.575 126.037) rotate(-2.75)"/><path class="d" d="M604.078,420.84v.06a22.37,22.37,0,1,0,44.736.646s0-.038,0-.06Z" transform="translate(-455.446 -273.909)"/><path class="aa" d="M616.249,408.306a15.707,15.707,0,1,0,15.931-15.477A15.707,15.707,0,0,0,616.249,408.306Z" transform="translate(-460.959 -261.222)"/><path class="ab" d="M632.181,392.829a15.707,15.707,0,0,0-15.931,15.477l31.408.454A15.707,15.707,0,0,0,632.181,392.829Z" transform="translate(-460.96 -261.222)"/><path class="d" d="M627.469,413.475a9.569,9.569,0,1,0,9.705-9.426A9.568,9.568,0,0,0,627.469,413.475Z" transform="translate(-466.041 -266.304)"/><path class="h" d="M612.674,360.847s22.9-6.926,32.371,17.955L597.12,393.65Z" transform="translate(-452.296 -246.336)"/><circle class="d" cx="22.37" cy="22.37" r="22.37" transform="translate(9.556 126.04) rotate(-2.75)"/><path class="d" d="M351.788,420.84v.06a22.37,22.37,0,1,0,44.736.646v-.071Z" transform="translate(-341.181 -273.909)"/><path class="aa" d="M364,408.306a15.707,15.707,0,1,0,15.931-15.477A15.707,15.707,0,0,0,364,408.306Z" transform="translate(-346.712 -261.222)"/><path class="ab" d="M379.909,392.829A15.707,15.707,0,0,0,364,408.306l31.408.454a15.707,15.707,0,0,0-15.5-15.931Z" transform="translate(-346.713 -261.222)"/><path class="d" d="M375.179,413.475a9.569,9.569,0,1,0,9.705-9.426A9.569,9.569,0,0,0,375.179,413.475Z" transform="translate(-351.776 -266.304)"/><path class="ac" d="M419.2,403.63c-.126.066-11.773-1.8-11.773-1.8h0a7.112,7.112,0,0,1-5.312,2.779c-5.033.241-9.952.465-14.224.657a7.221,7.221,0,0,0-6.893,7.511h0a7.227,7.227,0,0,0,6.932,6.915l24.8.979a16.547,16.547,0,0,0,12.036-5.5h0Z" transform="translate(-354.408 -265.299)"/><path class="ad" d="M339.572,337.972s-1.061-21.8,19.427-26.342v-2.8h71.767v6.707s-10.531,12.687-7.112,23.218,4.513,11.609,4.513,11.609h40.846a27.9,27.9,0,0,0,5.159-15.477c.219-9.246-3.622-25.051-6.494-35.156-2.593-9.218-4.234-16.9-4.234-16.9L475.7,278.75s22.677,29.679,23.6,31.321,4.076,5.558,3.337,14.082-21.139,34.817-26.49,37.782-10.187,3.151-15.007,3.89c-4.18.646-35.1.219-43.193.093a15.867,15.867,0,0,1-7.987-2.216c-2.418-1.466-4.234-3.9-6.242-7.878l-4.284-8.338Z" transform="translate(-335.645 -209.555)"/><path class="ae" d="M341.822,384.26l-9.038,14.159a2.188,2.188,0,0,0,2.686,3.239,10.525,10.525,0,0,0,3.036-2.057C342.637,395.667,350,385.3,350,385.3Z" transform="translate(-332.402 -257.342)"/><path class="d" d="M416.867,368.484a.636.636,0,0,1,.055-.208l.181-.6a15.733,15.733,0,0,0,.476-2.336,16.489,16.489,0,0,0-1.4-8.546,17.9,17.9,0,0,0-3.332-5.006,21.85,21.85,0,0,0-5.471-4.191,27.693,27.693,0,0,0-7.167-2.67,37.749,37.749,0,0,0-8.206-.848,61.832,61.832,0,0,0-8.206.607c-2.648.356-5.186.793-7.583,1.34a44.906,44.906,0,0,0-12.173,4.5,30.12,30.12,0,0,0-6.953,5.312c-.722.744-1.242,1.362-1.587,1.783l-.388.487a.979.979,0,0,1-.142.159,18.388,18.388,0,0,1,2.035-2.506,29.544,29.544,0,0,1,6.937-5.411,44.512,44.512,0,0,1,12.216-4.585c2.4-.547,4.924-1,7.6-1.362a62.253,62.253,0,0,1,8.272-.613,37.645,37.645,0,0,1,8.25.859,28.027,28.027,0,0,1,7.232,2.735,22,22,0,0,1,5.542,4.256,18.011,18.011,0,0,1,3.343,5.088,16.413,16.413,0,0,1,1.324,8.644,13.964,13.964,0,0,1-.547,2.336c-.088.252-.153.443-.208.591A1.16,1.16,0,0,1,416.867,368.484Z" transform="translate(-342.623 -239.016)"/><path class="z" d="M447.3,367.315c-.033,0,.115-.345.268-.968a7.081,7.081,0,0,0,.082-2.735,11.244,11.244,0,0,0-1.335-3.8,12.972,12.972,0,0,0-1.324-1.991,12.005,12.005,0,0,0-1.778-1.844,15.531,15.531,0,0,0-4.267-2.495,20.08,20.08,0,0,0-3.917-1.094,25.638,25.638,0,0,0-2.735-.312A8.029,8.029,0,0,1,431.29,352a.881.881,0,0,1,.263,0h.749a20.454,20.454,0,0,1,2.736.224,18.916,18.916,0,0,1,3.983,1.023,15.6,15.6,0,0,1,4.377,2.522,12.532,12.532,0,0,1,1.816,1.887,13.677,13.677,0,0,1,1.329,2.041,10.888,10.888,0,0,1,1.3,3.9,6.742,6.742,0,0,1-.17,2.768,3.937,3.937,0,0,1-.263.706A.959.959,0,0,1,447.3,367.315Z" transform="translate(-377.19 -242.727)"/><g class="af" transform="translate(56.059 105.451)"><path d="M434.87,345.042a28.743,28.743,0,0,1,10.805,4.377,19.1,19.1,0,0,1,7.238,8.994,15.775,15.775,0,0,1-.29,11.626l5.072.421c1.707-5.7-.148-12.681-4.251-17.14a25.166,25.166,0,0,0-18.574-8.3" transform="translate(-434.87 -345.02)"/></g><path class="m" d="M7.9,0H45.847a7.9,7.9,0,0,1,7.9,7.9V30.452a7.9,7.9,0,0,1-7.9,7.9H7.9a7.9,7.9,0,0,1-7.9-7.9V7.9A7.9,7.9,0,0,1,7.9,0Z" transform="translate(5.382 60.94)"/><path class="d" d="M395.8,279.182c0,.082-12.085.142-26.988.142s-26.993-.06-26.993-.142,12.08-.142,26.993-.142S395.8,279.106,395.8,279.182Z" transform="translate(-336.668 -209.686)"/><path class="d" d="M446.561,338.292c0,.077-16.134.142-36.026.142s-36.026-.066-36.026-.142,16.128-.142,36.026-.142S446.561,338.216,446.561,338.292Z" transform="translate(-351.473 -236.458)"/><path class="ae" d="M478.615,327.751a6.2,6.2,0,0,0,1.3-3.217c.109-1.8-.711-4.054-2.653-4.054H452.481a7.271,7.271,0,0,0-7.271,7.271Z" transform="translate(-383.494 -228.455)"/><path class="h" d="M562.006,266.083l-4.311-8.989a5.471,5.471,0,0,1,2.188-7.03l12.889-7.687A4.322,4.322,0,0,1,575,241.76h2.785l1.094,18.169-4.289,1.658,2.735,4.42Z" transform="translate(-434.207 -192.801)"/><path class="o" d="M594.91,243s4.409,1.012,4.962,7.807-3.89,8.918-3.89,8.918Z" transform="translate(-451.295 -193.363)"/><path class="d" d="M559.61,262.774s-8.912,4.224-10,4.924a2.076,2.076,0,0,0-.81,2.807c1.007,2.522,5.176.148,5.176.148l8.3-4.147s3.19-1.5,2.008-3.392C562.963,261,559.61,262.774,559.61,262.774Z" transform="translate(-430.307 -202.004)"/><path class="x" d="M545.269,260.54s8.376,1.433,9.087,1.641,3.5,1.515,3.644,2.369a25.6,25.6,0,0,1,0,3.365s-.5.41-.821-.41a8.625,8.625,0,0,1-.268-2.451l-1.565-.6.853,1.515.142,3.556s-1.094-.1-1.3-.952a8.3,8.3,0,0,1-.208-1.794l-1.143-.968.853,1.154.29,2.56s-.832.268-1.094-.3a8.78,8.78,0,0,1-.285-2.259l-3.217-1.122-2.128,1.187-3.348-1.86Z" transform="translate(-428.582 -201.307)"/><path class="d" d="M563.769,234.138c0,3.392-1.559,6.138-3.479,6.138s-3.479-2.735-3.479-6.138S558.364,228,560.289,228,563.769,230.735,563.769,234.138Z" transform="translate(-434.039 -186.569)"/><path class="d" d="M564.21,245.918l1.915,6.631a1.718,1.718,0,0,0,.892-1.959c-.481-2.27-.755-3.884-1.28-5.876-.066-.2-1.526,1.2-1.526,1.2" transform="translate(-437.391 -194.131)"/><g class="af" transform="translate(86.415 70.262)"><path d="M492.9,342.45c-.186-.547-.383-1.094-.547-1.68s-.372-1.094-.514-1.641a17.625,17.625,0,0,1-.481-2.5c-3.228,13.13,1.7,22.392,10.159,23.043,12.364.952,27.436,1.641,33.531.044,11.111-2.916,15.187-12.184,16.161-13.71s9.809-17.682,4.377-33.236-14.853-32.07-14.853-32.07l-8.989,3.02s1.641,7.659,4.251,16.872c2.872,10.1,6.713,25.91,6.494,35.156a27.9,27.9,0,0,1-5.159,15.477h-40.84s-.875-.875-3.572-8.753" transform="translate(-490.357 -280.7)"/></g><path class="m" d="M336.584,378.2l.29-3.118,74.557,8.589a7.364,7.364,0,0,1,6.39,8.6l-.334,1.887-77.139-11.21A4.377,4.377,0,0,1,336.584,378.2Z" transform="translate(-334.287 -253.184)"/><g transform="translate(2.277 121.896)"><path class="h" d="M336.584,378.2l.29-3.118,74.557,8.589a7.364,7.364,0,0,1,6.39,8.6l-.334,1.887-77.139-11.21A4.377,4.377,0,0,1,336.584,378.2Z" transform="translate(-336.564 -375.08)"/></g><g class="ag" transform="translate(147.264 113.624)"><path d="M601.58,392.2s16.413-18.054,19.8-32.245a31.908,31.908,0,0,1,5.082.377S616.756,386.723,601.58,392.2Z" transform="translate(-601.58 -359.959)"/></g><path class="d" d="M620.436,348.34a2.617,2.617,0,0,1,.088.454c.044.3.131.744.186,1.319a20.1,20.1,0,0,1-.126,4.924,24.868,24.868,0,0,1-2.188,6.937,78.623,78.623,0,0,1-4.344,7.769,103.739,103.739,0,0,1-9.607,12.988c-1.335,1.581-2.44,2.839-3.206,3.7l-.886.99a3.838,3.838,0,0,1-.323.334,2.44,2.44,0,0,1,.279-.367l.848-1.029,3.135-3.758a112.784,112.784,0,0,0,9.519-13.01,83.385,83.385,0,0,0,4.377-7.73,25.39,25.39,0,0,0,2.188-6.86,21.884,21.884,0,0,0,.213-4.858c-.038-.574-.109-1.018-.131-1.324a2.428,2.428,0,0,1-.022-.481Z" transform="translate(-453.614 -241.073)"/><path class="d" d="M581.281,414.561a21.928,21.928,0,0,1-2.631-2.374,22.52,22.52,0,0,1-2.429-2.577A43.846,43.846,0,0,1,581.281,414.561Z" transform="translate(-442.83 -268.823)"/><path class="d" d="M496.43,414.072a7.6,7.6,0,0,1,1.209-2.336,7.7,7.7,0,0,1,1.723-1.986c.06.06-.689.957-1.488,2.145S496.507,414.1,496.43,414.072Z" transform="translate(-406.692 -268.886)"/><path class="d" d="M432.322,422.923a11.016,11.016,0,0,0,2.238-2.845,9.794,9.794,0,0,0,1.094-3.748,8.7,8.7,0,0,0-3.928-8.206,9.776,9.776,0,0,0-3.6-1.5,11,11,0,0,0-3.616-.049,1.054,1.054,0,0,1,.241-.071,5.963,5.963,0,0,1,.722-.142,8.585,8.585,0,0,1,2.692.066,9.788,9.788,0,0,1,3.709,1.483,8.841,8.841,0,0,1,4.043,8.474,9.787,9.787,0,0,1-1.182,3.83,8.481,8.481,0,0,1-1.641,2.134,5.637,5.637,0,0,1-.547.476A1.025,1.025,0,0,1,432.322,422.923Z" transform="translate(-374.119 -267.315)"/><path class="d" d="M388.719,421.884a11.752,11.752,0,0,1-.268-2.626,12.423,12.423,0,0,1,0-2.648,24.553,24.553,0,0,1,.252,5.274Z" transform="translate(-357.755 -271.993)"/><path class="d" d="M392.083,421.885a25.33,25.33,0,0,1-.673-5.285,25.319,25.319,0,0,1,.673,5.285Z" transform="translate(-359.127 -271.989)"/><path class="d" d="M415.334,333.652c0,.077-9.065.142-20.242.142s-20.242-.066-20.242-.142,9.065-.142,20.242-.142S415.334,333.57,415.334,333.652Z" transform="translate(-351.627 -234.356)"/><path class="d" d="M395.072,295.349c-.082,0-.142-10.395-.142-23.186s.038-23.164.142-23.164.142,10.395.142,23.191S395.149,295.349,395.072,295.349Z" transform="translate(-360.722 -196.081)"/><path class="d" d="M384.992,295.288c-.077,0,.312-10.395.87-23.175s1.094-23.169,1.149-23.164-.306,10.395-.864,23.175S385.1,295.294,384.992,295.288Z" transform="translate(-356.216 -196.058)"/><path class="ae" d="M357.212,424a1.779,1.779,0,0,1-.241-.246c-.142-.164-.378-.4-.635-.733a21,21,0,0,1-2.019-2.965,22.666,22.666,0,0,1,.093-22.693,20.6,20.6,0,0,1,2.041-2.949c.263-.334.5-.547.646-.733s.235-.246.241-.235a1.374,1.374,0,0,1-.2.274c-.131.181-.356.421-.6.766a23.418,23.418,0,0,0-.115,28.465c.241.345.46.591.591.771S357.223,423.993,357.212,424Z" transform="translate(-340.97 -261.503)"/><path class="ae" d="M498.651,373.11l-.17.317-3.3,6.188-4.617,4.442,9.229,12.288,7.687-1.275s-.859-1.756-4.721-2.1l-1.461-7.342,5.422-8.4" transform="translate(-404.034 -252.292)"/><path class="ab" d="M490.58,392.366l9.229,12.288,7.687-1.275-1.056-1.012-6.308.689-8.567-11.637Z" transform="translate(-404.043 -260.584)"/><path class="d" d="M509.958,403c-.044.088-.547-.093-1.094.027s-.99.432-1.061.367.273-.58,1-.706S510.018,402.929,509.958,403Z" transform="translate(-411.839 -265.676)"/><path class="d" d="M509.136,399.429c-.066.066-.487-.328-1.094-.35s-1.094.345-1.143.274.038-.17.235-.328a1.482,1.482,0,0,1,.919-.285,1.439,1.439,0,0,1,.9.345A.607.607,0,0,1,509.136,399.429Z" transform="translate(-411.428 -263.899)"/><path class="d" d="M508.615,394.995c-.077.06-.416-.339-.979-.438s-1.018.159-1.094.077.049-.159.252-.274a1.351,1.351,0,0,1,1.641.3C508.62,394.83,508.653,394.973,508.615,394.995Z" transform="translate(-411.262 -261.845)"/><path class="d" d="M511.946,390.84c-.082.044-.372-.356-.9-.585s-1.012-.2-1.034-.29.547-.317,1.176,0S512.039,390.812,511.946,390.84Z" transform="translate(-412.842 -259.851)"/><path class="d" d="M513.157,386.15c-.038.027-.339-.235-.8-.695l-.788-.815a2.515,2.515,0,0,1-.46-.547.618.618,0,0,1-.033-.476.476.476,0,0,1,.421-.317,1.4,1.4,0,0,1,.782.252,2.88,2.88,0,0,1,.547.454,2.664,2.664,0,0,1,.585,1.045,1.439,1.439,0,0,1,0,1.094,8.207,8.207,0,0,0-.23-1,2.737,2.737,0,0,0-.585-.9,2.511,2.511,0,0,0-.5-.383,1.276,1.276,0,0,0-.58-.2.142.142,0,0,0-.131.093.3.3,0,0,0,0,.224,2.419,2.419,0,0,0,.383.481l.749.87A3.281,3.281,0,0,1,513.157,386.15Z" transform="translate(-413.309 -256.907)"/><path class="d" d="M515.4,387.34c-.038,0-.076-.4.263-.935a1.948,1.948,0,0,1,2.188-.793.372.372,0,0,1,.164.257.46.46,0,0,1-.055.257,1.091,1.091,0,0,1-.235.29,3.653,3.653,0,0,1-.492.4,3.41,3.41,0,0,1-.963.449,1.576,1.576,0,0,1-.963.071c0-.055.356-.088.886-.3a3.826,3.826,0,0,0,.859-.476,3.491,3.491,0,0,0,.438-.383.874.874,0,0,0,.17-.2c.027-.077,0-.055,0-.071a.609.609,0,0,0-.235-.049,1.711,1.711,0,0,0-.29,0,1.913,1.913,0,0,0-.547.131,1.877,1.877,0,0,0-.761.547A6.811,6.811,0,0,0,515.4,387.34Z" transform="translate(-415.243 -257.916)"/><path class="ab" d="M500.2,390.221a.925.925,0,1,1-1.061-.76A.924.924,0,0,1,500.2,390.221Z" transform="translate(-407.568 -259.692)"/><path class="ae" d="M556.55,382.705l2.467,16.019,19.952-2.965c-.4-1.887-11.292-4.18-11.292-4.18l-1.16-10.329Z" transform="translate(-433.921 -255.978)"/><path class="ab" d="M564.989,400.168a.821.821,0,0,0-.427,1.012.8.8,0,0,0,1,.432.87.87,0,0,0,.443-1.094.821.821,0,0,0-1.094-.334" transform="translate(-437.53 -264.513)"/><path class="ab" d="M560.906,409.979l-.186-1.641,19.2-2.238s.946.257.941.9Z" transform="translate(-435.81 -267.233)"/><path class="d" d="M576.073,399.815c0,.1-.465.213-.9.6s-.624.832-.722.81-.033-.613.5-1.067S576.084,399.722,576.073,399.815Z" transform="translate(-442.01 -264.362)"/><path class="d" d="M580.564,400.849c.038.093-.361.317-.629.782s-.3.908-.4.919-.241-.547.1-1.094S580.547,400.756,580.564,400.849Z" transform="translate(-444.28 -264.843)"/><path class="d" d="M584.212,403.638c-.088.038-.3-.432-.126-1s.6-.854.651-.777-.186.4-.323.875S584.305,403.616,584.212,403.638Z" transform="translate(-446.364 -265.307)"/><path class="d" d="M574.785,395.419c0,.093-.492.027-1.039.142s-.946.361-1.012.285.3-.487.941-.618S574.824,395.332,574.785,395.419Z" transform="translate(-441.248 -262.291)"/><path class="d" d="M572.326,390.393a1.9,1.9,0,0,1-1,.142,4.58,4.58,0,0,1-1.094-.164,4.679,4.679,0,0,1-.64-.2,1.093,1.093,0,0,1-.334-.191.416.416,0,0,1-.12-.509.547.547,0,0,1,.394-.29,1.24,1.24,0,0,1,.377,0,3.1,3.1,0,0,1,.657.12,3.629,3.629,0,0,1,1.012.465c.547.361.739.7.706.728s-.312-.235-.832-.52a3.9,3.9,0,0,0-.968-.367,2.949,2.949,0,0,0-.6-.093c-.219,0-.4,0-.438.1s0,.049.038.109a1.014,1.014,0,0,0,.246.137,5.893,5.893,0,0,0,.574.224,5.626,5.626,0,0,0,1.023.224A7.045,7.045,0,0,1,572.326,390.393Z" transform="translate(-439.603 -259.562)"/><path class="d" d="M574.413,389a1.71,1.71,0,0,1-.41-.925,3.382,3.382,0,0,1,0-1.094,3.741,3.741,0,0,1,.164-.646.832.832,0,0,1,.547-.6.476.476,0,0,1,.46.213,1.429,1.429,0,0,1,.159.356,2.227,2.227,0,0,1,.1.673,2.326,2.326,0,0,1-.274,1.094c-.312.547-.7.749-.711.717a4.147,4.147,0,0,0,.492-.821,2.279,2.279,0,0,0,.175-.985,1.93,1.93,0,0,0-.1-.574c-.06-.208-.164-.367-.241-.334a.716.716,0,0,0-.3.378,3.316,3.316,0,0,0-.17.58,3.692,3.692,0,0,0-.044,1.023C574.3,388.615,574.463,388.976,574.413,389Z" transform="translate(-441.806 -258.009)"/><path class="d" d="M513.7,314.473,496.59,351.752l11.3,6.784,23.656-44.856" transform="translate(-406.765 -225.375)"/><path class="d" d="M523.734,348.515l-12.271,1.97-7.347-43.844-36.3,2.632a8.842,8.842,0,0,1-2.856-.268c-10.192-2.8-8.814-15.794-7.829-17.879l50.228-1.439a10.69,10.69,0,0,1,10.9,9.207Z" transform="translate(-388.588 -214.506)"/><path class="ah" d="M453.744,252.686l.18-18.535s-2.391-12.036-3.1-16.79c-1.094-7.353-2.6-10.849,9.443-16.073l2.637-1.018,4.076.055c4.858.367,9.979,4.76,10.1,7.659l4.7,41.781Z" transform="translate(-385.71 -174.01)"/><path class="m" d="M455.8,210s-3.4,7.32-2.735,13.989l12.676,12.167c2.839,3.162,6.4,4.508,10.942,4.782l26.227,2.867.728-6.86L478.7,229.876c-1-.186-1.494-1.22-2.254-1.887L455.8,210" transform="translate(-387.014 -178.417)"/><path class="d" d="M454.39,213.09a1.793,1.793,0,0,1,.5-.339,6.254,6.254,0,0,1,1.7-.476,8.753,8.753,0,0,1,2.834,0,2.937,2.937,0,0,1,.832.284,8.362,8.362,0,0,1,.771.547c.5.394,1.012.848,1.532,1.34,1.05.979,2.046,2.221,3.211,3.479s2.44,2.61,3.83,4.027,2.883,2.9,4.481,4.431c.8.766,1.641,1.543,2.511,2.3.443.361.881.788,1.3,1.187a3.151,3.151,0,0,0,1.45.853h0l24.986,7.057.115.033v.12c-.049.487-.109,1.007-.164,1.537-.191,1.822-.383,3.627-.547,5.323v.142h-.142L492.473,243.7l-5.252-.574-5.028-.509c-1.641-.181-3.222-.367-4.76-.591a21.428,21.428,0,0,1-4.41-1.023,16.238,16.238,0,0,1-3.709-2c-1.094-.771-2.123-1.576-3.069-2.369-3.748-3.195-6.5-6.056-8.409-8-.946-.979-1.674-1.751-2.161-2.276l-.547-.6-.181-.213s.071.06.2.191.323.334.547.585l2.188,2.243c1.931,1.92,4.7,4.76,8.458,7.927.946.782,1.959,1.581,3.058,2.342a16.36,16.36,0,0,0,3.676,1.959,21.41,21.41,0,0,0,4.377,1c1.537.219,3.124.4,4.754.58l5.028.492,5.252.574,11.106,1.209-.159.126c.181-1.7.372-3.5.547-5.329.06-.547.115-1.05.164-1.537l.1.153L479.3,230.974h0a3.326,3.326,0,0,1-1.6-.925c-.443-.421-.842-.815-1.3-1.193-.881-.766-1.707-1.548-2.511-2.314-1.6-1.537-3.086-3.031-4.47-4.453s-2.653-2.779-3.83-4.054-2.139-2.511-3.179-3.49a18.229,18.229,0,0,0-1.51-1.34,6.479,6.479,0,0,0-.755-.547,2.643,2.643,0,0,0-.793-.279,8.486,8.486,0,0,0-2.8-.044,6.321,6.321,0,0,0-1.691.432A3.836,3.836,0,0,0,454.39,213.09Z" transform="translate(-387.652 -179.395)"/><path class="x" d="M466.335,163.629l1.269,18.054a5.624,5.624,0,0,0,5.613,5.225h0a5.624,5.624,0,0,0,5.613-5.991c-.115-1.718-.213-3.124-.213-3.124s4.377-.678,4.421-5.05c.033-2.522-.4-8.245-.777-12.632a5.728,5.728,0,0,0-5.728-5.241H473.89a8.075,8.075,0,0,0-7.555,8.759Z" transform="translate(-393.048 -153.448)"/><path class="ai" d="M484.105,195.3a10.182,10.182,0,0,1-5.7-1.614s1.346,3.14,5.706,2.735Z" transform="translate(-398.531 -171.03)"/><path class="d" d="M492.647,174.241a.624.624,0,0,1-.6.629.591.591,0,0,1-.646-.547.629.629,0,0,1,.6-.635A.6.6,0,0,1,492.647,174.241Z" transform="translate(-404.414 -161.97)"/><path class="d" d="M492.043,171.906c-.082.082-.547-.268-1.225-.268s-1.16.339-1.236.257.044-.186.263-.339a1.685,1.685,0,0,1,.985-.306,1.641,1.641,0,0,1,.974.317C491.988,171.72,492.076,171.868,492.043,171.906Z" transform="translate(-403.58 -160.867)"/><path class="d" d="M481.127,174.241a.618.618,0,0,1-.6.629.591.591,0,0,1-.646-.547.629.629,0,0,1,.6-.635A.6.6,0,0,1,481.127,174.241Z" transform="translate(-399.197 -161.97)"/><path class="d" d="M479.948,172.136c-.077.082-.547-.268-1.225-.268s-1.16.339-1.231.257.038-.186.257-.339a1.685,1.685,0,0,1,.985-.306,1.641,1.641,0,0,1,.974.312C479.948,171.95,480.009,172.1,479.948,172.136Z" transform="translate(-398.105 -160.971)"/><path class="d" d="M486.232,177.151a4.476,4.476,0,0,1,1.094-.2c.17,0,.334-.055.361-.17a.821.821,0,0,0-.115-.509l-.514-1.3a22.036,22.036,0,0,1-1.138-3.414,23.215,23.215,0,0,1,1.411,3.31l.481,1.313a.99.99,0,0,1,.093.673.432.432,0,0,1-.284.252,1.209,1.209,0,0,1-.29.038A4.376,4.376,0,0,1,486.232,177.151Z" transform="translate(-401.932 -161.007)"/><path class="d" d="M482.8,182.63c.109,0,.109.722.733,1.236s1.4.438,1.406.547-.175.137-.5.148a1.816,1.816,0,0,1-1.171-.41,1.576,1.576,0,0,1-.547-1.039C482.668,182.832,482.75,182.624,482.8,182.63Z" transform="translate(-400.475 -166.021)"/><path class="d" d="M479.8,167.454c-.066.181-.733.1-1.521.191s-1.428.312-1.532.148.066-.252.323-.427a2.648,2.648,0,0,1,2.325-.257C479.682,167.224,479.83,167.366,479.8,167.454Z" transform="translate(-397.762 -158.919)"/><path class="d" d="M491.728,168.332c-.115.153-.58,0-1.132,0s-1.029.1-1.138-.06.027-.23.235-.372a1.549,1.549,0,0,1,.925-.252,1.581,1.581,0,0,1,.9.306C491.717,168.1,491.783,168.256,491.728,168.332Z" transform="translate(-403.517 -159.235)"/><path class="x" d="M466.643,176.765c-.077-.033-3-.892-2.905,2.1a2.243,2.243,0,0,0,3.075,2.188C466.818,180.961,466.643,176.765,466.643,176.765Z" transform="translate(-391.885 -163.301)"/><path class="ai" d="M466.471,180.743a.9.9,0,0,1-.137.082.547.547,0,0,1-.388,0,1.286,1.286,0,0,1-.629-1.132,1.729,1.729,0,0,1,.12-.749.607.607,0,0,1,.377-.416.268.268,0,0,1,.312.137c.044.082.027.142.044.148s.06-.055.033-.175a.323.323,0,0,0-.126-.186.389.389,0,0,0-.29-.066.722.722,0,0,0-.547.481,1.734,1.734,0,0,0-.153.837,1.34,1.34,0,0,0,.8,1.264.547.547,0,0,0,.47-.093C466.471,180.814,466.482,180.749,466.471,180.743Z" transform="translate(-392.495 -164.096)"/><path class="d" d="M465.55,166.3a1.576,1.576,0,0,1,1.439.739c.191.427.235.908.427,1.335a1.094,1.094,0,0,0,1.094.706.919.919,0,0,0,.624-.684,2.474,2.474,0,0,0,0-.963c-.175-1.4-.465-2.774-.52-4.18a7.112,7.112,0,0,1,.881-4.059,3.906,3.906,0,0,1,3.491-1.964c.93.077,1.778.547,2.7.689a3.655,3.655,0,0,0,3.031-1.012,6.084,6.084,0,0,1,.547-.41,1.69,1.69,0,0,0-.312-.919c-1.833-1.7-5.126-2.188-7.544-1.559a8.715,8.715,0,0,0-5.717,4.579c-1.039,2.265-.733,5.411-.159,7.7" transform="translate(-392.46 -152.945)"/><path class="m" d="M481.357,158.255s-11.456-3.687-16.413,6.226a18.478,18.478,0,0,1-.744-3.83,8.524,8.524,0,0,1,5.974-7.84C470.174,152.834,478.375,149.7,481.357,158.255Z" transform="translate(-392.095 -152.271)"/><path class="d" d="M477.361,161.972a2.495,2.495,0,0,0,3.972.361,1.466,1.466,0,0,0,2.774-.142,3.4,3.4,0,0,0,1.094.815,1.138,1.138,0,0,0,1.275-.268,1.094,1.094,0,0,0-.082-1.313,2.669,2.669,0,0,0-1.16-.782,8.4,8.4,0,0,0-4.322-.657,5.837,5.837,0,0,0-3.791,2.063" transform="translate(-397.947 -155.741)"/><g class="af" transform="translate(72.105 0.002)"><path d="M481.357,158.257a5.323,5.323,0,0,0-3.644-1.641,14.391,14.391,0,0,0-12.769,7.878,18.479,18.479,0,0,1-.744-3.83,8.524,8.524,0,0,1,5.974-7.84C470.174,152.836,478.375,149.706,481.357,158.257Z" transform="translate(-464.2 -152.275)"/></g><path class="m" d="M466.43,163.538a21.571,21.571,0,0,1,6.675-6.39,42.032,42.032,0,0,1,9.99-4.07,6.521,6.521,0,0,1,2.763-.29,2.489,2.489,0,0,1,2.046,1.674c.284,1.132-1.723,2.878-2.67,3.562a30.192,30.192,0,0,1-2.867,1.7s.027-2.1-3.332-2.533C474.467,156.6,466.43,163.538,466.43,163.538Z" transform="translate(-393.105 -152.487)"/><g class="ag" transform="translate(69.293 48.28)"><path d="M459.06,240.52c1.182,2.85,2.374,6.368,4.087,8.934a15.756,15.756,0,0,0,6.844,6.018,14.777,14.777,0,0,0,11.363.208c.29-.126.859-.284.8-.6,0,0-1.176-.137-1.543-.2-7.183-1.193-7.966-2.068-11.407-4.8-2.145-1.69-6.9-6.817-10.148-9.563" transform="translate(-459.06 -240.52)"/></g><path class="d" d="M487.409,278.46a3.009,3.009,0,0,1-.3.667,8.346,8.346,0,0,1-1.16,1.641,12.583,12.583,0,0,1-5.553,3.387,25.453,25.453,0,0,1-6.478.968c-.837.033-1.515.038-1.98.038a4.227,4.227,0,0,1-.728-.033,3.209,3.209,0,0,1,.722-.082l1.975-.126a28.343,28.343,0,0,0,6.406-1.039,13.02,13.02,0,0,0,5.5-3.283A14.021,14.021,0,0,0,487.409,278.46Z" transform="translate(-395.27 -209.423)"/><path class="ae" d="M533.059,365.718a.545.545,0,0,1-.044-.17,3.177,3.177,0,0,0-.1-.5c-.082-.46-.2-1.094-.35-1.937-.3-1.707-.722-4.141-1.247-7.145-1.023-6.051-2.435-14.383-3.994-23.585-.695-4.169-1.357-8.152-1.964-11.79l.142.115L509.8,321.836l-4.508.306-1.2.071h-.312l.312-.038,1.2-.109,4.5-.383,15.7-1.253h.12v.12c.613,3.638,1.286,7.621,1.986,11.784,1.526,9.207,2.905,17.545,3.912,23.6.481,3.009.875,5.471,1.154,7.156l.3,1.953c.033.208.055.378.071.5A.706.706,0,0,1,533.059,365.718Z" transform="translate(-409.971 -228.432)"/><path class="ae" d="M547.03,313.54c.049.066-.908.886-1.991,1.991s-1.893,2.073-1.959,2.019a13.031,13.031,0,0,1,3.95-4.01Z" transform="translate(-427.821 -225.312)"/><path class="d" d="M479.388,203.075a.918.918,0,0,1,.066.181,2.568,2.568,0,0,1,.1.547,4.491,4.491,0,0,1-.263,1.991,5.1,5.1,0,0,1-1.805,2.363,5.471,5.471,0,0,1-3.507.941,6.335,6.335,0,0,1-3.408-1.28,7.237,7.237,0,0,1-1.937-2.259,7.812,7.812,0,0,1-.744-1.86,5.275,5.275,0,0,1-.109-.547.537.537,0,0,1,0-.191,12.419,12.419,0,0,0,1.034,2.484,7.5,7.5,0,0,0,1.92,2.15,6.2,6.2,0,0,0,3.283,1.2,5.312,5.312,0,0,0,3.343-.87,5.045,5.045,0,0,0,1.762-2.221,4.646,4.646,0,0,0,.345-1.909C479.431,203.337,479.388,203.086,479.388,203.075Z" transform="translate(-393.715 -175.229)"/><path class="d" d="M501.7,234.729a2.29,2.29,0,0,1-.12-.547c-.06-.432-.131-.957-.219-1.565-.181-1.4-.416-3.19-.673-5.175s-.443-3.83-.547-5.186c-.06-.662-.1-1.2-.12-1.576a2.153,2.153,0,0,1,0-.58,2.7,2.7,0,0,1,.115.547c.06.432.131.952.213,1.565.175,1.4.4,3.19.646,5.175s.46,3.83.591,5.181c.06.667.1,1.2.131,1.581a2.49,2.49,0,0,1-.016.58Z" transform="translate(-408.311 -182.991)"/></g><g transform="translate(-57.306 -261.34)"><g transform="translate(3030.391 -1384.813)"><g transform="translate(18.321 171.147)"><path class="aj" d="M59.72,366.735l-16.358-9.191c-1.428-.827-1.428-2.168,0-3l82.074-47.553a5.745,5.745,0,0,1,5.194,0l16.359,9.172c1.435.827,1.435,2.168,0,3L64.914,366.717a5.733,5.733,0,0,1-5.194.019Z" transform="translate(-42.29 -306.37)"/><ellipse class="ak" cx="39.935" cy="24.666" rx="39.935" ry="24.666" transform="translate(79.994 36.533)"/><path class="ak" d="M340.256,388.054c-3.521-.833-8.421-.232-13.157-.113,7.186-5.971,6.171-14.241-3.051-19.566-10.369-5.983-27.185-5.983-37.554,0s-10.369,15.694,0,21.684c10.024,5.8,26.157,5.983,36.576.533l.626.088c5.908.658,11.666-1.88,16.753,0s2.976,5.745,3.5,6.773,1.992.313,1.992-2.725S343.94,388.931,340.256,388.054Z" transform="translate(-130.59 -327.851)"/></g><g transform="translate(0 153.367)"><path class="m" d="M44.764,307.218c-3.9-16.2-16.008-34.283-28.031-27.918s8.709,20.581,14.717,33.951c5.257,11.722,11.146,27.623,12.53,31.376l4.5-2.1C48.454,338.532,48.1,321.146,44.764,307.218Z" transform="translate(-13.048 -277.992)"/><path class="al" d="M44.764,307.218c-3.9-16.2-16.008-34.283-28.031-27.918s8.709,20.581,14.717,33.951c5.257,11.722,11.146,27.623,12.53,31.376l4.5-2.1C48.454,338.532,48.1,321.146,44.764,307.218Z" transform="translate(-13.048 -277.992)"/><path class="v" d="M49.12,342.978h0a.42.42,0,0,0,.42-.42c-.106-31.508-13.4-51.08-24.735-58.267a.426.426,0,0,0-.583.132.42.42,0,0,0,.132.576c11.165,7.067,24.24,26.383,24.347,57.552a.42.42,0,0,0,.42.426Z" transform="translate(-17.198 -280.321)"/><path class="m" d="M42.452,344.58c-9.291-18.8-22.267-20.788-27.066-16.521-3.834,3.4-.952,8.583,2.619,10.8,4.649,2.876,20.45,10.394,25.775,23.952l3.509-1.648C47.163,358.733,46.417,352.612,42.452,344.58Z" transform="translate(-13.242 -295.989)"/><path class="v" d="M49.408,364.251H49.5a.445.445,0,0,0,.345-.526c-3.07-15.243-17.593-25.825-24.867-27.467a.445.445,0,0,0-.194.865c7.067,1.6,21.2,11.9,24.19,26.778A.439.439,0,0,0,49.408,364.251Z" transform="translate(-17.316 -299.752)"/></g><path class="am" d="M135.378,34.328,62.131,76.6a7.994,7.994,0,0,0-3.991,6.629V250.585c0,2.719,1.673,5.883,3.759,7.08a8.866,8.866,0,0,0,8-.294l72.977-42.127a9.442,9.442,0,0,0,4.26-7.374V41.094a8.874,8.874,0,0,0-3.759-7.08A8.83,8.83,0,0,0,135.378,34.328Z" transform="translate(-29.889 -33.201)"/><path class="am" d="M68.859,285.5a8.74,8.74,0,0,1-6.979-.188c-2.068-1.19-3.759-4.386-3.759-7.08V110.876A7.594,7.594,0,0,1,59.2,107.23l6.892,3.9a8.276,8.276,0,0,0-1.98,4.962v165.6C64.1,284.956,66.19,286.5,68.859,285.5Z" transform="translate(-29.881 -60.849)"/><path class="ah" d="M71.409,84.84a8.333,8.333,0,0,0-3.759,6.5v165.6c0,3.665,2.6,5.169,5.777,3.333l72.984-42.134a9.442,9.442,0,0,0,4.26-7.374V43.991c0-2.707-1.917-3.809-4.26-2.456Z" transform="translate(-33.441 -36.097)"/><path class="am" d="M77.387,102.759,73.34,105.1V256.239l4.047-2.337,68.6-39.6,4.047-2.337V60.82L146,63.151Z" transform="translate(-35.566 -43.516)"/><path class="m" d="M144.914,210.332V65.53L77.387,104.518l-4.047,2.337V251.67l67.527-38.989C143.1,211.4,144.914,210.332,144.914,210.332Z" transform="translate(-35.566 -45.275)"/><path class="v" d="M144.914,210.332V65.53L77.387,104.518l-4.047,2.337V251.67l67.527-38.989C143.1,211.4,144.914,210.332,144.914,210.332Z" transform="translate(-35.566 -45.275)"/><path d="M125.2,83.876l12.317-7.111c.733-.426,1.328-.125,1.328.67a2.863,2.863,0,0,1-1.328,2.212L125.2,86.758c-.733.42-1.334.119-1.334-.677A2.851,2.851,0,0,1,125.2,83.876Z" transform="translate(-54.438 -49.398)"/><path d="M158.993,68.619c.689-.395,1.253-.075,1.253.721a2.75,2.75,0,0,1-1.253,2.161c-.689.4-1.253.075-1.253-.72a2.763,2.763,0,0,1,1.253-2.161Z" transform="translate(-67.087 -46.366)"/><path d="M166.963,64.028c.689-.4,1.253-.075,1.253.72a2.763,2.763,0,0,1-1.253,2.162c-.689.395-1.253.075-1.253-.721A2.751,2.751,0,0,1,166.963,64.028Z" transform="translate(-70.064 -44.65)"/><path d="M103.253,100.828c.689-.4,1.253-.075,1.253.721a2.763,2.763,0,0,1-1.253,2.162c-.689.4-1.253.075-1.253-.721A2.751,2.751,0,0,1,103.253,100.828Z" transform="translate(-46.27 -58.394)"/><path d="M111.193,96.229c.689-.395,1.253-.075,1.253.721a2.75,2.75,0,0,1-1.253,2.161c-.689.4-1.253.075-1.253-.721A2.769,2.769,0,0,1,111.193,96.229Z" transform="translate(-49.235 -56.677)"/><path class="an" d="M78.752,203.215a2.418,2.418,0,0,1-2.375-2.562V166.984a4.129,4.129,0,0,1,.583-2.036,4.054,4.054,0,0,1,1.46-1.5l24.4-14.065a2.819,2.819,0,0,1,1.391-.388,2.3,2.3,0,0,1,2.168,1.472h0a3.646,3.646,0,0,1,.175,1.1v33.676a4.386,4.386,0,0,1-2.03,3.534L80.143,202.827a3.857,3.857,0,0,1-.439.207,2.614,2.614,0,0,1-.952.182Z" transform="translate(-36.699 -76.445)"/><path class="ao" d="M108.968,154.272a2.625,2.625,0,0,0-1.184-2.055l-.971-.558a2.588,2.588,0,0,0-2.368,0L80.054,165.737a2.619,2.619,0,0,0-1.184,2.055v33.669a2.619,2.619,0,0,0,1.184,2.055l.965.558a2.625,2.625,0,0,0,2.368,0l24.384-14.09a2.625,2.625,0,0,0,1.184-2.049Z" transform="translate(-37.631 -77.335)"/><path class="ap" d="M78.87,210.551a2.619,2.619,0,0,0,1.184,2.055l.965.558a2.663,2.663,0,0,0,2.168.094c-.558.213-.984-.107-.984-.783V178.8a2.368,2.368,0,0,1,.351-1.165l-3.339-1.93a2.469,2.469,0,0,0-.345,1.172Z" transform="translate(-37.631 -86.425)"/><path class="ap" d="M109.14,153.966c-.138-.507-.626-.664-1.147-.351L83.6,167.681a2.368,2.368,0,0,0-.833.883l-3.333-1.923a2.369,2.369,0,0,1,.833-.883l24.391-14.065a2.625,2.625,0,0,1,2.368,0l.971.558A2.625,2.625,0,0,1,109.14,153.966Z" transform="translate(-37.84 -77.349)"/><path class="aq" d="M132.682,172.072a2.418,2.418,0,0,1-2.375-2.562V135.84a4.129,4.129,0,0,1,.583-2.036,4.01,4.01,0,0,1,1.46-1.5l24.4-14.065a2.738,2.738,0,0,1,1.385-.395,2.293,2.293,0,0,1,2.168,1.472h0a3.758,3.758,0,0,1,.175,1.1v33.669a4.386,4.386,0,0,1-2.03,3.534L134.01,171.683a4.4,4.4,0,0,1-.432.207,2.625,2.625,0,0,1-.9.182Z" transform="translate(-56.84 -64.811)"/><g transform="translate(75.096 54.521)"><path class="ao" d="M163.054,123.122a2.613,2.613,0,0,0-1.19-2.055l-.965-.558a2.587,2.587,0,0,0-2.368,0L134.14,134.568a2.612,2.612,0,0,0-1.19,2.055v33.669a2.625,2.625,0,0,0,1.19,2.055l.965.558a2.625,2.625,0,0,0,2.368,0l24.391-14.065a2.613,2.613,0,0,0,1.19-2.055Z" transform="translate(-132.925 -120.222)"/><path class="ap" d="M132.91,179.371a2.625,2.625,0,0,0,1.19,2.055l.965.558a2.663,2.663,0,0,0,2.168.094c-.558.213-.984-.106-.984-.783V147.625a2.424,2.424,0,0,1,.345-1.165l-3.333-1.93a2.506,2.506,0,0,0-.351,1.172Z" transform="translate(-132.91 -129.301)"/><path class="ap" d="M163.18,122.786c-.138-.507-.6-.664-1.14-.351l-24.4,14.065a2.318,2.318,0,0,0-.833.883l-3.339-1.923a2.43,2.43,0,0,1,.84-.883l24.384-14.065a2.644,2.644,0,0,1,2.374,0l.971.558A2.6,2.6,0,0,1,163.18,122.786Z" transform="translate(-133.119 -120.225)"/><g transform="translate(10.935 18.07)"><rect class="ar" width="7.298" height="7.796" transform="translate(0 11.017)"/><g transform="translate(0 3.939)"><path class="as" d="M92,449a1.661,1.661,0,0,0,1.659,1.659H97.64A1.66,1.66,0,0,0,99.3,449v-1H92Z" transform="translate(-92 -433.362)"/><path class="as" d="M97.308,97.514V95H93.99v2.514a6.834,6.834,0,0,0-1.116.724A2.966,2.966,0,0,0,92,100.349v1.99h7.3v-1.99a2.966,2.966,0,0,0-.874-2.111A6.565,6.565,0,0,0,97.308,97.514Z" transform="translate(-92 -95)"/></g><g transform="translate(0 3.939)"><path class="at" d="M93.87,98.238a6.832,6.832,0,0,1,1.116-.724V95h-1v2.514a6.834,6.834,0,0,0-1.116.724A2.966,2.966,0,0,0,92,100.349v1.99h1v-1.99A2.966,2.966,0,0,1,93.87,98.238Z" transform="translate(-92 -95)"/><path class="at" d="M92,449a1.661,1.661,0,0,0,1.659,1.659h0A1.657,1.657,0,0,1,93,449.327V448H92Z" transform="translate(-92 -433.362)"/></g><rect class="au" width="0.591" height="7.683" transform="translate(0.133 11.076)"/><path class="av" d="M99.3,313H97.951a3.161,3.161,0,0,0-4.6,0H92v1.99h1.347a3.161,3.161,0,0,0,4.6,0H99.3Z" transform="translate(-92 -299.062)"/><rect class="aw" width="1.006" height="1.99" transform="translate(0 13.933)"/><path class="av" d="M128.313,0h-3.981A.332.332,0,0,0,124,.332v1.99a.332.332,0,0,0,.183.3l.48.24V5.64h3.317V2.859l.48-.24a.332.332,0,0,0,.183-.3V.332A.332.332,0,0,0,128.313,0Z" transform="translate(-122.673)"/><g transform="translate(1.327)"><path class="aw" d="M125.179,2.619a.332.332,0,0,1-.183-.3V.332A.332.332,0,0,1,125.327,0h-1A.332.332,0,0,0,124,.332v1.99a.332.332,0,0,0,.183.3l.48.24V5.64h1V2.859Z" transform="translate(-124)"/><rect class="aw" width="3.317" height="0.459" transform="translate(0.663 2.859)"/></g><path class="ax" d="M235.812,248.241a.332.332,0,0,0-.319-.241h-7.023a.332.332,0,0,0-.319.241,3.981,3.981,0,1,0,7.662,0Z" transform="translate(-222.36 -237.716)"/><path class="ay" d="M247.317,267.981A3.32,3.32,0,0,1,244.066,264h6.5a3.32,3.32,0,0,1-3.251,3.981Z" transform="translate(-237.697 -253.053)"/><path class="az" d="M244.663,264.663a3.333,3.333,0,0,1,.066-.663h-.664a3.32,3.32,0,0,0,3.251,3.981q.168,0,.332-.017A3.322,3.322,0,0,1,244.663,264.663Z" transform="translate(-237.697 -253.053)"/><g transform="translate(7.63 15.26)"><path class="ax" d="M316.332,372.976a.332.332,0,0,1-.332-.332v-4.313a.332.332,0,1,1,.664,0v4.313A.332.332,0,0,1,316.332,372.976Z" transform="translate(-314.341 -368)"/><path class="ax" d="M279.819,473.042l-1.659-1a.331.331,0,0,0-.341,0l-1.659,1a.332.332,0,0,0,.171.616h3.317a.332.332,0,0,0,.171-.616Z" transform="translate(-275.999 -467.687)"/></g><circle class="ba" cx="0.591" cy="0.591" r="0.591" transform="translate(10.18 12.849)"/></g></g><path class="bb" d="M78.752,276.672a2.418,2.418,0,0,1-2.375-2.556V240.434a4.141,4.141,0,0,1,.583-2.036,4.054,4.054,0,0,1,1.46-1.5l24.4-14.065a2.819,2.819,0,0,1,1.391-.388,2.3,2.3,0,0,1,2.168,1.472h0a3.647,3.647,0,0,1,.175,1.1v33.676a4.386,4.386,0,0,1-2.03,3.534L80.143,276.277a3.849,3.849,0,0,1-.439.207A2.611,2.611,0,0,1,78.752,276.672Z" transform="translate(-36.699 -103.877)"/><g transform="translate(41.239 120.061)"><path class="ao" d="M108.968,227.725a2.625,2.625,0,0,0-1.184-2.049l-.971-.558a2.587,2.587,0,0,0-2.368,0L80.054,239.178a2.606,2.606,0,0,0-1.184,2.049V274.9a2.619,2.619,0,0,0,1.184,2.043l.965.558a2.625,2.625,0,0,0,2.368,0l24.384-14.047a2.625,2.625,0,0,0,1.184-2.055Z" transform="translate(-78.87 -224.832)"/><path class="ap" d="M78.87,283.981a2.619,2.619,0,0,0,1.184,2.036l.965.558a2.663,2.663,0,0,0,2.168.094c-.558.213-.984-.107-.984-.783V252.235a2.368,2.368,0,0,1,.351-1.165l-3.339-1.93a2.469,2.469,0,0,0-.345,1.172Z" transform="translate(-78.87 -233.911)"/><path class="ap" d="M109.14,227.4c-.138-.507-.626-.664-1.147-.351L83.6,241.111a2.368,2.368,0,0,0-.833.883l-3.333-1.923a2.368,2.368,0,0,1,.833-.883l24.391-14.065a2.625,2.625,0,0,1,2.368,0l.971.558A2.625,2.625,0,0,1,109.14,227.4Z" transform="translate(-79.079 -224.835)"/></g><path class="aq" d="M132.682,245.405a2.418,2.418,0,0,1-2.375-2.562V209.174a4.129,4.129,0,0,1,.583-2.036,4.01,4.01,0,0,1,1.46-1.5l24.4-14.065a2.731,2.731,0,0,1,1.385-.388,2.293,2.293,0,0,1,2.168,1.466h0a3.854,3.854,0,0,1,.175,1.1v33.657a4.386,4.386,0,0,1-2.03,3.534L134.01,245a4.56,4.56,0,0,1-.432.213A2.755,2.755,0,0,1,132.682,245.405Z" transform="translate(-56.84 -92.202)"/><g transform="translate(75.096 100.526)"><path class="ao" d="M163.054,196.545a2.613,2.613,0,0,0-1.19-2.049l-.965-.558a2.588,2.588,0,0,0-2.368,0L134.14,208a2.613,2.613,0,0,0-1.19,2.055v33.669a2.631,2.631,0,0,0,1.19,2.055l.965.558a2.625,2.625,0,0,0,2.368,0l24.391-14.065a2.613,2.613,0,0,0,1.19-2.061Z" transform="translate(-132.925 -193.652)"/><path class="ap" d="M132.91,252.816a2.631,2.631,0,0,0,1.19,2.055l.965.558a2.663,2.663,0,0,0,2.168.094c-.558.207-.984-.107-.984-.783V221.07a2.425,2.425,0,0,1,.345-1.165l-3.333-1.9a2.456,2.456,0,0,0-.351,1.172Z" transform="translate(-132.91 -202.745)"/><path class="ap" d="M163.18,196.228c-.138-.508-.6-.664-1.14-.351l-24.4,14.065a2.318,2.318,0,0,0-.833.858l-3.339-1.88a2.45,2.45,0,0,1,.84-.89l24.384-14.059a2.644,2.644,0,0,1,2.374,0l.971.558A2.6,2.6,0,0,1,163.18,196.228Z" transform="translate(-133.119 -193.667)"/></g><g transform="translate(83.699 119.957)"><g transform="translate(0 0)"><g transform="translate(3.588 0)"><g transform="translate(3.588)"><path class="bc" d="M239.8,137.38h-.345V136H233.38v1.38h-.345A1.035,1.035,0,0,0,232,138.415v8.348a1.38,1.38,0,0,0,1.38,1.38h6.071a1.38,1.38,0,0,0,1.38-1.38v-8.348A1.035,1.035,0,0,0,239.8,137.38Z" transform="translate(-232 -132.136)"/><path class="bd" d="M232,248h8.831v6.623H232Z" transform="translate(-232 -240.273)"/><path class="be" d="M296,288h5.243v2.484H296Z" transform="translate(-293.792 -278.893)"/><g transform="translate(0.552)"><path class="bd" d="M248.69,24h6.347a.69.69,0,0,1,.69.69v2.829a.345.345,0,0,1-.345.345h-7.037a.345.345,0,0,1-.345-.345V24.69A.69.69,0,0,1,248.69,24Z" transform="translate(-248 -24)"/><g transform="translate(0.828 0.828)"><path class="be" d="M272,48h.552v2.208H272Z" transform="translate(-272 -48)"/><path class="be" d="M304,48h.552v2.208H304Z" transform="translate(-302.896 -48)"/><path class="be" d="M336,48h.552v2.208H336Z" transform="translate(-333.792 -48)"/><path class="be" d="M368,48h.552v2.208H368Z" transform="translate(-364.688 -48)"/><path class="be" d="M400,48h.552v2.208H400Z" transform="translate(-395.584 -48)"/><path class="be" d="M432,48h.552v2.208H432Z" transform="translate(-426.48 -48)"/></g></g><g transform="translate(2.208 12.695)"><path class="bf" d="M296,392h1.656v.552H296Z" transform="translate(-296 -392)"/><path class="bf" d="M360,392h3.312v.552H360Z" transform="translate(-357.792 -392)"/></g></g><path class="bg" d="M129.38,112l.488.892.892.488-.892.488-.488.892-.488-.892L128,113.38l.892-.488Z" transform="translate(-128 -108.964)"/></g><g transform="translate(3.708 7.107)"><rect class="bh" width="4.944" height="8.961" rx="2.472" transform="translate(0 0)"/><path class="bf" d="M184,352h3.036v1.1h-2.484Z" transform="translate(-182.188 -347.792)"/></g><path class="bg" d="M43.067,69.9l-.342.624-.624.341.624.342.342.624.341-.624.624-.342-.624-.341Z" transform="translate(-41.477 -68.316)"/><g transform="translate(0 9.887)"><circle class="be" cx="3.09" cy="3.09" r="3.09" transform="translate(0 0)"/><path class="bi" d="M39.492,328.273l4.222,4.222a3.051,3.051,0,0,0,.781-.781l-4.222-4.222A3.053,3.053,0,0,0,39.492,328.273Z" transform="translate(-38.958 -326.91)"/></g></g></g><path class="bj" d="M100.232,312.429a2.412,2.412,0,0,1-2.375-2.544V296.854a4.348,4.348,0,0,1,2.042-3.54L137.817,271.5a2.764,2.764,0,0,1,1.391-.395,2.293,2.293,0,0,1,2.161,1.472h.031a3.815,3.815,0,0,1,.175,1.1V286.7a4.348,4.348,0,0,1-2.03,3.534l-37.93,21.816a4.382,4.382,0,0,1-.432.207,2.612,2.612,0,0,1-.952.169Z" transform="translate(-44.721 -122.054)"/><g transform="translate(54.69 150.559)"><path class="m" d="M143.995,276.4a2.625,2.625,0,0,0-1.19-2.055l-.965-.558a2.625,2.625,0,0,0-2.368,0L101.56,295.6a2.625,2.625,0,0,0-1.19,2.055v13.013a2.625,2.625,0,0,0,1.19,2.055l.965.558a2.625,2.625,0,0,0,2.368,0l37.917-21.809a2.632,2.632,0,0,0,1.184-2.055Z" transform="translate(-100.351 -273.51)"/><path class="h" d="M143.995,276.4a2.625,2.625,0,0,0-1.19-2.055l-.965-.558a2.625,2.625,0,0,0-2.368,0L101.56,295.6a2.625,2.625,0,0,0-1.19,2.055v13.013a2.625,2.625,0,0,0,1.19,2.055l.965.558a2.625,2.625,0,0,0,2.368,0l37.917-21.809a2.632,2.632,0,0,0,1.184-2.055Z" transform="translate(-100.351 -273.51)"/><path class="bk" d="M100.34,324.368a2.625,2.625,0,0,0,1.19,2.055l.965.558a2.663,2.663,0,0,0,2.168.094c-.558.213-.984-.107-.984-.783V313.285a2.43,2.43,0,0,1,.345-1.172l-3.333-1.923a2.437,2.437,0,0,0-.351,1.165Z" transform="translate(-100.34 -287.209)"/><path class="al" d="M144.136,276.081c-.144-.5-.627-.664-1.147-.345l-37.917,21.809a2.319,2.319,0,0,0-.833.883l-3.339-1.923a2.431,2.431,0,0,1,.84-.883l37.911-21.79a2.626,2.626,0,0,1,2.368,0l.971.564A2.632,2.632,0,0,1,144.136,276.081Z" transform="translate(-100.549 -273.525)"/></g><path class="aa" d="M111.46,322.587a.106.106,0,0,1-.138,0,.238.238,0,0,1-.063-.188v-7.443a.551.551,0,0,1,.063-.251.375.375,0,0,1,.138-.175l2.412-1.391a1.635,1.635,0,0,1,.84-.269.758.758,0,0,1,.551.232,1.291,1.291,0,0,1,.294.627,3.308,3.308,0,0,1,.094.8,3.631,3.631,0,0,1-.05.626,3.127,3.127,0,0,1-.119.489,2.206,2.206,0,0,1-.138.37,2.042,2.042,0,0,1-.113.232.8.8,0,0,1,.407.489,3,3,0,0,1,.113.915,5.233,5.233,0,0,1-.088.971,4.345,4.345,0,0,1-.294.971,3.811,3.811,0,0,1-.533.877,2.944,2.944,0,0,1-.808.677Zm2.8-7.23a.526.526,0,0,0-.119-.407c-.075-.075-.188-.069-.338,0l-1.159.67v1.316l1.159-.67a.82.82,0,0,0,.338-.376A1.2,1.2,0,0,0,114.26,315.357Zm-1.616,4.768,1.253-.714a.915.915,0,0,0,.357-.407,1.371,1.371,0,0,0,.138-.583.564.564,0,0,0-.138-.42q-.132-.122-.357,0l-1.253.714Z" transform="translate(-49.727 -137.651)"/><path class="aa" d="M124.017,306.835a.106.106,0,0,1,.138,0,.245.245,0,0,1,.063.188v4.592a6.771,6.771,0,0,1-.163,1.5,5.879,5.879,0,0,1-.47,1.3,4.584,4.584,0,0,1-.72,1.04,3.947,3.947,0,0,1-.921.746,2.291,2.291,0,0,1-.927.326,1,1,0,0,1-.714-.213,1.528,1.528,0,0,1-.464-.758,4.285,4.285,0,0,1-.169-1.309v-4.592a.626.626,0,0,1,.063-.257.414.414,0,0,1,.144-.175l.977-.564a.113.113,0,0,1,.144,0,.251.251,0,0,1,.056.182v4.549a1.534,1.534,0,0,0,.219.952c.15.175.37.182.67,0a1.548,1.548,0,0,0,.67-.777,3.133,3.133,0,0,0,.219-1.209V307.8a.533.533,0,0,1,.063-.251.376.376,0,0,1,.138-.175Z" transform="translate(-52.868 -135.387)"/><path class="aa" d="M131.023,310.42a.627.627,0,0,1-.056.251.346.346,0,0,1-.144.176l-.977.564a.113.113,0,0,1-.144,0,.257.257,0,0,1-.056-.188V308.8l-1.729-3.9a.289.289,0,0,1,0-.132.5.5,0,0,1,.05-.207.289.289,0,0,1,.113-.138l1.027-.627c.1-.056.175-.063.226,0a.369.369,0,0,1,.088.119l.94,2.287.952-3.377a1.511,1.511,0,0,1,.088-.226.533.533,0,0,1,.226-.244l1.028-.589a.088.088,0,0,1,.113,0,.207.207,0,0,1,.05.15.706.706,0,0,1-.031.169l-1.729,5.889Z" transform="translate(-55.946 -133.497)"/><path class="aa" d="M142.311,304.393q-.132.075-.207,0a.37.37,0,0,1-.1-.107l-1.71-2.945v3.891a.551.551,0,0,1-.063.251.407.407,0,0,1-.138.175l-.984.564a.112.112,0,0,1-.138,0,.232.232,0,0,1-.063-.182V298.61a.533.533,0,0,1,.063-.251.338.338,0,0,1,.138-.175l.777-.451c.088-.044.157-.05.207,0a.367.367,0,0,1,.1.1l1.71,2.951v-3.891a.628.628,0,0,1,.063-.257.357.357,0,0,1,.144-.169l.977-.564a.106.106,0,0,1,.144,0,.25.25,0,0,1,.056.182v7.437a.626.626,0,0,1-.056.257.4.4,0,0,1-.144.169Z" transform="translate(-60.054 -131.304)"/><path class="aa" d="M147.293,296.85a6.455,6.455,0,0,1,.182-1.322,5.754,5.754,0,0,1,.457-1.253,5.5,5.5,0,0,1,.714-1.084,3.761,3.761,0,0,1,.977-.808,1.967,1.967,0,0,1,.971-.313,1.053,1.053,0,0,1,.72.251,1.529,1.529,0,0,1,.457.727,4.09,4.09,0,0,1,.188,1.109c0,.326,0,.664,0,1.027V296.2a6.928,6.928,0,0,1-.188,1.322,5.932,5.932,0,0,1-.457,1.253,4.874,4.874,0,0,1-.721,1.084,3.973,3.973,0,0,1-.984.808,2.023,2.023,0,0,1-.977.32,1.059,1.059,0,0,1-.714-.251,1.654,1.654,0,0,1-.457-.733,3.874,3.874,0,0,1-.182-1.109c0-.307,0-.626,0-1.009S147.28,297.182,147.293,296.85Zm3.283.094v-1.936a2.09,2.09,0,0,0-.081-.482.746.746,0,0,0-.176-.313.445.445,0,0,0-.288-.119.852.852,0,0,0-.407.132,1.479,1.479,0,0,0-.4.338,1.747,1.747,0,0,0-.288.445,2.372,2.372,0,0,0-.182.526,2.842,2.842,0,0,0-.075.57v1.936a1.284,1.284,0,0,0,.257.808c.15.163.382.157.689,0a1.635,1.635,0,0,0,.689-.777,3.232,3.232,0,0,0,.263-1.128Z" transform="translate(-63.181 -129.882)"/><path class="aa" d="M159.466,290.123l.482-4.166a.745.745,0,0,1,.088-.294.546.546,0,0,1,.138-.15l.984-.564a.088.088,0,0,1,.113,0,.182.182,0,0,1,.05.15.614.614,0,0,1,0,.1l-.965,7.832a1.028,1.028,0,0,1-.119.363.627.627,0,0,1-.257.288l-.626.357c-.1.056-.182.056-.238,0a.376.376,0,0,1-.132-.219l-.564-2.281-.558,2.926a1.5,1.5,0,0,1-.132.376.627.627,0,0,1-.244.276l-.627.363a.225.225,0,0,1-.257,0,.326.326,0,0,1-.119-.232l-.965-6.716a.479.479,0,0,1,0-.088.5.5,0,0,1,.05-.207.34.34,0,0,1,.113-.144l.984-.564a.156.156,0,0,1,.138,0c.05,0,.075.081.094.188l.476,3.615.439-2.337a1.152,1.152,0,0,1,.069-.244.45.45,0,0,1,.188-.238l.7-.4q.132-.081.188,0a.626.626,0,0,1,.069.169Z" transform="translate(-66.257 -127.215)"/><g transform="translate(165.73 163.78)"><path class="d" d="M283.447,316.865a15.833,15.833,0,0,0-3.064-.846,1.96,1.96,0,0,0-1.823,1.253,5.028,5.028,0,0,0,3.383,1.334A1.438,1.438,0,0,0,283.447,316.865Z" transform="translate(-277.941 -302.606)"/><path class="d" d="M311.959,305.737c1.441-4.586,1.4-7.644.407-9.4-.67-1.178-2.757-1.648-3.64-1.723s-1.19.627-.382,1.4.514,1.541.075,2.506a21.021,21.021,0,0,1-1.88,3.133Z" transform="translate(-288.391 -294.611)"/><path class="ae" d="M282.808,312.76a7.009,7.009,0,0,1-1.391.138,5.012,5.012,0,0,1-2.268-.714,2.807,2.807,0,0,1-1.084-1.309,3.377,3.377,0,0,1-.1-1.328,3.618,3.618,0,0,1,.15-1.065,4.041,4.041,0,0,1,1.93-2.049c1.823-1.1,3.759-.144,6.453.326,2.042.351,5.964-2.882,10.764-1.153,4.674,1.685,4.73,6.71,5.67,10.739,1.535,6.572,2.713,4.931,6.6,11.528,3.133,5.307,4.217,4.386,7.725,9.561,1.736,2.575,5.156,7.111,6.892,12.75,2.168,6.961-.451,12.079-4.949,14.7-3.985,2.318-6.134,3.133-11.666,2.719a12.858,12.858,0,0,1-6.159-2.243c-2.506,1.435-7.819-2.431-9.7-3.872-3.515-2.694-1.548-5.106,1.548-4.386a17.041,17.041,0,0,1,3.6,1.253,37.338,37.338,0,0,1-2.631-6.961c-.683-2.913-.282-5.369.827-6a20.772,20.772,0,0,1-1.441-1.635c-.226,2.606-1.128,10.313-1.309,10.914-.244.8-1.88,2.349-3.371,1.942s-4.618-1.8-5.075-3.133c-.626-1.792,1.172-2.068,4.254-1.253v-.069c-.088-3.264-.414-8.013-.451-11.277,0-1.948-.044-4.323-.163-5.9h0a30.992,30.992,0,0,1-.113-3.133c.056-2.638.376-5.507.351-6.754-.044-1.923-.307-3.928-1.717-5.294s-3.233-2.055-4.862-3.045a11.512,11.512,0,0,1-1.685-1.215c-.489-.445-1.46-1.591-1.109-2.324a4.216,4.216,0,0,0,2.869.627,3.276,3.276,0,0,0,1.7-.789c.044-.044.094-.094.081-.157a.15.15,0,0,0-.169-.144Z" transform="translate(-277.709 -298.526)"/><path class="bl" d="M343.1,394.265a2.281,2.281,0,0,0-.714,2.4s1.322,2.13,7.518,2.813c5.9.658,11.66-1.88,16.747,0s2.976,5.745,3.509,6.773,1.986.313,1.986-2.725-2.042-5.8-5.72-6.672-8.878-.175-13.784-.094c-5.012.081-6.221-1.961-7.017-2.782C344.682,393.024,343.761,393.638,343.1,394.265Z" transform="translate(-301.741 -331.538)"/><path class="d" d="M280.309,307.563l.063-.075c.082-.106.119-.232.207-.332a1.1,1.1,0,0,1,.526-.244c.282-.081.551-.226.445-.558a.313.313,0,0,0-.2-.175,2.445,2.445,0,0,0-.946-.288,2.414,2.414,0,0,0-1.128.357,4.091,4.091,0,0,0-1.66,1.548c-.182.37.276,1.5.276,1.5a1.134,1.134,0,0,1,.094-.514c.219-.627,1.253-.764,1.829-.946A1.315,1.315,0,0,0,280.309,307.563Z" transform="translate(-277.572 -298.823)"/><path class="bl" d="M305.548,326.59l-1.341.883s-2.632,3.076-8.514,3.339a46.106,46.106,0,0,1-6.328-.069.927.927,0,0,1,.257-.457c1.2-1.335,1.554-4.743,0-5.852s-4.8.163-7.612-1.435l.626.407c1.629.99,3.477,1.7,4.862,3.045a6.36,6.36,0,0,1,1.66,4.273h-.132a1.252,1.252,0,0,0,.163.482v.551c0,.326,0,.739-.044,1.253l1.316.2a20.808,20.808,0,0,0,16.352-4.448A9.307,9.307,0,0,1,305.548,326.59Z" transform="translate(-279.229 -305.214)"/><path class="d" d="M298.362,307.93c-.946.927-2.255,2.118-3.239,3.252-.84.959-1.485.251-2.187-4.173-.627-3.79-.946-4.386-1.6-4.611-.5-.163-1.36-.056-1.522-.414-.3-.677.746-1.955,3.2-2.356C296.727,299.015,299.847,306.483,298.362,307.93Z" transform="translate(-282.124 -296.472)"/><path class="m" d="M308.768,325.669c.125.389.182.6.182.6s-1.786,2.544-7.832,3.759-8.245.307-8.245.307a6.455,6.455,0,0,0-.232-.871s-.307.232-.188,1.642c.081,1.015.219,1.447.764,1.573a22.257,22.257,0,0,0,8.445-.395c5.138-1.153,7.675-3.133,8.145-3.609s.307-.877-.131-1.911S309.013,325.594,308.768,325.669Z" transform="translate(-283.12 -306.204)"/><path class="bl" d="M304.561,368.341c1.767-1.028,5.9-.163,9.63,4.43,0,0-.157-2.907-3.678-4.95s-6.077-1.353-7.023-.677Z" transform="translate(-287.252 -321.446)"/><path class="bl" d="M306.24,389.27c.727.282,1.172.508,1.172.508.934,1.88,2.168,3.985,2.168,3.985A14.907,14.907,0,0,1,306.24,389.27Z" transform="translate(-288.279 -329.964)"/><path class="bl" d="M298.5,388.2a3.026,3.026,0,0,1,.721-.226,2.886,2.886,0,0,1,.626.257,3.061,3.061,0,0,1,.545.388c.069.056.432.407.313.495s-.081,0-.113,0a5.562,5.562,0,0,0-1.516-.764A4.772,4.772,0,0,0,298.5,388.2Z" transform="translate(-285.388 -329.479)"/><path class="bl" d="M297.08,389.55a1.292,1.292,0,0,1,.213-.37c.89.157,1.88.445,2.08,1.253,0,0,0,.132-.056.1a6.434,6.434,0,0,0-1.153-.67,4.9,4.9,0,0,0-1.084-.313Z" transform="translate(-284.858 -329.93)"/><path class="bl" d="M287.66,380.028a1.546,1.546,0,0,1,.689-.288h.138a1.929,1.929,0,0,1,.977.52v.075a4.391,4.391,0,0,0-1.416-.326,2.437,2.437,0,0,0-.388.019Z" transform="translate(-281.34 -326.405)"/><path class="bl" d="M287.16,380.92a.928.928,0,0,1,.125-.37,2.478,2.478,0,0,1,.313.05c.326.081.746.232.821.627,0,0,0,.069-.031.056a6.991,6.991,0,0,0-.946-.32A.884.884,0,0,0,287.16,380.92Z" transform="translate(-281.153 -326.707)"/></g><g transform="translate(94.172 62.667)"><path class="bm" d="M256.43,189.96c4.63-.313,7.581.3,9.874,5.639a197.577,197.577,0,0,1,7.644,23.6,5.7,5.7,0,0,1-1.479,5.827c-4.141,4.73-9.592,10.25-9.592,10.25L259.92,224.92l3.6-5.3-4.342-11.754Z" transform="translate(-198.118 -154.388)"/><path class="bn" d="M267.424,237.34a21.761,21.761,0,0,0,2.506,3.5,5.783,5.783,0,0,1-3.07-2.644Z" transform="translate(-202.013 -172.109)"/><path class="bl" d="M191.154,416.64a4.524,4.524,0,0,0-.056,2.425c.232.489,1.685,2.093,4.655,2.675s7.042,0,8.771-.107a80.119,80.119,0,0,1,9.022.8c2.757.376,4.874-.232,5.9-1.253a1.879,1.879,0,0,0,.414-1.453,7.209,7.209,0,0,0-.294-1.961Z" transform="translate(-173.666 -239.073)"/><path class="m" d="M219.213,410.631c.056.232.107.457.15.689a11.659,11.659,0,0,1,.257,3.577,3.258,3.258,0,0,1-2.118,1.6,10.992,10.992,0,0,1-5.952.119,42.268,42.268,0,0,0-6.979-.432,43.366,43.366,0,0,1-6.109.307,14.781,14.781,0,0,1-4.492-.915c-1.209-.52-2.437-1.184-2.732-2.425-.357-2.613.739-3.759,1.986-4.5s2.995-.677,4.881-.8c1.7-.113,2.945-.113,4.461-.232a21.37,21.37,0,0,0,3.847-.733c1.14-.363,2.368-1.623,2.857-1.679,0,0,7.587-.056,8.314,0,.833.069,1.09,2.669,1.2,3.233.081.439.094.915.213,1.341C219.069,410.079,219.145,410.342,219.213,410.631Z" transform="translate(-173.745 -234.793)"/><g class="af" transform="translate(17.426 170.387)"><path d="M219.213,410.631c.056.232.107.457.15.689a11.659,11.659,0,0,1,.257,3.577,3.258,3.258,0,0,1-2.118,1.6,10.992,10.992,0,0,1-5.952.119,42.268,42.268,0,0,0-6.979-.432,43.366,43.366,0,0,1-6.109.307,14.781,14.781,0,0,1-4.492-.915c-1.209-.52-2.437-1.184-2.732-2.425-.357-2.613.739-3.759,1.986-4.5s2.995-.677,4.881-.8c1.7-.113,2.945-.113,4.461-.232a21.37,21.37,0,0,0,3.847-.733c1.14-.363,2.368-1.623,2.857-1.679,0,0,7.587-.056,8.314,0,.833.069,1.09,2.669,1.2,3.233.081.439.094.915.213,1.341C219.069,410.079,219.145,410.342,219.213,410.631Z" transform="translate(-191.171 -405.18)"/></g><path class="aa" d="M195.662,417.5c-.238-1.88-.551-5.971,2.913-8.327h.445a8.621,8.621,0,0,0-4.8,0c-2.775.739-4.01,2.982-3.314,5.357C190.894,414.509,191.521,416.8,195.662,417.5Z" transform="translate(-173.575 -236.159)"/><path class="bm" d="M231.294,348.977c-.244,4.336-4.279,33.914-4.63,35.5-.213.946-1.41,1.955-4.523,1.848-2.187-.069-3.91.113-3.822-1.6l-2.2-37.56Z" transform="translate(-183.063 -213.124)"/><path class="bl" d="M241.419,378a8.387,8.387,0,0,0,.257,4c.777,2.105,2.431,3.07,3.4,3.9a28.32,28.32,0,0,1,2.826,3.258,16.215,16.215,0,0,0,2.631,3.133,6.082,6.082,0,0,0,5.081.714c1.253-.526,1.667-.946,1.591-2.844s-6.134-2.55-6.134-2.55Z" transform="translate(-192.467 -224.642)"/><path class="m" d="M256.625,383.154c.514.182.626,1.121.72,2.982.063,1.4.683,3.465-1.353,4.354a5.174,5.174,0,0,1-5.388-1.09,66.64,66.64,0,0,0-4.3-5.131c-1.717-1.754-3.509-2.343-4.267-5.845-.495-2.255-.107-3.189,1.485-3.834,2.193-.89,5.639,2.017,7.355,2.469C252.359,377.453,256.105,382.966,256.625,383.154Z" transform="translate(-192.668 -223.306)"/><path class="bo" d="M256.625,383.154c.514.182.626,1.121.72,2.982.063,1.4.683,3.465-1.353,4.354a5.174,5.174,0,0,1-5.388-1.09,66.64,66.64,0,0,0-4.3-5.131c-1.717-1.754-3.509-2.343-4.267-5.845-.495-2.255-.107-3.189,1.485-3.834,2.193-.89,5.639,2.017,7.355,2.469C252.359,377.453,256.105,382.966,256.625,383.154Z" transform="translate(-192.668 -223.306)"/><path class="bm" d="M261.3,335.18c.288,11.866-1.579,23.808-2.443,34.045-.15,1.009-5.206,3.076-6.892.132-.1-.219-4.718-33.625-4.718-33.625Z" transform="translate(-194.689 -208.65)"/><path class="aa" d="M242.89,380.839s.169-4.041,5.833-4.718l-.1-.714a4.868,4.868,0,0,0-2.212-1.253,4.174,4.174,0,0,0-4.555,1.253C240.822,376.66,241.869,380.031,242.89,380.839Z" transform="translate(-192.516 -223.133)"/><path class="bl" d="M248.945,296.408s-.326-8.308-.125-17.242c.125-5.607.238-8.821,0-12.744a89.718,89.718,0,0,0-1.573-13.05s-31.082-5.927-31.458,5.231c-.457,13.37-.89,39.884-.921,43.38s.188,5.833.545,13.27a31.263,31.263,0,0,0,15.851-1.009c.138-3.759.226-5.883.226-5.883l1.529-23.946s.395,4.686.664,9.592.188,6.09.946,15.137c3.133,1.447,12.368,1.353,14.849-1.372A98.267,98.267,0,0,0,248.945,296.408Z" transform="translate(-182.594 -177.509)"/><path class="d" d="M214.78,302.42c4.386,1.04,11.666.771,11.666.771s-.1,15.719-.908,17.781-10.143,1.723-11.277,0C214.272,312.57,214.78,302.42,214.78,302.42Z" transform="translate(-182.368 -196.415)"/><path class="d" d="M255.225,279s-4.054,5.57-8.94,7.656l-1.829,16.29-.6-8.145,1.128-9.849A53.992,53.992,0,0,0,255.225,279Z" transform="translate(-193.423 -187.668)"/><path class="bm" d="M236.28,181.788l.069,10.187,10.294-.106.169-11.829Z" transform="translate(-190.592 -150.708)"/><path class="m" d="M249.6,195.129a7.892,7.892,0,0,0-7.481-5.169h-2.976c-.42,1.717-5.927,2.506-10.413,1.46-1.353.357-6.635,1.341-7.763,1.717-3.227,1.071-3.878,4.348-4.386,14.874,0,0-.852,17.467-.52,30.581,5.639,2.995,14.936,2.951,21.176,2.318,9.8-.99,11.7-4.567,11.7-4.567a108.133,108.133,0,0,1-.432-13.627c.119-4.279,1.353-8.815,1.736-13.671C250.8,201.8,250.178,197.033,249.6,195.129Z" transform="translate(-183.013 -154.413)"/><path class="bk" d="M249.6,195.129a7.892,7.892,0,0,0-7.481-5.169h-2.976c-.42,1.717-5.927,2.506-10.413,1.46-1.353.357-6.635,1.341-7.763,1.717-3.227,1.071-3.878,4.348-4.386,14.874,0,0-.852,17.467-.52,30.581,5.639,2.995,14.936,2.951,21.176,2.318,9.8-.99,11.7-4.567,11.7-4.567a108.133,108.133,0,0,1-.432-13.627c.119-4.279,1.353-8.815,1.736-13.671C250.8,201.8,250.178,197.033,249.6,195.129Z" transform="translate(-183.013 -154.413)"/><path class="bn" d="M222.515,162s-2.732,4.122-2.475,4.492,2.393.627,2.393.627Z" transform="translate(-184.521 -143.971)"/><path class="bm" d="M231.292,140.829c-4.9.821-6.71,3.759-7.431,12.28a75.8,75.8,0,0,0-.038,8.239c.313,3.715,1.009,4.649,1.754,5.482s5.244,1.084,7.274.627c2.544-.589,8.3-2.362,11.121-6.309,3.327-4.649,3.759-10.45,1.178-13.878C239.174,139.225,233.3,140.472,231.292,140.829Z" transform="translate(-185.905 -135.957)"/><path class="bn" d="M226.68,182.224c.564.626,3.922.959,6.021.8V181.81A15.664,15.664,0,0,1,226.68,182.224Z" transform="translate(-187.007 -151.37)"/><path class="d" d="M227.58,145.614a4.43,4.43,0,0,0,2.776,4.724,6.02,6.02,0,0,0-.445,2.168,1.817,1.817,0,0,0,.188,1.065.683.683,0,0,0,1.253.031,9.129,9.129,0,0,1,1.1-1.723,3.333,3.333,0,0,1,2.13-1.071c3.064-.207,3.283,3.8,1.992,5.407-2.111,2.625-3.759.721-3.759.721s-.526,3.308,2.957,6.591a5.187,5.187,0,0,0,2.744.984,6.384,6.384,0,0,0,3.308-.238c1.71-2.775,5.344-7.418,6.641-9.868,1.253-2.356,2.713-5.094,2.08-7.838a4.5,4.5,0,0,0-2.049-2.907,5.978,5.978,0,0,0,.626-2.462,2.268,2.268,0,0,0-3.07-2.124,2.688,2.688,0,0,0-4.292-2.863,2.6,2.6,0,0,0-5.05-1.172,3.565,3.565,0,0,0-6.265.533,5.106,5.106,0,0,0-3.5-.758,3.628,3.628,0,0,0-2.769,2.143,2.832,2.832,0,0,0,.877,3.277c-1.121.063-1.992,1.554-2,2.682C223.069,143.778,223.645,146.673,227.58,145.614Z" transform="translate(-185.651 -133.224)"/><path class="bm" d="M166.172,197.521c.789,1.485,9.523,17.467,12.061,19.886,1.811,1.723,4.6,2.895,7.518.407,5.4-4.636,13.783-11.948,13.783-11.948,6.441-5.1,7.33-14.379,4.386-17.355-1.516.081-6.152.426-9.153,3.935C188.614,199.626,182.054,207,182.054,207c-1.61-2.13-3.045-3.809-4.78-6.228-1.385-1.936-3.546-3.96-3.634-6.478a21.971,21.971,0,0,1,.627-3.916c.263-1.679.495-3.339.771-5.012a1.341,1.341,0,0,0-.088-.99,1,1,0,0,0-1.366-.044,3.578,3.578,0,0,0-.959,1.416c-.257.576-.52,1.147-.783,1.717-.119.269-.3.576-.6.583-.927,0-1.078-1.955-1.316-2.562a10.165,10.165,0,0,1-.457-2.468c-.138-1-.269-2-.4-3-.038-.288-.106-.627-.37-.758s-.7.113-.927.395a3.928,3.928,0,0,0-.752,1.56c-.307,1.328.075,2.832-.627,4.016a7.793,7.793,0,0,1-1.015,1.215,13.837,13.837,0,0,0-1.2,1.635,3.335,3.335,0,0,0-.727,2.9A30.355,30.355,0,0,0,166.172,197.521Z" transform="translate(-163.357 -150.403)"/><path class="bn" d="M191.576,222.884a15.919,15.919,0,0,0-2.619,5.382,11.853,11.853,0,0,1,1.748-6.516Z" transform="translate(-172.917 -166.286)"/></g><g transform="translate(49.921 93)"><path class="bp" d="M38,27H52.373v2.346H38Zm0,0" transform="translate(-36.747 -26.11)"/><path class="bq" d="M256,27h7.186v2.346H256Zm0,0" transform="translate(-247.561 -26.11)"/><path class="br" d="M27.262,164.16H42.342v11.467H27.262Zm0,0" transform="translate(-26.363 -158.748)"/><path class="bs" d="M256,164.16h7.54v11.467H256Zm0,0" transform="translate(-247.561 -158.748)"/><path class="bt" d="M0,91.7H16.878v3.372H0Zm0,0" transform="translate(0 -88.676)"/><path class="bp" d="M86.75,254.274h4.945V246H86.75Zm0,0" transform="translate(-83.89 -237.891)"/><path class="bq" d="M294.25,246h4.318v4.318H294.25Zm0,0" transform="translate(-284.55 -237.891)"/><path class="bt" d="M0,482H16.878v.989H0Zm0,0" transform="translate(0 -466.111)"/><path class="bu" d="M256,91.7h8.439v3.372H256Zm0,0" transform="translate(-247.561 -88.676)"/><path class="bu" d="M256,482h8.439v.989H256Zm0,0" transform="translate(-247.561 -466.111)"/><path class="bv" d="M156.055,3.527A3.527,3.527,0,1,1,152.527,0,3.531,3.531,0,0,1,156.055,3.527Zm0,0" transform="translate(-144.088)"/><path class="bw" d="M259.527,3.527A3.531,3.531,0,0,1,256,7.055V0A3.531,3.531,0,0,1,259.527,3.527Zm0,0" transform="translate(-247.561)"/><path class="br" d="M212.96,61.646v.989h-1.024v1.025h-.989V62.635h-1.024v-.989h1.024V60.621h.989v1.024Zm0,0" transform="translate(-203.002 -58.623)"/><path class="bs" d="M256.495,63.659H256V60.621h.495v1.024h1.024v.989h-1.024Zm0,0" transform="translate(-247.561 -58.622)"/></g><g transform="translate(49.921 139.351)"><path class="bx" d="M33.369,67.515H17.655v-14.4a.145.145,0,0,1,.146-.146H33.224a.145.145,0,0,1,.146.146Z" transform="translate(-17.073 -51.51)"/><g transform="translate(0.582 5.926)"><rect class="by" width="15.714" height="2.328" transform="translate(0 7.46)"/><path class="by" d="M33.363,189.331a.759.759,0,0,1-.952-.742.767.767,0,1,1-1.534,0,.767.767,0,1,1-1.534,0,.767.767,0,1,1-1.534,0,.767.767,0,1,1-1.534,0,.767.767,0,1,1-1.534,0,.767.767,0,1,1-1.534,0,.767.767,0,1,1-1.534,0,.767.767,0,1,1-1.534,0,.767.767,0,1,1-1.534,0,.759.759,0,0,1-.952.742v.588a1.244,1.244,0,0,0,.952-.221,1.347,1.347,0,0,0,1.534,0,1.347,1.347,0,0,0,1.534,0,1.347,1.347,0,0,0,1.534,0,1.347,1.347,0,0,0,1.534,0,1.347,1.347,0,0,0,1.534,0,1.347,1.347,0,0,0,1.534,0,1.347,1.347,0,0,0,1.534,0,1.347,1.347,0,0,0,1.534,0,1.347,1.347,0,0,0,1.534,0,1.342,1.342,0,0,0,.767.24,1.32,1.32,0,0,0,.185-.019v-.588Z" transform="translate(-17.649 -188.589)"/></g><g transform="translate(2.037 8.439)"><rect class="bz" width="8.148" height="5.82"/><rect class="bz" width="3.492" height="5.82" transform="translate(9.312)"/></g><rect class="ca" width="3.492" height="0.873" transform="translate(11.349 8.439)"/><path class="cb" d="M373.378,267.544l-2.037-2.716h-.582l2.619,3.492Z" transform="translate(-358.537 -256.389)"/><path class="ca" d="M344.567,264.828h-.291v1.164l3.492,4.656V269.1Z" transform="translate(-332.927 -256.389)"/><path class="bz" d="M372,265.7l-.655-.873h-.582l.655.873Z" transform="translate(-358.537 -256.389)"/><path class="cb" d="M137.361,270.648h-.582l-4.365-5.82H133Z" transform="translate(-128.049 -256.389)"/><g transform="translate(2.037 8.439)"><path class="ca" d="M84.977,270.648H83.813l-4.365-5.82h1.164Z" transform="translate(-78.866 -264.828)"/><rect class="ca" width="8.148" height="0.873" transform="translate(0 0)"/></g><path class="bz" d="M133.651,265.7l-.655-.873h-.582l.655.873Z" transform="translate(-128.049 -256.389)"/><g transform="translate(0 5.238)"><path class="cc" d="M186.948,169.179h0a.767.767,0,0,1-.767-.767v-.688h1.534v.688A.767.767,0,0,1,186.948,169.179Z" transform="translate(-180.043 -167.724)"/><path class="cc" d="M280.04,169.179h0a.767.767,0,0,1-.767-.767v-.688h1.534v.688A.767.767,0,0,1,280.04,169.179Z" transform="translate(-270.067 -167.724)"/><path class="cc" d="M93.858,169.179h0a.767.767,0,0,1-.767-.767v-.688h1.534v.688A.767.767,0,0,1,93.858,169.179Z" transform="translate(-90.022 -167.724)"/><path class="cc" d="M.767,169.179h0A.767.767,0,0,1,0,168.412v-.688H1.534v.688A.767.767,0,0,1,.767,169.179Z" transform="translate(0 -167.724)"/><path class="cc" d="M373.13,169.179h0a.767.767,0,0,1-.767-.767v-.688H373.9v.688A.767.767,0,0,1,373.13,169.179Z" transform="translate(-360.088 -167.724)"/></g><g transform="translate(4.603 5.238)"><path class="cd" d="M140.4,169.179h0a.767.767,0,0,1-.767-.767v-.688h1.534v.688A.767.767,0,0,1,140.4,169.179Z" transform="translate(-139.636 -167.724)"/><path class="cd" d="M326.585,169.179h0a.767.767,0,0,1-.767-.767v-.688h1.534v.688A.767.767,0,0,1,326.585,169.179Z" transform="translate(-319.68 -167.724)"/></g><path class="cc" d="M466.221,169.179h0a.767.767,0,0,1-.767-.767v-.688h1.534v.688A.767.767,0,0,1,466.221,169.179Z" transform="translate(-450.11 -162.486)"/><g transform="translate(1.534 5.238)"><path class="cd" d="M419.676,169.179h0a.767.767,0,0,1-.767-.767v-.688h1.534v.688A.767.767,0,0,1,419.676,169.179Z" transform="translate(-406.634 -167.724)"/><path class="cd" d="M47.312,169.179h0a.767.767,0,0,1-.767-.767v-.688h1.534v.688A.767.767,0,0,1,47.312,169.179Z" transform="translate(-46.545 -167.724)"/><path class="cd" d="M233.494,169.179h0a.767.767,0,0,1-.767-.767v-.688h1.534v.688A.767.767,0,0,1,233.494,169.179Z" transform="translate(-226.589 -167.724)"/></g><g transform="translate(0 2.91)"><path class="ce" d="M187.716,99.431h-1.534l.159-2.328h1.429Z" transform="translate(-180.044 -97.103)"/><path class="ce" d="M279.254,99.431H277.72l-.053-2.328H279.1Z" transform="translate(-268.514 -97.103)"/><path class="ce" d="M94.625,99.431H93.091l.37-2.328H94.89Z" transform="translate(-90.022 -97.103)"/><path class="ce" d="M1.534,99.431H0L.582,97.1H2.011Z" transform="translate(0 -97.103)"/><path class="ce" d="M366.138,99.431H364.6l-.264-2.328h1.429Z" transform="translate(-352.328 -97.103)"/></g><g transform="translate(4.603 2.91)"><path class="cf" d="M141.17,99.431h-1.534L139.9,97.1h1.429Z" transform="translate(-139.636 -97.103)"/><path class="cf" d="M322.7,99.431h-1.535L321,97.1h1.429Z" transform="translate(-315.024 -97.103)"/></g><path class="ce" d="M453.02,99.431h-1.534l-.476-2.328h1.429Z" transform="translate(-436.141 -94.193)"/><g transform="translate(1.534 2.91)"><path class="cf" d="M409.579,99.431h-1.534l-.37-2.328H409.1Z" transform="translate(-395.769 -97.103)"/><path class="cf" d="M48.08,99.431H46.546l.476-2.328h1.429Z" transform="translate(-46.546 -97.103)"/><path class="cf" d="M234.261,99.431h-1.534l.053-2.328h1.429Z" transform="translate(-226.589 -97.103)"/></g><g transform="translate(1.746 8.148)"><path class="cg" d="M61.113,256.582v5.238H53.547v-5.238h7.566M61.4,256H53.256a.291.291,0,0,0-.291.291v5.82a.291.291,0,0,0,.291.291H61.4a.291.291,0,0,0,.291-.291v-5.82A.291.291,0,0,0,61.4,256Z" transform="translate(-52.965 -256)"/><path class="cg" d="M339.231,256h-3.492a.291.291,0,0,0-.291.291v7.275h4.074v-7.275A.291.291,0,0,0,339.231,256Zm-.291,5.82h-2.91v-5.238h2.91Z" transform="translate(-326.136 -256)"/></g><path class="ch" d="M107,11.738H97.686a.582.582,0,0,1-.582-.582V9.41a.582.582,0,0,1,.582-.582H107a.582.582,0,0,1,.582.582v1.746A.582.582,0,0,1,107,11.738Z" transform="translate(-93.903 -8.828)"/><path class="bx" d="M123.925,28.229H114.9a.145.145,0,0,1-.145-.146V26.629a.145.145,0,0,1,.145-.146h9.021a.146.146,0,0,1,.146.146v1.455A.145.145,0,0,1,123.925,28.229Z" transform="translate(-110.975 -25.901)"/><path class="by" d="M114.9,58.107h9.021a.146.146,0,0,0,.146-.146v-.582a.146.146,0,0,1-.146.146H114.9a.145.145,0,0,1-.145-.146v.582A.146.146,0,0,0,114.9,58.107Z" transform="translate(-110.975 -55.779)"/><path class="cg" d="M16.733,486.1H.146A.145.145,0,0,1,0,485.952v-.291a.145.145,0,0,1,.146-.145H16.733a.145.145,0,0,1,.146.145v.291A.145.145,0,0,1,16.733,486.1Z" transform="translate(0 -469.802)"/></g></g></g><g transform="translate(3157.656 -1787.61)"><g transform="translate(130 27)"><path class="ci" d="M198.61,159.922l.785-3.16q22.29-9.756,21.27-14.466-.817-3.775-16.608-4.31l.429-1.726q26.07-.533,27.126,4.347Q232.871,146.421,198.61,159.922Z" transform="translate(-187.663 -136.208)"/><path d="M76.114,157.745l-4.662,18.776q-5.225,2.286-11.732,4.85L65.6,157.71Q71.5,157.589,76.114,157.745Z" transform="translate(-59.72 -155.967)"/></g><text class="cj" transform="translate(181.427 45.156)"><tspan x="0" y="0">Da DropOff</tspan></text></g></g></g></svg>