<svg xmlns="http://www.w3.org/2000/svg" width="633.188" height="471.861" viewBox="0 0 633.188 471.861"><defs><style>.a,.f{fill:#ebebeb;}.b{fill:#e6e6e6;}.c{fill:#f0f0f0;}.d{fill:#fff;}.e{fill:#fafafa;}.f{opacity:0.6;}.g{fill:#e0e0e0;}.h{fill:#f5f5f5;}.i{fill:#407bff;}.j{opacity:0.8;}.k{fill:#d20400;}.l{fill:#c1c1c1;}.m{fill:#ffb573;}.n{fill:#263238;}.o{fill:#ed893e;}.p{opacity:0.2;}</style></defs><g transform="translate(-1300.843 -230)"><g transform="translate(1300.843 230)"><rect class="a" width="633.188" height="0.317" transform="translate(0 414.669)"/><path class="a" d="M289.971,413.143H45.435a7.237,7.237,0,0,1-7.228-7.228V62.18a7.236,7.236,0,0,1,7.228-7.227H289.971A7.236,7.236,0,0,1,297.2,62.18V405.915A7.237,7.237,0,0,1,289.971,413.143ZM45.435,55.27a6.919,6.919,0,0,0-6.912,6.911V405.915a6.919,6.919,0,0,0,6.912,6.912H289.971a6.919,6.919,0,0,0,6.911-6.912V62.18a6.919,6.919,0,0,0-6.911-6.911Z" transform="translate(10.177 -54.953)"/><path class="a" d="M506.267,413.143H261.732a7.236,7.236,0,0,1-7.227-7.228V62.18a7.235,7.235,0,0,1,7.227-7.227H506.267a7.237,7.237,0,0,1,7.23,7.227V405.915A7.238,7.238,0,0,1,506.267,413.143ZM261.732,55.27a6.918,6.918,0,0,0-6.911,6.911V405.915a6.919,6.919,0,0,0,6.911,6.912H506.267a6.92,6.92,0,0,0,6.913-6.912V62.18a6.92,6.92,0,0,0-6.913-6.911Z" transform="translate(67.794 -54.953)"/><g transform="translate(64.938 423.293)"><rect class="a" width="32.922" height="0.317" transform="translate(0 3.436)"/><rect class="a" width="57.021" height="0.317" transform="translate(118.88)"/><rect class="a" width="76.985" height="0.317" transform="translate(34.19 15.196)"/><rect class="a" width="24.358" height="0.317" transform="translate(478.953 13.068)"/><rect class="a" width="70.021" height="0.317" transform="translate(397.657 13.068)"/><rect class="a" width="94.303" height="0.317" transform="translate(260.579 7.721)"/></g><g transform="translate(87.387 34.78)"><g transform="translate(2.619 221.65)"><g transform="translate(51.508)"><path class="b" d="M185.061,305.848H115.943l-4.2-48.4h69.119Z" transform="translate(-111.747 -257.444)"/><path class="c" d="M187.889,305.848H118.77l-4.2-48.4h69.119Z" transform="translate(-110.993 -257.444)"/><path class="d" d="M125.832,293.267l-2.3-27.615h48.33l2.3,27.615Z" transform="translate(-108.608 -255.258)"/></g><g transform="translate(0 48.404)"><rect class="b" width="9.866" height="109.833" transform="translate(159.237)"/><rect class="c" width="6.852" height="109.833" transform="translate(165.364)"/><rect class="c" width="95.496" height="12.123" transform="translate(172.216 12.123) rotate(180)"/><rect class="b" width="9.866" height="97.71" transform="translate(70.23 12.123)"/><rect class="c" width="6.852" height="97.71" transform="translate(76.358 12.123)"/><rect class="b" width="9.866" height="97.71" transform="translate(0 12.123)"/><rect class="c" width="6.852" height="97.71" transform="translate(6.128 12.123)"/><rect class="b" width="9.866" height="97.71" transform="translate(96.8 12.123)"/><rect class="c" width="6.852" height="97.71" transform="translate(102.928 12.123)"/><rect class="b" width="76.72" height="12.123"/></g></g><rect class="b" width="286.49" height="164.35"/><rect class="c" width="290.57" height="164.35" transform="translate(3.578)"/><rect class="b" width="286.49" height="14.23" transform="translate(0 164.35)"/><rect class="c" width="290.57" height="14.23" transform="translate(16.335 164.35)"/><rect class="e" width="142.909" height="269.129" transform="translate(283.427 10.721) rotate(90)"/><path class="d" d="M95.908,233.791,158.83,90.883h29.7L125.611,233.791Z" transform="translate(-61.839 -80.162)"/><path class="c" d="M84.377,221.816a.766.766,0,0,1-.766-.766V96.551a.766.766,0,0,1,1.532,0v124.5A.766.766,0,0,1,84.377,221.816Z" transform="translate(-65.115 -78.856)"/><path class="d" d="M124.4,233.791,187.324,90.883H198.9L135.981,233.791Z" transform="translate(-54.249 -80.162)"/><rect class="b" width="142.909" height="1.361" transform="translate(283.427 10.72) rotate(90)"/><path class="f" d="M363.752,106.17H77.262l-.987-12h286.49Z" transform="translate(-67.069 -79.286)"/><path class="f" d="M363.752,121.708H77.262l-.987-12h286.49Z" transform="translate(-67.069 -75.147)"/><path class="f" d="M363.752,137.245H77.262l-.987-12h286.49Z" transform="translate(-67.069 -71.008)"/><path class="f" d="M363.752,152.782H77.262l-.987-12h286.49Z" transform="translate(-67.069 -66.869)"/><path class="f" d="M363.752,168.32H77.262l-.987-12h286.49Z" transform="translate(-67.069 -62.731)"/><path class="f" d="M363.752,183.857H77.262l-.987-12h286.49Z" transform="translate(-67.069 -58.592)"/><g transform="translate(345.372)"><g transform="translate(26.582)"><rect class="a" width="77.144" height="77.144" transform="translate(80.565 77.144) rotate(180)"/><rect class="g" width="3.421" height="77.144"/><rect class="d" width="56.242" height="56.242" transform="translate(70.114 66.693) rotate(180)"/><rect class="h" width="26.619" height="26.619" transform="translate(60.815 38.572) rotate(135)"/></g><g transform="translate(0 101.436)"><rect class="a" width="77.144" height="77.144" transform="translate(80.565 77.144) rotate(180)"/><rect class="g" width="3.421" height="77.144" transform="translate(0 0)"/><rect class="d" width="56.242" height="56.242" transform="translate(70.114 66.693) rotate(180)"/><rect class="h" width="23.98" height="23.98" rx="6.315" transform="translate(53.983 50.562) rotate(180)"/></g></g><g transform="translate(279.302 208.002)"><g transform="translate(3.77 8.064)"><rect class="c" width="19.237" height="158.645" transform="translate(0 0)"/><rect class="c" width="184.713" height="5.178" transform="translate(2.665 158.645)"/><rect class="e" width="170.806" height="158.645" transform="translate(190.043 158.645) rotate(180)"/><path class="c" d="M441.948,334.022H338.024a18.5,18.5,0,1,1,0-37H441.948a18.5,18.5,0,0,1,0,37Zm-103.924-35.76a17.258,17.258,0,1,0,0,34.516H441.948a17.258,17.258,0,1,0,0-34.516Z" transform="translate(-285.346 -241.318)"/><path class="c" d="M441.948,370.368H338.024a18.5,18.5,0,0,1,0-37H441.948a18.5,18.5,0,0,1,0,37Zm-103.924-35.76a17.259,17.259,0,1,0,0,34.518H441.948a17.259,17.259,0,1,0,0-34.518Z" transform="translate(-285.346 -231.637)"/><path class="a" d="M394.956,310.1H363.593a3.872,3.872,0,0,1-3.86-3.86h0a3.871,3.871,0,0,1,3.86-3.86h31.363a3.87,3.87,0,0,1,3.86,3.86h0A3.871,3.871,0,0,1,394.956,310.1Z" transform="translate(-274.634 -239.89)"/><path class="c" d="M441.948,297.677H338.024a18.5,18.5,0,0,1,0-37H441.948a18.5,18.5,0,0,1,0,37ZM338.024,261.915a17.259,17.259,0,1,0,0,34.518H441.948a17.259,17.259,0,1,0,0-34.518Z" transform="translate(-285.346 -251)"/><path class="a" d="M394.956,273.756H363.593a3.872,3.872,0,0,1-3.86-3.86h0a3.871,3.871,0,0,1,3.86-3.86h31.363a3.87,3.87,0,0,1,3.86,3.86h0A3.871,3.871,0,0,1,394.956,273.756Z" transform="translate(-274.634 -249.571)"/><path class="a" d="M394.956,346.448H363.593a3.871,3.871,0,0,1-3.86-3.86h0a3.872,3.872,0,0,1,3.86-3.86h31.363a3.871,3.871,0,0,1,3.86,3.86h0A3.87,3.87,0,0,1,394.956,346.448Z" transform="translate(-274.634 -230.208)"/></g><rect class="c" width="174.319" height="8.064" transform="translate(23.007 0)"/><rect class="b" width="23.007" height="8.064" transform="translate(23.007 8.064) rotate(180)"/></g></g></g><g transform="translate(1371.9 673.181)"><ellipse class="h" cx="245.536" cy="14.34" rx="245.536" ry="14.34"/></g><g transform="translate(1555.365 348.122)"><path class="i" d="M470.289,148.229H279.424s-34.388,31.615-34.388,108.637c0,66.192,26.068,155.933,16.284,192.679-7.382,27.718-43.186,32.475-60.335,33.14H382.653s59.746,3.605,69.532-33.14S435.9,323.058,435.9,256.866C435.9,179.844,470.289,148.229,470.289,148.229Z" transform="translate(-200.985 -148.229)"/><path class="d" d="M470.289,148.229H279.424s-34.388,31.615-34.388,108.637c0,66.192,26.068,155.933,16.284,192.679-7.382,27.718-43.186,32.475-60.335,33.14H382.653s59.746,3.605,69.532-33.14S435.9,323.058,435.9,256.866C435.9,179.844,470.289,148.229,470.289,148.229Z" transform="translate(-200.985 -148.229)"/><g class="j" transform="translate(63.046 18.997)"><path class="k" d="M404.749,225.409H252.1c4.318-33.863,15.956-53.568,22.377-62.179H421.6C414.449,178.3,407.636,198.828,404.749,225.409Z" transform="translate(-250.416 -163.23)"/><path class="l" d="M403.784,228.393H250.92c.127-3.077.3-6.066.557-8.953H404.253Q403.93,223.809,403.784,228.393Z" transform="translate(-250.73 -148.257)"/><path class="l" d="M298.888,242.561H250.909q-.133-4.293-.139-8.447v-.494h47.992v.494C298.762,236.9,298.8,239.724,298.888,242.561Z" transform="translate(-250.77 -144.48)"/><path class="l" d="M404.616,256.731H251.866c-.266-3.014-.481-6-.646-8.941H404.034Q404.261,252.235,404.616,256.731Z" transform="translate(-250.65 -140.705)"/><path class="l" d="M405.991,270.913H253.368q-.532-4.5-.988-8.953H405.067C405.345,264.936,405.662,267.925,405.991,270.913Z" transform="translate(-250.341 -136.931)"/><path class="l" d="M407.753,285.081H255.23c-.418-2.989-.81-5.977-1.19-8.941H406.613Q407.145,280.6,407.753,285.081Z" transform="translate(-249.899 -133.154)"/><path class="l" d="M409.753,299.251H257.307q-.665-4.483-1.317-8.941H408.474C408.892,293.286,409.323,296.275,409.753,299.251Z" transform="translate(-249.38 -129.379)"/><path class="l" d="M411.889,313.433H259.455c-.241-1.634-.494-3.293-.747-4.952-.2-1.33-.405-2.659-.608-4H410.534C410.989,307.469,411.433,310.457,411.889,313.433Z" transform="translate(-248.818 -125.604)"/><path class="l" d="M261.544,327.6q-.627-4.426-1.3-8.941H412.686c.443,2.989.9,5.965,1.33,8.941Z" transform="translate(-248.247 -121.827)"/><path class="l" d="M263.422,341.771c-.355-2.925-.747-5.914-1.152-8.941H389.41c.431,3.014.836,6,1.216,8.941Z" transform="translate(-247.707 -118.053)"/><path class="l" d="M264.836,355.953q-.361-4.388-.836-8.953H416.624c.342,3.065.659,6.053.924,8.953Z" transform="translate(-247.246 -114.278)"/><path class="l" d="M265.409,370.121c-.013-2.887-.114-5.876-.279-8.941h80.529c.2,3.128.316,6.117.355,8.941Z" transform="translate(-246.945 -110.501)"/></g><path class="k" d="M381.145,405.588c-9.689,1.761-19.5.417-29.243-.055a77.428,77.428,0,0,0-14.012.375c-4.549.608-9.088,1.793-13.684,1.394a25.41,25.41,0,0,0,4.272-2.9.479.479,0,0,0-.209-.794c-14.3-5.016-27.319,8.647-41.556,5.447,4.03-2.99,9.718-3.049,13.164-6.97a.481.481,0,0,0-.337-.81c-12.756-.2-24.8,4.745-37.414,5.847-.6.053-.61,1,0,.95,12.224-1.068,23.933-5.735,36.255-5.837-3.68,3.287-9.3,3.409-13.055,6.723a.479.479,0,0,0,.209.794c14.353,3.962,27.43-9.735,41.6-5.5a24.363,24.363,0,0,1-4.795,2.925.479.479,0,0,0,.114.867c4.672.783,9.239-.214,13.848-.948a75.583,75.583,0,0,1,15.6-.613c9.836.476,19.712,1.8,29.5.022C382,406.4,381.744,405.48,381.145,405.588Z" transform="translate(-184.82 -80.826)"/></g><g transform="translate(1419.24 337.293)"><g transform="translate(0 0)"><path class="m" d="M153.8,185.128c.8,1.023,1.824,2.23,2.766,3.343q1.451,1.7,2.98,3.336c2.04,2.174,4.1,4.32,6.281,6.3a56.9,56.9,0,0,0,13.906,9.749c.61.275,1.221.537,1.832.756.32.13.6.222.859.3a6.857,6.857,0,0,0,.833.243,20.508,20.508,0,0,0,3.714.577,40.692,40.692,0,0,0,8.38-.477,78.192,78.192,0,0,0,8.732-1.854c2.905-.759,5.884-1.7,8.665-2.677l2.562,5.02A70.947,70.947,0,0,1,197.2,217.8a43.783,43.783,0,0,1-10.334,1.669,27.532,27.532,0,0,1-5.659-.379c-.482-.072-.97-.18-1.461-.3s-.979-.241-1.4-.379c-.888-.258-1.745-.56-2.592-.879a59.7,59.7,0,0,1-17.425-11,93.688,93.688,0,0,1-7.183-6.914q-1.689-1.82-3.3-3.71c-1.1-1.282-2.078-2.5-3.176-3.987Z" transform="translate(-79.86 -127.572)"/><path class="k" d="M141.717,184.181c-.279,7.093,2.472,19.874,2.472,19.874l17.556-2.126s.642-18.709-2.759-23.233C153.27,171.1,141.981,177.481,141.717,184.181Z" transform="translate(-80.652 -130.203)"/><path class="m" d="M196.618,203.638l8.226-7.523,1.047,8.1s-3.408,4.564-7.27,2.647Z" transform="translate(-66.022 -124.645)"/><path class="m" d="M207.239,196.552l3.484,4.565-6.562,3.1-1.047-8.1Z" transform="translate(-64.292 -124.645)"/><g transform="translate(135.412 51.378)"><path class="n" d="M205.883,180.273c.871-.052,1.351,0,1.977.008a5.2,5.2,0,0,1,.79.053l.662.089a3.328,3.328,0,0,1,1.566.632,1.858,1.858,0,0,1,.434.924l.293.961,1.175,3.845,2.349,7.691,4.7,15.38c3.1,10.26,6.331,20.489,9.323,30.778,6.144,20.538,11.962,41.161,17.671,61.812s11.078,41.389,16.595,62.089c5.6,20.68,10.464,41.549,12.222,63.223a6.284,6.284,0,0,1-11.985,3.105c-8.989-19.8-14.869-40.406-20.015-61.2-5.229-20.775-10.6-41.513-15.641-62.337s-9.965-41.678-14.566-62.615c-2.38-10.449-4.525-20.958-6.8-31.435l-3.36-15.726-1.68-7.863-.841-3.932-.21-.983a1.865,1.865,0,0,1-.07-1.019,3.319,3.319,0,0,1,1.064-1.313l.534-.4a5.021,5.021,0,0,1,.666-.432c.542-.313.937-.589,1.724-.965A3.866,3.866,0,0,1,205.883,180.273Z" transform="translate(-200.421 -180.249)"/><g transform="translate(65.773 249.637)"><path class="i" d="M260.6,378.375a1.372,1.372,0,0,0-1.65-.955l-2.787.722-2.786.722a1.374,1.374,0,0,0-.98,1.636c1.741,7.969.041,13.688,1.856,20.7,1.914,7.387,10.234,11.167,10.234,11.167l-.272-3.146,1.29,2.882s5.438-7.344,3.523-14.73C267.207,390.36,262.943,386.186,260.6,378.375Z" transform="translate(-252.359 -377.377)"/><path class="l" d="M260.6,378.375a1.372,1.372,0,0,0-1.65-.955l-2.787.722-2.786.722a1.374,1.374,0,0,0-.98,1.636c1.741,7.969.041,13.688,1.856,20.7,1.914,7.387,10.234,11.167,10.234,11.167l-.272-3.146,1.29,2.882s5.438-7.344,3.523-14.73C267.207,390.36,262.943,386.186,260.6,378.375Z" transform="translate(-252.359 -377.377)"/></g><path class="n" d="M261.3,392.9a1.743,1.743,0,1,1-2.125-1.251A1.743,1.743,0,0,1,261.3,392.9Z" transform="translate(-185.12 -123.953)"/><path class="n" d="M262.558,405.533a.4.4,0,0,1-.481-.284l-3.134-12.1a.394.394,0,1,1,.764-.2l3.136,12.1A.4.4,0,0,1,262.558,405.533Z" transform="translate(-184.836 -123.67)"/><path class="k" d="M257.774,344.579,240.706,349a1.848,1.848,0,0,1-2.245-1.321h0a1.849,1.849,0,0,1,1.322-2.245l17.067-4.422a1.848,1.848,0,0,1,2.245,1.322h0A1.848,1.848,0,0,1,257.774,344.579Z" transform="translate(-190.304 -137.442)"/></g><path class="n" d="M185.308,161.02c-.305.761-.149,1.554.347,1.769s1.149-.227,1.454-.989.149-1.553-.347-1.768S185.613,160.259,185.308,161.02Z" transform="translate(-69.077 -134.271)"/><path class="n" d="M186.236,159.979l2.039.265S186.764,161.266,186.236,159.979Z" transform="translate(-68.788 -134.271)"/><path class="o" d="M186,161.6a22.621,22.621,0,0,0,.762,6.036,3.563,3.563,0,0,1-2.915-.667Z" transform="translate(-69.424 -133.838)"/><path class="n" d="M188.585,157.588a.476.476,0,0,1-.211-.105,4.011,4.011,0,0,0-3.431-.984.484.484,0,0,1-.246-.937,4.987,4.987,0,0,1,4.308,1.187.484.484,0,0,1-.42.84Z" transform="translate(-69.293 -135.474)"/><path class="m" d="M165.369,160.49c.548,6.161-1.513,16.26-6.169,19.7,0,0,3.507,6.484,14.739,7.992,12.353,1.658,6.551-5.295,6.551-5.295-6.572-2.5-5.871-7.445-4.2-11.951Z" transform="translate(-75.989 -134.135)"/><path class="m" d="M193.013,186.475c.965,5.759,2.168,11.722,3.426,17.529.666,2.905,1.345,5.81,2.13,8.666.727,2.878,1.568,5.7,2.447,8.5.474,1.374.9,2.781,1.409,4.13l.76,2.025.186.5.046.144a1.638,1.638,0,0,0,.092.232,1.98,1.98,0,0,0,1.19.926,10.816,10.816,0,0,0,3.108.593,36.8,36.8,0,0,0,8.1-.664c2.806-.5,5.753-1.183,8.5-1.949l2.32,5.136c-1.455.872-2.838,1.575-4.3,2.277q-2.173,1.054-4.47,1.9a37.451,37.451,0,0,1-9.945,2.372,18.576,18.576,0,0,1-5.976-.406,11.98,11.98,0,0,1-6.442-3.883,11.387,11.387,0,0,1-1.171-1.679c-.17-.291-.312-.586-.461-.884l-.251-.562-.984-2.217c-.651-1.48-1.217-2.968-1.81-4.459-1.089-2.991-2.126-5.991-3.032-9.006s-1.7-6.056-2.472-9.093c-1.516-6.1-2.737-12.139-3.657-18.465Z" transform="translate(-69.981 -127.213)"/><path class="m" d="M214.738,219.653l4.888-3.878,2.2,7.531s-6.688,4.836-8.476-.851Z" transform="translate(-61.566 -119.408)"/><path class="m" d="M222.714,217.114l1.748,5.489-3.961.7-2.2-7.531Z" transform="translate(-60.245 -119.408)"/><path class="m" d="M149.667,412.347l10.218.753,3.035-23.464-10.218-.753Z" transform="translate(-78.529 -73.296)"/><path class="m" d="M97.992,387.739l8.852,5.383,14.722-18.39-8.852-5.383Z" transform="translate(-92.294 -78.5)"/><path class="k" d="M110.687,390.99a1.284,1.284,0,0,1-.37.046c-1.3-.028-2.773-1.986-3.534-3.15a.241.241,0,0,1,.249-.37c.417.084,4.073.85,4.554,2.073a.826.826,0,0,1-.12.81A1.458,1.458,0,0,1,110.687,390.99Zm-3.16-2.868c1.069,1.517,2.1,2.415,2.8,2.43a.877.877,0,0,0,.745-.434.339.339,0,0,0,.063-.351C110.882,389.122,108.982,388.471,107.527,388.121Z" transform="translate(-89.963 -73.662)"/><path class="k" d="M110.146,388.25a7.321,7.321,0,0,1-3.224.161.243.243,0,0,1-.111-.4c.084-.087,2.1-2.15,3.57-2.09a1.3,1.3,0,0,1,.992.49.845.845,0,0,1,.125,1.061A2.379,2.379,0,0,1,110.146,388.25Zm-2.656-.228c1.235.135,3.218-.222,3.6-.814.063-.1.11-.242-.094-.49a.825.825,0,0,0-.634-.314C109.477,386.369,108.2,387.373,107.49,388.022Z" transform="translate(-89.963 -74.086)"/><path class="n" d="M110.7,388.315l-8.4-8.085a.815.815,0,0,0-1.074-.079l-7.165,5.53a1.637,1.637,0,0,0-.044,2.444c2.975,2.77,4.546,3.961,8.239,7.517,2.272,2.187,5.371,5.611,8.507,8.632,3.07,2.954,6.2.17,5.16-1.361-4.681-6.862-3.983-9.441-4.407-12.95A2.758,2.758,0,0,0,110.7,388.315Z" transform="translate(-93.492 -75.666)"/><path class="k" d="M161.955,408.813a17.217,17.217,0,0,1-3.21-.366.242.242,0,0,1-.063-.452c.47-.241,4.613-2.328,5.838-1.63a.76.76,0,0,1,.391.646,1.368,1.368,0,0,1-.467,1.176A3.911,3.911,0,0,1,161.955,408.813Zm-2.4-.709c2.254.375,3.935.275,4.57-.281a.9.9,0,0,0,.3-.781.282.282,0,0,0-.147-.255C163.606,406.408,161.253,407.3,159.555,408.1Z" transform="translate(-76.162 -68.677)"/><path class="k" d="M158.793,408.957a.237.237,0,0,1-.142-.046.245.245,0,0,1-.1-.222c.019-.184.491-4.362,2.778-4.362.065,0,.132,0,.2.01.662.067.852.4.9.671.185,1.155-2.287,3.37-3.534,3.926A.218.218,0,0,1,158.793,408.957Zm2.547-4.144c-1.474,0-2.055,2.426-2.236,3.465,1.273-.76,2.954-2.5,2.844-3.191-.009-.056-.037-.223-.467-.267C161.432,404.816,161.386,404.813,161.34,404.813Z" transform="translate(-76.162 -69.182)"/><path class="n" d="M161.159,406.857H149.673a.835.835,0,0,0-.833.7l-1.542,9.088a1.6,1.6,0,0,0,1.593,1.818c4.006-.07,5.942-.3,10.992-.3,3.108,0,9.527.323,13.817.323,4.2,0,4.629-4.244,2.852-4.627-7.967-1.724-11.059-4.1-13.7-6.366A2.609,2.609,0,0,0,161.159,406.857Z" transform="translate(-79.165 -68.508)"/><g transform="translate(14.132 290.853)"><path class="p" d="M162.608,389.641l-1.684,13.04-10.1-1.691,1.563-12.1Z" transform="translate(-92.353 -364.148)"/><path class="p" d="M110.935,369.352l8.855,5.385-6.094,7.605-9.045-5.149Z" transform="translate(-104.652 -369.352)"/></g><path class="k" d="M145.623,237.818c8,1.07,24.967,3.351,41.378,5.559,16.031-58.025,11.3-59.616,11.3-59.617a40.887,40.887,0,0,0-5.633-2.2q-2.927-1.058-5.913-1.941a105.912,105.912,0,0,0-36.216-4.175,5.411,5.411,0,0,0-4.06,2.311,5.943,5.943,0,0,0-.443.794,5.767,5.767,0,0,0-.5,3.084C149.07,212.158,147.943,222.2,145.623,237.818Z" transform="translate(-79.638 -130.201)"/><path class="p" d="M181.523,197.407a34.613,34.613,0,0,0,2.236,17.785c2.752-11.325,4.24-19.049,4.982-24.316C185.585,190.648,182.3,191.859,181.523,197.407Z" transform="translate(-70.13 -126.047)"/><path class="k" d="M188.772,181.9c7.083,4.06,12.008,13.72,13.493,19.332l-15.089,13.826s-7.829-18.2-7.2-23.853C180.615,185.479,186.092,180.361,188.772,181.9Z" transform="translate(-70.465 -128.506)"/><path class="m" d="M166.551,152.4c-3.177,9.6-4.726,13.588-1.934,20.433,4.2,10.3,16.657,12.467,22.63,4.1,5.376-7.531,9.669-21.964,2.016-29.651A13.522,13.522,0,0,0,166.551,152.4Z" transform="translate(-74.934 -138.781)"/><path class="m" d="M178.393,157.489a9.148,9.148,0,0,0-.3,5.507c.627,2.562,2.54,2.742,3.7,1.108,1.049-1.472,1.984-4.577.709-6.705C181.249,155.3,179.212,155.553,178.393,157.489Z" transform="translate(-71.033 -135.35)"/><path class="n" d="M173.259,141.352c-6.831-3.8-19.137,7.317-22.232,25.466-2.217,13,25.531,19.279,43.053,19.069-1.157-3.061-8.439-12.28-3.792-21.152,3.376-6.447,7.229-4.96,7.478-12.46C198.081,142.83,185.571,136.5,173.259,141.352Z" transform="translate(-78.2 -139.678)"/><path class="n" d="M181.261,144.233c7.947-.774,15.944,7.036,10.006,14.825a12.594,12.594,0,0,0-10.432-2.514C177.209,157.34,181.261,144.233,181.261,144.233Z" transform="translate(-70.628 -138.479)"/><path class="n" d="M186.983,228.748s-16.066,67.911-23.575,106.92c-7.922,41.157-45.931,84.035-45.931,84.035l-12.909-7.2s23.915-39.14,31.673-77.568c15.75-78.01,5.087-93.723,20.29-110.276Z" transform="translate(-90.542 -117.041)"/><path class="k" d="M119.16,382.526l-16.117-8.986,2.354-4.762,18.079,8.318Z" transform="translate(-90.948 -78.652)"/><path class="p" d="M165.145,239.938c-12.493,10.844-11.142,49.332-9.835,66.677,5.244-24.66,11.543-52.12,15.237-68.012C169.23,237.618,167.441,237.945,165.145,239.938Z" transform="translate(-77.242 -113.47)"/><path class="n" d="M185.449,229.931s7.228,80.619,3.285,111.371c-4.1,31.986-24.974,101.581-24.974,101.581l-14.738-1.9s11.972-68.963,14.1-100.633c2.32-34.525-7.976-114.484-7.976-114.484Z" transform="translate(-78.701 -116.721)"/><path class="k" d="M167.553,399.773l-21.006-2.712.323-6.2,22.789,2.209Z" transform="translate(-79.36 -72.77)"/><g transform="translate(63.318 104.898)"><path class="i" d="M145.8,222.74l-2.257,3.426c-.175.266.134.6.613.667l43.4,5.824c.374.049.7-.09.75-.32l.764-3.626c.053-.252-.248-.51-.656-.565l-41.9-5.624A.738.738,0,0,0,145.8,222.74Z" transform="translate(-143.492 -222.512)"/><path d="M145.8,222.74l-2.257,3.426c-.175.266.134.6.613.667l43.4,5.824c.374.049.7-.09.75-.32l.764-3.626c.053-.252-.248-.51-.656-.565l-41.9-5.624A.738.738,0,0,0,145.8,222.74Z" transform="translate(-143.492 -222.512)"/></g><path class="n" d="M149.678,228.089l-1.122-.151c-.224-.03-.382-.167-.352-.305l1.035-4.706c.029-.138.237-.225.461-.2l1.122.151c.224.03.381.167.352.305l-1.035,4.706C150.108,228.031,149.9,228.12,149.678,228.089Z" transform="translate(-78.92 -117.557)"/><path class="n" d="M172.059,231.145l-1.122-.151c-.223-.03-.381-.167-.351-.305l1.033-4.707c.03-.137.238-.225.461-.2l1.123.151c.223.029.381.167.351.305l-1.033,4.706C172.49,231.087,172.283,231.174,172.059,231.145Z" transform="translate(-72.958 -116.743)"/></g></g></g></svg>