<svg xmlns="http://www.w3.org/2000/svg" width="102.782" height="102.782" viewBox="0 0 102.782 102.782"><defs><style>.a{fill:#fff;}</style></defs><path class="a" d="M102.783,38.945V20.291H95.154V5.42H65.637a21.43,21.43,0,0,0-28.49,0H7.629V20.291H0V38.945H5.473V96.76H0v6.022H102.783V96.76H97.31V38.945Zm-39.648-27.5A15.392,15.392,0,0,1,66.849,21.48a15.183,15.183,0,0,1-.285,2.951,15.419,15.419,0,0,1-4.791,8.492l-.036.032a15.426,15.426,0,0,1-20.69,0l-.036-.032a15.419,15.419,0,0,1-4.791-8.492,15.184,15.184,0,0,1-.285-2.951,15.45,15.45,0,0,1,27.2-10.037ZM96.76,34.788h-27.2c1.6-2.525,2.682-7.27,3.105-10.357H96.76Zm-7.629-25.3V20.291H72.65c-.355-2.485-1.138-8.673-2.273-10.807Zm-75.481,0H32.405c-1.135,2.134-1.917,8.322-2.273,10.807H13.651ZM6.023,24.431H30.116c.423,3.087,1.508,7.832,3.105,10.357H6.023ZM43.038,98.258H22.34V53.444h20.7Zm5.216,0-.075-48.875H18.067l.075,48.875h-7.9l-.075-59.282h28.78a21.439,21.439,0,0,0,24.893,0H93.08l.075,59.282Zm0,0" transform="translate(0 0)"/><path class="a" d="M274,275.711h29.711V246H274Zm4.995-24.089h19.738v19.222H278.995Zm0,0" transform="translate(-218.995 -196.616)"/><path class="a" d="M216.161,60.621V66.86h-6.239v6.022h6.239v6.24h6.022v-6.24h6.239V66.86h-6.239V60.621Zm0,0" transform="translate(-167.781 -48.452)"/></svg>