<svg xmlns="http://www.w3.org/2000/svg" xmlns:xlink="http://www.w3.org/1999/xlink" width="423.052" height="474.854" viewBox="0 0 423.052 474.854"><defs><style>.a,.h,.m{fill:#d20400;}.a,.b,.i,.m,.u{stroke:#263238;}.a,.b,.i,.o,.u{stroke-linecap:round;stroke-linejoin:round;}.b,.c{fill:#fff;}.d{fill:#c6ff00;}.e{fill:#fafafa;}.f{fill:#c1c1c1;}.g{opacity:0.5;}.i,.o{fill:none;}.j,.u{fill:#263238;}.k{clip-path:url(#a);}.l,.n{opacity:0.17;}.m{stroke-miterlimit:10;}.o{stroke:#fff;}.p{opacity:0.25;}.q{clip-path:url(#b);}.r{opacity:0.15;}.s{clip-path:url(#c);}.t{clip-path:url(#d);}.v{clip-path:url(#e);}.w{clip-path:url(#f);}.x{clip-path:url(#g);}.y{clip-path:url(#h);}.z{clip-path:url(#i);}</style><clipPath id="a"><rect class="a" width="417.121" height="301.254"/></clipPath><clipPath id="b"><path class="b" d="M234.374,247.679c.29-.579,2.185,1.345,2.185,1.345,1.539,1.539,13.031,13.027,15.083,13.027s39.045,12.369,39.045,12.369l29.245-7.952c2.565,6.67-6.157,19.24-6.157,19.24s-22.83,1.8-27.192,0-36.171-19.5-36.171-19.5-3.856.05-5.909-.976a10.35,10.35,0,0,1-3.84-2.872c-.513-.769-.769-.769-2.565-2.308a1.6,1.6,0,0,1-.305-2.539l1.019.1-3.161-5.016a9.206,9.206,0,0,1-1.164-1.746c-.462-1.079.274-1.341.274-1.341S234.084,248.257,234.374,247.679Z" transform="translate(-234.302 -247.57)"/></clipPath><clipPath id="c"><path class="b" d="M235.874,248.441a27.076,27.076,0,0,1,5.645,3.54,45.629,45.629,0,0,1,4.21,5.741S236.735,250.163,235.874,248.441Z" transform="translate(-235.874 -248.441)"/></clipPath><clipPath id="d"><path class="b" d="M234.486,250.853c-.462-1.079.274-1.341.274-1.341s-.676-1.254-.386-1.833,2.185,1.345,2.185,1.345c1.539,1.539,13.031,13.027,15.083,13.027,1.029,0,10.863,3.117,20.4,6.221l-3.691,7.83c-9.034-4.934-17.941-9.891-17.941-9.891s-3.856.05-5.909-.976a10.35,10.35,0,0,1-3.84-2.872c-.513-.769-.769-.769-2.565-2.308a1.6,1.6,0,0,1-.305-2.539l1.019.1-3.161-5.016A9.206,9.206,0,0,1,234.486,250.853Z" transform="translate(-234.302 -247.57)"/></clipPath><clipPath id="e"><path class="c" d="M343.164,317.372s9.235,6.67,10.518,12.827,3.592,16.674,3.848,17.957,11.031,37.2,11.288,38.48,10,9.235,9.749,17.187,4.617,44.893,4.874,47.2-2.053,3.592-4.362,4.874-6.941,6.039-12.313,3.078c-4.143-2.283,9.748-10.518,9.748-14.622s-13.6-41.3-17.443-49-13.084-25.91-15.906-30.271a63.734,63.734,0,0,1-4.874-9.491s-.769,16.931,1.283,25.653,3.848,22.574,1.026,36.171-3.592,26.936-2.822,31.3-.513,4.618-3.078,5.387-7.468-.156-10.542,1.162-9.274,1.089-9.7-1.06,9.984-6.258,13.318-8.824,2.309-6.927,3.079-17.445-5.644-37.453-6.671-43.354S317,356.878,317,344.564s.769-17.445.769-17.445,3.592-3.591,11.288-6.926A32.5,32.5,0,0,1,343.164,317.372Z" transform="translate(-314.441 -317.344)"/></clipPath><clipPath id="f"><path class="b" d="M303.692,237.313c0-1.966-1.811-8.936,3.213-13.522s13.851-3.541,13.851-3.541c10.436.705,16.641,12.692,14.526,21.153s-8.179,9.448-10.295,12.128c-1.143,1.45-.348,5.208.622,8.355,9,.4,8.319,7.547,9.978,12.52,2.052,6.157,4.874,25.653,5.643,30.014s6.413,11.8,6.413,14.366-11.288,6.671-21.035,11.544-9.6,5.11-11.391,2.544-3.744-28.2-3.744-31.275-9.235-10.774-7.183-15.136c1.654-3.513,9.131-16.677,11.977-21.664-.053-.18-.107-.362-.164-.55a74.9,74.9,0,0,0-4.09-9.166s-5.359.283-6.91.141-2.4-.564-2.679-1.974a7.08,7.08,0,0,1,.424-3.244s-.565.141-.846-.705.705-1.55.705-1.55c-.705-.282-.71-1.678-.71-1.678l1.31-1.31s-2.3-.656-2.516-2.4S303.692,239.279,303.692,237.313Z" transform="translate(-300.778 -220.147)"/></clipPath><clipPath id="g"><path class="b" d="M316.261,242.626s3.244-5.423,6.5-3.745-.775,7.164-3.254,8.536-3.409-2.134-3.409-2.134" transform="translate(-316.097 -238.558)"/></clipPath><clipPath id="h"><path class="b" d="M317.62,270.351s5.644-8.979,12.314-6.413,28.475,30.527,29.245,34.888,6.67,40.02,6.67,40.02,1.283,3.848,0,6.926-1.283,4.361,0,6.926,1.026,3.592-1.026,2.053-2.309-2.053-4.617-6.67,1.539-11.288,1.539-11.288-13.083-30.014-13.6-32.836a15.837,15.837,0,0,0-1.539-4.617s-23.6-19.5-25.909-23.088" transform="translate(-317.62 -263.476)"/></clipPath><clipPath id="i"><path class="b" d="M358.4,300.489c1.7,10.071,6.094,36.646,6.094,36.646s1.283,3.848,0,6.926-1.283,4.361,0,6.926,1.026,3.592-1.026,2.053-2.309-2.053-4.617-6.67,1.539-11.288,1.539-11.288-11.944-27.4-13.454-32.3Z" transform="translate(-346.935 -300.489)"/></clipPath></defs><g transform="translate(-311.301 -233.096)"><g transform="translate(339.996 267.816)"><path class="d" d="M66.8,193.542S50.013,265.293,96.783,327.81s128.3,86.809,193.831,108.231,126.915-3.311,149.939-58.383-23.483-84.741-33.738-156.672-2.068-92.648-49.9-147.415-146-53.464-212.364,2.767S66.8,193.542,66.8,193.542Z" transform="translate(-63.871 -33.316)"/><path class="e" d="M66.8,193.542S50.013,265.293,96.783,327.81s128.3,86.809,193.831,108.231,126.915-3.311,149.939-58.383-23.483-84.741-33.738-156.672-2.068-92.648-49.9-147.415-146-53.464-212.364,2.767S66.8,193.542,66.8,193.542Z" transform="translate(-63.871 -33.316)"/></g><g transform="translate(332.066 504.404)"><g transform="translate(0 0)"><g transform="translate(53.15)"><path class="f" d="M130.618,285.3c-.059.006.729-3.9.807-4.141.9-2.787,4.287-7.641,7.568-7.634a3.881,3.881,0,0,1,3.731,4.41c-.237,2.3-2.307,4.269-4.179,5.4C136.348,284.666,130.623,285.3,130.618,285.3Z" transform="translate(-106.008 -258.803)"/><path class="f" d="M125.353,259.673c3.088,1.108,4.623,6.821,4.527,9.75-.008.253-.593,4.2-.647,4.168l-.063-.031c.249.9.506,1.868.766,2.931.463,1.967.969,4.194,1.356,6.655a68.963,68.963,0,0,1,.874,8,50.707,50.707,0,0,1-.3,9c0,.036-.014.071-.019.107.4-.872,1.616-3.273,1.73-3.446,1.607-2.449,6.153-6.236,9.315-5.365a3.883,3.883,0,0,1,2.433,5.24c-.837,2.158-3.352,3.507-5.456,4.105-2.374.676-7.665-.122-8.085-.187a68.7,68.7,0,0,1-1.95,8.96c-.484,1.716-1.025,3.428-1.589,5.139.373-.743.714-1.4.771-1.491,1.607-2.449,6.152-6.236,9.314-5.365a3.882,3.882,0,0,1,2.435,5.239c-.838,2.159-3.352,3.507-5.457,4.106-2.135.607-6.659.018-7.855-.155-.224.654-.439,1.31-.665,1.963-1.083,3.133-2.178,6.256-3.157,9.352-.346,1.09-.647,2.177-.951,3.263.333-.658.618-1.212.671-1.291,1.607-2.449,6.152-6.236,9.314-5.365a3.883,3.883,0,0,1,2.435,5.24c-.838,2.158-3.352,3.507-5.457,4.105-2.037.58-6.219.073-7.639-.125-.278,1.122-.56,2.245-.778,3.345-.133.754-.313,1.471-.4,2.236s-.211,1.5-.315,2.244c-.147,1.434-.31,2.913-.418,4.316-.084.974-.145,1.9-.21,2.842.332-1.09,1.026-3.21,1.1-3.38A15.076,15.076,0,0,1,126,340.058a4.6,4.6,0,0,1,.424-.749,3.882,3.882,0,0,1,5.708-.89c2.484,2.144,1.862,8.028.721,10.725-.067.16-.992,1.8-1.591,2.833.445-.551.869-1.091,1.335-1.652.911-1.116,1.853-2.2,2.862-3.377l1.538-1.665c.5-.567,1.1-1.1,1.656-1.661,1.313-1.268,2.7-2.49,4.135-3.69-.976-.8-4.4-3.692-5.384-5.657s-1.685-4.72-.659-6.8a3.881,3.881,0,0,1,5.507-1.745c2.78,1.742,3.058,7.652,2.338,10.491-.045.178-.791,2.156-1.222,3.236.865-.715,1.724-1.432,2.623-2.126,2.594-2.006,5.28-3.954,7.952-5.909.819-.6,1.628-1.205,2.44-1.809-.35-.281-4.493-3.63-5.6-5.832-.98-1.955-1.685-4.72-.659-6.8a3.882,3.882,0,0,1,5.507-1.745c2.78,1.743,3.057,7.653,2.337,10.492-.054.213-1.131,3.06-1.441,3.771,1.787-1.331,3.556-2.673,5.247-4.068a68.487,68.487,0,0,0,6.491-6.041c-.163-.131-4.5-3.607-5.633-5.861-.98-1.956-1.685-4.72-.659-6.8A3.882,3.882,0,0,1,167.481,305c2.78,1.743,3.057,7.653,2.337,10.492-.047.186-.866,2.357-1.28,3.379l.159.1a49.953,49.953,0,0,0,5.326-7.153c.876-1.386,1.636-2.76,2.345-4.114-.875-.564-4.844-3.188-6.085-5.1-1.188-1.837-2.193-4.507-1.4-6.683a3.881,3.881,0,0,1,5.282-2.339c2.953,1.427,3.879,7.27,3.476,10.171-.022.158-.423,1.738-.731,2.883.311-.615.642-1.245.929-1.84,1.079-2.234,1.929-4.346,2.668-6.223.411-1.07.762-2.046,1.08-2.963-.569-1-2.813-5.068-3.028-7.3-.209-2.178.131-5.011,1.836-6.578a3.883,3.883,0,0,1,5.767.358c1.964,2.628.092,8.24-1.6,10.63-.147.206-2.809,3.172-2.84,3.12l-.035-.061c-.288.888-.608,1.838-.978,2.868-.7,1.9-1.506,4.033-2.54,6.3a69.035,69.035,0,0,1-3.684,7.152,50.707,50.707,0,0,1-5.216,7.336c-.024.027-.051.052-.074.078.818-.5,3.153-1.837,3.344-1.919,2.692-1.157,8.572-1.808,10.729.663a3.883,3.883,0,0,1-.86,5.713c-1.89,1.339-4.731,1.076-6.816.414-2.353-.746-6.325-4.33-6.64-4.617a68.735,68.735,0,0,1-6.569,6.4c-1.351,1.164-2.746,2.294-4.161,3.41.721-.413,1.37-.777,1.465-.818,2.693-1.156,8.573-1.808,10.73.663a3.882,3.882,0,0,1-.861,5.713c-1.889,1.339-4.73,1.076-6.816.414-2.116-.671-5.565-3.659-6.467-4.462-.547.423-1.088.851-1.637,1.27-2.632,2.016-5.268,4.016-7.792,6.058-.891.719-1.741,1.461-2.595,2.2.641-.366,1.184-.67,1.272-.707,2.692-1.156,8.572-1.808,10.729.664a3.883,3.883,0,0,1-.861,5.713c-1.889,1.338-4.73,1.076-6.816.413-2.019-.64-5.227-3.37-6.3-4.319-.851.783-1.705,1.564-2.494,2.36-.526.557-1.072,1.055-1.57,1.643q-.758.858-1.5,1.7c-.914,1.114-1.865,2.259-2.73,3.368-.608.767-1.172,1.51-1.743,2.256.878-.726,2.626-2.111,2.785-2.211,2.486-1.551,8.2-3.086,10.706-.969a3.881,3.881,0,0,1,.015,5.777c-1.665,1.609-4.512,1.78-6.674,1.442-2.38-.371-6.688-3.178-7.224-3.532-.941,1.238-1.843,2.45-2.677,3.608-2.9,4.008-5.162,7.456-6.709,9.888-.055.086-.1.164-.157.247l-2.008-.974c.1-.156.205-.309.317-.476,1.62-2.426,3.979-5.857,6.994-9.84.95-1.261,1.99-2.589,3.071-3.943a42.309,42.309,0,0,1-3.115-3.855c-2.3.9-7.1.938-7.724.938-.1,1.552-.185,3.06-.242,4.486-.207,4.942-.192,9.066-.142,11.949,0,.118.005.223.007.336l-2.206-1.071c.022-2.862.109-6.736.4-11.315.1-1.574.231-3.257.386-4.982-.612-.154-5.6-1.435-7.487-2.94-1.71-1.366-3.508-3.581-3.446-5.9a3.881,3.881,0,0,1,4.27-3.892c3.254.417,5.982,5.667,6.518,8.547.031.169.168,2.051.235,3.24.067-.705.125-1.389.2-2.114.144-1.433.331-2.86.525-4.4q.179-1.106.364-2.237c.1-.749.312-1.527.466-2.3.4-1.782.882-3.569,1.412-5.358-1.255-.13-5.706-.653-7.611-1.748s-4.01-3.008-4.3-5.305a3.882,3.882,0,0,1,3.63-4.495c3.28-.08,6.772,4.7,7.738,7.462.061.173.53,2.236.767,3.373.327-1.072.648-2.146,1.015-3.22,1.057-3.1,2.223-6.21,3.373-9.316.353-.951.693-1.9,1.037-2.854-.447-.042-5.751-.549-7.885-1.776-1.9-1.09-4.009-3.008-4.3-5.305a3.882,3.882,0,0,1,3.631-4.493c3.279-.081,6.772,4.7,7.738,7.462.072.208.744,3.176.878,3.94.757-2.1,1.492-4.191,2.132-6.287a68.317,68.317,0,0,0,2.082-8.62c-.209-.019-5.747-.524-7.932-1.781-1.9-1.091-4.009-3.008-4.3-5.305a3.882,3.882,0,0,1,3.63-4.495c3.28-.079,6.772,4.7,7.738,7.462.064.182.578,2.442.8,3.524l.187-.005a49.919,49.919,0,0,0,.5-8.9c-.033-1.639-.158-3.2-.313-4.724-1.041.012-5.8.013-7.892-.9-2-.877-4.316-2.55-4.855-4.8a3.882,3.882,0,0,1,3.116-4.866c3.251-.439,7.246,3.924,8.51,6.567.069.143.606,1.681.981,2.808-.081-.685-.152-1.394-.242-2.047-.332-2.459-.788-4.689-1.207-6.662-.248-1.119-.494-2.127-.734-3.067-1.027-.521-5.141-2.674-6.551-4.418-1.376-1.7-2.655-4.251-2.1-6.5A3.882,3.882,0,0,1,125.353,259.673Z" transform="translate(-107.095 -259.453)"/><path class="f" d="M181.572,308.377c-2.567-.1-7.692-2.734-7.695-2.736-.053-.027,2.759-2.851,2.957-3.009,2.291-1.826,7.79-4.007,10.524-2.193a3.882,3.882,0,0,1,.679,5.737C186.568,307.967,183.757,308.464,181.572,308.377Z" transform="translate(-104.009 -257.591)"/><g class="g" transform="translate(24.607 14.721)"><path class="c" d="M130.618,285.3c-.059.006.729-3.9.807-4.141.9-2.787,4.287-7.641,7.568-7.634a3.881,3.881,0,0,1,3.731,4.41c-.237,2.3-2.307,4.269-4.179,5.4C136.348,284.666,130.623,285.3,130.618,285.3Z" transform="translate(-130.615 -273.524)"/><path class="f" d="M181.572,308.377c-2.567-.1-7.692-2.734-7.695-2.736-.053-.027,2.759-2.851,2.957-3.009,2.291-1.826,7.79-4.007,10.524-2.193a3.882,3.882,0,0,1,.679,5.737C186.568,307.967,183.757,308.464,181.572,308.377Z" transform="translate(-128.616 -272.312)"/></g></g><g transform="translate(0 79.057)"><path class="d" d="M157.071,370.939s-15.552-37.5-24.262-35.868,14.93,59.78,14.93,59.78-27.372-51.628-46.035-51.628,6.843,57.063,30.482,76.085c0,0-37.326-40.216-59.1-31.521s43.546,49.455,43.546,49.455-37.947-11.956-33.593-2.718,16.174,10.869,16.174,10.869l-42.925,2.174h149.3L172,444.305s34.837-17.39,25.506-24.455S167.646,428,167.646,428s35.46-39.129,28.617-53.8-37.326,26.629-37.326,26.629,24.883-52.715,19.907-61.953S157.071,370.939,157.071,370.939Z" transform="translate(-56.292 -335.019)"/><path class="h" d="M157.071,370.939s-15.552-37.5-24.262-35.868,14.93,59.78,14.93,59.78-27.372-51.628-46.035-51.628,6.843,57.063,30.482,76.085c0,0-37.326-40.216-59.1-31.521s43.546,49.455,43.546,49.455-37.947-11.956-33.593-2.718,16.174,10.869,16.174,10.869l-42.925,2.174h149.3L172,444.305s34.837-17.39,25.506-24.455S167.646,428,167.646,428s35.46-39.129,28.617-53.8-37.326,26.629-37.326,26.629,24.883-52.715,19.907-61.953S157.071,370.939,157.071,370.939Z" transform="translate(-56.292 -335.019)"/><g transform="translate(41.059 24.211)"><path class="i" d="M157.982,371.241C144.3,411.677,144.3,440.294,144.3,440.294s16.174.621,32.971-11.82" transform="translate(-93.284 -357.556)"/><path class="i" d="M151.331,393.619a242.3,242.3,0,0,0-11.2-35.459" transform="translate(-93.476 -358.16)"/><path class="i" d="M112.186,369.458l34.838,51.634s23.639-19.907,31.726-31.1" transform="translate(-94.768 -357.638)"/><path class="i" d="M147.171,431.912s-36.7-17.418-51.634-27.372" transform="translate(-95.537 -356.017)"/></g></g></g></g><g transform="translate(311.301 233.096)"><g transform="translate(0)"><path class="j" d="M205.4,68.62,193.732,50H90.948V385.165H514V68.62Z" transform="translate(-90.948 -50)"/><g transform="translate(3.145 27.162)"><rect class="c" width="417.121" height="301.254"/><g class="k"><rect class="l" width="9.683" height="306.117" transform="translate(409.48 -2.583)"/><rect class="l" width="9.683" height="118.547" transform="translate(409.48 182.502)"/><rect class="m" width="419.328" height="16.386" transform="translate(-1.655 -4.073)"/></g><rect class="i" width="417.121" height="301.254"/></g><g class="n" transform="translate(188.717 50.123)"><path d="M254.459,90.145H225.278a2.575,2.575,0,0,1-2.575-2.575h0a2.575,2.575,0,0,1,2.575-2.575h29.181a2.575,2.575,0,0,1,2.575,2.575h0A2.575,2.575,0,0,1,254.459,90.145Z" transform="translate(-222.703 -84.994)"/><path d="M295.206,90.145H266.025a2.575,2.575,0,0,1-2.575-2.575h0a2.575,2.575,0,0,1,2.575-2.575h29.181a2.575,2.575,0,0,1,2.575,2.575h0A2.575,2.575,0,0,1,295.206,90.145Z" transform="translate(-205.087 -84.994)"/><path d="M335.953,90.145H306.771a2.575,2.575,0,0,1-2.574-2.575h0a2.575,2.575,0,0,1,2.574-2.575h29.182a2.574,2.574,0,0,1,2.574,2.575h0A2.574,2.574,0,0,1,335.953,90.145Z" transform="translate(-187.471 -84.994)"/><path d="M376.7,90.145H347.518a2.574,2.574,0,0,1-2.574-2.575h0a2.574,2.574,0,0,1,2.574-2.575H376.7a2.575,2.575,0,0,1,2.574,2.575h0A2.575,2.575,0,0,1,376.7,90.145Z" transform="translate(-169.855 -84.994)"/></g><g transform="translate(18.335 166.848)"><line class="i" x2="17.11" transform="translate(165.711)"/><line class="i" x2="87.697" transform="translate(67.696)"/><line class="i" x2="58.411"/><line class="i" x2="71.792" transform="translate(111.029 10.652)"/><line class="i" x2="27.856" transform="translate(71.823 10.652)"/><line class="i" x2="59.443" transform="translate(0 10.652)"/><line class="i" x2="144.013" transform="translate(38.807 21.304)"/><line class="i" x2="25.395" transform="translate(0 21.304)"/><line class="i" x2="35.681" transform="translate(147.14 31.956)"/><line class="i" x2="55.714" transform="translate(79.045 31.956)"/><line class="i" x2="67.696" transform="translate(0 31.956)"/><line class="i" x2="123.378" transform="translate(59.443 42.608)"/><line class="i" x2="48.093" transform="translate(0 42.608)"/></g><g transform="translate(219.406 166.848)"><line class="i" x2="17.455" transform="translate(169.061)"/><line class="i" x2="89.47" transform="translate(69.065)"/><line class="i" x2="59.591"/><line class="i" x2="73.243" transform="translate(113.273 10.652)"/><line class="i" x2="28.42" transform="translate(73.275 10.652)"/><line class="i" x2="60.644" transform="translate(0 10.652)"/><line class="i" x2="146.924" transform="translate(39.592 21.304)"/><line class="i" x2="25.909" transform="translate(0 21.304)"/><line class="i" x2="36.402" transform="translate(150.114 31.956)"/><line class="i" x2="56.84" transform="translate(80.643 31.956)"/><line class="i" x2="69.065" transform="translate(0 31.956)"/><line class="i" x2="125.872" transform="translate(60.644 42.608)"/><line class="i" x2="49.065" transform="translate(0 42.608)"/></g><g transform="translate(18.335 219.645)"><line class="i" x2="17.11" transform="translate(165.711)"/><line class="i" x2="87.697" transform="translate(67.696)"/><line class="i" x2="58.411"/><line class="i" x2="71.792" transform="translate(111.029 10.652)"/><line class="i" x2="27.856" transform="translate(71.823 10.652)"/><line class="i" x2="59.443" transform="translate(0 10.652)"/><line class="i" x2="144.013" transform="translate(38.807 21.304)"/><line class="i" x2="25.395" transform="translate(0 21.304)"/><line class="i" x2="35.681" transform="translate(147.14 31.956)"/><line class="i" x2="55.714" transform="translate(79.045 31.956)"/><line class="i" x2="67.696" transform="translate(0 31.956)"/><line class="i" x2="123.378" transform="translate(59.443 42.608)"/><line class="i" x2="48.093" transform="translate(0 42.608)"/></g><g transform="translate(219.406 219.645)"><line class="i" x2="17.455" transform="translate(169.061)"/><line class="i" x2="89.47" transform="translate(69.065)"/><line class="i" x2="59.591"/><line class="i" x2="73.243" transform="translate(113.273 10.652)"/><line class="i" x2="28.42" transform="translate(73.275 10.652)"/><line class="i" x2="60.644" transform="translate(0 10.652)"/><line class="i" x2="146.924" transform="translate(39.592 21.304)"/><line class="i" x2="25.909" transform="translate(0 21.304)"/><line class="i" x2="36.402" transform="translate(150.114 31.956)"/><line class="i" x2="56.84" transform="translate(80.643 31.956)"/><line class="i" x2="69.065" transform="translate(0 31.956)"/><line class="i" x2="125.872" transform="translate(60.644 42.608)"/><line class="i" x2="49.065" transform="translate(0 42.608)"/></g><g transform="translate(17.49 75.971)"><path class="d" d="M491.591,183.183H103.159V103.04H491.591Z" transform="translate(-103.159 -103.04)"/><path class="f" d="M491.591,183.183H103.159V103.04H491.591Z" transform="translate(-103.159 -103.04)"/></g><g transform="translate(17.49 75.971)"><path class="j" d="M287.475,183.183H103.159V103.04H272.247l15.229,11.878Z" transform="translate(-103.159 -103.04)"/><path class="c" d="M221.21,103.04v11.878h15.229Z" transform="translate(-52.122 -103.04)"/><g transform="translate(25.1 23.227)"><line class="o" x2="12.551" transform="translate(121.564)"/><line class="o" x2="64.334" transform="translate(49.661)"/><line class="o" x2="42.85"/><line class="o" x2="52.666" transform="translate(81.45 6.866)"/><line class="o" x2="20.435" transform="translate(52.689 6.866)"/><line class="o" x2="43.606" transform="translate(0 6.866)"/><line class="o" x2="105.647" transform="translate(28.469 13.732)"/><line class="o" x2="18.63" transform="translate(0 13.732)"/><line class="o" x2="26.175" transform="translate(107.94 20.599)"/><line class="o" x2="40.871" transform="translate(57.987 20.599)"/><line class="o" x2="49.661" transform="translate(0 20.599)"/><line class="o" x2="90.509" transform="translate(43.606 27.465)"/><line class="o" x2="35.281" transform="translate(0 27.465)"/></g></g><path class="h" d="M267.991,275.833H184.074a3.6,3.6,0,0,1-3.6-3.6V244.882a3.6,3.6,0,0,1,3.6-3.6h83.917a3.6,3.6,0,0,1,3.6,3.6v27.356A3.6,3.6,0,0,1,267.991,275.833Z" transform="translate(-52.241 32.699)"/><g transform="translate(148.752 284.512)"><path class="j" d="M202.442,257.273H197.55l-.692,1.842a1.092,1.092,0,0,1-.4.563,1.014,1.014,0,0,1-.6.189,1.1,1.1,0,0,1-.736-.276.883.883,0,0,1-.324-.7,1.088,1.088,0,0,1,.079-.391l3.366-8.429a2.412,2.412,0,0,1,.741-1.144,1.9,1.9,0,0,1,2.018,0,2.413,2.413,0,0,1,.741,1.144l3.366,8.429a1.088,1.088,0,0,1,.079.391.883.883,0,0,1-.324.7,1.1,1.1,0,0,1-.736.276,1.014,1.014,0,0,1-.6-.189,1.082,1.082,0,0,1-.4-.563ZM200,250.737l-1.895,5.055h3.788Z" transform="translate(-194.801 -248.636)"/><path class="j" d="M205.274,256.786a1.845,1.845,0,0,0,1.531.7,2.739,2.739,0,0,0,1.541-.4.675.675,0,0,1,.391-.132.533.533,0,0,1,.414.189.644.644,0,0,1,.169.447.787.787,0,0,1-.307.615,2.551,2.551,0,0,1-.937.488,4.857,4.857,0,0,1-1.457.195,3.686,3.686,0,0,1-2.77-1.109,3.922,3.922,0,0,1-1.074-2.842,4.146,4.146,0,0,1,.48-1.981,3.66,3.66,0,0,1,1.371-1.429,3.848,3.848,0,0,1,2.017-.534,3.631,3.631,0,0,1,2.187.614.725.725,0,0,1,.344.6.607.607,0,0,1-.179.437.594.594,0,0,1-.441.185.74.74,0,0,1-.361-.1,2.99,2.99,0,0,0-1.351-.347,1.906,1.906,0,0,0-1.561.69,2.831,2.831,0,0,0-.563,1.848A2.912,2.912,0,0,0,205.274,256.786Z" transform="translate(-191.353 -247.615)"/><path class="j" d="M210.527,256.786a1.847,1.847,0,0,0,1.531.7,2.733,2.733,0,0,0,1.541-.4.682.682,0,0,1,.392-.132.53.53,0,0,1,.413.189.645.645,0,0,1,.17.447.787.787,0,0,1-.307.615,2.547,2.547,0,0,1-.938.488,4.854,4.854,0,0,1-1.455.195,3.683,3.683,0,0,1-2.77-1.109,3.916,3.916,0,0,1-1.074-2.842,4.146,4.146,0,0,1,.48-1.981,3.656,3.656,0,0,1,1.369-1.429A3.851,3.851,0,0,1,211.9,251a3.625,3.625,0,0,1,2.187.614.723.723,0,0,1,.345.6.6.6,0,0,1-.18.437.594.594,0,0,1-.441.185.749.749,0,0,1-.361-.1,2.985,2.985,0,0,0-1.349-.347,1.9,1.9,0,0,0-1.561.69,2.831,2.831,0,0,0-.563,1.848A2.912,2.912,0,0,0,210.527,256.786Z" transform="translate(-189.082 -247.615)"/><path class="j" d="M213.725,252.948a3.492,3.492,0,0,1,1.318-1.408,3.8,3.8,0,0,1,2.031-.537,3.95,3.95,0,0,1,1.577.3,2.8,2.8,0,0,1,1.1.816,3.7,3.7,0,0,1,.633,1.173,4.617,4.617,0,0,1,.222,1.412.792.792,0,0,1-.136.484.492.492,0,0,1-.417.183h-4.848a2.006,2.006,0,0,0,2.219,2.161,3.561,3.561,0,0,0,2.034-.773.473.473,0,0,1,.3-.107.544.544,0,0,1,.421.215.72.72,0,0,1,.185.483.663.663,0,0,1-.246.521,4.258,4.258,0,0,1-2.83,1.021,4,4,0,0,1-2.911-1.058,3.919,3.919,0,0,1-1.093-2.954A4.214,4.214,0,0,1,213.725,252.948Zm5.245,1.338a2.574,2.574,0,0,0-.511-1.45,1.6,1.6,0,0,0-1.331-.567,1.654,1.654,0,0,0-1.346.59,2.494,2.494,0,0,0-.556,1.427Z" transform="translate(-186.81 -247.613)"/><path class="j" d="M219.717,261.43a1.049,1.049,0,0,1-.268-.766V252.2a1.111,1.111,0,0,1,.284-.8.919.919,0,0,1,.7-.3.946.946,0,0,1,.686.246.934.934,0,0,1,.258.712v.269A2.65,2.65,0,0,1,223.906,251a3.035,3.035,0,0,1,1.782.534,3.307,3.307,0,0,1,1.152,1.429,5.1,5.1,0,0,1,.388,2.034,4.124,4.124,0,0,1-.937,2.85,3.181,3.181,0,0,1-2.494,1.047,2.62,2.62,0,0,1-2.424-1.236v3.008a1.047,1.047,0,0,1-.272.771.951.951,0,0,1-.7.272A.91.91,0,0,1,219.717,261.43Zm4.434-4a1.555,1.555,0,0,0,.553-.394,2.138,2.138,0,0,0,.355-.587,3.217,3.217,0,0,0,.2-.7,4.507,4.507,0,0,0,.062-.768,4.606,4.606,0,0,0-.054-.72,3.391,3.391,0,0,0-.19-.715,2.365,2.365,0,0,0-.349-.627,1.589,1.589,0,0,0-.547-.438,1.707,1.707,0,0,0-.768-.168,1.769,1.769,0,0,0-1.568.667,3.469,3.469,0,0,0-.466,1.987,4.055,4.055,0,0,0,.2,1.315,1.97,1.97,0,0,0,.659.935,1.812,1.812,0,0,0,1.156.367A1.847,1.847,0,0,0,224.151,257.43Z" transform="translate(-184.145 -247.615)"/><path class="j" d="M227.448,259.04a2.581,2.581,0,0,1-.586-1.82v-3.968h-.745a.7.7,0,0,1-.511-.179.654.654,0,0,1-.179-.48.625.625,0,0,1,.169-.457.669.669,0,0,1,.5-.173h.8l.231-1.9a1.162,1.162,0,0,1,.286-.678.852.852,0,0,1,.665-.265.646.646,0,0,1,.526.223,1,1,0,0,1,.188.666v1.955h1.235a.642.642,0,0,1,.491.182.67.67,0,0,1,.169.48.621.621,0,0,1-.169.46.681.681,0,0,1-.5.168h-1.228v3.492a2.507,2.507,0,0,0,.185,1.1.669.669,0,0,0,.652.359h.085l.544-.03h.053a.62.62,0,0,1,.5.215.757.757,0,0,1,.183.506.776.776,0,0,1-.062.322.5.5,0,0,1-.195.223,1.52,1.52,0,0,1-.274.136,1.3,1.3,0,0,1-.371.075c-.156.013-.289.021-.4.026s-.261.009-.445.009h-.169A2.13,2.13,0,0,1,227.448,259.04Z" transform="translate(-181.561 -248.428)"/></g><path class="p" d="M191.028,275.833H107.111a3.6,3.6,0,0,1-3.6-3.6V244.882a3.6,3.6,0,0,1,3.6-3.6h83.917a3.6,3.6,0,0,1,3.6,3.6v27.356A3.6,3.6,0,0,1,191.028,275.833Z" transform="translate(-85.514 32.699)"/></g></g><g transform="translate(518.302 457.607)"><g transform="translate(0 34.364)"><path class="c" d="M234.374,247.679c.29-.579,2.185,1.345,2.185,1.345,1.539,1.539,13.031,13.027,15.083,13.027s39.045,12.369,39.045,12.369l29.245-7.952c2.565,6.67-6.157,19.24-6.157,19.24s-22.83,1.8-27.192,0-36.171-19.5-36.171-19.5-3.856.05-5.909-.976a10.35,10.35,0,0,1-3.84-2.872c-.513-.769-.769-.769-2.565-2.308a1.6,1.6,0,0,1-.305-2.539l1.019.1-3.161-5.016a9.206,9.206,0,0,1-1.164-1.746c-.462-1.079.274-1.341.274-1.341S234.084,248.257,234.374,247.679Z" transform="translate(-234.302 -247.57)"/><g class="q"><path class="r" d="M234.374,247.679c.29-.579,2.185,1.345,2.185,1.345,1.539,1.539,13.031,13.027,15.083,13.027s39.045,12.369,39.045,12.369l29.245-7.952c2.565,6.67-6.157,19.24-6.157,19.24s-22.83,1.8-27.192,0-36.171-19.5-36.171-19.5-3.856.05-5.909-.976a10.35,10.35,0,0,1-3.84-2.872c-.513-.769-.769-.769-2.565-2.308a1.6,1.6,0,0,1-.305-2.539l1.019.1-3.161-5.016a9.206,9.206,0,0,1-1.164-1.746c-.462-1.079.274-1.341.274-1.341S234.084,248.257,234.374,247.679Z" transform="translate(-234.302 -247.57)"/></g><path class="i" d="M234.374,247.679c.29-.579,2.185,1.345,2.185,1.345,1.539,1.539,13.031,13.027,15.083,13.027s39.045,12.369,39.045,12.369l29.245-7.952c2.565,6.67-6.157,19.24-6.157,19.24s-22.83,1.8-27.192,0-36.171-19.5-36.171-19.5-3.856.05-5.909-.976a10.35,10.35,0,0,1-3.84-2.872c-.513-.769-.769-.769-2.565-2.308a1.6,1.6,0,0,1-.305-2.539l1.019.1-3.161-5.016a9.206,9.206,0,0,1-1.164-1.746c-.462-1.079.274-1.341.274-1.341S234.084,248.257,234.374,247.679Z" transform="translate(-234.302 -247.57)"/></g><path class="h" d="M238.1,260.055a1.6,1.6,0,0,1-.305-2.539l1.019.1-3.161-5.016a9.206,9.206,0,0,1-1.164-1.746c-.462-1.079.274-1.341.274-1.341s-.676-1.254-.386-1.833,2.185,1.345,2.185,1.345c1.539,1.539,13.031,13.027,15.083,13.027s39.045,12.369,39.045,12.369l14.32-3.894a126.776,126.776,0,0,0,11.136,11.315c-1.288,2.307-2.369,3.867-2.369,3.867s-22.83,1.8-27.192,0-36.171-19.5-36.171-19.5-3.856.05-5.909-.976a10.35,10.35,0,0,1-3.84-2.872C240.15,261.594,239.894,261.594,238.1,260.055Z" transform="translate(-234.302 -213.206)"/><g transform="translate(1.645 35.275)"><path class="c" d="M235.874,248.441a27.076,27.076,0,0,1,5.645,3.54,45.629,45.629,0,0,1,4.21,5.741S236.735,250.163,235.874,248.441Z" transform="translate(-235.874 -248.441)"/><g class="s"><path class="r" d="M235.874,248.441a27.076,27.076,0,0,1,5.645,3.54,45.629,45.629,0,0,1,4.21,5.741S236.735,250.163,235.874,248.441Z" transform="translate(-235.874 -248.441)"/></g><path class="i" d="M235.874,248.441a27.076,27.076,0,0,1,5.645,3.54,45.629,45.629,0,0,1,4.21,5.741S236.735,250.163,235.874,248.441Z" transform="translate(-235.874 -248.441)"/></g><g transform="translate(0 34.364)"><path class="c" d="M234.486,250.853c-.462-1.079.274-1.341.274-1.341s-.676-1.254-.386-1.833,2.185,1.345,2.185,1.345c1.539,1.539,13.031,13.027,15.083,13.027,1.029,0,10.863,3.117,20.4,6.221l-3.691,7.83c-9.034-4.934-17.941-9.891-17.941-9.891s-3.856.05-5.909-.976a10.35,10.35,0,0,1-3.84-2.872c-.513-.769-.769-.769-2.565-2.308a1.6,1.6,0,0,1-.305-2.539l1.019.1-3.161-5.016A9.206,9.206,0,0,1,234.486,250.853Z" transform="translate(-234.302 -247.57)"/><g class="t"><path class="r" d="M234.486,250.853c-.462-1.079.274-1.341.274-1.341s-.676-1.254-.386-1.833,2.185,1.345,2.185,1.345c1.539,1.539,13.031,13.027,15.083,13.027,1.029,0,10.863,3.117,20.4,6.221l-3.691,7.83c-9.034-4.934-17.941-9.891-17.941-9.891s-3.856.05-5.909-.976a10.35,10.35,0,0,1-3.84-2.872c-.513-.769-.769-.769-2.565-2.308a1.6,1.6,0,0,1-.305-2.539l1.019.1-3.161-5.016A9.206,9.206,0,0,1,234.486,250.853Z" transform="translate(-234.302 -247.57)"/><path class="i" d="M237.93,256.806s2.933,1.829,5.44,3.276" transform="translate(-234.134 -247.144)"/><path class="i" d="M234.74,249.426a7.152,7.152,0,0,1,2.43,2.318,32.106,32.106,0,0,0,5.094,5.495" transform="translate(-234.282 -247.485)"/></g><path class="i" d="M234.486,250.853c-.462-1.079.274-1.341.274-1.341s-.676-1.254-.386-1.833,2.185,1.345,2.185,1.345c1.539,1.539,13.031,13.027,15.083,13.027,1.029,0,10.863,3.117,20.4,6.221l-3.691,7.83c-9.034-4.934-17.941-9.891-17.941-9.891s-3.856.05-5.909-.976a10.35,10.35,0,0,1-3.84-2.872c-.513-.769-.769-.769-2.565-2.308a1.6,1.6,0,0,1-.305-2.539l1.019.1-3.161-5.016A9.206,9.206,0,0,1,234.486,250.853Z" transform="translate(-234.302 -247.57)"/></g><path class="u" d="M331.347,228.4a29.866,29.866,0,0,1,2.821-8.884c2.256-4.371,9.026-5.359,9.73-4.512s.846,1.128,3.526.705,9.167,1.41,7.9,2.679-.424,1.693,2.679,2.821,2.961,4.371.987,5.5-1.128,1.974.424,3.807.987,3.667-.424,3.808-2.4-.564-.987,1.833.846,4.936-1.269,5.217-1.693,1.27-1.693,3.244-1.41,3.1-2.538,2.82-2.257.424-2.821,1.975-2.257,1.41-3.385.705-1.974-.282-2.257.564-.564,1.41-2.679.281-2.821-2.961-3.948-1.692a1.814,1.814,0,0,1-3.1-1.269,20.007,20.007,0,0,0-1.41-5.924C332.052,240.243,330.219,232.91,331.347,228.4Z" transform="translate(-229.834 -214.724)"/><g transform="translate(83.842 107.362)"><path class="c" d="M343.164,317.372s9.235,6.67,10.518,12.827,3.592,16.674,3.848,17.957,11.031,37.2,11.288,38.48,10,9.235,9.749,17.187,4.617,44.893,4.874,47.2-2.053,3.592-4.362,4.874-6.941,6.039-12.313,3.078c-4.143-2.283,9.748-10.518,9.748-14.622s-13.6-41.3-17.443-49-13.084-25.91-15.906-30.271a63.734,63.734,0,0,1-4.874-9.491s-.769,16.931,1.283,25.653,3.848,22.574,1.026,36.171-3.592,26.936-2.822,31.3-.513,4.618-3.078,5.387-7.468-.156-10.542,1.162-9.274,1.089-9.7-1.06,9.984-6.258,13.318-8.824,2.309-6.927,3.079-17.445-5.644-37.453-6.671-43.354S317,356.878,317,344.564s.769-17.445.769-17.445,3.592-3.591,11.288-6.926A32.5,32.5,0,0,1,343.164,317.372Z" transform="translate(-314.441 -317.344)"/><g class="v"><path class="r" d="M343.164,317.372s9.235,6.67,10.518,12.827,3.592,16.674,3.848,17.957,11.031,37.2,11.288,38.48,10,9.235,9.749,17.187,4.617,44.893,4.874,47.2-2.053,3.592-4.362,4.874-6.941,6.039-12.313,3.078c-4.143-2.283,9.748-10.518,9.748-14.622s-13.6-41.3-17.443-49-13.084-25.91-15.906-30.271a63.734,63.734,0,0,1-4.874-9.491s-.769,16.931,1.283,25.653,3.848,22.574,1.026,36.171-3.592,26.936-2.822,31.3-.513,4.618-3.078,5.387-7.468-.156-10.542,1.162-9.274,1.089-9.7-1.06,9.984-6.258,13.318-8.824,2.309-6.927,3.079-17.445-5.644-37.453-6.671-43.354S317,356.878,317,344.564s.769-17.445.769-17.445,3.592-3.591,11.288-6.926A32.5,32.5,0,0,1,343.164,317.372Z" transform="translate(-314.441 -317.344)"/></g><path class="i" d="M343.164,317.372s9.235,6.67,10.518,12.827,3.592,16.674,3.848,17.957,11.031,37.2,11.288,38.48,10,9.235,9.749,17.187,4.617,44.893,4.874,47.2-2.053,3.592-4.362,4.874-6.941,6.039-12.313,3.078c-4.143-2.283,9.748-10.518,9.748-14.622s-13.6-41.3-17.443-49-13.084-25.91-15.906-30.271a63.734,63.734,0,0,1-4.874-9.491s-.769,16.931,1.283,25.653,3.848,22.574,1.026,36.171-3.592,26.936-2.822,31.3-.513,4.618-3.078,5.387-7.468-.156-10.542,1.162-9.274,1.089-9.7-1.06,9.984-6.258,13.318-8.824,2.309-6.927,3.079-17.445-5.644-37.453-6.671-43.354S317,356.878,317,344.564s.769-17.445.769-17.445,3.592-3.591,11.288-6.926A32.5,32.5,0,0,1,343.164,317.372Z" transform="translate(-314.441 -317.344)"/></g><g transform="translate(86.399 107.362)"><path class="u" d="M330.524,420.863c-1.157-12.476-5.616-31.444-6.457-36.28-1.025-5.9-7.182-27.7-7.182-40.019s.769-17.445.769-17.445,3.592-3.591,11.288-6.926a32.5,32.5,0,0,1,14.109-2.822s9.235,6.67,10.518,12.827,3.592,16.674,3.848,17.957,11.031,37.2,11.288,38.48,10,9.235,9.749,17.187c-.084,2.6.379,8.282,1.049,14.844a30.4,30.4,0,0,1-10.085,3.359c-3.952-11.021-8.488-22.723-10.46-26.668-3.848-7.7-13.084-25.91-15.906-30.271a63.737,63.737,0,0,1-4.874-9.491s-.769,16.931,1.283,25.653,3.848,22.574,1.026,36.171q-.33,1.585-.619,3.161C338.238,421.155,335.365,421.6,330.524,420.863Z" transform="translate(-316.885 -317.344)"/><line class="o" x1="7.952" y1="11.031" transform="translate(13.339 27.221)"/></g><path class="a" d="M344.892,314.932l1.283,3.848S335.047,330,325.3,331.28s-9.394.326-9.394-2.239,8.979-6.157,16.931-10.261S342.583,314.162,344.892,314.932Z" transform="translate(-230.531 -210.107)"/><g transform="translate(69.547 5.674)"><path class="c" d="M303.692,237.313c0-1.966-1.811-8.936,3.213-13.522s13.851-3.541,13.851-3.541c10.436.705,16.641,12.692,14.526,21.153s-8.179,9.448-10.295,12.128c-1.143,1.45-.348,5.208.622,8.355,9,.4,8.319,7.547,9.978,12.52,2.052,6.157,4.874,25.653,5.643,30.014s6.413,11.8,6.413,14.366-11.288,6.671-21.035,11.544-9.6,5.11-11.391,2.544-3.744-28.2-3.744-31.275-9.235-10.774-7.183-15.136c1.654-3.513,9.131-16.677,11.977-21.664-.053-.18-.107-.362-.164-.55a74.9,74.9,0,0,0-4.09-9.166s-5.359.283-6.91.141-2.4-.564-2.679-1.974a7.08,7.08,0,0,1,.424-3.244s-.565.141-.846-.705.705-1.55.705-1.55c-.705-.282-.71-1.678-.71-1.678l1.31-1.31s-2.3-.656-2.516-2.4S303.692,239.279,303.692,237.313Z" transform="translate(-300.778 -220.147)"/><g class="w"><path class="r" d="M303.692,237.313c0-1.966-1.811-8.936,3.213-13.522s13.851-3.541,13.851-3.541c10.436.705,16.641,12.692,14.526,21.153s-8.179,9.448-10.295,12.128c-1.143,1.45-.348,5.208.622,8.355,9,.4,8.319,7.547,9.978,12.52,2.052,6.157,4.874,25.653,5.643,30.014s6.413,11.8,6.413,14.366-11.288,6.671-21.035,11.544-12.827,4.105-14.623,1.54-.513-27.193-.513-30.271-9.235-10.774-7.183-15.136c1.654-3.513,9.131-16.677,11.977-21.664-.053-.18-.107-.362-.164-.55a74.9,74.9,0,0,0-4.09-9.166s-5.359.283-6.91.141-2.4-.564-2.679-1.974a7.08,7.08,0,0,1,.424-3.244s-.565.141-.846-.705.705-1.55.705-1.55c-.705-.282-.71-1.678-.71-1.678l1.31-1.31s-2.3-.656-2.516-2.4S303.692,239.279,303.692,237.313Z" transform="translate(-300.778 -220.147)"/></g><path class="i" d="M303.692,237.313c0-1.966-1.811-8.936,3.213-13.522s13.851-3.541,13.851-3.541c10.436.705,16.641,12.692,14.526,21.153s-8.179,9.448-10.295,12.128c-1.143,1.45-.348,5.208.622,8.355,9,.4,8.319,7.547,9.978,12.52,2.052,6.157,4.874,25.653,5.643,30.014s6.413,11.8,6.413,14.366-11.288,6.671-21.035,11.544-9.6,5.11-11.391,2.544-3.744-28.2-3.744-31.275-9.235-10.774-7.183-15.136c1.654-3.513,9.131-16.677,11.977-21.664-.053-.18-.107-.362-.164-.55a74.9,74.9,0,0,0-4.09-9.166s-5.359.283-6.91.141-2.4-.564-2.679-1.974a7.08,7.08,0,0,1,.424-3.244s-.565.141-.846-.705.705-1.55.705-1.55c-.705-.282-.71-1.678-.71-1.678l1.31-1.31s-2.3-.656-2.516-2.4S303.692,239.279,303.692,237.313Z" transform="translate(-300.778 -220.147)"/><g transform="translate(1.928 13.268)"><path class="j" d="M306,237.094c-.148.725.011,1.369.355,1.439s.742-.461.889-1.186-.012-1.369-.356-1.439S306.152,236.369,306,237.094Z" transform="translate(-302.466 -232.687)"/><path class="i" d="M308.963,234.612s-.423-2.257-3.243-1.692" transform="translate(-302.477 -232.829)"/><path class="i" d="M302.62,246.542s1.833.564,2.4-.282" transform="translate(-302.62 -232.209)"/></g></g><g transform="translate(72.762 64.164)"><path class="h" d="M304.147,283.879c.67-1.422,2.292-4.424,4.176-7.825.229.12.461.248.7.385a37.885,37.885,0,0,0,28.428,3.9c1.574,8.1,3.1,18.466,3.639,21.5.77,4.362,6.413,11.8,6.413,14.365s-6.073,7.395-15.822,12.269-14.809,4.385-16.6,1.819-3.744-28.2-3.744-31.275S302.1,288.24,304.147,283.879Z" transform="translate(-303.85 -276.054)"/><path class="i" d="M332.91,284.582s-8.979-.256-13.083-1.539" transform="translate(-303.111 -275.731)"/><path class="i" d="M335.979,286.721s-8.081,1.283-10.39.769" transform="translate(-302.845 -275.561)"/></g><path class="u" d="M313.426,220.565a24.994,24.994,0,0,1,6.812-.316c10.436.705,16.641,12.692,14.526,21.153-1.81,7.239-6.5,9.008-9.147,11.046-2.111-.863-4.393-2.094-5.1-3.572a19.834,19.834,0,0,1-1.693-4.654s-1.409.987-1.833-1.41-3.014-3.786-4.5-6.752c-1.5-3,.563-6.188,2.472-8.734C316.451,225.35,317.651,221.748,313.426,220.565Z" transform="translate(-230.712 -214.473)"/><path class="u" d="M315.069,219.122a7.408,7.408,0,0,0-7.675-.789c-4.883,2.219,2.22,5.326,4.884,9.544s3.994,10.654,5.326,6.882c1.316-3.727,2.168-8.085.473-11.838A9.593,9.593,0,0,0,315.069,219.122Z" transform="translate(-231.002 -214.591)"/><g transform="translate(85.575 24.936)"><path class="c" d="M316.261,242.626s3.244-5.423,6.5-3.745-.775,7.164-3.254,8.536-3.409-2.134-3.409-2.134" transform="translate(-316.097 -238.558)"/><g class="x"><path class="r" d="M316.261,242.626s3.244-5.423,6.5-3.745-.775,7.164-3.254,8.536-3.409-2.134-3.409-2.134" transform="translate(-316.097 -238.558)"/></g><path class="i" d="M316.261,242.626s3.244-5.423,6.5-3.745-.775,7.164-3.254,8.536-3.409-2.134-3.409-2.134" transform="translate(-316.097 -238.558)"/></g><g transform="translate(87.168 51.005)"><path class="c" d="M317.62,270.351s5.644-8.979,12.314-6.413,28.475,30.527,29.245,34.888,6.67,40.02,6.67,40.02,1.283,3.848,0,6.926-1.283,4.361,0,6.926,1.026,3.592-1.026,2.053-2.309-2.053-4.617-6.67,1.539-11.288,1.539-11.288-13.083-30.014-13.6-32.836a15.837,15.837,0,0,0-1.539-4.617s-23.6-19.5-25.909-23.088" transform="translate(-317.62 -263.476)"/><g class="y"><path class="r" d="M317.62,270.351s5.644-8.979,12.314-6.413,28.475,30.527,29.245,34.888,6.67,40.02,6.67,40.02,1.283,3.848,0,6.926-1.283,4.361,0,6.926,1.026,3.592-1.026,2.053-2.309-2.053-4.617-6.67,1.539-11.288,1.539-11.288-13.083-30.014-13.6-32.836a15.837,15.837,0,0,0-1.539-4.617s-23.6-19.5-25.909-23.088" transform="translate(-317.62 -263.476)"/></g><path class="i" d="M317.62,270.351s5.644-8.979,12.314-6.413,28.475,30.527,29.245,34.888,6.67,40.02,6.67,40.02,1.283,3.848,0,6.926-1.283,4.361,0,6.926,1.026,3.592-1.026,2.053-2.309-2.053-4.617-6.67,1.539-11.288,1.539-11.288-13.083-30.014-13.6-32.836a15.837,15.837,0,0,0-1.539-4.617s-23.6-19.5-25.909-23.088" transform="translate(-317.62 -263.476)"/></g><path class="h" d="M344.054,277.263c7.272,8.641,14.3,18.483,14.732,20.925.769,4.362,6.67,40.02,6.67,40.02s1.283,3.848,0,6.926-1.283,4.361,0,6.926,1.026,3.592-1.026,2.053-2.309-2.053-4.617-6.67,1.539-11.288,1.539-11.288-13.083-30.014-13.6-32.836a15.837,15.837,0,0,0-1.539-4.617s-12.4-10.241-20.1-17.246A41.31,41.31,0,0,0,344.054,277.263Z" transform="translate(-230.059 -211.834)"/><g transform="translate(117.838 89.728)"><path class="c" d="M358.4,300.489c1.7,10.071,6.094,36.646,6.094,36.646s1.283,3.848,0,6.926-1.283,4.361,0,6.926,1.026,3.592-1.026,2.053-2.309-2.053-4.617-6.67,1.539-11.288,1.539-11.288-11.944-27.4-13.454-32.3Z" transform="translate(-346.935 -300.489)"/><g class="z"><path class="r" d="M358.4,300.489c1.7,10.071,6.094,36.646,6.094,36.646s1.283,3.848,0,6.926-1.283,4.361,0,6.926,1.026,3.592-1.026,2.053-2.309-2.053-4.617-6.67,1.539-11.288,1.539-11.288-11.944-27.4-13.454-32.3Z" transform="translate(-346.935 -300.489)"/></g><path class="i" d="M358.4,300.489c1.7,10.071,6.094,36.646,6.094,36.646s1.283,3.848,0,6.926-1.283,4.361,0,6.926,1.026,3.592-1.026,2.053-2.309-2.053-4.617-6.67,1.539-11.288,1.539-11.288-11.944-27.4-13.454-32.3Z" transform="translate(-346.935 -300.489)"/></g><path class="h" d="M374.121,439.385a2.318,2.318,0,0,1,1.6,1.02,9.124,9.124,0,0,1,1.388,3.086s1.658-1.511,3.425-3.091c.339,2.7.573,4.525.625,4.984.256,2.309-2.053,3.592-4.362,4.874s-6.941,6.039-12.313,3.078C360.559,451.173,372.841,443.657,374.121,439.385Z" transform="translate(-228.322 -204.342)"/><path class="h" d="M327.772,439.758a5.762,5.762,0,0,0,.764-.718,3.991,3.991,0,0,1,1.632,1.073,5.266,5.266,0,0,1,.772,1.7l.154,1.235a15.132,15.132,0,0,0,6.609-.443c.023.173.047.338.074.49.77,4.362-.513,4.618-3.078,5.387s-7.468-.156-10.542,1.162-9.274,1.089-9.7-1.06S324.438,442.323,327.772,439.758Z" transform="translate(-230.599 -204.358)"/></g></g></svg>