<svg xmlns="http://www.w3.org/2000/svg" xmlns:xlink="http://www.w3.org/1999/xlink" width="555.853" height="416.344" viewBox="0 0 555.853 416.344"><defs><style>.a{fill:#fff;}.b{fill:#ebebeb;}.c{fill:#e0e0e0;}.d{fill:#fafafa;}.e{fill:#f9a531;}.f{fill:#c7161d;}.g{fill:#263238;}.h{fill:#ffbe9d;}.i{opacity:0.2;}.j{fill:#f5f5f5;}.k{fill:#f57e2a;}.l{fill:#f7942e;}.m{fill:url(#a);}.n{fill:#455a64;}.o{opacity:0.4;}.p{opacity:0.3;}.q{fill:#d20400;}.r{fill:#eb996e;}</style><linearGradient id="a" x1="0.5" x2="0.5" y2="1" gradientUnits="objectBoundingBox"><stop offset="0" stop-color="#f57e2a"/><stop offset="1" stop-color="#f9a531"/></linearGradient></defs><g transform="translate(-1200 -4369)"><path class="a" d="M936.55,332.887c-4.936-10.769-9.555-21.922-11.863-34.015-7.389-38.72,1.082-85.591-33.578-113.335a81.454,81.454,0,0,0-57.863-17.3c-20.105,1.892-39.109,11.486-59.416,11.625-22.668.153-44.2-10.922-67.048-11.306-32.9-.549-65.634,16.862-82.174,45.552-9.038,15.675-11.447,35.567-23.424,49.542-12.4,14.477-33.342,21.119-47.908,34.069-32.01,28.46-45.047,77.217-15.408,112.239,15.8,18.668,39.865,29.036,53.987,49.209C603.1,475.229,603.3,496.105,611.22,513.77c22.007,49.1,96.588,46.885,137.9,26.952,13.39-6.458,23.048-12.738,38.49-12.463,14.973.265,29.311,5.923,44.371,5.653,30.966-.552,38.1-25.372,49.5-49.567,14.657-31.1,53.328-37.5,66.684-68.362C959.853,388.977,947.992,357.846,936.55,332.887Z" transform="translate(678.744 4201.109)"/><g transform="translate(23)"><g transform="translate(1400.047 4568.504)"><path class="b" d="M113.074,295.339c.083,0,.154-10.619.154-23.729s-.071-23.73-.154-23.73-.154,10.619-.154,23.73S112.967,295.339,113.074,295.339Z" transform="translate(-112.92 -157.625)"/><path class="c" d="M187.712,407.567c-.113,0-.2-17.536-.2-39.154s.089-39.154.2-39.154.2,17.53.2,39.154S187.8,407.567,187.712,407.567Z" transform="translate(-143.26 -190.727)"/><rect class="d" width="7.819" height="8.839" transform="translate(53.54 199.488)"/><path class="b" d="M363.226,95.894a7.208,7.208,0,0,1-2.966,0A7.208,7.208,0,0,1,363.226,95.894Z" transform="translate(-213.529 -95.74)"/><path class="b" d="M373.226,95.894a7.208,7.208,0,0,1-2.966,0A7.209,7.209,0,0,1,373.226,95.894Z" transform="translate(-217.596 -95.74)"/><path class="b" d="M383.226,95.894a7.208,7.208,0,0,1-2.966,0,7.209,7.209,0,0,1,2.966,0Z" transform="translate(-221.664 -95.74)"/><path class="b" d="M393.226,95.894a7.208,7.208,0,0,1-2.966,0A7.208,7.208,0,0,1,393.226,95.894Z" transform="translate(-225.732 -95.74)"/><path class="b" d="M403.226,95.894a7.208,7.208,0,0,1-2.966,0,7.208,7.208,0,0,1,2.966,0Z" transform="translate(-229.799 -95.74)"/><path class="b" d="M413.226,95.894a7.209,7.209,0,0,1-2.966,0A7.209,7.209,0,0,1,413.226,95.894Z" transform="translate(-233.867 -95.74)"/><path class="b" d="M423.226,95.894a7.209,7.209,0,0,1-2.966,0A7.209,7.209,0,0,1,423.226,95.894Z" transform="translate(-237.935 -95.74)"/><path class="b" d="M433.226,95.894a7.208,7.208,0,0,1-2.966,0A7.208,7.208,0,0,1,433.226,95.894Z" transform="translate(-242.002 -95.74)"/><path class="b" d="M443.226,95.894a7.208,7.208,0,0,1-2.966,0A7.208,7.208,0,0,1,443.226,95.894Z" transform="translate(-246.07 -95.74)"/><path class="b" d="M453.226,95.894a7.208,7.208,0,0,1-2.966,0A7.208,7.208,0,0,1,453.226,95.894Z" transform="translate(-250.138 -95.74)"/><path class="b" d="M463.226,95.894a7.208,7.208,0,0,1-2.966,0A7.208,7.208,0,0,1,463.226,95.894Z" transform="translate(-254.205 -95.74)"/><path class="b" d="M473.226,95.894a7.209,7.209,0,0,1-2.966,0A7.209,7.209,0,0,1,473.226,95.894Z" transform="translate(-258.273 -95.74)"/><path class="b" d="M483.226,95.894a7.208,7.208,0,0,1-2.966,0A7.208,7.208,0,0,1,483.226,95.894Z" transform="translate(-262.34 -95.74)"/><path class="b" d="M493.226,95.894a7.208,7.208,0,0,1-2.966,0A7.208,7.208,0,0,1,493.226,95.894Z" transform="translate(-266.408 -95.74)"/><path class="b" d="M503.226,95.894a7.209,7.209,0,0,1-2.966,0A7.209,7.209,0,0,1,503.226,95.894Z" transform="translate(-270.476 -95.74)"/><path class="b" d="M513.226,95.894a7.208,7.208,0,0,1-2.966,0A7.208,7.208,0,0,1,513.226,95.894Z" transform="translate(-274.543 -95.74)"/><path class="b" d="M523.226,95.894a7.208,7.208,0,0,1-2.966,0A7.208,7.208,0,0,1,523.226,95.894Z" transform="translate(-278.611 -95.74)"/><path class="b" d="M533.226,95.894a7.207,7.207,0,0,1-2.966,0,7.209,7.209,0,0,1,2.966,0Z" transform="translate(-282.679 -95.74)"/><path class="b" d="M543.226,95.894a7.209,7.209,0,0,1-2.966,0A7.209,7.209,0,0,1,543.226,95.894Z" transform="translate(-286.746 -95.74)"/><path class="b" d="M553.226,95.894a7.209,7.209,0,0,1-2.966,0A7.209,7.209,0,0,1,553.226,95.894Z" transform="translate(-290.814 -95.74)"/><path class="b" d="M563.226,95.894a7.208,7.208,0,0,1-2.966,0A7.208,7.208,0,0,1,563.226,95.894Z" transform="translate(-294.882 -95.74)"/><path class="b" d="M573.226,95.894a7.209,7.209,0,0,1-2.966,0A7.209,7.209,0,0,1,573.226,95.894Z" transform="translate(-298.949 -95.74)"/><path class="b" d="M583.226,95.894a7.209,7.209,0,0,1-2.966,0A7.209,7.209,0,0,1,583.226,95.894Z" transform="translate(-303.017 -95.74)"/><path class="b" d="M587.7,101.376a7.208,7.208,0,0,1,0-2.966,7.2,7.2,0,0,1,0,2.966Z" transform="translate(-305.974 -96.826)"/><path class="b" d="M587.7,111.376a7.208,7.208,0,0,1,0-2.966,7.2,7.2,0,0,1,0,2.966Z" transform="translate(-305.974 -100.894)"/><path class="b" d="M587.7,121.376a7.208,7.208,0,0,1,0-2.966,7.2,7.2,0,0,1,0,2.966Z" transform="translate(-305.974 -104.961)"/><path class="b" d="M587.714,131.376a7.213,7.213,0,0,1,0-2.966A7.208,7.208,0,0,1,587.714,131.376Z" transform="translate(-305.986 -109.029)"/><path class="b" d="M587.714,141.376a7.213,7.213,0,0,1,0-2.966A7.208,7.208,0,0,1,587.714,141.376Z" transform="translate(-305.986 -113.097)"/><path class="b" d="M588.863,150.219c0,.077-.493.136-1.157.154h-.148v-.481a3.744,3.744,0,0,1,.154-1.483,3.627,3.627,0,0,1,.154,1.483v.326l-.154-.148A2.752,2.752,0,0,1,588.863,150.219Z" transform="translate(-305.978 -117.164)"/><path class="b" d="M597.736,151.354a7.208,7.208,0,0,1-2.966,0A7.207,7.207,0,0,1,597.736,151.354Z" transform="translate(-308.919 -118.299)"/><path class="b" d="M607.736,151.354a7.208,7.208,0,0,1-2.966,0A7.207,7.207,0,0,1,607.736,151.354Z" transform="translate(-312.987 -118.299)"/><path class="b" d="M617.736,151.354a7.209,7.209,0,0,1-2.966,0A7.208,7.208,0,0,1,617.736,151.354Z" transform="translate(-317.054 -118.299)"/><path class="b" d="M627.736,151.354a7.209,7.209,0,0,1-2.966,0A7.208,7.208,0,0,1,627.736,151.354Z" transform="translate(-321.122 -118.299)"/><path class="b" d="M637.736,151.354a7.208,7.208,0,0,1-2.966,0A7.207,7.207,0,0,1,637.736,151.354Z" transform="translate(-325.19 -118.299)"/><path class="b" d="M647.736,151.354a7.209,7.209,0,0,1-2.966,0A7.208,7.208,0,0,1,647.736,151.354Z" transform="translate(-329.257 -118.299)"/><path class="b" d="M657.736,151.354a7.209,7.209,0,0,1-2.966,0A7.208,7.208,0,0,1,657.736,151.354Z" transform="translate(-333.325 -118.299)"/><path class="b" d="M667.736,151.354a7.208,7.208,0,0,1-2.966,0A7.207,7.207,0,0,1,667.736,151.354Z" transform="translate(-337.392 -118.299)"/><path class="b" d="M673.554,155.546a7.2,7.2,0,0,1,0-2.966A7.215,7.215,0,0,1,673.554,155.546Z" transform="translate(-340.903 -118.86)"/><path class="b" d="M673.554,165.546a7.2,7.2,0,0,1,0-2.966A7.215,7.215,0,0,1,673.554,165.546Z" transform="translate(-340.903 -122.928)"/><path class="b" d="M673.554,175.546a7.2,7.2,0,0,1,0-2.966A7.215,7.215,0,0,1,673.554,175.546Z" transform="translate(-340.903 -126.996)"/><path class="b" d="M673.554,185.546a7.2,7.2,0,0,1,0-2.966A7.214,7.214,0,0,1,673.554,185.546Z" transform="translate(-340.903 -131.063)"/><path class="b" d="M673.554,195.546a7.2,7.2,0,0,1,0-2.966A7.215,7.215,0,0,1,673.554,195.546Z" transform="translate(-340.903 -135.131)"/><path class="b" d="M673.554,205.546a7.2,7.2,0,0,1,0-2.966A7.214,7.214,0,0,1,673.554,205.546Z" transform="translate(-340.903 -139.199)"/><path class="b" d="M673.554,215.546a7.2,7.2,0,0,1,0-2.966A7.215,7.215,0,0,1,673.554,215.546Z" transform="translate(-340.903 -143.266)"/><path class="b" d="M673.554,225.546a7.2,7.2,0,0,1,0-2.966A7.215,7.215,0,0,1,673.554,225.546Z" transform="translate(-340.903 -147.334)"/><path class="b" d="M673.554,235.546a7.2,7.2,0,0,1,0-2.966A7.215,7.215,0,0,1,673.554,235.546Z" transform="translate(-340.903 -151.402)"/><path class="b" d="M673.554,245.546a7.2,7.2,0,0,1,0-2.966A7.215,7.215,0,0,1,673.554,245.546Z" transform="translate(-340.903 -155.469)"/><path class="b" d="M673.554,255.546a7.2,7.2,0,0,1,0-2.966A7.214,7.214,0,0,1,673.554,255.546Z" transform="translate(-340.903 -159.537)"/><path class="e" d="M384.17,112.822s-4.6-2.551-9.118,8.341a135.869,135.869,0,0,0-6.057,17.085s-1.24,2.308-2.859.991-4-5.22-6.526-4.289c-2.6.973-3.239,4-2.373,8.305s2.373,13.84,2.5,14.7-.261,2.142-1.507,1.418-8.649-7.76-11.782-4.052,1.186,15.353,1.661,16.611.237,1.857-.356,2.231-2.865-2.231-5.048-4.153-5.06-3.755-6.692-1.465-1.5,11.271,8.145,25.112l4.882,6.122,7.8-1.05c16.545-3.263,22.869-9.634,23.29-12.416s-2.919-3.381-5.826-3.488-6.342.16-6.526-.522.083-1.246,1.293-1.857,12.416-5.968,12.743-10.815-9.9-4.918-11.271-5.268-.783-1.548-.1-2.064,8.4-6.33,12.007-8.845,5.256-5.143,4.058-7.647c-1.151-2.409-5.576-1.258-7.659-1.436s-1.37-2.693-1.37-2.693a136.258,136.258,0,0,0,7.5-16.5c4.313-10.969-.9-12.339-.9-12.339" transform="translate(-203.346 -102.583)"/><path class="c" d="M359,205.154c3.2-8.044,7.712-19.12,12.743-31.341s9.563-23.279,12.808-31.305c1.614-4,2.919-7.249,3.832-9.492l1.044-2.581c.119-.285.208-.51.279-.67a2.39,2.39,0,0,1,.1-.225.6.6,0,0,1-.077.237c-.077.154-.142.386-.255.676-.231.593-.564,1.483-1,2.6-.872,2.26-2.154,5.517-3.755,9.539-3.2,8.044-7.712,19.12-12.737,31.335s-9.563,23.285-12.808,31.311" transform="translate(-213.016 -109.489)"/><path class="c" d="M381.61,159.78a2.488,2.488,0,0,1,.243.51c.142.338.332.831.558,1.436.457,1.222,1.038,2.925,1.643,4.811s1.121,3.559,1.537,4.847l.469,1.465a2.219,2.219,0,0,1,.148.546,2.491,2.491,0,0,1-.243-.51c-.142-.338-.332-.831-.552-1.442-.445-1.222-1-2.931-1.614-4.823l-1.566-4.829c-.184-.593-.344-1.062-.475-1.465A2.215,2.215,0,0,1,381.61,159.78Z" transform="translate(-222.213 -121.789)"/><path class="c" d="M390.59,178.882c0-.071,3.429-1.43,7.712-3.031s7.783-2.853,7.807-2.782-3.423,1.43-7.712,3.031S390.614,178.959,390.59,178.882Z" transform="translate(-225.866 -127.193)"/><path class="c" d="M376.15,212.744a2.375,2.375,0,0,1,.593-.077l1.566-.125c1.323-.1,3.15-.249,5.161-.486s3.82-.5,5.132-.712l1.554-.243a2,2,0,0,1,.593-.053,2.773,2.773,0,0,1-.558.16c-.362.083-.89.2-1.542.326-1.3.249-3.115.552-5.132.789s-3.85.356-5.179.409c-.664,0-1.187.042-1.572.036A2.682,2.682,0,0,1,376.15,212.744Z" transform="translate(-219.992 -142.641)"/><path class="c" d="M363.44,194.81a2.2,2.2,0,0,1,.344.409c.2.273.5.676.854,1.186.712,1,1.685,2.373,2.741,3.933s2,2.966,2.676,3.981c.338.51.593.931.783,1.222a2.108,2.108,0,0,1,.261.469,4.4,4.4,0,0,1-.344-.409c-.208-.273-.5-.676-.86-1.186-.712-1-1.679-2.373-2.741-3.933s-2-2.966-2.676-3.981c-.332-.51-.593-.931-.783-1.222A1.913,1.913,0,0,1,363.44,194.81Z" transform="translate(-214.822 -136.038)"/><path class="c" d="M347.21,220.59a3.266,3.266,0,0,1,.433.528c.291.4.664.9,1.1,1.507.919,1.275,2.177,3.043,3.559,5.013s2.61,3.755,3.488,5.06c.415.593.759,1.139,1.032,1.548a4.158,4.158,0,0,1,.35.593,2.912,2.912,0,0,1-.433-.528l-1.1-1.5c-.919-1.275-2.177-3.049-3.559-5.013s-2.6-3.755-3.482-5.06l-1.032-1.548A2.96,2.96,0,0,1,347.21,220.59Z" transform="translate(-208.221 -146.524)"/><path class="c" d="M363.75,242.1a3.98,3.98,0,0,1,.724-.119l1.981-.225c1.673-.19,3.981-.457,6.526-.825s4.835-.759,6.49-1.05l1.964-.344a3.989,3.989,0,0,1,.73-.095,3.828,3.828,0,0,1-.706.2c-.463.113-1.127.261-1.952.427-1.649.344-3.945.765-6.49,1.127s-4.865.593-6.526.753c-.836.071-1.519.119-1.987.142A4.093,4.093,0,0,1,363.75,242.1Z" transform="translate(-214.948 -154.192)"/><path class="b" d="M602.379,150.633c-.136,0-.249-5.932-.249-13.211s.113-13.211.249-13.211.249,5.932.249,13.211S602.516,150.633,602.379,150.633Z" transform="translate(-311.913 -107.321)"/><path class="b" d="M610.7,153.909c0,.136-.783.249-1.78.249s-1.75-.113-1.75-.249.783-.249,1.75-.249S610.7,153.767,610.7,153.909Z" transform="translate(-313.963 -119.3)"/></g><g transform="translate(1512.063 4606.183)"><path class="f" d="M143.132,420.008c8-5.547,9.842-15.881,9.557-25.177-.047-1.548.131-3.186-.593-4.55s-2.45-2.3-3.844-1.649c-1.151.54-1.661,1.875-2.308,2.966a9.07,9.07,0,0,1-3.648,3.465,3.484,3.484,0,0,1-3.192.273c-1.335-.742-1.483-2.592-1.471-4.153q.048-4.313.083-8.626a14.315,14.315,0,0,0-.433-4.544,4.8,4.8,0,0,0-3-3.251,2.894,2.894,0,0,0-3.6,1.934,13.824,13.824,0,0,0-.053,1.922,1.625,1.625,0,0,1-.955,1.525,1.888,1.888,0,0,1-1.691-.712,20.241,20.241,0,0,1-3.666-5.576,27.808,27.808,0,0,0-3.417-5.748,8.352,8.352,0,0,0-5.642-3.192,5.007,5.007,0,0,0-5.137,3.387c-.57,2.165.694,4.39,2.07,6.152a34.406,34.406,0,0,0,7.119,6.864,2.831,2.831,0,0,1,1.186,1.293c.326,1.032-.647,2.047-1.667,2.373a17.529,17.529,0,0,1-3.6.392,3.455,3.455,0,0,0-2.966,1.78c-.635,1.578.676,3.233,1.97,4.319a29.383,29.383,0,0,0,8.721,5.072,10,10,0,0,1,3.239,1.59,2.512,2.512,0,0,1-2.266,4.461,22.11,22.11,0,0,1-3.381-1.305c-2.118-.807-4.859-.67-6.223,1.157a4.894,4.894,0,0,0-.534,4.319,11.272,11.272,0,0,0,2.325,3.82,29.661,29.661,0,0,0,12.642,8.946c4.912,1.726,9.492,2.2,14.362.433" transform="translate(-109.984 -364.905)"/><path class="g" d="M144.251,423.517c-.32-3.684-.486-3.761-1.851-8.454a137.63,137.63,0,0,0-5.434-14.908q-.83-1.94-1.625-3.832c-.54-1.258-1.068-2.5-1.667-3.69a68.628,68.628,0,0,0-3.832-6.609c-1.311-2.053-2.634-3.945-3.886-5.713s-2.45-3.381-3.607-4.811a55.105,55.105,0,0,0-5.932-6.336c-.759-.694-1.364-1.186-1.78-1.554l-.475-.386c-.107-.089-.166-.13-.172-.125a2.052,2.052,0,0,0,.154.148l.457.409c.4.356,1,.884,1.744,1.59a58.135,58.135,0,0,1,5.867,6.383c1.145,1.43,2.331,3.055,3.559,4.823s2.551,3.666,3.862,5.713a69.641,69.641,0,0,1,3.779,6.609c.593,1.187,1.121,2.42,1.655,3.678s1.074,2.539,1.625,3.832a141.69,141.69,0,0,1,5.446,14.872c1.37,4.675,1.554,4.746,1.9,8.394" transform="translate(-111.614 -365.798)"/><path class="g" d="M147,398.483a3.137,3.137,0,0,0,.148-.658c.083-.427.184-1.044.3-1.815.22-1.536.457-3.666.712-6.015s.516-4.473.759-6c.125-.765.225-1.382.309-1.809a2.783,2.783,0,0,0,.083-.67,3.776,3.776,0,0,0-.2.647c-.107.421-.243,1.038-.392,1.78-.3,1.525-.593,3.654-.848,6s-.463,4.42-.629,6.027c-.077.724-.148,1.335-.2,1.821A2.643,2.643,0,0,0,147,398.483Z" transform="translate(-125.036 -371.66)"/><path class="g" d="M113.58,403.739a4.065,4.065,0,0,0,.795.1c.5.048,1.246.107,2.153.22,1.815.2,4.313.593,7.054,1.1s5.2,1.115,6.965,1.59c.884.231,1.6.439,2.088.593a4.8,4.8,0,0,0,.777.19,4.655,4.655,0,0,0-.742-.3c-.486-.172-1.186-.409-2.07-.664-1.78-.528-4.218-1.145-6.965-1.679a68.906,68.906,0,0,0-7.119-1.014c-.914-.083-1.655-.119-2.165-.13A4.446,4.446,0,0,0,113.58,403.739Z" transform="translate(-111.447 -380.695)"/><path class="g" d="M161.44,429.987a1.071,1.071,0,0,0,.142-.243c.089-.2.2-.433.338-.718.3-.623.694-1.537,1.186-2.67.961-2.272,2.2-5.446,3.512-8.976s2.521-6.71,3.435-8.994l1.1-2.705c.113-.3.214-.54.291-.735s.095-.261.083-.267a1.147,1.147,0,0,0-.136.243l-.338.712c-.3.629-.7,1.542-1.186,2.675-.967,2.266-2.2,5.446-3.512,8.97s-2.521,6.709-3.441,9c-.445,1.109-.819,2.023-1.092,2.7-.119.3-.214.54-.291.741a1.361,1.361,0,0,0-.089.267Z" transform="translate(-130.914 -381.084)"/><path class="g" d="M117.05,432.86a1.313,1.313,0,0,0,.261.107l.765.261,2.824.926c2.373.777,5.654,1.9,9.272,3.132s6.911,2.331,9.308,3.061c1.187.368,2.171.652,2.848.836l.783.213a1.573,1.573,0,0,0,.273.053,1.913,1.913,0,0,0-.261-.113l-.759-.255-2.8-.925c-2.373-.783-5.654-1.9-9.278-3.138s-6.905-2.332-9.3-3.061c-1.186-.368-2.171-.652-2.848-.836l-.783-.208A.806.806,0,0,0,117.05,432.86Z" transform="translate(-112.858 -392.547)"/></g><g transform="translate(1249.252 4430.962)"><path class="h" d="M555.026,252.13s12.106,2.041,13.081,2.3,4.811,2.079,5.006,3.25a35.145,35.145,0,0,1,0,4.616s-.7.563-1.126-.563a11.483,11.483,0,0,1-.368-3.355l-2.146-.826,1.171,2.079.2,4.871s-1.5-.135-1.794-1.3a11.485,11.485,0,0,1-.285-2.469l-1.561-1.321L568.37,261l.39,3.5s-1.141.375-1.5-.405a12.1,12.1,0,0,1-.39-3.1l-4.413-1.546-2.919,1.629-5.456-3.047Z" transform="translate(-387.71 -177.185)"/><path class="f" d="M496.859,212.26c.06.24,14.59,20.264,14.59,20.264l29.195,9.081-1.328,10.965-35.777-7.2-12.7-14.575Z" transform="translate(-371.932 -167.238)"/><g class="i" transform="translate(118.908 45.022)"><path d="M496.859,212.26c.06.24,14.59,20.264,14.59,20.264l29.195,9.081-1.328,10.965-35.777-7.2-12.7-14.575Z" transform="translate(-490.84 -212.26)"/></g><rect class="j" width="64.228" height="11.625" rx="3.05" transform="translate(12.134 72.558)"/><path class="g" d="M410.452,260.488a2.031,2.031,0,0,0,.375-.053,2.251,2.251,0,0,0,1.831-1.974V251.1a2.251,2.251,0,0,0-.751-1.606,2.183,2.183,0,0,0-.848-.443,3.445,3.445,0,0,0-1.013-.068H403.09l-52.243.06a2.1,2.1,0,0,0-1.553.683,2.154,2.154,0,0,0-.54,1.614v6.567a3.133,3.133,0,0,0,.075.856,2.116,2.116,0,0,0,1.794,1.539h14.755l23.483.045,15.836.06,4.308.037h0l-4.308.038-15.836.06-23.483.045H350.524a2.557,2.557,0,0,1-.931-.3,2.484,2.484,0,0,1-1.186-1.5,3.053,3.053,0,0,1-.09-.961v-6.537a2.589,2.589,0,0,1,.653-1.876,2.462,2.462,0,0,1,1.839-.81l52.243.06h6.957a4.317,4.317,0,0,1,1.073.09,2.371,2.371,0,0,1,.931.5,2.417,2.417,0,0,1,.833,1.764V255.9c0,.938,0,1.756-.037,2.492a2.372,2.372,0,0,1-.908,1.568,2.252,2.252,0,0,1-1.036.428,1.338,1.338,0,0,1-.413.1Z" transform="translate(-336.371 -176.305)"/><ellipse class="g" cx="30.688" cy="30.688" rx="30.688" ry="30.688" transform="translate(202.446 172.9) rotate(-2.75)"/><path class="g" d="M604.079,420.84v.083a30.688,30.688,0,1,0,61.369.886s0-.053,0-.083Z" transform="translate(-400.184 -219.278)"/><path class="d" d="M616.249,414.061A21.547,21.547,0,1,0,638.1,392.829a21.547,21.547,0,0,0-21.855,21.232Z" transform="translate(-403.22 -212.289)"/><path class="c" d="M638.1,392.829a21.547,21.547,0,0,0-21.855,21.232l43.086.623A21.547,21.547,0,0,0,638.1,392.829Z" transform="translate(-403.221 -212.289)"/><path class="g" d="M627.469,416.981a13.126,13.126,0,1,0,13.314-12.931A13.126,13.126,0,0,0,627.469,416.981Z" transform="translate(-406.02 -215.088)"/><path class="k" d="M618.457,361.176s31.416-9.5,44.407,24.632L597.12,406.176Z" transform="translate(-398.448 -204.089)"/><ellipse class="g" cx="30.688" cy="30.688" rx="30.688" ry="30.688" transform="translate(13.109 172.903) rotate(-2.75)"/><path class="g" d="M351.789,420.84v.083a30.688,30.688,0,1,0,61.369.886v-.1Z" transform="translate(-337.238 -219.278)"/><path class="d" d="M364,414.061a21.547,21.547,0,1,0,21.855-21.232A21.547,21.547,0,0,0,364,414.061Z" transform="translate(-340.285 -212.289)"/><path class="c" d="M385.825,392.829A21.547,21.547,0,0,0,364,414.061l43.086.623a21.547,21.547,0,0,0-21.262-21.855Z" transform="translate(-340.286 -212.289)"/><path class="g" d="M375.18,416.981a13.126,13.126,0,1,0,13.314-12.931A13.126,13.126,0,0,0,375.18,416.981Z" transform="translate(-343.075 -215.088)"/><path class="l" d="M433.4,404.3c-.173.09-16.151-2.469-16.151-2.469h0a9.757,9.757,0,0,1-7.287,3.813c-6.9.33-13.652.638-19.513.9a9.907,9.907,0,0,0-9.456,10.3h0a9.914,9.914,0,0,0,9.509,9.486l34.02,1.343c5.591.218,13.021-3.175,16.511-7.55h0Z" transform="translate(-344.524 -214.535)"/><path class="m" d="M339.576,359.992s-1.456-29.908,26.65-36.137V320.02h98.451v9.2s-14.447,17.4-9.757,31.851S461.112,377,461.112,377h56.033a38.277,38.277,0,0,0,7.077-21.232c.3-12.684-4.968-34.366-8.908-48.227-3.557-12.646-5.809-23.183-5.809-23.183l16.811-5.606s31.108,40.715,32.377,42.966,5.591,7.625,4.578,19.318-29,47.762-36.339,51.83-13.974,4.323-20.586,5.336c-5.734.886-48.152.3-59.252.128a21.766,21.766,0,0,1-10.957-3.039c-3.317-2.011-5.809-5.344-8.563-10.807L421.7,373.043Z" transform="translate(-334.189 -183.827)"/><path class="n" d="M345.324,384.26l-12.4,19.423a3,3,0,0,0,3.685,4.443,14.439,14.439,0,0,0,4.165-2.822c5.666-5.4,15.761-19.611,15.761-19.611Z" transform="translate(-332.402 -210.151)"/><path class="g" d="M439.882,377.662a.872.872,0,0,1,.075-.285l.248-.818a21.6,21.6,0,0,0,.653-3.2,22.621,22.621,0,0,0-1.921-11.723,24.555,24.555,0,0,0-4.571-6.867,29.974,29.974,0,0,0-7.505-5.749,37.991,37.991,0,0,0-9.832-3.662,51.785,51.785,0,0,0-11.258-1.163,84.824,84.824,0,0,0-11.258.833c-3.632.488-7.115,1.088-10.4,1.839a61.6,61.6,0,0,0-16.7,6.177,41.324,41.324,0,0,0-9.539,7.287c-.991,1.021-1.7,1.869-2.177,2.447l-.533.668a1.335,1.335,0,0,1-.2.218,25.226,25.226,0,0,1,2.792-3.437,40.53,40.53,0,0,1,9.516-7.422,61.065,61.065,0,0,1,16.759-6.289c3.287-.751,6.754-1.374,10.424-1.869a85.4,85.4,0,0,1,11.348-.841,51.648,51.648,0,0,1,11.318,1.178,38.446,38.446,0,0,1,9.922,3.753,30.177,30.177,0,0,1,7.6,5.839,24.711,24.711,0,0,1,4.586,6.98,22.517,22.517,0,0,1,1.816,11.858,19.156,19.156,0,0,1-.751,3.2c-.12.345-.21.608-.285.81A1.582,1.582,0,0,1,439.882,377.662Z" transform="translate(-338.033 -200.056)"/><path class="j" d="M453.257,373.012c-.045,0,.157-.473.368-1.328a9.71,9.71,0,0,0,.112-3.753,15.423,15.423,0,0,0-1.831-5.209,17.78,17.78,0,0,0-1.816-2.732,16.462,16.462,0,0,0-2.439-2.529,21.307,21.307,0,0,0-5.854-3.422,27.557,27.557,0,0,0-5.374-1.5,35.163,35.163,0,0,0-3.752-.428,10.993,10.993,0,0,1-1.381-.105,1.216,1.216,0,0,1,.36,0h1.028a28.051,28.051,0,0,1,3.753.308,25.952,25.952,0,0,1,5.464,1.4,21.4,21.4,0,0,1,6,3.46,17.194,17.194,0,0,1,2.492,2.589,18.753,18.753,0,0,1,1.824,2.8A14.936,14.936,0,0,1,454,367.909a9.246,9.246,0,0,1-.233,3.8,5.4,5.4,0,0,1-.36.968A1.319,1.319,0,0,1,453.257,373.012Z" transform="translate(-357.074 -202.1)"/><g class="o" transform="translate(76.902 144.659)"><path d="M434.87,345.05a39.428,39.428,0,0,1,14.822,6,26.2,26.2,0,0,1,9.929,12.338c1.966,5.058,1.674,11.76-.4,15.948l6.957.578c2.342-7.813-.2-17.4-5.831-23.513a34.523,34.523,0,0,0-25.48-11.385" transform="translate(-434.87 -345.02)"/></g><path class="f" d="M10.843,0H62.894A10.843,10.843,0,0,1,73.737,10.843V41.775A10.843,10.843,0,0,1,62.894,52.618H10.843A10.843,10.843,0,0,1,0,41.775V10.843A10.843,10.843,0,0,1,10.843,0Z" transform="translate(7.383 83.598)"/><path class="g" d="M415.872,279.235c0,.113-16.579.2-37.022.2s-37.03-.083-37.03-.2,16.571-.2,37.03-.2S415.872,279.13,415.872,279.235Z" transform="translate(-334.752 -183.899)"/><path class="g" d="M473.351,338.345c0,.105-22.132.2-49.421.2s-49.421-.09-49.421-.2,22.125-.2,49.421-.2S473.351,338.24,473.351,338.345Z" transform="translate(-342.908 -198.647)"/><path class="n" d="M491.036,330.454a8.511,8.511,0,0,0,1.786-4.413c.15-2.469-.976-5.561-3.64-5.561h-34a9.974,9.974,0,0,0-9.974,9.974Z" transform="translate(-360.547 -194.238)"/><path class="k" d="M563.8,275.127,557.886,262.8a7.5,7.5,0,0,1,3-9.644l17.682-10.545a5.929,5.929,0,0,1,3.055-.848h3.82l1.5,24.924-5.884,2.274,3.752,6.064Z" transform="translate(-388.484 -174.598)"/><path class="b" d="M594.91,243s6.049,1.388,6.807,10.71-5.336,12.233-5.336,12.233Z" transform="translate(-397.897 -174.907)"/><path class="g" d="M563.715,263.033s-12.226,5.794-13.719,6.755a2.847,2.847,0,0,0-1.111,3.85c1.381,3.46,7.1.2,7.1.2l11.385-5.689s4.376-2.064,2.754-4.653C568.315,260.6,563.715,263.033,563.715,263.033Z" transform="translate(-386.335 -179.667)"/><path class="h" d="M545.458,260.54s11.49,1.966,12.466,2.251,4.8,2.079,5,3.25a35.146,35.146,0,0,1,0,4.616s-.69.563-1.126-.563a11.839,11.839,0,0,1-.368-3.362l-2.146-.826,1.171,2.079.2,4.878s-1.5-.135-1.786-1.306a11.385,11.385,0,0,1-.285-2.462l-1.569-1.328,1.171,1.584.4,3.512s-1.141.368-1.5-.413a12.058,12.058,0,0,1-.39-3.1l-4.413-1.539-2.919,1.629-4.593-2.552Z" transform="translate(-385.385 -179.284)"/><path class="g" d="M566.357,236.421c0,4.653-2.139,8.421-4.773,8.421s-4.773-3.753-4.773-8.421S558.942,228,561.583,228,566.357,231.753,566.357,236.421Z" transform="translate(-388.391 -171.165)"/><path class="g" d="M564.21,246.372l2.627,9.1a2.357,2.357,0,0,0,1.223-2.687c-.66-3.115-1.036-5.329-1.756-8.06-.09-.27-2.094,1.651-2.094,1.651" transform="translate(-390.237 -175.33)"/><g class="o" transform="translate(118.546 96.387)"><path d="M493.842,365.409c-.255-.75-.525-1.5-.751-2.3s-.51-1.5-.705-2.251a24.184,24.184,0,0,1-.661-3.43c-4.428,18.012,2.334,30.718,13.937,31.611,16.961,1.306,37.638,2.252,46,.06,15.242-4,20.834-16.714,22.17-18.808s13.457-24.256,6-45.593S559.458,280.7,559.458,280.7l-12.331,4.143s2.252,10.507,5.832,23.146c3.94,13.862,9.209,35.544,8.908,48.227a38.276,38.276,0,0,1-7.077,21.232H498.765s-1.2-1.2-4.9-12.008" transform="translate(-490.357 -280.7)"/></g><path class="f" d="M336.591,379.358l.4-4.278,102.279,11.783a10.1,10.1,0,0,1,8.766,11.8l-.458,2.589L341.755,385.872A6,6,0,0,1,336.591,379.358Z" transform="translate(-333.441 -207.861)"/><g transform="translate(3.123 167.219)"><path class="k" d="M336.591,379.358l.4-4.278,102.279,11.783a10.1,10.1,0,0,1,8.766,11.8l-.458,2.589L341.755,385.872A6,6,0,0,1,336.591,379.358Z" transform="translate(-336.564 -375.08)"/></g><g class="p" transform="translate(202.019 155.871)"><path d="M601.58,404.195s22.515-24.767,27.161-44.235a43.786,43.786,0,0,1,6.972.518S622.4,396.674,601.58,404.195Z" transform="translate(-601.58 -359.959)"/></g><path class="g" d="M628.024,348.34a3.622,3.622,0,0,1,.12.623c.06.413.18,1.021.255,1.809a27.56,27.56,0,0,1-.172,6.755,34.113,34.113,0,0,1-3,9.516,107.859,107.859,0,0,1-5.959,10.657,142.35,142.35,0,0,1-13.179,17.817c-1.831,2.169-3.347,3.9-4.4,5.081l-1.216,1.358a5.284,5.284,0,0,1-.443.458,3.332,3.332,0,0,1,.383-.5l1.164-1.411,4.3-5.156A154.754,154.754,0,0,0,618.935,377.5a114.369,114.369,0,0,0,6-10.6,34.837,34.837,0,0,0,3-9.411,30.028,30.028,0,0,0,.293-6.665c-.053-.788-.15-1.4-.18-1.816A3.306,3.306,0,0,1,628.024,348.34Z" transform="translate(-399.174 -201.189)"/><path class="g" d="M583.162,416.4a30.071,30.071,0,0,1-3.61-3.257,30.871,30.871,0,0,1-3.332-3.535A60.16,60.16,0,0,1,583.162,416.4Z" transform="translate(-393.234 -216.476)"/><path class="g" d="M496.43,415.679a10.423,10.423,0,0,1,1.659-3.2,10.558,10.558,0,0,1,2.364-2.724c.083.083-.946,1.313-2.041,2.942S496.535,415.724,496.43,415.679Z" transform="translate(-373.327 -216.511)"/><path class="g" d="M435.227,429.111a15.114,15.114,0,0,0,3.069-3.9,13.431,13.431,0,0,0,1.5-5.141,11.94,11.94,0,0,0-5.389-11.258,13.411,13.411,0,0,0-4.938-2.064,15.1,15.1,0,0,0-4.961-.068,1.446,1.446,0,0,1,.33-.1,8.192,8.192,0,0,1,.991-.2,11.775,11.775,0,0,1,3.692.09,13.424,13.424,0,0,1,5.089,2.034,12.128,12.128,0,0,1,5.546,11.625,13.425,13.425,0,0,1-1.621,5.254,11.64,11.64,0,0,1-2.252,2.927,7.7,7.7,0,0,1-.751.653,1.4,1.4,0,0,1-.308.143Z" transform="translate(-355.383 -215.645)"/><path class="g" d="M388.845,423.845a16.122,16.122,0,0,1-.368-3.6,17.045,17.045,0,0,1,0-3.632,33.682,33.682,0,0,1,.345,7.235Z" transform="translate(-346.369 -218.222)"/><path class="g" d="M392.333,423.85a34.756,34.756,0,0,1-.923-7.25,17.655,17.655,0,0,1,.653,3.6A17.474,17.474,0,0,1,392.333,423.85Z" transform="translate(-347.124 -218.22)"/><path class="g" d="M430.387,333.705c0,.105-12.436.2-27.769.2s-27.769-.09-27.769-.2,12.436-.2,27.769-.2S430.387,333.593,430.387,333.705Z" transform="translate(-342.993 -197.489)"/><path class="g" d="M395.125,312.583c-.113,0-.2-14.259-.2-31.806s.052-31.776.2-31.776.2,14.26.2,31.814S395.23,312.583,395.125,312.583Z" transform="translate(-348.003 -176.404)"/><path class="g" d="M385,312.518c-.105,0,.428-14.26,1.193-31.791s1.5-31.784,1.576-31.776-.42,14.26-1.186,31.791S385.138,312.525,385,312.518Z" transform="translate(-345.521 -176.392)"/><path class="n" d="M359.4,435.365a2.443,2.443,0,0,1-.33-.338c-.2-.225-.518-.548-.871-1.006a28.814,28.814,0,0,1-2.769-4.068,31.093,31.093,0,0,1,.128-31.131,28.269,28.269,0,0,1,2.8-4.045c.36-.458.683-.75.886-1.006s.323-.338.33-.323a1.9,1.9,0,0,1-.27.375c-.18.248-.488.578-.826,1.051a32.126,32.126,0,0,0-.158,39.049c.33.473.631.81.811,1.058A2.228,2.228,0,0,1,359.4,435.365Z" transform="translate(-337.122 -212.444)"/><path class="n" d="M501.66,373.11l-.233.435-4.533,8.488-6.334,6.094,12.661,16.856,10.545-1.749s-1.178-2.409-6.477-2.874l-2-10.072,7.437-11.528" transform="translate(-371.862 -207.369)"/><path class="c" d="M490.58,392.718l12.661,16.856,10.545-1.749-1.449-1.388-8.653.946L491.931,391.42Z" transform="translate(-371.867 -211.938)"/><path class="g" d="M510.763,403.126c-.06.12-.75-.128-1.5.038s-1.358.593-1.456.5.375-.8,1.366-.968S510.845,403.028,510.763,403.126Z" transform="translate(-376.162 -214.743)"/><path class="g" d="M509.973,399.685c-.09.09-.668-.45-1.5-.48s-1.5.473-1.569.375.052-.233.323-.45a2.033,2.033,0,0,1,1.261-.39,1.974,1.974,0,0,1,1.231.473A.833.833,0,0,1,509.973,399.685Z" transform="translate(-375.935 -213.764)"/><path class="g" d="M509.394,395.289c-.105.083-.57-.465-1.344-.6s-1.4.218-1.5.105.068-.218.345-.375a1.854,1.854,0,0,1,2.251.405C509.4,395.064,509.447,395.259,509.394,395.289Z" transform="translate(-375.844 -212.632)"/><path class="g" d="M512.667,391.226c-.113.06-.51-.488-1.238-.8s-1.388-.27-1.418-.4.75-.435,1.614,0S512.794,391.188,512.667,391.226Z" transform="translate(-376.714 -211.534)"/><path class="g" d="M513.944,387.21c-.053.038-.465-.323-1.1-.953l-1.081-1.118a3.454,3.454,0,0,1-.631-.751.849.849,0,0,1-.045-.653.653.653,0,0,1,.578-.435,1.921,1.921,0,0,1,1.073.345,3.95,3.95,0,0,1,.75.623,3.656,3.656,0,0,1,.8,1.434,1.972,1.972,0,0,1,0,1.5,11.28,11.28,0,0,0-.315-1.373,3.751,3.751,0,0,0-.8-1.238,3.44,3.44,0,0,0-.683-.525,1.75,1.75,0,0,0-.8-.278.2.2,0,0,0-.18.128.4.4,0,0,0,0,.308,3.316,3.316,0,0,0,.525.66l1.028,1.193A4.5,4.5,0,0,1,513.944,387.21Z" transform="translate(-376.972 -209.912)"/><path class="g" d="M515.438,388.014c-.052,0-.1-.555.36-1.283a2.672,2.672,0,0,1,3-1.088.51.51,0,0,1,.225.353.631.631,0,0,1-.075.353,1.5,1.5,0,0,1-.323.4,5.01,5.01,0,0,1-.675.548,4.675,4.675,0,0,1-1.321.615,2.161,2.161,0,0,1-1.321.1c0-.075.488-.12,1.216-.413a5.254,5.254,0,0,0,1.178-.653,4.78,4.78,0,0,0,.6-.525,1.2,1.2,0,0,0,.233-.278c.038-.105,0-.075,0-.1a.835.835,0,0,0-.323-.068,2.326,2.326,0,0,0-.4,0,2.622,2.622,0,0,0-.751.18,2.574,2.574,0,0,0-1.043.75A9.324,9.324,0,0,0,515.438,388.014Z" transform="translate(-378.037 -210.468)"/><path class="c" d="M500.882,390.508a1.268,1.268,0,1,1-1.456-1.043A1.268,1.268,0,0,1,500.882,390.508Z" transform="translate(-373.809 -211.446)"/><path class="n" d="M556.55,383.246l3.385,21.975,27.371-4.068c-.555-2.589-15.491-5.734-15.491-5.734l-1.591-14.169Z" transform="translate(-388.326 -209.4)"/><path class="c" d="M565.165,400.2a1.126,1.126,0,0,0-.586,1.388,1.1,1.1,0,0,0,1.373.593,1.193,1.193,0,0,0,.608-1.5,1.126,1.126,0,0,0-1.5-.458" transform="translate(-390.314 -214.102)"/><path class="c" d="M560.975,411.421l-.255-2.252,26.335-3.069s1.3.353,1.291,1.231Z" transform="translate(-389.367 -215.6)"/><path class="g" d="M576.692,399.835c0,.135-.638.293-1.238.818s-.856,1.141-.991,1.111-.045-.84.683-1.463S576.706,399.708,576.692,399.835Z" transform="translate(-392.782 -214.019)"/><path class="g" d="M580.989,400.858c.053.128-.5.435-.863,1.073s-.413,1.246-.548,1.261-.33-.75.142-1.5S580.966,400.731,580.989,400.858Z" transform="translate(-394.033 -214.284)"/><path class="g" d="M584.283,404.3c-.12.053-.405-.593-.173-1.373s.818-1.171.893-1.066-.255.555-.443,1.2S584.411,404.274,584.283,404.3Z" transform="translate(-395.18 -214.539)"/><path class="g" d="M575.551,395.505c0,.127-.675.037-1.426.2s-1.3.5-1.388.39.413-.668,1.291-.848S575.6,395.385,575.551,395.505Z" transform="translate(-392.362 -212.878)"/><path class="g" d="M573.527,390.85a2.6,2.6,0,0,1-1.374.2,6.287,6.287,0,0,1-1.5-.225,6.429,6.429,0,0,1-.878-.278,1.5,1.5,0,0,1-.458-.263.571.571,0,0,1-.165-.7.751.751,0,0,1,.54-.4,1.708,1.708,0,0,1,.518,0,4.264,4.264,0,0,1,.9.165,4.981,4.981,0,0,1,1.388.638c.75.5,1.013.961.968,1s-.428-.323-1.141-.713a5.344,5.344,0,0,0-1.328-.5,4.052,4.052,0,0,0-.826-.128c-.3,0-.548,0-.6.143s0,.068.052.15a1.393,1.393,0,0,0,.338.188,8.114,8.114,0,0,0,.788.308,7.733,7.733,0,0,0,1.4.308A9.662,9.662,0,0,1,573.527,390.85Z" transform="translate(-391.456 -211.375)"/><path class="g" d="M574.583,390.211a2.345,2.345,0,0,1-.563-1.268,4.636,4.636,0,0,1,0-1.5,5.135,5.135,0,0,1,.225-.886,1.142,1.142,0,0,1,.75-.818.653.653,0,0,1,.631.293,1.962,1.962,0,0,1,.218.488,3.064,3.064,0,0,1,.135.923,3.189,3.189,0,0,1-.375,1.5c-.428.75-.961,1.028-.975.983a5.692,5.692,0,0,0,.675-1.126,3.131,3.131,0,0,0,.24-1.351,2.65,2.65,0,0,0-.142-.788c-.083-.285-.225-.5-.33-.458a.981.981,0,0,0-.413.518,4.547,4.547,0,0,0-.233.8,5.051,5.051,0,0,0-.06,1.4C574.433,389.686,574.65,390.181,574.583,390.211Z" transform="translate(-392.67 -210.519)"/><path class="g" d="M520.058,314.768,496.59,365.908l15.5,9.306L544.54,313.68" transform="translate(-373.366 -192.542)"/><path class="g" d="M548.749,370.39l-16.834,2.7-10.079-60.145-49.8,3.61a12.132,12.132,0,0,1-3.918-.368c-13.982-3.835-12.091-21.667-10.74-24.527l68.9-1.974a14.665,14.665,0,0,1,14.95,12.631Z" transform="translate(-363.354 -186.554)"/><path class="q" d="M455.1,272.176l.248-25.427s-3.28-16.511-4.255-23.033c-1.5-10.087-3.573-14.883,12.954-22.05l3.617-1.4,5.591.075c6.664.5,13.689,6.529,13.854,10.507l6.447,57.316Z" transform="translate(-361.768 -164.246)"/><path class="f" d="M456.853,210s-4.668,10.042-3.752,19.19l17.389,16.691c3.9,4.338,8.773,6.184,15.01,6.559l35.979,3.933,1-9.411-34.208-9.7c-1.366-.255-2.049-1.674-3.092-2.589L456.853,210" transform="translate(-362.486 -166.674)"/><path class="g" d="M454.39,213.436a2.458,2.458,0,0,1,.69-.465,8.582,8.582,0,0,1,2.326-.653,12.009,12.009,0,0,1,3.888,0,4.032,4.032,0,0,1,1.141.39,11.482,11.482,0,0,1,1.058.75c.691.54,1.388,1.163,2.1,1.839,1.441,1.343,2.807,3.047,4.406,4.773s3.347,3.58,5.253,5.524,3.955,3.978,6.147,6.079c1.1,1.051,2.252,2.116,3.445,3.16.608.5,1.208,1.081,1.786,1.629a4.323,4.323,0,0,0,1.989,1.171h0l34.275,9.681.158.045v.165c-.068.668-.15,1.381-.225,2.109-.263,2.5-.525,4.976-.751,7.3v.2h-.2l-15.25-1.7-7.2-.788-6.9-.7c-2.252-.248-4.42-.5-6.529-.811a29.4,29.4,0,0,1-6.049-1.4,22.275,22.275,0,0,1-5.088-2.739c-1.5-1.058-2.912-2.162-4.21-3.25-5.141-4.383-8.916-8.308-11.535-10.98-1.3-1.343-2.3-2.4-2.964-3.122l-.751-.826-.248-.293s.1.082.278.263.443.458.751.8l3,3.077c2.649,2.634,6.454,6.529,11.6,10.875,1.3,1.073,2.687,2.169,4.2,3.212a22.441,22.441,0,0,0,5.043,2.687,29.371,29.371,0,0,0,6,1.366c2.109.3,4.285.555,6.522.8l6.9.675,7.2.788,15.235,1.659-.218.173c.248-2.327.51-4.8.75-7.31.083-.75.158-1.441.225-2.109l.143.21-34.223-9.719h0a4.562,4.562,0,0,1-2.192-1.268c-.608-.578-1.156-1.118-1.779-1.636-1.208-1.051-2.342-2.124-3.445-3.175-2.192-2.109-4.233-4.158-6.132-6.109s-3.64-3.813-5.254-5.561-2.934-3.445-4.36-4.788a24.989,24.989,0,0,0-2.071-1.839,8.875,8.875,0,0,0-1.036-.751,3.627,3.627,0,0,0-1.088-.383,11.642,11.642,0,0,0-3.835-.06,8.67,8.67,0,0,0-2.319.593A5.253,5.253,0,0,0,454.39,213.436Z" transform="translate(-362.838 -167.213)"/><path class="h" d="M466.346,166.885l1.741,24.767a7.715,7.715,0,0,0,7.7,7.167h0a7.715,7.715,0,0,0,7.7-8.218c-.158-2.357-.293-4.285-.293-4.285s6-.931,6.064-6.927c.045-3.46-.555-11.31-1.066-17.329a7.858,7.858,0,0,0-7.858-7.19h-3.625a11.078,11.078,0,0,0-10.365,12.016Z" transform="translate(-365.81 -152.919)"/><path class="r" d="M486.223,195.9a13.967,13.967,0,0,1-7.813-2.214s1.846,4.308,7.827,3.752Z" transform="translate(-368.831 -162.605)"/><path class="g" d="M493.111,174.447a.856.856,0,0,1-.826.863.811.811,0,0,1-.886-.751.863.863,0,0,1,.826-.871A.826.826,0,0,1,493.111,174.447Z" transform="translate(-372.072 -157.614)"/><path class="g" d="M492.967,172.151c-.113.113-.751-.368-1.681-.368s-1.591.465-1.7.353.06-.255.36-.465a2.311,2.311,0,0,1,1.351-.42,2.251,2.251,0,0,1,1.336.435C492.892,171.9,493.012,172.1,492.967,172.151Z" transform="translate(-371.612 -157.006)"/><path class="g" d="M481.591,174.447a.848.848,0,0,1-.826.863.811.811,0,0,1-.886-.751.863.863,0,0,1,.826-.871A.825.825,0,0,1,481.591,174.447Z" transform="translate(-369.197 -157.614)"/><path class="g" d="M480.87,172.381c-.1.113-.751-.368-1.681-.368s-1.591.465-1.689.353.053-.255.353-.465a2.311,2.311,0,0,1,1.351-.42,2.252,2.252,0,0,1,1.336.428C480.87,172.125,480.953,172.328,480.87,172.381Z" transform="translate(-368.596 -157.063)"/><path class="g" d="M486.348,179.23a6.14,6.14,0,0,1,1.5-.27c.233,0,.458-.075.5-.233a1.127,1.127,0,0,0-.158-.7l-.705-1.786a30.21,30.21,0,0,1-1.561-4.683,31.874,31.874,0,0,1,1.936,4.541l.66,1.8a1.358,1.358,0,0,1,.128.923.593.593,0,0,1-.39.345,1.658,1.658,0,0,1-.4.052A6,6,0,0,1,486.348,179.23Z" transform="translate(-370.704 -157.083)"/><path class="g" d="M482.836,182.63c.15,0,.15.991,1.006,1.7s1.921.6,1.929.751-.24.188-.69.2a2.491,2.491,0,0,1-1.606-.563,2.16,2.16,0,0,1-.75-1.426C482.656,182.908,482.768,182.622,482.836,182.63Z" transform="translate(-369.902 -159.845)"/><path class="g" d="M480.944,167.641c-.09.248-1.006.135-2.086.263s-1.959.428-2.1.2.09-.345.443-.585a3.632,3.632,0,0,1,3.189-.353C480.786,167.325,480.989,167.521,480.944,167.641Z" transform="translate(-368.407 -155.933)"/><path class="g" d="M492.587,168.587c-.158.21-.8,0-1.554,0s-1.411.135-1.561-.083.038-.315.323-.51a2.124,2.124,0,0,1,1.268-.345,2.17,2.17,0,0,1,1.238.42C492.572,168.272,492.662,168.482,492.587,168.587Z" transform="translate(-371.577 -156.107)"/><path class="h" d="M467.724,176.817c-.105-.045-4.12-1.223-3.985,2.874s4.21,3.122,4.218,3S467.724,176.817,467.724,176.817Z" transform="translate(-365.169 -158.347)"/><path class="r" d="M466.987,181.622a1.226,1.226,0,0,1-.188.113.75.75,0,0,1-.533,0,1.764,1.764,0,0,1-.863-1.553,2.372,2.372,0,0,1,.165-1.028.833.833,0,0,1,.518-.57.368.368,0,0,1,.428.188c.06.113.038.2.06.2s.083-.075.045-.24a.443.443,0,0,0-.172-.255.533.533,0,0,0-.4-.09.991.991,0,0,0-.751.66,2.379,2.379,0,0,0-.21,1.148,1.839,1.839,0,0,0,1.1,1.734.75.75,0,0,0,.645-.128C466.987,181.72,467,181.63,466.987,181.622Z" transform="translate(-365.505 -158.785)"/><path class="g" d="M465.752,170.969a2.161,2.161,0,0,1,1.974,1.013c.263.585.323,1.246.585,1.831a1.5,1.5,0,0,0,1.5.968,1.261,1.261,0,0,0,.856-.938,3.4,3.4,0,0,0,0-1.321c-.24-1.914-.638-3.805-.713-5.734a9.756,9.756,0,0,1,1.208-5.569,5.359,5.359,0,0,1,4.788-2.694c1.276.105,2.439.751,3.708.946a5.014,5.014,0,0,0,4.158-1.388,8.328,8.328,0,0,1,.75-.563,2.32,2.32,0,0,0-.428-1.261c-2.514-2.327-7.032-3-10.349-2.139a11.956,11.956,0,0,0-7.843,6.282c-1.426,3.107-1.006,7.422-.218,10.567" transform="translate(-365.486 -152.642)"/><path class="f" d="M487.736,160.481s-15.715-5.058-22.515,8.541a25.346,25.346,0,0,1-1.021-5.253c0-1.216.751-8.473,8.2-10.755C472.4,153.043,483.646,148.75,487.736,160.481Z" transform="translate(-365.285 -152.271)"/><path class="g" d="M477.45,162.73a3.422,3.422,0,0,0,5.449.5,2.011,2.011,0,0,0,3.805-.2,4.661,4.661,0,0,0,1.5,1.118,1.561,1.561,0,0,0,1.749-.368,1.5,1.5,0,0,0-.113-1.8,3.663,3.663,0,0,0-1.591-1.073,11.521,11.521,0,0,0-5.929-.9,8.008,8.008,0,0,0-5.2,2.829" transform="translate(-368.509 -154.182)"/><g class="o" transform="translate(98.915 0.003)"><path d="M487.736,160.482a7.3,7.3,0,0,0-5-2.251,19.742,19.742,0,0,0-17.517,10.807,25.345,25.345,0,0,1-1.021-5.254c0-1.216.751-8.473,8.2-10.755C472.4,153.044,483.646,148.751,487.736,160.482Z" transform="translate(-464.2 -152.275)"/></g><path class="f" d="M466.43,167.549a29.6,29.6,0,0,1,9.156-8.766,57.662,57.662,0,0,1,13.7-5.584,8.945,8.945,0,0,1,3.79-.4,3.414,3.414,0,0,1,2.807,2.3c.39,1.554-2.364,3.948-3.662,4.886a41.405,41.405,0,0,1-3.933,2.327s.037-2.882-4.571-3.475C477.455,158.033,466.43,167.549,466.43,167.549Z" transform="translate(-365.842 -152.39)"/><g class="p" transform="translate(95.057 66.231)"><path d="M459.06,240.52c1.621,3.91,3.257,8.736,5.606,12.256a21.613,21.613,0,0,0,9.389,8.256,20.271,20.271,0,0,0,15.588.285c.4-.173,1.178-.39,1.1-.818,0,0-1.614-.188-2.116-.27-9.854-1.636-10.927-2.837-15.648-6.589-2.942-2.319-9.464-9.351-13.922-13.119" transform="translate(-459.06 -240.52)"/></g><path class="g" d="M493.432,278.46a4.135,4.135,0,0,1-.413.916,11.454,11.454,0,0,1-1.591,2.251,17.262,17.262,0,0,1-7.618,4.646,34.924,34.924,0,0,1-8.886,1.328c-1.148.045-2.079.053-2.717.053a5.813,5.813,0,0,1-1-.045,4.388,4.388,0,0,1,.991-.113l2.709-.173A38.885,38.885,0,0,0,483.7,285.9a17.863,17.863,0,0,0,7.55-4.5A19.241,19.241,0,0,0,493.432,278.46Z" transform="translate(-367.034 -183.755)"/><path class="n" d="M543.987,382.557a.753.753,0,0,1-.06-.233,4.342,4.342,0,0,0-.135-.69c-.113-.63-.278-1.5-.481-2.657-.413-2.342-.991-5.681-1.711-9.8-1.4-8.3-3.34-19.731-5.478-32.354-.953-5.719-1.862-11.182-2.694-16.173l.195.158-21.547,1.554-6.184.42-1.651.1h-.428l.428-.053,1.644-.15,6.177-.525,21.532-1.719h.165v.165c.841,4.991,1.764,10.454,2.724,16.166,2.094,12.631,3.985,24.069,5.366,32.377.661,4.128,1.2,7.505,1.584,9.817l.405,2.679c.045.285.075.518.1.69A.981.981,0,0,1,543.987,382.557Z" transform="translate(-375.133 -194.226)"/><path class="n" d="M548.5,313.54c.068.09-1.246,1.216-2.732,2.732s-2.6,2.844-2.687,2.769a17.874,17.874,0,0,1,5.419-5.5Z" transform="translate(-384.966 -192.507)"/><path class="g" d="M483.7,203.118a1.259,1.259,0,0,1,.09.248,3.518,3.518,0,0,1,.142.75,6.161,6.161,0,0,1-.36,2.732,7,7,0,0,1-2.477,3.242,7.506,7.506,0,0,1-4.811,1.291,8.693,8.693,0,0,1-4.676-1.756,9.933,9.933,0,0,1-2.657-3.1,10.723,10.723,0,0,1-1.021-2.552,7.252,7.252,0,0,1-.15-.75.732.732,0,0,1,0-.263,17.025,17.025,0,0,0,1.418,3.407,10.292,10.292,0,0,0,2.634,2.949,8.5,8.5,0,0,0,4.5,1.651,7.288,7.288,0,0,0,4.586-1.193,6.921,6.921,0,0,0,2.417-3.047,6.374,6.374,0,0,0,.473-2.619C483.765,203.478,483.7,203.133,483.7,203.118Z" transform="translate(-366.178 -164.918)"/><path class="g" d="M502.335,240.168a3.155,3.155,0,0,1-.165-.75c-.082-.593-.18-1.313-.3-2.146-.248-1.914-.57-4.375-.923-7.1s-.608-5.254-.751-7.115c-.082-.908-.135-1.651-.165-2.162a2.957,2.957,0,0,1,0-.8,3.706,3.706,0,0,1,.158.75c.083.593.18,1.306.293,2.146.24,1.914.548,4.375.886,7.1s.63,5.254.81,7.107c.083.916.143,1.651.18,2.169A3.4,3.4,0,0,1,502.335,240.168Z" transform="translate(-374.218 -169.194)"/></g></g></g></svg>