<svg xmlns="http://www.w3.org/2000/svg" width="309.028" height="276.372" viewBox="0 0 309.028 276.372"><defs><style>.a{fill:#fff3d9;}.b,.j{fill:#ffcf6b;}.c{fill:#ef5f3d;}.d{fill:#ffe0a0;}.e{fill:#c7161d;}.f{opacity:0.15;}.g{fill:#fff;}.bx,.h{fill:#a91319;}.i{fill:#d20400;}.bo,.j,.l,.w{opacity:0.7;}.k{fill:#efd59e;}.l{fill:#ffdd97;}.m{fill:#fdfab6;}.n{fill:#38c7c2;}.o{fill:#00b5b8;}.p{fill:#fcde76;}.q{fill:#f59f3f;}.r{fill:#f2821c;}.s{fill:#d1d1d1;}.t{fill:#e6608d;}.u{fill:#d4506f;}.v{fill:#ffd9e4;}.w{fill:#ffe7b6;}.x{fill:#ffb531;}.y{fill:#fa5d3f;}.z{fill:#fac850;}.aa{fill:#fff9f8;}.ab{fill:#9ae2f0;}.ac{fill:#79d8eb;}.ad{fill:#f29a49;}.ae{opacity:0.1;}.af{fill:#f57e2a;}.ag{opacity:0.3;}.ah{fill:#fafafa;}.ai{fill:#263238;}.aj{fill:#455a64;}.ak{fill:#37474f;}.al{fill:#ffa8a7;}.am{fill:#f28f8f;}.an,.ao{opacity:0.4;}.ap{fill:#00a5ff;}.aq{fill:#006ef4;}.ar{fill:#e1e1e3;}.as{fill:#d9d9db;}.at{fill:#55fbfe;}.au{fill:#00e8f2;}.av{fill:#ff623f;}.aw{fill:#e70020;}.ax{fill:#ffd782;}.ay{fill:#ffaf5f;}.az{fill:#b4e1fa;}.ba{fill:#a0d2f0;}.bb{fill:#daf0fd;}.bc{fill:#d2555a;}.bd{fill:#c7cfe2;}.be{fill:#ff6464;}.bf{fill:#eff2fa;}.bg{fill:#8f96ac;}.bh{fill:#afb9d2;}.bi{opacity:0.5;}.bj{fill:#ba141b;}.bk{opacity:0.25;}.bl{opacity:0.05;}.bm{fill:#ebebeb;}.bn{fill:#f5f5f5;}.bo{fill:#00bbea;}.bp{fill:#e0e0e0;}.bq{fill:#df8508;}.br{opacity:0.8;}.bs{fill:#ffbda7;}.bt,.bw{opacity:0.2;}.bu{fill:#b16668;}.bv{opacity:0.6;}.bx{opacity:0.45;}</style></defs><path class="a" d="M818.527,286c-3.533-7.708-6.84-15.692-8.492-24.348-5.289-27.716.774-61.266-24.035-81.126a58.305,58.305,0,0,0-41.418-12.387c-14.392,1.354-27.995,8.222-42.531,8.321-16.226.11-31.637-7.818-47.994-8.093-23.553-.393-46.981,12.07-58.821,32.607-6.469,11.22-8.194,25.459-16.767,35.463-8.876,10.362-23.866,15.117-34.293,24.387-22.913,20.372-32.245,55.272-11.029,80.341,11.309,13.363,28.536,20.784,38.644,35.224,8.05,11.5,8.2,26.444,13.863,39.088,15.752,35.144,69.138,33.561,98.713,19.293,9.585-4.623,16.5-9.118,27.551-8.921,10.718.19,20.981,4.24,31.761,4.046,22.166-.4,27.271-18.161,35.43-35.48,10.491-22.262,38.173-26.842,47.733-48.934C835.207,326.146,826.717,303.862,818.527,286Z" transform="translate(-521.256 -167.891)"/><g transform="translate(32.931 33.373)"><g transform="translate(0 1.571)"><circle class="b" cx="7.103" cy="7.103" r="7.103" transform="translate(227.939 17.434)"/><ellipse class="b" cx="5.166" cy="4.843" rx="5.166" ry="4.843" transform="translate(133.664)"/><ellipse class="b" cx="5.489" cy="5.166" rx="5.489" ry="5.166" transform="translate(0 61.343)"/><ellipse class="b" cx="4.843" cy="5.166" rx="4.843" ry="5.166" transform="translate(72.321 199.526)"/><circle class="b" cx="3.874" cy="3.874" r="3.874" transform="translate(12.914 36.806)"/><ellipse class="b" cx="3.229" cy="3.229" rx="3.229" ry="3.229" transform="translate(236.333 83.297)"/><circle class="b" cx="3.874" cy="3.874" r="3.874" transform="translate(199.527 191.132)"/><circle class="b" cx="1.937" cy="1.937" r="1.937" transform="translate(230.521 60.697)"/><ellipse class="b" cx="1.614" cy="1.614" rx="1.614" ry="1.614" transform="translate(2.583 142.057)"/></g><g transform="translate(37.635 0)"><g transform="translate(12.997 121.417)"><path class="c" d="M54.655,349.195l-11.605-6.52a1.126,1.126,0,0,1,0-2.129l58.226-33.736a4.076,4.076,0,0,1,3.685,0l11.605,6.507a1.124,1.124,0,0,1,0,2.129L58.34,349.182a4.067,4.067,0,0,1-3.685.013Z" transform="translate(-42.29 -306.37)"/><ellipse class="d" cx="28.331" cy="17.499" rx="28.331" ry="17.499" transform="translate(56.75 25.917)"/><path class="d" d="M322.375,381.032c-2.5-.591-5.974-.164-9.334-.08,5.1-4.236,4.378-10.1-2.165-13.881-7.356-4.245-19.286-4.245-26.642,0s-7.356,11.134,0,15.383c7.112,4.116,18.557,4.245,25.948.378l.444.062c4.191.467,8.276-1.333,11.885,0s2.111,4.076,2.485,4.8,1.413.222,1.413-1.933A4.869,4.869,0,0,0,322.375,381.032Z" transform="translate(-173.632 -338.322)"/></g><g transform="translate(0 108.804)"><path class="e" d="M35.548,298.726c-2.769-11.49-11.356-24.322-19.886-19.806s6.178,14.6,10.441,24.086c3.729,8.316,7.907,19.6,8.889,22.259l3.191-1.489C38.166,320.941,37.917,308.607,35.548,298.726Z" transform="translate(-13.048 -277.992)"/><path class="f" d="M35.548,298.726c-2.769-11.49-11.356-24.322-19.886-19.806s6.178,14.6,10.441,24.086c3.729,8.316,7.907,19.6,8.889,22.259l3.191-1.489C38.166,320.941,37.917,308.607,35.548,298.726Z" transform="translate(-13.048 -277.992)"/><path class="g" d="M41.867,325.907h0a.3.3,0,0,0,.3-.3c-.076-22.353-9.5-36.238-17.548-41.336a.3.3,0,0,0-.413.093.3.3,0,0,0,.093.409c7.921,5.014,17.2,18.717,17.272,40.829a.3.3,0,0,0,.3.3Z" transform="translate(-19.22 -281.456)"/><path class="e" d="M34.059,339.233c-6.592-13.334-15.8-14.748-19.2-11.721-2.72,2.413-.676,6.089,1.858,7.658,3.3,2.04,14.508,7.374,18.286,16.992l2.489-1.169A31.029,31.029,0,0,0,34.059,339.233Z" transform="translate(-13.336 -304.761)"/><path class="g" d="M42.164,356.116h.067a.316.316,0,0,0,.244-.373c-2.178-10.814-12.481-18.321-17.641-19.486a.316.316,0,0,0-.138.613c5.014,1.133,15.037,8.445,17.161,19A.311.311,0,0,0,42.164,356.116Z" transform="translate(-19.397 -310.358)"/></g><path class="h" d="M112.935,34,60.971,63.989a5.671,5.671,0,0,0-2.831,4.7V187.42a6.277,6.277,0,0,0,2.667,5.023,6.29,6.29,0,0,0,5.676-.209l51.772-29.886a6.7,6.7,0,0,0,3.022-5.231V38.8a6.3,6.3,0,0,0-2.667-5.023A6.264,6.264,0,0,0,112.935,34Z" transform="translate(-38.098 -33.201)"/><path class="h" d="M65.738,233.7a6.2,6.2,0,0,1-4.951-.133,6.334,6.334,0,0,1-2.667-5.023V109.817a5.387,5.387,0,0,1,.764-2.587l4.889,2.765a5.872,5.872,0,0,0-1.4,3.52V230.994C62.36,233.314,63.845,234.412,65.738,233.7Z" transform="translate(-38.087 -74.326)"/><path class="i" d="M70.317,72.089A5.912,5.912,0,0,0,67.65,76.7V194.182c0,2.6,1.845,3.667,4.1,2.365l51.777-29.891a6.7,6.7,0,0,0,3.022-5.231V43.109c0-1.92-1.36-2.7-3.022-1.742Z" transform="translate(-43.381 -37.509)"/><path class="h" d="M76.211,90.573,73.34,92.231V199.456l2.871-1.658,48.67-28.1,2.871-1.658V60.82l-2.867,1.653Z" transform="translate(-46.542 -48.544)"/><path class="e" d="M124.117,168.257V65.53L76.211,93.19,73.34,94.848V197.583l47.905-27.66C122.828,169.012,124.117,168.257,124.117,168.257Z" transform="translate(-46.542 -51.16)"/><path class="g" d="M124.117,168.257V65.53L76.211,93.19,73.34,94.848V197.583l47.905-27.66C122.828,169.012,124.117,168.257,124.117,168.257Z" transform="translate(-46.542 -51.16)"/><path d="M124.817,81.753l8.738-5.045c.52-.3.942-.089.942.476a2.031,2.031,0,0,1-.942,1.569L124.817,83.8c-.52.3-.947.084-.947-.48A2.022,2.022,0,0,1,124.817,81.753Z" transform="translate(-74.613 -57.294)"/><path d="M158.629,68.57c.489-.28.889-.053.889.511a1.951,1.951,0,0,1-.889,1.533c-.489.284-.889.053-.889-.511a1.96,1.96,0,0,1,.889-1.533Z" transform="translate(-93.428 -52.783)"/><path d="M166.6,63.978c.489-.284.889-.053.889.511a1.96,1.96,0,0,1-.889,1.533c-.489.28-.889.053-.889-.511A1.951,1.951,0,0,1,166.6,63.978Z" transform="translate(-97.856 -50.23)"/><path d="M102.889,100.778c.489-.284.889-.053.889.511a1.96,1.96,0,0,1-.889,1.533c-.489.284-.889.053-.889-.511A1.951,1.951,0,0,1,102.889,100.778Z" transform="translate(-62.463 -70.674)"/><path d="M110.829,96.18c.489-.28.889-.053.889.511a1.951,1.951,0,0,1-.889,1.533c-.489.284-.889.053-.889-.511A1.965,1.965,0,0,1,110.829,96.18Z" transform="translate(-66.874 -68.121)"/><path class="j" d="M78.061,187.459a1.716,1.716,0,0,1-1.685-1.818V161.755a2.929,2.929,0,0,1,.413-1.445,2.876,2.876,0,0,1,1.036-1.067l17.308-9.978a2,2,0,0,1,.987-.276,1.631,1.631,0,0,1,1.538,1.044h0a2.587,2.587,0,0,1,.124.782v23.89a3.111,3.111,0,0,1-1.44,2.507l-17.294,9.97a2.737,2.737,0,0,1-.311.147,1.854,1.854,0,0,1-.676.129Z" transform="translate(-48.227 -97.525)"/><path class="a" d="M100.223,153.429a1.862,1.862,0,0,0-.84-1.458l-.689-.4a1.836,1.836,0,0,0-1.68,0l-17.3,9.987a1.858,1.858,0,0,0-.84,1.458v23.886a1.858,1.858,0,0,0,.84,1.458l.684.4a1.862,1.862,0,0,0,1.68,0l17.3-10a1.862,1.862,0,0,0,.84-1.453Z" transform="translate(-49.614 -98.848)"/><path class="k" d="M78.87,200.427a1.858,1.858,0,0,0,.84,1.458l.684.4a1.889,1.889,0,0,0,1.538.067c-.4.151-.7-.076-.7-.556V177.906a1.68,1.68,0,0,1,.249-.827l-2.369-1.369a1.752,1.752,0,0,0-.244.831Z" transform="translate(-49.614 -112.368)"/><path class="k" d="M100.507,153.223c-.1-.36-.444-.471-.813-.249l-17.308,9.978a1.68,1.68,0,0,0-.591.627l-2.365-1.365a1.68,1.68,0,0,1,.591-.627l17.3-9.978a1.862,1.862,0,0,1,1.68,0l.689.4A1.862,1.862,0,0,1,100.507,153.223Z" transform="translate(-49.925 -98.869)"/><path class="l" d="M131.991,156.314a1.716,1.716,0,0,1-1.685-1.818V130.61a2.929,2.929,0,0,1,.413-1.445,2.845,2.845,0,0,1,1.036-1.067l17.308-9.978a1.942,1.942,0,0,1,.982-.28,1.627,1.627,0,0,1,1.538,1.045h0a2.666,2.666,0,0,1,.124.782v23.886a3.111,3.111,0,0,1-1.44,2.507l-17.334,9.978a3.119,3.119,0,0,1-.307.147,1.862,1.862,0,0,1-.636.129Z" transform="translate(-78.186 -80.22)"/><g transform="translate(53.275 38.679)"><path class="a" d="M154.307,122.279a1.853,1.853,0,0,0-.845-1.458l-.684-.4a1.836,1.836,0,0,0-1.68,0l-17.3,9.974a1.853,1.853,0,0,0-.844,1.458v23.886a1.862,1.862,0,0,0,.844,1.458l.684.4a1.862,1.862,0,0,0,1.68,0l17.3-9.978a1.854,1.854,0,0,0,.844-1.458Z" transform="translate(-132.932 -120.222)"/><path class="k" d="M132.91,169.247a1.862,1.862,0,0,0,.844,1.458l.684.4a1.889,1.889,0,0,0,1.538.067c-.4.151-.7-.076-.7-.556V146.726a1.72,1.72,0,0,1,.244-.827l-2.365-1.369a1.778,1.778,0,0,0-.249.831Z" transform="translate(-132.91 -133.726)"/><path class="k" d="M154.547,122.044c-.1-.36-.422-.471-.809-.249l-17.308,9.978a1.644,1.644,0,0,0-.591.627l-2.369-1.365a1.724,1.724,0,0,1,.6-.627l17.3-9.978a1.876,1.876,0,0,1,1.685,0l.689.4A1.844,1.844,0,0,1,154.547,122.044Z" transform="translate(-133.221 -120.227)"/><g transform="translate(7.757 12.819)"><rect class="m" width="5.178" height="5.531" transform="translate(0 7.816)"/><g transform="translate(0 2.795)"><path class="n" d="M92,448.706a1.178,1.178,0,0,0,1.177,1.177H96a1.178,1.178,0,0,0,1.177-1.177V448H92Z" transform="translate(-92 -437.615)"/><path class="n" d="M95.765,96.783V95H93.412v1.783a4.848,4.848,0,0,0-.792.514,2.1,2.1,0,0,0-.62,1.5v1.412h5.178V98.795a2.1,2.1,0,0,0-.62-1.5A4.657,4.657,0,0,0,95.765,96.783Z" transform="translate(-92 -95)"/></g><g transform="translate(0 2.795)"><path class="o" d="M93.326,97.3a4.847,4.847,0,0,1,.792-.514V95h-.706v1.783a4.848,4.848,0,0,0-.792.514,2.1,2.1,0,0,0-.62,1.5v1.412h.706V98.795A2.1,2.1,0,0,1,93.326,97.3Z" transform="translate(-92 -95)"/><path class="o" d="M92,448.706a1.178,1.178,0,0,0,1.177,1.177h0a1.175,1.175,0,0,1-.472-.941V448H92Z" transform="translate(-92 -437.615)"/></g><rect class="p" width="0.419" height="5.45" transform="translate(0.094 7.857)"/><path class="q" d="M97.178,312.706h-.955a2.243,2.243,0,0,0-3.267,0H92v1.412h.955a2.242,2.242,0,0,0,3.267,0h.955Z" transform="translate(-92 -302.822)"/><rect class="r" width="0.713" height="1.412" transform="translate(0 9.884)"/><path class="q" d="M127.059,0h-2.824A.235.235,0,0,0,124,.235V1.647a.235.235,0,0,0,.13.211l.341.17V4h2.353V2.028l.341-.17a.235.235,0,0,0,.13-.21V.235A.235.235,0,0,0,127.059,0Z" transform="translate(-123.059)"/><g transform="translate(0.941)"><path class="r" d="M124.836,1.858a.235.235,0,0,1-.13-.21V.235A.235.235,0,0,1,124.941,0h-.706A.235.235,0,0,0,124,.235V1.647a.235.235,0,0,0,.13.211l.341.17V4h.706V2.028Z" transform="translate(-124)"/><rect class="r" width="2.353" height="0.325" transform="translate(0.471 2.028)"/></g><path class="s" d="M233.542,248.171a.235.235,0,0,0-.226-.171h-4.983a.235.235,0,0,0-.226.171,2.824,2.824,0,1,0,5.436,0Z" transform="translate(-223.999 -240.704)"/><path class="t" d="M246.353,266.824A2.356,2.356,0,0,1,244.047,264h4.613a2.355,2.355,0,0,1-2.306,2.824Z" transform="translate(-239.528 -256.234)"/><path class="u" d="M244.471,264.471a2.364,2.364,0,0,1,.047-.471h-.471a2.356,2.356,0,0,0,2.306,2.824q.119,0,.235-.012A2.357,2.357,0,0,1,244.471,264.471Z" transform="translate(-239.528 -256.234)"/><g transform="translate(5.413 10.826)"><path class="s" d="M316.235,371.53a.235.235,0,0,1-.235-.235v-3.059a.235.235,0,1,1,.471,0v3.059A.235.235,0,0,1,316.235,371.53Z" transform="translate(-314.823 -368)"/><path class="s" d="M278.709,472.739l-1.177-.706a.235.235,0,0,0-.242,0l-1.177.706a.235.235,0,0,0,.121.437h2.353a.235.235,0,0,0,.121-.437Z" transform="translate(-275.999 -468.94)"/></g><circle class="v" cx="0.419" cy="0.419" r="0.419" transform="translate(7.222 9.115)"/></g></g><path class="w" d="M78.061,260.914a1.716,1.716,0,0,1-1.685-1.813V235.205a2.938,2.938,0,0,1,.413-1.445,2.876,2.876,0,0,1,1.036-1.067l17.308-9.978a2,2,0,0,1,.987-.276,1.631,1.631,0,0,1,1.538,1.045h0a2.587,2.587,0,0,1,.124.782v23.891a3.111,3.111,0,0,1-1.44,2.507l-17.294,9.97a2.738,2.738,0,0,1-.311.147A1.852,1.852,0,0,1,78.061,260.914Z" transform="translate(-48.227 -138.328)"/><g transform="translate(29.256 85.175)"><path class="a" d="M100.223,226.885a1.862,1.862,0,0,0-.84-1.453l-.689-.4a1.835,1.835,0,0,0-1.68,0l-17.3,9.974a1.849,1.849,0,0,0-.84,1.453v23.886a1.858,1.858,0,0,0,.84,1.449l.684.4a1.862,1.862,0,0,0,1.68,0l17.3-9.965a1.862,1.862,0,0,0,.84-1.458Z" transform="translate(-78.87 -224.832)"/><path class="k" d="M78.87,273.857a1.858,1.858,0,0,0,.84,1.444l.684.4a1.889,1.889,0,0,0,1.538.067c-.4.151-.7-.076-.7-.556V251.336a1.68,1.68,0,0,1,.249-.827l-2.369-1.369a1.751,1.751,0,0,0-.244.831Z" transform="translate(-78.87 -238.336)"/><path class="k" d="M100.507,226.653c-.1-.36-.444-.471-.813-.249l-17.308,9.978a1.68,1.68,0,0,0-.591.627l-2.365-1.365a1.68,1.68,0,0,1,.591-.627l17.3-9.978a1.862,1.862,0,0,1,1.68,0l.689.4A1.862,1.862,0,0,1,100.507,226.653Z" transform="translate(-79.181 -224.836)"/></g><path class="l" d="M131.991,229.649a1.716,1.716,0,0,1-1.685-1.818V203.945a2.929,2.929,0,0,1,.413-1.445,2.845,2.845,0,0,1,1.036-1.067l17.308-9.978a1.938,1.938,0,0,1,.982-.276,1.627,1.627,0,0,1,1.538,1.04h0a2.734,2.734,0,0,1,.124.782v23.877a3.111,3.111,0,0,1-1.44,2.507l-17.334,9.978a3.234,3.234,0,0,1-.307.151A1.955,1.955,0,0,1,131.991,229.649Z" transform="translate(-78.186 -120.962)"/><g transform="translate(53.275 71.317)"><path class="a" d="M154.307,195.7a1.853,1.853,0,0,0-.844-1.453l-.684-.4a1.836,1.836,0,0,0-1.68,0l-17.3,9.974a1.853,1.853,0,0,0-.844,1.458v23.886a1.867,1.867,0,0,0,.844,1.458l.684.4a1.862,1.862,0,0,0,1.68,0l17.3-9.978a1.853,1.853,0,0,0,.844-1.462Z" transform="translate(-132.932 -193.652)"/><path class="k" d="M132.91,242.7a1.867,1.867,0,0,0,.845,1.458l.684.4a1.889,1.889,0,0,0,1.538.067c-.4.147-.7-.076-.7-.556V220.178a1.72,1.72,0,0,1,.244-.827L133.159,218a1.742,1.742,0,0,0-.249.831Z" transform="translate(-132.91 -207.178)"/><path class="k" d="M154.547,195.49c-.1-.36-.422-.471-.809-.249L136.43,205.22a1.645,1.645,0,0,0-.591.609L133.47,204.5a1.738,1.738,0,0,1,.6-.631l17.3-9.974a1.876,1.876,0,0,1,1.685,0l.689.4A1.844,1.844,0,0,1,154.547,195.49Z" transform="translate(-133.221 -193.674)"/></g><g transform="translate(59.378 85.101)"><g transform="translate(0 0)"><g transform="translate(2.545 0)"><g transform="translate(2.545)"><path class="x" d="M237.531,136.979h-.245V136h-4.307v.979h-.245a.734.734,0,0,0-.734.734v5.922a.979.979,0,0,0,.979.979h4.307a.979.979,0,0,0,.979-.979v-5.922A.734.734,0,0,0,237.531,136.979Z" transform="translate(-232 -133.259)"/><path class="y" d="M232,248h6.265v4.7H232Z" transform="translate(-232 -242.518)"/><path class="z" d="M296,288h3.72v1.762H296Z" transform="translate(-294.434 -281.539)"/><g transform="translate(0.392)"><path class="y" d="M248.489,24h4.5a.489.489,0,0,1,.489.489V26.5a.245.245,0,0,1-.245.245h-4.993A.245.245,0,0,1,248,26.5V24.489A.489.489,0,0,1,248.489,24Z" transform="translate(-248 -24)"/><g transform="translate(0.587 0.587)"><path class="z" d="M272,48h.392v1.566H272Z" transform="translate(-272 -48)"/><path class="z" d="M304,48h.392v1.566H304Z" transform="translate(-303.217 -48)"/><path class="z" d="M336,48h.392v1.566H336Z" transform="translate(-334.434 -48)"/><path class="z" d="M368,48h.392v1.566H368Z" transform="translate(-365.651 -48)"/><path class="z" d="M400,48h.392v1.566H400Z" transform="translate(-396.867 -48)"/><path class="z" d="M432,48h.392v1.566H432Z" transform="translate(-428.084 -48)"/></g></g><g transform="translate(1.566 9.006)"><path class="aa" d="M296,392h1.175v.392H296Z" transform="translate(-296 -392)"/><path class="aa" d="M360,392h2.349v.392H360Z" transform="translate(-358.434 -392)"/></g></g><path class="ab" d="M128.979,112l.346.633.633.346-.633.346-.346.633-.346-.633-.633-.346.633-.346Z" transform="translate(-128 -109.846)"/></g><g transform="translate(2.63 5.042)"><rect class="ac" width="3.507" height="6.357" rx="1.754" transform="translate(0 0)"/><path class="aa" d="M184,352h2.154v.783h-1.762Z" transform="translate(-182.715 -349.014)"/></g><path class="ab" d="M42.786,69.9l-.242.443-.443.242.443.242.242.443.242-.443.443-.242-.443-.242Z" transform="translate(-41.658 -68.776)"/><g transform="translate(0 7.014)"><circle class="z" cx="2.192" cy="2.192" r="2.192" transform="translate(0 0)"/><path class="ad" d="M39.492,328.046l3,3a2.165,2.165,0,0,0,.554-.554l-3-3A2.166,2.166,0,0,0,39.492,328.046Z" transform="translate(-39.113 -327.079)"/></g></g></g><path class="ae" d="M99.541,300.423a1.711,1.711,0,0,1-1.685-1.8v-9.245a3.085,3.085,0,0,1,1.449-2.511l26.9-15.472a1.961,1.961,0,0,1,.987-.28,1.627,1.627,0,0,1,1.533,1.045h.022a2.707,2.707,0,0,1,.124.782v9.236a3.085,3.085,0,0,1-1.44,2.507l-26.908,15.477a3.107,3.107,0,0,1-.307.147,1.853,1.853,0,0,1-.676.12Z" transform="translate(-60.16 -165.365)"/><g transform="translate(38.799 106.811)"><path class="e" d="M131.319,275.563a1.862,1.862,0,0,0-.844-1.458l-.684-.4a1.862,1.862,0,0,0-1.68,0l-26.9,15.472a1.862,1.862,0,0,0-.844,1.458v9.232a1.862,1.862,0,0,0,.845,1.458l.684.4a1.863,1.863,0,0,0,1.68,0l26.9-15.472a1.867,1.867,0,0,0,.84-1.458Z" transform="translate(-100.357 -273.51)"/><path class="af" d="M131.319,275.563a1.862,1.862,0,0,0-.844-1.458l-.684-.4a1.862,1.862,0,0,0-1.68,0l-26.9,15.472a1.862,1.862,0,0,0-.844,1.458v9.232a1.862,1.862,0,0,0,.845,1.458l.684.4a1.863,1.863,0,0,0,1.68,0l26.9-15.472a1.867,1.867,0,0,0,.84-1.458Z" transform="translate(-100.357 -273.51)"/><path class="ag" d="M100.34,320.248a1.862,1.862,0,0,0,.844,1.458l.684.4a1.889,1.889,0,0,0,1.538.067c-.4.151-.7-.076-.7-.556v-9.227a1.724,1.724,0,0,1,.244-.831l-2.365-1.365a1.729,1.729,0,0,0-.249.827Z" transform="translate(-100.34 -293.886)"/><path class="f" d="M131.573,275.345c-.1-.356-.444-.471-.813-.245l-26.9,15.472a1.645,1.645,0,0,0-.591.627l-2.369-1.364a1.725,1.725,0,0,1,.6-.627l26.9-15.459a1.863,1.863,0,0,1,1.68,0l.689.4A1.867,1.867,0,0,1,131.573,275.345Z" transform="translate(-100.651 -273.532)"/></g><path class="ah" d="M111.4,319.764a.076.076,0,0,1-.1,0,.169.169,0,0,1-.044-.133v-5.28a.391.391,0,0,1,.044-.178.266.266,0,0,1,.1-.124l1.711-.987a1.16,1.16,0,0,1,.6-.191.538.538,0,0,1,.391.164.916.916,0,0,1,.209.444,2.347,2.347,0,0,1,.067.569,2.576,2.576,0,0,1-.036.444,2.22,2.22,0,0,1-.084.347,1.564,1.564,0,0,1-.1.262,1.447,1.447,0,0,1-.08.164.569.569,0,0,1,.289.347,2.125,2.125,0,0,1,.08.649,3.713,3.713,0,0,1-.062.689,3.083,3.083,0,0,1-.209.689,2.7,2.7,0,0,1-.378.622,2.088,2.088,0,0,1-.573.48Zm1.987-5.129a.373.373,0,0,0-.084-.289c-.053-.053-.133-.049-.24,0l-.822.476v.933l.822-.476a.582.582,0,0,0,.24-.267A.853.853,0,0,0,113.388,314.635Zm-1.147,3.383.889-.507a.649.649,0,0,0,.253-.289.973.973,0,0,0,.1-.413.4.4,0,0,0-.1-.3q-.093-.087-.253,0l-.889.507Z" transform="translate(-67.606 -188.564)"/><path class="ah" d="M122.753,306.828a.076.076,0,0,1,.1,0,.174.174,0,0,1,.044.133v3.258a4.8,4.8,0,0,1-.116,1.062,4.172,4.172,0,0,1-.333.92,3.253,3.253,0,0,1-.511.738,2.8,2.8,0,0,1-.653.529,1.626,1.626,0,0,1-.658.231.711.711,0,0,1-.507-.151,1.084,1.084,0,0,1-.329-.538,3.04,3.04,0,0,1-.12-.929v-3.258a.444.444,0,0,1,.044-.182.293.293,0,0,1,.1-.124l.693-.4a.08.08,0,0,1,.1,0,.178.178,0,0,1,.04.129v3.227a1.089,1.089,0,0,0,.156.676c.107.124.262.129.476,0a1.1,1.1,0,0,0,.476-.551,2.223,2.223,0,0,0,.156-.858v-3.227a.378.378,0,0,1,.044-.178.267.267,0,0,1,.1-.124Z" transform="translate(-72.278 -185.198)"/><path class="ah" d="M130.118,307.9a.445.445,0,0,1-.04.178.245.245,0,0,1-.1.125l-.693.4a.08.08,0,0,1-.1,0,.182.182,0,0,1-.04-.133v-1.72l-1.227-2.765a.2.2,0,0,1,0-.093.356.356,0,0,1,.036-.147.2.2,0,0,1,.08-.1l.729-.445c.071-.04.124-.044.16,0a.262.262,0,0,1,.062.084l.667,1.622.676-2.4a1.073,1.073,0,0,1,.062-.16.378.378,0,0,1,.16-.173l.729-.418a.062.062,0,0,1,.08,0,.147.147,0,0,1,.036.107.5.5,0,0,1-.022.12l-1.227,4.178Z" transform="translate(-76.856 -182.385)"/><path class="ah" d="M141.323,301.918q-.093.053-.147,0a.263.263,0,0,1-.071-.076l-1.213-2.089v2.76a.391.391,0,0,1-.044.178.289.289,0,0,1-.1.124l-.7.4a.079.079,0,0,1-.1,0,.164.164,0,0,1-.044-.129v-5.271a.378.378,0,0,1,.044-.178.24.24,0,0,1,.1-.124l.551-.32c.062-.031.111-.036.147,0a.261.261,0,0,1,.071.071l1.213,2.093V296.6a.445.445,0,0,1,.044-.182.253.253,0,0,1,.1-.12l.693-.4a.076.076,0,0,1,.1,0,.178.178,0,0,1,.04.129V301.3a.444.444,0,0,1-.04.182.28.28,0,0,1-.1.12Z" transform="translate(-82.967 -179.123)"/><path class="ah" d="M147.289,295.461a4.579,4.579,0,0,1,.129-.938,4.083,4.083,0,0,1,.324-.889,3.9,3.9,0,0,1,.507-.769,2.668,2.668,0,0,1,.693-.573,1.4,1.4,0,0,1,.689-.222.747.747,0,0,1,.511.178,1.085,1.085,0,0,1,.324.516,2.9,2.9,0,0,1,.133.787c0,.231,0,.471,0,.729V295a4.917,4.917,0,0,1-.133.938,4.208,4.208,0,0,1-.324.889,3.457,3.457,0,0,1-.511.769,2.818,2.818,0,0,1-.7.573,1.436,1.436,0,0,1-.693.227.751.751,0,0,1-.507-.178,1.173,1.173,0,0,1-.324-.52,2.749,2.749,0,0,1-.129-.787c0-.218,0-.444,0-.716S147.28,295.7,147.289,295.461Zm2.329.067v-1.373a1.481,1.481,0,0,0-.058-.342.529.529,0,0,0-.124-.222.315.315,0,0,0-.2-.084.6.6,0,0,0-.289.093,1.05,1.05,0,0,0-.284.24,1.239,1.239,0,0,0-.2.316,1.682,1.682,0,0,0-.129.373,2.017,2.017,0,0,0-.053.4v1.374a.911.911,0,0,0,.182.573c.107.116.271.111.489,0a1.16,1.16,0,0,0,.489-.551,2.293,2.293,0,0,0,.187-.8Z" transform="translate(-87.617 -177.009)"/><path class="ah" d="M158.318,288.613l.342-2.956a.529.529,0,0,1,.062-.209.387.387,0,0,1,.1-.107l.7-.4a.062.062,0,0,1,.08,0,.129.129,0,0,1,.036.107.436.436,0,0,1,0,.071l-.684,5.556a.73.73,0,0,1-.084.258.445.445,0,0,1-.182.2l-.444.253c-.071.04-.129.04-.169,0a.267.267,0,0,1-.093-.156l-.4-1.618-.4,2.076a1.061,1.061,0,0,1-.093.267.445.445,0,0,1-.173.2l-.444.258a.16.16,0,0,1-.182,0,.231.231,0,0,1-.084-.164l-.684-4.765a.339.339,0,0,1,0-.062.356.356,0,0,1,.036-.147.241.241,0,0,1,.08-.1l.7-.4a.111.111,0,0,1,.1,0c.036,0,.053.058.067.133l.338,2.565.311-1.658a.818.818,0,0,1,.049-.173.32.32,0,0,1,.133-.169l.5-.284q.093-.058.133,0a.445.445,0,0,1,.049.12Z" transform="translate(-92.193 -173.041)"/><g transform="translate(117.574 116.19)"><path class="ai" d="M282.027,316.619a11.233,11.233,0,0,0-2.173-.6,1.39,1.39,0,0,0-1.293.889,3.567,3.567,0,0,0,2.4.947A1.02,1.02,0,0,0,282.027,316.619Z" transform="translate(-278.121 -306.503)"/><path class="ai" d="M310.385,302.5c1.022-3.254,1-5.423.289-6.667-.476-.836-1.956-1.169-2.582-1.222s-.845.444-.271,1,.364,1.093.053,1.778a14.913,14.913,0,0,1-1.333,2.222Z" transform="translate(-293.664 -294.611)"/><path class="aj" d="M281.393,310.532a4.974,4.974,0,0,1-.987.1,3.555,3.555,0,0,1-1.609-.507,1.991,1.991,0,0,1-.769-.929,2.4,2.4,0,0,1-.071-.942,2.566,2.566,0,0,1,.107-.756,2.867,2.867,0,0,1,1.369-1.453c1.293-.782,2.667-.1,4.578.231,1.449.249,4.231-2.045,7.636-.818,3.316,1.2,3.356,4.76,4.022,7.618,1.089,4.663,1.925,3.5,4.68,8.178,2.222,3.765,2.991,3.111,5.48,6.783a33.631,33.631,0,0,1,4.889,9.045c1.538,4.938-.32,8.569-3.511,10.432a11.634,11.634,0,0,1-8.276,1.929,9.122,9.122,0,0,1-4.369-1.591c-1.778,1.018-5.547-1.725-6.88-2.747-2.493-1.911-1.1-3.622,1.1-3.111a12.091,12.091,0,0,1,2.556.889,26.487,26.487,0,0,1-1.867-4.938c-.484-2.067-.2-3.809.587-4.254a14.736,14.736,0,0,1-1.022-1.16c-.16,1.849-.8,7.316-.929,7.743a2.35,2.35,0,0,1-2.391,1.378c-1.058-.289-3.276-1.28-3.6-2.222-.444-1.271.831-1.467,3.018-.889v-.049c-.062-2.316-.293-5.685-.32-8,0-1.382-.031-3.067-.116-4.187h0a21.984,21.984,0,0,1-.08-2.222c.04-1.871.267-3.907.249-4.792a5.173,5.173,0,0,0-1.218-3.756,17.948,17.948,0,0,0-3.449-2.16,8.167,8.167,0,0,1-1.2-.862c-.347-.316-1.036-1.129-.787-1.649a2.991,2.991,0,0,0,2.036.444,2.324,2.324,0,0,0,1.2-.56c.031-.031.067-.067.058-.111a.107.107,0,0,0-.12-.1Z" transform="translate(-277.776 -300.434)"/><path class="ak" d="M342.861,394.038a1.618,1.618,0,0,0-.507,1.7s.938,1.511,5.334,2c4.187.467,8.272-1.333,11.881,0s2.111,4.076,2.489,4.8,1.409.222,1.409-1.933a4.895,4.895,0,0,0-4.058-4.734c-2.609-.622-6.3-.124-9.778-.067-3.556.058-4.414-1.391-4.978-1.973C343.986,393.158,343.332,393.593,342.861,394.038Z" transform="translate(-313.522 -349.538)"/><path class="ai" d="M279.513,307.077l.044-.053c.058-.076.084-.164.147-.236a.783.783,0,0,1,.373-.173c.2-.058.391-.16.316-.4a.222.222,0,0,0-.142-.124,1.734,1.734,0,0,0-.671-.2,1.712,1.712,0,0,0-.8.253,2.9,2.9,0,0,0-1.178,1.1c-.129.262.2,1.062.2,1.062a.8.8,0,0,1,.067-.364c.156-.445.889-.542,1.3-.671A.933.933,0,0,0,279.513,307.077Z" transform="translate(-277.572 -300.877)"/><path class="ak" d="M298.709,325.547l-.951.627s-1.867,2.182-6.04,2.369a32.71,32.71,0,0,1-4.489-.049.658.658,0,0,1,.182-.324c.853-.947,1.1-3.365,0-4.151s-3.4.116-5.4-1.018l.444.289a18.06,18.06,0,0,1,3.449,2.16,4.512,4.512,0,0,1,1.178,3.031h-.093a.888.888,0,0,0,.116.342v.391c0,.231,0,.525-.031.889l.933.142a14.761,14.761,0,0,0,11.6-3.156A6.6,6.6,0,0,1,298.709,325.547Z" transform="translate(-280.037 -310.382)"/><path class="ai" d="M295.862,305.508c-.671.658-1.6,1.5-2.3,2.307-.6.68-1.053.178-1.551-2.96-.444-2.689-.671-3.111-1.138-3.271-.351-.116-.965-.04-1.08-.293-.213-.48.529-1.387,2.267-1.671C294.7,299.183,296.916,304.481,295.862,305.508Z" transform="translate(-284.343 -297.379)"/><path class="e" d="M304.02,325.664c.089.276.129.422.129.422s-1.267,1.8-5.556,2.667-5.849.218-5.849.218a4.574,4.574,0,0,0-.164-.618s-.218.164-.133,1.165c.058.72.156,1.027.542,1.116a15.789,15.789,0,0,0,5.991-.28,12.82,12.82,0,0,0,5.778-2.56c.333-.338.218-.622-.093-1.356S304.193,325.611,304.02,325.664Z" transform="translate(-285.824 -311.855)"/><path class="ak" d="M304.25,367.795c1.253-.729,4.187-.116,6.832,3.142a4.754,4.754,0,0,0-2.609-3.511c-2.5-1.449-4.311-.96-4.983-.48Z" transform="translate(-291.97 -334.526)"/><path class="ak" d="M306.24,389.27c.516.2.831.36.831.36.662,1.333,1.538,2.827,1.538,2.827A10.576,10.576,0,0,1,306.24,389.27Z" transform="translate(-293.498 -347.197)"/><path class="ak" d="M298.5,388.13a2.146,2.146,0,0,1,.511-.16,2.048,2.048,0,0,1,.444.182,2.171,2.171,0,0,1,.387.276c.049.04.307.289.222.351s-.058,0-.08,0a3.946,3.946,0,0,0-1.076-.542A3.388,3.388,0,0,0,298.5,388.13Z" transform="translate(-289.198 -346.474)"/><path class="ak" d="M297.08,389.442a.917.917,0,0,1,.151-.262c.631.111,1.333.316,1.476.889,0,0,0,.093-.04.071a4.564,4.564,0,0,0-.818-.476,3.472,3.472,0,0,0-.769-.222Z" transform="translate(-288.409 -347.147)"/><path class="ak" d="M287.66,379.944a1.1,1.1,0,0,1,.489-.2h.1a1.368,1.368,0,0,1,.693.369v.053a3.115,3.115,0,0,0-1-.231,1.729,1.729,0,0,0-.276.013Z" transform="translate(-283.176 -341.903)"/><path class="ak" d="M287.16,380.812a.659.659,0,0,1,.089-.262,1.763,1.763,0,0,1,.222.035c.231.058.529.164.582.444,0,0,0,.049-.022.04a4.959,4.959,0,0,0-.671-.227A.625.625,0,0,0,287.16,380.812Z" transform="translate(-282.898 -342.352)"/></g><g transform="translate(66.808 44.458)"><path class="al" d="M256.43,189.941c3.285-.222,5.378.213,7,4a140.17,140.17,0,0,1,5.423,16.743,4.042,4.042,0,0,1-1.049,4.134c-2.938,3.356-6.8,7.272-6.8,7.272l-2.1-7.347,2.556-3.76-3.08-8.338Z" transform="translate(-215.062 -164.705)"/><path class="am" d="M267.26,237.34a15.437,15.437,0,0,0,1.778,2.48,4.1,4.1,0,0,1-2.178-1.876Z" transform="translate(-220.856 -191.063)"/><path class="ak" d="M191.1,416.64a3.209,3.209,0,0,0-.04,1.72,4.92,4.92,0,0,0,3.3,1.9,25.646,25.646,0,0,0,6.223-.076,56.846,56.846,0,0,1,6.4.569,5.08,5.08,0,0,0,4.187-.889,1.333,1.333,0,0,0,.293-1.031,5.114,5.114,0,0,0-.209-1.391Z" transform="translate(-178.691 -290.669)"/><path class="e" d="M211.065,409.047c.04.164.076.324.107.489a8.271,8.271,0,0,1,.182,2.538,2.311,2.311,0,0,1-1.5,1.133,7.8,7.8,0,0,1-4.223.084,29.989,29.989,0,0,0-4.951-.307,30.762,30.762,0,0,1-4.334.218,10.486,10.486,0,0,1-3.187-.649c-.858-.369-1.729-.84-1.938-1.72a2.813,2.813,0,0,1,1.409-3.191,8.2,8.2,0,0,1,3.462-.569c1.209-.08,2.089-.08,3.165-.164a15.16,15.16,0,0,0,2.729-.52c.809-.258,1.68-1.151,2.027-1.191,0,0,5.383-.04,5.9,0,.591.049.773,1.893.849,2.294.058.311.067.649.151.951C210.963,408.656,211.016,408.842,211.065,409.047Z" transform="translate(-178.808 -284.302)"/><g class="an" transform="translate(12.362 120.878)"><path d="M211.065,409.047c.04.164.076.324.107.489a8.271,8.271,0,0,1,.182,2.538,2.311,2.311,0,0,1-1.5,1.133,7.8,7.8,0,0,1-4.223.084,29.989,29.989,0,0,0-4.951-.307,30.762,30.762,0,0,1-4.334.218,10.486,10.486,0,0,1-3.187-.649c-.858-.369-1.729-.84-1.938-1.72a2.813,2.813,0,0,1,1.409-3.191,8.2,8.2,0,0,1,3.462-.569c1.209-.08,2.089-.08,3.165-.164a15.16,15.16,0,0,0,2.729-.52c.809-.258,1.68-1.151,2.027-1.191,0,0,5.383-.04,5.9,0,.591.049.773,1.893.849,2.294.058.311.067.649.151.951C210.963,408.656,211.016,408.842,211.065,409.047Z" transform="translate(-191.171 -405.18)"/></g><path class="ah" d="M194.225,414.985c-.169-1.333-.391-4.236,2.067-5.907h.316a6.116,6.116,0,0,0-3.4,0,2.964,2.964,0,0,0-2.351,3.8C190.842,412.86,191.287,414.487,194.225,414.985Z" transform="translate(-178.556 -286.333)"/><path class="al" d="M226.885,348.449c-.173,3.076-3.036,24.059-3.285,25.184-.151.671-1,1.387-3.209,1.311-1.551-.049-2.774.08-2.711-1.138l-1.56-26.646Z" transform="translate(-192.668 -252.071)"/><path class="ak" d="M241.384,378a5.95,5.95,0,0,0,.182,2.836,6.454,6.454,0,0,0,2.413,2.765,20.092,20.092,0,0,1,2,2.311,11.5,11.5,0,0,0,1.867,2.222,4.315,4.315,0,0,0,3.6.507c.889-.373,1.182-.671,1.129-2.018s-4.351-1.809-4.351-1.809Z" transform="translate(-206.656 -269.203)"/><path class="e" d="M252.329,380.617c.364.129.444.8.511,2.116.044,1,.484,2.458-.96,3.089a3.671,3.671,0,0,1-3.822-.773,47.277,47.277,0,0,0-3.049-3.64c-1.218-1.245-2.489-1.662-3.027-4.147-.351-1.6-.076-2.262,1.053-2.72,1.556-.631,4,1.431,5.218,1.751C249.3,376.572,251.96,380.483,252.329,380.617Z" transform="translate(-206.956 -267.215)"/><path class="ao" d="M252.329,380.617c.364.129.444.8.511,2.116.044,1,.484,2.458-.96,3.089a3.671,3.671,0,0,1-3.822-.773,47.277,47.277,0,0,0-3.049-3.64c-1.218-1.245-2.489-1.662-3.027-4.147-.351-1.6-.076-2.262,1.053-2.72,1.556-.631,4,1.431,5.218,1.751C249.3,376.572,251.96,380.483,252.329,380.617Z" transform="translate(-206.956 -267.215)"/><path class="al" d="M257.22,335.18c.2,8.418-1.12,16.89-1.733,24.153-.107.716-3.694,2.182-4.889.093-.071-.156-3.347-23.855-3.347-23.855Z" transform="translate(-209.962 -245.416)"/><path class="ah" d="M242.466,378.84s.12-2.867,4.138-3.347l-.071-.507a3.453,3.453,0,0,0-1.569-.889,2.961,2.961,0,0,0-3.231.889C241,375.875,241.741,378.267,242.466,378.84Z" transform="translate(-206.729 -266.958)"/><path class="ak" d="M239.042,283.447s-.231-5.894-.089-12.232c.089-3.978.169-6.258,0-9.041a63.646,63.646,0,0,0-1.116-9.258s-22.05-4.2-22.317,3.711c-.325,9.485-.631,28.3-.653,30.775s.133,4.138.387,9.414A22.178,22.178,0,0,0,226.5,296.1c.1-2.667.16-4.174.16-4.174l1.085-16.988s.28,3.325.471,6.8.133,4.32.671,10.738c2.222,1.027,8.774.96,10.534-.973A69.714,69.714,0,0,0,239.042,283.447Z" transform="translate(-191.971 -199.096)"/><path class="ai" d="M214.629,302.42a39.783,39.783,0,0,0,8.276.547s-.071,11.152-.644,12.614-7.2,1.222-8,0C214.269,309.62,214.629,302.42,214.629,302.42Z" transform="translate(-191.635 -227.217)"/><path class="ai" d="M251.923,279s-2.876,3.951-6.343,5.431l-1.3,11.556-.422-5.778.8-6.987A38.3,38.3,0,0,0,251.923,279Z" transform="translate(-208.079 -214.206)"/><path class="al" d="M236.28,181.28l.049,7.227,7.3-.076.12-8.392Z" transform="translate(-203.868 -159.231)"/><path class="e" d="M239.835,193.627a5.6,5.6,0,0,0-5.307-3.667h-2.111c-.3,1.218-4.2,1.778-7.387,1.036-.96.253-4.707.951-5.507,1.218-2.289.76-2.751,3.085-3.111,10.552,0,0-.6,12.392-.369,21.695,4,2.125,10.6,2.093,15.023,1.645,6.952-.7,8.3-3.24,8.3-3.24a76.708,76.708,0,0,1-.307-9.667c.084-3.036.96-6.254,1.231-9.7C240.688,198.361,240.244,194.978,239.835,193.627Z" transform="translate(-192.595 -164.742)"/><path class="ag" d="M239.835,193.627a5.6,5.6,0,0,0-5.307-3.667h-2.111c-.3,1.218-4.2,1.778-7.387,1.036-.96.253-4.707.951-5.507,1.218-2.289.76-2.751,3.085-3.111,10.552,0,0-.6,12.392-.369,21.695,4,2.125,10.6,2.093,15.023,1.645,6.952-.7,8.3-3.24,8.3-3.24a76.708,76.708,0,0,1-.307-9.667c.084-3.036.96-6.254,1.231-9.7C240.688,198.361,240.244,194.978,239.835,193.627Z" transform="translate(-192.595 -164.742)"/><path class="am" d="M221.791,162s-1.938,2.925-1.756,3.187,1.7.444,1.7.444Z" transform="translate(-194.836 -149.21)"/><path class="al" d="M229.095,140.746c-3.476.582-4.76,2.667-5.271,8.712a53.776,53.776,0,0,0-.027,5.845c.222,2.636.716,3.3,1.245,3.889s3.72.769,5.16.444c1.8-.418,5.885-1.676,7.889-4.476,2.36-3.3,2.667-7.414.836-9.845C234.686,139.608,230.517,140.492,229.095,140.746Z" transform="translate(-196.896 -137.289)"/><path class="am" d="M226.68,182.1c.4.444,2.782.68,4.271.564v-.858A11.112,11.112,0,0,1,226.68,182.1Z" transform="translate(-198.535 -160.215)"/><path class="ai" d="M226.264,142.014a3.142,3.142,0,0,0,1.969,3.351,4.271,4.271,0,0,0-.316,1.538,1.289,1.289,0,0,0,.133.756.484.484,0,0,0,.889.022,6.477,6.477,0,0,1,.778-1.222,2.365,2.365,0,0,1,1.511-.76c2.173-.147,2.329,2.7,1.413,3.836-1.5,1.862-2.667.511-2.667.511s-.373,2.347,2.1,4.676a3.68,3.68,0,0,0,1.947.7,4.529,4.529,0,0,0,2.347-.169c1.213-1.969,3.791-5.263,4.711-7,.889-1.671,1.925-3.614,1.476-5.56a3.2,3.2,0,0,0-1.453-2.062,4.241,4.241,0,0,0,.444-1.747,1.609,1.609,0,0,0-2.178-1.507,1.907,1.907,0,0,0-3.045-2.031,1.845,1.845,0,0,0-3.582-.831,2.529,2.529,0,0,0-4.445.378,3.622,3.622,0,0,0-2.485-.538,2.573,2.573,0,0,0-1.965,1.52,2.009,2.009,0,0,0,.622,2.325c-.8.044-1.413,1.1-1.418,1.9C223.063,140.711,223.472,142.765,226.264,142.014Z" transform="translate(-196.518 -133.224)"/><path class="al" d="M165.354,192.2c.56,1.053,6.756,12.392,8.556,14.108,1.285,1.222,3.267,2.053,5.334.289,3.831-3.289,9.778-8.476,9.778-8.476,4.569-3.618,5.2-10.2,3.111-12.312-1.076.058-4.365.3-6.494,2.791-4.365,5.094-9.018,10.325-9.018,10.325-1.142-1.511-2.16-2.7-3.391-4.418-.982-1.373-2.516-2.809-2.578-4.6a15.587,15.587,0,0,1,.444-2.778c.187-1.191.351-2.369.547-3.556a.951.951,0,0,0-.062-.7.711.711,0,0,0-.969-.031,2.538,2.538,0,0,0-.68,1c-.182.409-.369.813-.556,1.218-.084.191-.213.409-.422.413-.658,0-.765-1.387-.933-1.818a7.212,7.212,0,0,1-.324-1.751c-.1-.711-.191-1.422-.284-2.129-.027-.2-.076-.444-.262-.538s-.5.08-.658.28a2.787,2.787,0,0,0-.533,1.107c-.218.942.053,2.009-.445,2.849a5.529,5.529,0,0,1-.72.862,9.817,9.817,0,0,0-.849,1.16,2.366,2.366,0,0,0-.516,2.058A21.535,21.535,0,0,0,165.354,192.2Z" transform="translate(-163.357 -158.777)"/><path class="am" d="M190.814,222.555a11.293,11.293,0,0,0-1.858,3.818,8.409,8.409,0,0,1,1.24-4.623Z" transform="translate(-177.577 -182.402)"/></g><g transform="translate(35.416 65.977)"><path class="ap" d="M38,27H48.2v1.664H38Zm0,0" transform="translate(-37.111 -26.369)"/><path class="aq" d="M256,27h5.1v1.664H256Zm0,0" transform="translate(-250.013 -26.369)"/><path class="ar" d="M27.262,164.16h10.7v8.135h-10.7Zm0,0" transform="translate(-26.624 -160.321)"/><path class="as" d="M256,164.16h5.349v8.135H256Zm0,0" transform="translate(-250.013 -160.321)"/><path class="at" d="M0,91.7H11.974v2.392H0Zm0,0" transform="translate(0 -89.555)"/><path class="ap" d="M86.75,251.87h3.508V246H86.75Zm0,0" transform="translate(-84.721 -240.247)"/><path class="aq" d="M294.25,246h3.064v3.064H294.25Zm0,0" transform="translate(-287.368 -240.247)"/><path class="at" d="M0,482H11.974v.7H0Zm0,0" transform="translate(0 -470.728)"/><path class="au" d="M256,91.7h5.987v2.392H256Zm0,0" transform="translate(-250.013 -89.555)"/><path class="au" d="M256,482h5.987v.7H256Zm0,0" transform="translate(-250.013 -470.728)"/><path class="av" d="M154,2.5A2.5,2.5,0,1,1,151.5,0,2.505,2.505,0,0,1,154,2.5Zm0,0" transform="translate(-145.515)"/><path class="aw" d="M258.5,2.5A2.505,2.505,0,0,1,256,5V0A2.505,2.505,0,0,1,258.5,2.5Zm0,0" transform="translate(-250.013)"/><path class="ar" d="M212.077,61.348v.7h-.727v.727h-.7v-.727h-.727v-.7h.727v-.727h.7v.727Zm0,0" transform="translate(-205.012 -59.203)"/><path class="as" d="M256.351,62.776H256V60.621h.351v.727h.727v.7h-.727Zm0,0" transform="translate(-250.013 -59.203)"/></g><g transform="translate(35.416 98.86)"><path class="ax" d="M28.8,63.287H17.655V53.068a.1.1,0,0,1,.1-.1H28.7a.1.1,0,0,1,.1.1Z" transform="translate(-17.242 -51.933)"/><g transform="translate(0.413 4.204)"><rect class="ay" width="11.148" height="1.652" transform="translate(0 5.293)"/><path class="ay" d="M28.8,189.115a.538.538,0,0,1-.676-.527.544.544,0,1,1-1.089,0,.544.544,0,1,1-1.089,0,.544.544,0,1,1-1.089,0,.544.544,0,1,1-1.089,0,.544.544,0,1,1-1.089,0,.544.544,0,1,1-1.089,0,.544.544,0,1,1-1.089,0,.544.544,0,1,1-1.089,0,.544.544,0,1,1-1.089,0,.538.538,0,0,1-.676.527v.417a.882.882,0,0,0,.676-.157.956.956,0,0,0,1.089,0,.955.955,0,0,0,1.089,0,.955.955,0,0,0,1.089,0,.955.955,0,0,0,1.089,0,.955.955,0,0,0,1.089,0,.955.955,0,0,0,1.089,0,.955.955,0,0,0,1.089,0,.955.955,0,0,0,1.089,0,.955.955,0,0,0,1.089,0,.952.952,0,0,0,.544.17.938.938,0,0,0,.131-.013v-.417Z" transform="translate(-17.649 -188.589)"/></g><g transform="translate(1.445 5.987)"><rect class="az" width="5.78" height="4.129"/><rect class="az" width="2.477" height="4.129" transform="translate(6.606)"/></g><rect class="ba" width="2.477" height="0.619" transform="translate(8.051 5.987)"/><path class="bb" d="M372.617,266.755l-1.445-1.927h-.413l1.858,2.477Z" transform="translate(-362.088 -258.841)"/><path class="ba" d="M344.482,264.828h-.207v.826l2.477,3.3v-1.1Z" transform="translate(-336.224 -258.841)"/><path class="az" d="M371.636,265.447l-.465-.619h-.413l.465.619Z" transform="translate(-362.088 -258.841)"/><path class="bb" d="M135.924,268.957h-.413l-3.1-4.129h.413Z" transform="translate(-129.317 -258.841)"/><g transform="translate(1.445 5.987)"><path class="ba" d="M83.37,268.957h-.826l-3.1-4.129h.826Z" transform="translate(-79.035 -264.828)"/><rect class="ba" width="5.78" height="0.619" transform="translate(0 0)"/></g><path class="az" d="M133.291,265.447l-.465-.619h-.413l.464.619Z" transform="translate(-129.317 -258.841)"/><g transform="translate(0 3.716)"><path class="bc" d="M186.725,168.756h0a.544.544,0,0,1-.544-.544v-.488h1.089v.488A.544.544,0,0,1,186.725,168.756Z" transform="translate(-181.827 -167.724)"/><path class="bc" d="M279.817,168.756h0a.544.544,0,0,1-.544-.544v-.488h1.089v.488A.544.544,0,0,1,279.817,168.756Z" transform="translate(-272.742 -167.724)"/><path class="bc" d="M93.635,168.756h0a.544.544,0,0,1-.544-.544v-.488H94.18v.488A.544.544,0,0,1,93.635,168.756Z" transform="translate(-90.914 -167.724)"/><path class="bc" d="M.544,168.756h0A.544.544,0,0,1,0,168.212v-.488H1.089v.488A.544.544,0,0,1,.544,168.756Z" transform="translate(0 -167.724)"/><path class="bc" d="M372.907,168.756h0a.544.544,0,0,1-.544-.544v-.488h1.089v.488A.544.544,0,0,1,372.907,168.756Z" transform="translate(-363.655 -167.724)"/></g><g transform="translate(3.266 3.716)"><path class="bd" d="M140.18,168.756h0a.544.544,0,0,1-.544-.544v-.488h1.089v.488A.544.544,0,0,1,140.18,168.756Z" transform="translate(-139.636 -167.724)"/><path class="bd" d="M326.362,168.756h0a.544.544,0,0,1-.544-.544v-.488h1.089v.488A.544.544,0,0,1,326.362,168.756Z" transform="translate(-321.464 -167.724)"/></g><path class="bc" d="M466,168.756h0a.544.544,0,0,1-.544-.544v-.488h1.089v.488A.544.544,0,0,1,466,168.756Z" transform="translate(-454.569 -164.008)"/><g transform="translate(1.089 3.716)"><path class="bd" d="M419.453,168.756h0a.544.544,0,0,1-.544-.544v-.488H420v.488A.544.544,0,0,1,419.453,168.756Z" transform="translate(-410.201 -167.724)"/><path class="bd" d="M47.089,168.756h0a.544.544,0,0,1-.544-.544v-.488h1.089v.488A.544.544,0,0,1,47.089,168.756Z" transform="translate(-46.545 -167.724)"/><path class="bd" d="M233.271,168.756h0a.544.544,0,0,1-.544-.544v-.488h1.089v.488A.544.544,0,0,1,233.271,168.756Z" transform="translate(-228.373 -167.724)"/></g><g transform="translate(0 2.064)"><path class="be" d="M187.271,98.755h-1.089l.113-1.652h1.014Z" transform="translate(-181.828 -97.103)"/><path class="be" d="M278.793,98.755H277.7l-.038-1.652h1.013Z" transform="translate(-271.173 -97.103)"/><path class="be" d="M94.18,98.755H93.091l.263-1.652h1.013Z" transform="translate(-90.914 -97.103)"/><path class="be" d="M1.089,98.755H0L.413,97.1H1.426Z" transform="translate(0 -97.103)"/><path class="be" d="M365.615,98.755h-1.089l-.188-1.652h1.013Z" transform="translate(-355.818 -97.103)"/></g><g transform="translate(3.266 2.064)"><path class="bf" d="M140.725,98.755h-1.089l.188-1.652h1.014Z" transform="translate(-139.636 -97.103)"/><path class="bf" d="M322.2,98.755h-1.089L321,97.1h1.013Z" transform="translate(-316.761 -97.103)"/></g><path class="be" d="M452.435,98.755h-1.089l-.338-1.652h1.013Z" transform="translate(-440.461 -95.039)"/><g transform="translate(1.089 2.064)"><path class="bf" d="M409.025,98.755h-1.089l-.263-1.652h1.013Z" transform="translate(-399.228 -97.103)"/><path class="bf" d="M47.635,98.755H46.546l.338-1.652H47.9Z" transform="translate(-46.546 -97.103)"/><path class="bf" d="M233.816,98.755h-1.089l.038-1.652h1.013Z" transform="translate(-228.373 -97.103)"/></g><g transform="translate(1.239 5.78)"><path class="bg" d="M58.745,256.413v3.716H53.378v-3.716h5.368m.206-.413H53.171a.206.206,0,0,0-.206.207v4.129a.207.207,0,0,0,.206.207h5.78a.206.206,0,0,0,.206-.207v-4.129a.206.206,0,0,0-.206-.207Z" transform="translate(-52.965 -256)"/><path class="bg" d="M338.132,256h-2.477a.206.206,0,0,0-.206.207v5.161h2.89v-5.161A.206.206,0,0,0,338.132,256Zm-.206,4.129h-2.064v-3.716h2.064Z" transform="translate(-328.842 -256)"/></g><path class="bh" d="M104.123,10.892H97.517a.413.413,0,0,1-.413-.413V9.241a.413.413,0,0,1,.413-.413h6.606a.413.413,0,0,1,.413.413V10.48A.413.413,0,0,1,104.123,10.892Z" transform="translate(-94.833 -8.828)"/><path class="ax" d="M121.261,27.722h-6.4a.1.1,0,0,1-.1-.1V26.586a.1.1,0,0,1,.1-.1h6.4a.1.1,0,0,1,.1.1v1.032A.1.1,0,0,1,121.261,27.722Z" transform="translate(-112.074 -26.07)"/><path class="ay" d="M114.861,57.9h6.4a.1.1,0,0,0,.1-.1v-.413a.1.1,0,0,1-.1.1h-6.4a.1.1,0,0,1-.1-.1v.413A.1.1,0,0,0,114.861,57.9Z" transform="translate(-112.074 -56.244)"/><path class="bg" d="M11.871,485.929H.1a.1.1,0,0,1-.1-.1v-.206a.1.1,0,0,1,.1-.1H11.871a.1.1,0,0,1,.1.1v.206A.1.1,0,0,1,11.871,485.929Z" transform="translate(0 -474.368)"/></g><g transform="translate(123.1 65.343)"><g transform="translate(0 0)"><path class="e" d="M310.43,271.771,332.4,284.459l13.837-7.989L324.265,263.78Z" transform="translate(-306.053 -235.459)"/><path class="bi" d="M310.43,271.771,332.4,284.459l13.837-7.989L324.265,263.78Z" transform="translate(-306.053 -235.459)"/><path class="f" d="M344.318,276.012,325.746,265.28a1.865,1.865,0,0,0-1.693,0l-6.529,3.767a8.947,8.947,0,0,0-4.9.895c-2.284,1.22-2.6,3.167-.706,4.349,1.818,1.135,5.024,1.147,7.3.059l13.983,8.078a1.865,1.865,0,0,0,1.693,0l9.418-5.439C344.786,276.718,344.786,276.28,344.318,276.012Z" transform="translate(-306.244 -236.45)"/><path class="e" d="M313.683,179.96V199.7l-13.835,7.991L296.59,189.83Z" transform="translate(-295.472 -171.374)"/><path class="ao" d="M296.59,189.83l17.093-9.87V199.7l-13.835,7.991L296.59,189.83" transform="translate(-295.472 -171.374)"/><path class="e" d="M394.423,194.529l-3.256,17.856L369.19,199.7V179.96Z" transform="translate(-350.978 -171.374)"/><path class="ag" d="M394.423,194.529l-3.256,17.856L369.19,199.7V179.96Z" transform="translate(-350.978 -171.374)"/><path class="bj" d="M336.4,192.437h-1.118l-25.233-14.56-17.093,9.87.252.144-1.37-.144a.617.617,0,0,1,.36-.5l16.983-9.816a1.926,1.926,0,0,1,1.735,0l25.127,14.506A.7.7,0,0,1,336.4,192.437Z" transform="translate(-291.84 -169.281)"/><path class="e" d="M413.329,144.732l-.6-1.083a1.441,1.441,0,0,1,1.333.012h-.012a1.125,1.125,0,0,1,.471,1.154c-.655,2.719-2.948,12.436-3,12.533l-1-.584Z" transform="translate(-382.578 -143.491)"/><path class="bk" d="M413.329,144.732l-.6-1.083a1.441,1.441,0,0,1,1.333.012h-.012a1.125,1.125,0,0,1,.471,1.154c-.655,2.719-2.948,12.436-3,12.533l-1-.584Z" transform="translate(-382.578 -143.491)"/><path class="e" d="M425.021,145.932a1.761,1.761,0,0,1,.746,1.137l2.216,15.7-1.114-.643-2.331-15.443-.829-.735A1.462,1.462,0,0,1,425.021,145.932Z" transform="translate(-392.662 -145.245)"/><path class="e" d="M345.36,154.305l.358,1.267,17.792-10.329-.6-1.083Z" transform="translate(-332.759 -144.002)"/><path class="bk" d="M345.36,154.305l.358,1.267,17.792-10.329-.6-1.083Z" transform="translate(-332.759 -144.002)"/><path class="e" d="M364.969,146.48l.829.735-18.261,10.642-.657-1.019Z" transform="translate(-333.921 -145.776)"/><path class="bl" d="M342.669,239.545a9.732,9.732,0,0,0,8.832,0c2.439-1.413,2.439-3.692,0-5.1a9.746,9.746,0,0,0-8.832,0C340.23,235.858,340.23,238.137,342.669,239.545Z" transform="translate(-329.303 -212.222)"/><path class="bm" d="M358.168,214.369h0V203.84H347.631v10.529h0a2.571,2.571,0,0,0,1.538,2.248,8.239,8.239,0,0,0,7.456,0A2.555,2.555,0,0,0,358.168,214.369Z" transform="translate(-334.494 -189.631)"/><path class="ah" d="M349.185,196.143a8.239,8.239,0,0,0,7.456,0c2.06-1.189,2.058-3.115,0-4.3a8.276,8.276,0,0,0-7.456,0C347.128,193.016,347.125,194.949,349.185,196.143Z" transform="translate(-334.503 -179.777)"/><path class="bm" d="M350.467,196.738a7.9,7.9,0,0,0,7,0c1.933-1.09,1.933-2.863,0-3.955a7.9,7.9,0,0,0-7,0C348.534,193.872,348.545,195.645,350.467,196.738Z" transform="translate(-335.558 -180.551)"/><path class="bn" d="M357.529,194.959a7.889,7.889,0,0,0-7,0,2.556,2.556,0,0,0-1.427,1.721,2.585,2.585,0,0,0,1.427,1.721,7.9,7.9,0,0,0,7,0,1.751,1.751,0,0,0,0-3.442Z" transform="translate(-335.618 -182.215)"/><path class="e" d="M347.64,218.109a2.622,2.622,0,0,0,1.544,2.168,8.313,8.313,0,0,0,7.456,0,2.622,2.622,0,0,0,1.545-2.152v-7.049a2.619,2.619,0,0,1-1.545,2.152,8.313,8.313,0,0,1-7.456,0,2.607,2.607,0,0,1-1.544-2.168Z" transform="translate(-334.502 -195.151)"/><path class="bo" d="M347.64,218.109a2.622,2.622,0,0,0,1.544,2.168,8.313,8.313,0,0,0,7.456,0,2.622,2.622,0,0,0,1.545-2.152v-7.049a2.619,2.619,0,0,1-1.545,2.152,8.313,8.313,0,0,1-7.456,0,2.607,2.607,0,0,1-1.544-2.168Z" transform="translate(-334.502 -195.151)"/><path class="bl" d="M355.086,217.242a8.318,8.318,0,0,1-5.886-.626,2.556,2.556,0,0,1-1.537-2.248h0V203.84a2.629,2.629,0,0,0,1.547,2.154,4.463,4.463,0,0,0,.509.254v9.4C349.708,216.531,352.646,217.576,355.086,217.242Z" transform="translate(-334.517 -189.631)"/><path class="bp" d="M371.9,207.883l-.558-.325c-.454-.261-.577-.617-.271-.791a1.591,1.591,0,0,1,1.373.155l.558.323c.454.264.577.617.271.793A1.583,1.583,0,0,1,371.9,207.883Z" transform="translate(-352.289 -191.796)"/><ellipse class="bn" cx="0.424" cy="0.245" rx="0.424" ry="0.245" transform="translate(18.904 15.042)"/><path class="bn" d="M376.962,210.339a.673.673,0,0,0,.6,0,.184.184,0,0,0,0-.348.673.673,0,0,0-.6,0,.184.184,0,0,0,0,.348Z" transform="translate(-356.825 -194.28)"/><g transform="translate(30.891 7.725)"><path class="bq" d="M423.188,199.634c.942-5.8,2.719-13.159,6.286-18.645s6.915-6.173,7.819-1.973-2.354,16.01-4.579,20.905C426.866,212.821,422.146,206.095,423.188,199.634Z" transform="translate(-423.043 -176.302)"/><g class="br" transform="translate(6.279 3.14)"><path class="bs" d="M456.531,189.743s-.108.052-.3.132-.471.186-.791.3c-.16.064-.337.127-.52.191s-.374.144-.575.207l-1.234.459-.619.235c-.2.082-.41.155-.6.235l-.565.235c-.179.078-.351.148-.513.21-.313.137-.591.235-.784.313a2.761,2.761,0,0,1-.313.108s.071-.1.2-.261a5.512,5.512,0,0,1,.607-.622c.137-.115.285-.235.452-.36a5.453,5.453,0,0,1,.537-.358,6.83,6.83,0,0,1,.607-.334c.21-.111.433-.193.655-.287a4.746,4.746,0,0,1,.678-.221c.228-.059.454-.108.673-.158a7.227,7.227,0,0,1,1.215-.127A5.157,5.157,0,0,1,456.531,189.743Z" transform="translate(-449.71 -189.639)"/></g><g class="br" transform="translate(1.155 24.219)"><path class="bs" d="M434.771,279.282s-.111.054-.3.132-.471.188-.791.3c-.162.061-.337.125-.52.188s-.374.144-.577.207l-1.231.471-.619.235c-.2.082-.41.153-.6.235l-.567.236c-.177.078-.349.148-.511.21-.315.137-.593.235-.786.313a2.844,2.844,0,0,1-.311.108s.068-.1.2-.261a5.37,5.37,0,0,1,.61-.619c.137-.115.283-.235.45-.363a5.936,5.936,0,0,1,.539-.374c.193-.113.391-.235.605-.334s.433-.193.655-.285.452-.163.68-.235.454-.106.671-.155a6.988,6.988,0,0,1,1.215-.127A5.1,5.1,0,0,1,434.771,279.282Z" transform="translate(-427.95 -279.165)"/></g><g class="br" transform="translate(4.331 6.736)"><path class="bs" d="M450.022,205.008s-.139.068-.379.17-.57.25-.97.414c-.8.341-1.86.742-2.92,1.137l-2.931,1.062-.991.356c-.236.089-.391.132-.391.132s.087-.125.259-.325a3.067,3.067,0,0,1,.327-.344,4.6,4.6,0,0,1,.471-.407,9.983,9.983,0,0,1,2.842-1.566,11.177,11.177,0,0,1,3.183-.706,6.922,6.922,0,0,1,1.088,0C449.871,204.975,450.022,205.008,450.022,205.008Z" transform="translate(-441.44 -204.909)"/></g><g class="br" transform="translate(3.041 10.985)"><path class="bs" d="M444.542,223.094s-.137.08-.377.193-.56.278-.956.471c-.791.363-1.841.786-2.894,1.177l-.791.283c-.254.1-.518.179-.765.271l-1.377.452-1.017.323c-.25.078-.4.111-.4.111a3.855,3.855,0,0,1,.245-.346,2.878,2.878,0,0,1,.316-.363,5.061,5.061,0,0,1,.452-.431,9.351,9.351,0,0,1,2.851-1.627,10.312,10.312,0,0,1,3.2-.647,6.777,6.777,0,0,1,1.1.057A3.438,3.438,0,0,1,444.542,223.094Z" transform="translate(-435.96 -222.957)"/></g><g class="br" transform="translate(1.329 19.895)"><path class="bs" d="M436.389,260.936s-.122.071-.337.172-.506.25-.862.417c-.706.325-1.648.706-2.59,1.057l-.706.257c-.235.089-.471.16-.69.235l-1.241.412-.909.28c-.235.071-.365.1-.365.1s.073-.118.221-.308a2.691,2.691,0,0,1,.285-.327,4.325,4.325,0,0,1,.4-.386,8.476,8.476,0,0,1,2.562-1.462,9.261,9.261,0,0,1,2.877-.582,6.353,6.353,0,0,1,.989.049C436.253,260.9,436.389,260.936,436.389,260.936Z" transform="translate(-428.69 -260.799)"/></g><g class="br" transform="translate(1.92 15.35)"><path class="bs" d="M439.782,241.648s-.134.08-.374.193-.563.275-.958.471c-.789.363-1.839.786-2.894,1.177l-.789.283c-.257.1-.52.179-.768.271l-1.38.457-1.012.313c-.25.08-.407.113-.407.113s.082-.132.247-.344a3.113,3.113,0,0,1,.318-.377,5,5,0,0,1,.45-.431,9.418,9.418,0,0,1,2.851-1.627,10.326,10.326,0,0,1,3.2-.648,6.817,6.817,0,0,1,1.1.057A4.119,4.119,0,0,1,439.782,241.648Z" transform="translate(-431.2 -241.497)"/></g></g><g transform="translate(22.318 0.914)"><ellipse class="ae" cx="5.811" cy="3.355" rx="5.811" ry="3.355" transform="translate(0 30.254)"/><g transform="translate(1.052)"><path class="e" d="M397.742,158.612V153.79l-1.561.064-1.559-.064v4.822a7.791,7.791,0,0,1-1.968,5.22,6.679,6.679,0,0,0-1.554,4.532V184.61h0c0,1.095,1.074,2.208,3.193,2.724a7.961,7.961,0,0,0,3.781,0c2.119-.518,3.179-1.629,3.188-2.724h0V168.364a6.68,6.68,0,0,0-1.552-4.532A7.77,7.77,0,0,1,397.742,158.612Z" transform="translate(-391.1 -152.279)"/><path class="bi" d="M397.742,158.612V153.79l-1.561.064-1.559-.064v4.822a7.791,7.791,0,0,1-1.968,5.22,6.679,6.679,0,0,0-1.554,4.532V184.61h0c0,1.095,1.074,2.208,3.193,2.724a7.961,7.961,0,0,0,3.781,0c2.119-.518,3.179-1.629,3.188-2.724h0V168.364a6.68,6.68,0,0,0-1.552-4.532A7.77,7.77,0,0,1,397.742,158.612Z" transform="translate(-391.1 -152.279)"/><path class="ak" d="M409.22,148.349a.231.231,0,0,0,0-.04.753.753,0,0,0-.452-.673,2.449,2.449,0,0,0-2.208,0,.92.92,0,0,0-.4.414.222.222,0,0,0-.024.047.143.143,0,0,0,0,.031.3.3,0,0,0-.024.1v2.354a.774.774,0,0,0,.457.643,2.448,2.448,0,0,0,2.208,0,.831.831,0,0,0,.443-.542.2.2,0,0,0,.016-.049Z" transform="translate(-402.576 -147.372)"/><path class="aj" d="M408.708,148.912a2.434,2.434,0,0,1-2.208,0,.673.673,0,0,1,0-1.276,2.449,2.449,0,0,1,2.208,0C409.327,147.991,409.327,148.561,408.708,148.912Z" transform="translate(-402.522 -147.372)"/><path class="g" d="M410.666,217.8v8.841a2.511,2.511,0,0,1-1.488,2.074,8.03,8.03,0,0,1-5.778.57v-8.848a8,8,0,0,0,5.778-.57A2.5,2.5,0,0,0,410.666,217.8Z" transform="translate(-400.504 -201.218)"/></g></g><g transform="translate(2.903 22.9)"><path class="am" d="M308.03,251.714a4.026,4.026,0,0,0-3.562,2.795,5.926,5.926,0,0,0,2.59,6.811c2.538,1.429,6.263,1.154,8.241-1.06,2.2-2.449,1.954-6.647.118-8.307a4.621,4.621,0,0,0-4.958-.537C309.518,251.938,308.8,251.592,308.03,251.714Z" transform="translate(-304.168 -248.534)"/><path class="ae" d="M318.492,268.418a8.025,8.025,0,0,1-8.3.17,5.309,5.309,0,0,0,1.474,1.267c2.538,1.429,6.263,1.154,8.241-1.059a6.827,6.827,0,0,0,1.156-6.715C321.225,262.636,321.173,266.572,318.492,268.418Z" transform="translate(-308.772 -257.059)"/><g class="bt" transform="translate(0.638 4.169)"><path class="g" d="M309.158,258.46a2.548,2.548,0,0,0-1.921,1.6,6.154,6.154,0,0,0-.118,3.786c.607,2.211,2.9,3.172,3.094,2.96s-1.537-1.523-.892-3.849C309.968,260.593,310.219,258.446,309.158,258.46Z" transform="translate(-306.878 -258.46)"/></g><g class="bt" transform="translate(0.996 4.477)"><path class="g" d="M309.862,259.875a3.426,3.426,0,0,0-1.413,2.171,1.754,1.754,0,0,0,.134,1.33c.2.137,1.394-1.295,1.766-1.921C310.9,260.565,310.881,259.412,309.862,259.875Z" transform="translate(-308.4 -259.769)"/></g><path class="bu" d="M322.994,259.508c-.379-.236-.72-.351-.852.087s.864,1,1.865.6,1.288-1.114,1.231-1.45a1.911,1.911,0,0,1-1.074.942A1.724,1.724,0,0,1,322.994,259.508Z" transform="translate(-317.901 -254.505)"/><path class="ak" d="M315.016,247.355a9.678,9.678,0,0,0-.753-2.771,5.259,5.259,0,0,0-1.749-2.194,2.811,2.811,0,0,0-1.147-.054c-.527.059-1.121.471-.928.664a11.1,11.1,0,0,1,1.982,1.031,6.107,6.107,0,0,1,2.166,3.365.412.412,0,0,0,.428-.04Z" transform="translate(-308.934 -241.936)"/><path class="aj" d="M312.557,242.4l-.052-.014h0a3.021,3.021,0,0,0-1.045-.026,1.429,1.429,0,0,0-.942.471c-.028.08.1.172.577.191a2.933,2.933,0,0,0,1.377-.271C312.672,242.662,312.733,242.486,312.557,242.4Z" transform="translate(-309.02 -241.957)"/><path class="ae" d="M317.229,249.354A5.38,5.38,0,0,0,314.42,247h0a5.356,5.356,0,0,1,1.074.638A6.116,6.116,0,0,1,317.66,251a.412.412,0,0,0,.424-.042s-.035-.36-.141-.878C317.963,250.56,317.723,250.412,317.229,249.354Z" transform="translate(-312.006 -245.529)"/><path class="e" d="M327.418,244.124a2.289,2.289,0,0,0,2.244-3.365,2.329,2.329,0,0,0-1.966.841A2.8,2.8,0,0,0,327.418,244.124Z" transform="translate(-321.807 -240.754)"/><path class="ag" d="M327.418,244.124a2.289,2.289,0,0,0,2.244-3.365,2.329,2.329,0,0,0-1.966.841A2.8,2.8,0,0,0,327.418,244.124Z" transform="translate(-321.807 -240.754)"/><path class="e" d="M329.675,240.76a2.328,2.328,0,0,0-1.966.841,2.759,2.759,0,0,0-.278,2.524A6.933,6.933,0,0,1,329.675,240.76Z" transform="translate(-321.813 -240.754)"/></g><g transform="translate(1.981 14.271)"><path class="f" d="M307.37,248.361c1.884,1.177,5.281,1.149,7.577-.073s2.616-3.167.706-4.349a8.412,8.412,0,0,0-7.577.073C305.8,245.235,305.48,247.18,307.37,248.361Z" transform="translate(-304.751 -233.899)"/><path class="am" d="M304.116,215.064a4.029,4.029,0,0,0-3.565,2.795,5.933,5.933,0,0,0,2.59,6.811c2.538,1.429,6.263,1.154,8.241-1.062,2.2-2.449,1.952-6.644.118-8.3a4.627,4.627,0,0,0-4.958-.539C305.609,215.287,304.886,214.941,304.116,215.064Z" transform="translate(-300.253 -211.883)"/><path class="ae" d="M314.582,231.728a8.025,8.025,0,0,1-8.3.167,5.254,5.254,0,0,0,1.474,1.269c2.538,1.429,6.263,1.154,8.24-1.062a6.823,6.823,0,0,0,1.156-6.713C317.315,225.955,317.264,229.889,314.582,231.728Z" transform="translate(-304.861 -220.378)"/><g class="bt" transform="translate(0.638 4.169)"><path class="g" d="M305.244,221.81a2.531,2.531,0,0,0-1.924,1.6,6.154,6.154,0,0,0-.115,3.786c.607,2.211,2.9,3.171,3.094,2.96s-1.537-1.523-.895-3.85C306.058,223.943,306.306,221.793,305.244,221.81Z" transform="translate(-302.963 -221.81)"/></g><g class="bt" transform="translate(0.999 4.477)"><path class="g" d="M305.956,223.225a3.408,3.408,0,0,0-1.413,2.168,1.779,1.779,0,0,0,.134,1.33c.2.139,1.4-1.295,1.768-1.921C306.981,223.915,306.969,222.761,305.956,223.225Z" transform="translate(-304.496 -223.119)"/></g><path class="bu" d="M319.073,222.848c-.377-.235-.718-.351-.852.087s.866,1,1.865.6,1.29-1.114,1.234-1.45a1.919,1.919,0,0,1-1.074.942A1.744,1.744,0,0,1,319.073,222.848Z" transform="translate(-313.981 -217.848)"/><path class="ak" d="M311.094,210.707a9.706,9.706,0,0,0-.749-2.771,5.225,5.225,0,0,0-1.752-2.192,2.786,2.786,0,0,0-1.144-.056c-.527.061-1.123.471-.93.666a11.266,11.266,0,0,1,1.985,1.031,6.12,6.12,0,0,1,2.166,3.365A.412.412,0,0,0,311.094,210.707Z" transform="translate(-305.015 -205.288)"/><path class="aj" d="M308.639,205.751l-.054-.016h0a3.07,3.07,0,0,0-1.045-.028,1.434,1.434,0,0,0-.942.471c-.028.08.1.172.577.191a2.968,2.968,0,0,0,1.377-.271C308.754,206.01,308.809,205.82,308.639,205.751Z" transform="translate(-305.101 -205.305)"/><path class="ae" d="M313.319,212.694a5.369,5.369,0,0,0-2.809-2.354h0a5.359,5.359,0,0,1,1.074.638,6.133,6.133,0,0,1,2.166,3.365.412.412,0,0,0,.424-.042s-.035-.36-.144-.878C314.053,213.9,313.813,213.754,313.319,212.694Z" transform="translate(-308.095 -208.872)"/><path class="e" d="M323.521,207.472a2.288,2.288,0,0,0,2.244-3.362,2.329,2.329,0,0,0-1.966.841A2.755,2.755,0,0,0,323.521,207.472Z" transform="translate(-317.902 -204.104)"/><path class="ag" d="M323.521,207.472a2.288,2.288,0,0,0,2.244-3.362,2.329,2.329,0,0,0-1.966.841A2.755,2.755,0,0,0,323.521,207.472Z" transform="translate(-317.902 -204.104)"/><path class="e" d="M325.765,204.11a2.329,2.329,0,0,0-1.966.841,2.755,2.755,0,0,0-.278,2.522A6.889,6.889,0,0,1,325.765,204.11Z" transform="translate(-317.902 -204.104)"/></g><g transform="translate(7.013 23.702)"><path class="e" d="M338.429,273.9c0,1.5-1.22,3.2-2.722,3.2S333,275.4,333,273.9a2.722,2.722,0,0,1,5.441,0Z" transform="translate(-330.322 -264.88)"/><path class="bv" d="M338.429,273.9c0,1.5-1.22,3.2-2.722,3.2S333,275.4,333,273.9a2.722,2.722,0,0,1,5.441,0Z" transform="translate(-330.322 -264.88)"/><path class="e" d="M359.109,285.619c0,1.5-1.217,3.2-2.719,3.2s-2.719-1.7-2.719-3.2a2.719,2.719,0,1,1,5.439,0Z" transform="translate(-346.126 -273.779)"/><path class="bv" d="M359.109,285.619c0,1.5-1.217,3.2-2.719,3.2s-2.719-1.7-2.719-3.2a2.719,2.719,0,1,1,5.439,0Z" transform="translate(-346.126 -273.779)"/><path class="e" d="M379.819,297.589c0,1.5-1.217,3.2-2.719,3.2s-2.719-1.7-2.719-3.2a2.719,2.719,0,0,1,5.439,0Z" transform="translate(-361.96 -282.931)"/><path class="bv" d="M379.819,297.589c0,1.5-1.217,3.2-2.719,3.2s-2.719-1.7-2.719-3.2a2.719,2.719,0,0,1,5.439,0Z" transform="translate(-361.96 -282.931)"/><path class="e" d="M400.531,309.832c0,1.5-1.217,3.2-2.719,3.2s-2.722-1.7-2.722-3.2a2.722,2.722,0,0,1,5.441,0Z" transform="translate(-377.794 -292.35)"/><path class="bv" d="M400.531,309.832c0,1.5-1.217,3.2-2.719,3.2s-2.722-1.7-2.722-3.2a2.722,2.722,0,0,1,5.441,0Z" transform="translate(-377.794 -292.35)"/><path class="e" d="M423.429,296.422c0,1.5-1.217,3.2-2.719,3.2s-2.71-1.7-2.71-3.2a2.722,2.722,0,0,1,5.441,0Z" transform="translate(-395.31 -282.097)"/><path class="bv" d="M423.429,296.422c0,1.5-1.217,3.2-2.719,3.2s-2.71-1.7-2.71-3.2a2.722,2.722,0,0,1,5.441,0Z" transform="translate(-395.31 -282.097)"/><path class="e" d="M352.808,259.944a.6.6,0,0,0-.358-.5l-19.057-11.009a1.91,1.91,0,0,0-1.735,0l-9.67,5.582a.607.607,0,0,0-.358.5v.942a.607.607,0,0,0,.358.5l19.057,11.012a1.931,1.931,0,0,0,1.738,0l9.667-5.582a.6.6,0,0,0,.358-.5Z" transform="translate(-321.629 -247.268)"/><path class="bw" d="M352.808,259.944a.6.6,0,0,0-.358-.5l-19.057-11.009a1.91,1.91,0,0,0-1.735,0l-9.67,5.582a.607.607,0,0,0-.358.5v.942a.607.607,0,0,0,.358.5l19.057,11.012a1.931,1.931,0,0,0,1.738,0l9.667-5.582a.6.6,0,0,0,.358-.5Z" transform="translate(-321.629 -247.268)"/><path class="ae" d="M341.93,286.68v.942a1.805,1.805,0,0,1-.883-.21L321.99,276.4a.605.605,0,0,1-.36-.5c0-.17,0-.77,0-.942a.614.614,0,0,0,.36.5l19.057,11.012A1.818,1.818,0,0,0,341.93,286.68Z" transform="translate(-321.629 -267.708)"/><path class="e" d="M321.986,254.025l9.67-5.582a1.909,1.909,0,0,1,1.735,0l19.057,11.009a.533.533,0,0,1,0,1l-9.667,5.582a1.916,1.916,0,0,1-1.738,0l-19.057-11.009A.53.53,0,0,1,321.986,254.025Z" transform="translate(-321.628 -247.275)"/><path class="ae" d="M399.853,306.675a1.142,1.142,0,0,0,0-2.166,4.194,4.194,0,0,0-3.767,0,1.139,1.139,0,0,0,0,2.166,4.172,4.172,0,0,0,3.767,0Z" transform="translate(-377.953 -289.959)"/><path class="ae" d="M422.713,293.5a1.144,1.144,0,0,0,0-2.168,4.186,4.186,0,0,0-3.767,0,1.139,1.139,0,0,0,0,2.166A4.209,4.209,0,0,0,422.713,293.5Z" transform="translate(-395.431 -279.887)"/><path class="ae" d="M379.133,294.705a1.142,1.142,0,0,0,0-2.166,4.194,4.194,0,0,0-3.767,0,1.139,1.139,0,0,0,0,2.166A4.172,4.172,0,0,0,379.133,294.705Z" transform="translate(-362.112 -280.807)"/><path class="ae" d="M401.993,281.512a1.142,1.142,0,0,0,0-2.166,4.187,4.187,0,0,0-3.767,0,1.141,1.141,0,0,0,0,2.168A4.167,4.167,0,0,0,401.993,281.512Z" transform="translate(-379.589 -270.72)"/><path class="ae" d="M358.423,282.735a1.142,1.142,0,0,0,0-2.166,4.194,4.194,0,0,0-3.767,0,1.139,1.139,0,0,0,0,2.166A4.172,4.172,0,0,0,358.423,282.735Z" transform="translate(-346.278 -271.655)"/><path class="ae" d="M381.285,269.512a1.142,1.142,0,0,0,0-2.166,4.186,4.186,0,0,0-3.767,0,1.139,1.139,0,0,0,0,2.166A4.165,4.165,0,0,0,381.285,269.512Z" transform="translate(-363.758 -261.545)"/><path class="ae" d="M337.7,270.762a1.142,1.142,0,0,0,0-2.166,4.187,4.187,0,0,0-3.767,0,1.139,1.139,0,0,0,0,2.166A4.174,4.174,0,0,0,337.7,270.762Z" transform="translate(-330.436 -262.501)"/><path class="ae" d="M360.563,257.512a1.141,1.141,0,0,0,0-2.166,4.187,4.187,0,0,0-3.767,0,1.139,1.139,0,0,0,0,2.166A4.143,4.143,0,0,0,360.563,257.512Z" transform="translate(-347.914 -252.37)"/><path class="ah" d="M423.823,284.162v.129a2.442,2.442,0,0,1-.085.525,1.832,1.832,0,0,1-.558.471,4.15,4.15,0,0,1-3.767,0,1.79,1.79,0,0,1-.553-.471,2.39,2.39,0,0,1-.089-.537v-.257a1.705,1.705,0,0,1,.021-.334,5.075,5.075,0,0,1,1.457-3.1,1.483,1.483,0,0,1,2.1,0,5.02,5.02,0,0,1,1.45,3.084c.012.122.021.235.026.363C423.823,284.075,423.823,284.125,423.823,284.162Z" transform="translate(-395.898 -271.684)"/><path class="ah" d="M403.12,272.168a1.1,1.1,0,0,1,0,.127,2.183,2.183,0,0,1-.085.527,1.791,1.791,0,0,1-.556.471,4.163,4.163,0,0,1-3.767,0,1.791,1.791,0,0,1-.553-.471,2.286,2.286,0,0,1-.089-.539v-.257a1.735,1.735,0,0,1,.021-.332,5.057,5.057,0,0,1,1.455-3.1,1.481,1.481,0,0,1,2.093,0,5.017,5.017,0,0,1,1.453,3.084c.012.12.019.235.024.36A1.154,1.154,0,0,1,403.12,272.168Z" transform="translate(-380.072 -262.51)"/><path class="ah" d="M400.963,297.311v.127a2.4,2.4,0,0,1-.085.525,1.768,1.768,0,0,1-.558.471,4.15,4.15,0,0,1-3.767,0,1.819,1.819,0,0,1-.553-.471,2.413,2.413,0,0,1-.089-.539v-.257a1.737,1.737,0,0,1,.021-.332,5.069,5.069,0,0,1,1.455-3.113,1.483,1.483,0,0,1,2.1,0,5.015,5.015,0,0,1,1.45,3.084c.012.12.021.235.026.36C400.963,297.224,400.963,297.266,400.963,297.311Z" transform="translate(-378.421 -281.722)"/><path class="ah" d="M380.26,285.329a1.144,1.144,0,0,1,0,.129,2.161,2.161,0,0,1-.085.525,1.822,1.822,0,0,1-.556.471,4.156,4.156,0,0,1-3.767,0,1.8,1.8,0,0,1-.556-.471,2.387,2.387,0,0,1-.087-.537v-.257a1.7,1.7,0,0,1,.021-.334,5.062,5.062,0,0,1,1.455-3.113,1.481,1.481,0,0,1,2.093,0,5.023,5.023,0,0,1,1.453,3.084c0,.122.019.235.023.363A1.117,1.117,0,0,1,380.26,285.329Z" transform="translate(-362.594 -272.564)"/><path class="ah" d="M382.41,260.17a1.159,1.159,0,0,1,0,.129,2.4,2.4,0,0,1-.085.525,1.8,1.8,0,0,1-.558.471,4.151,4.151,0,0,1-3.767,0,1.818,1.818,0,0,1-.553-.471,2.386,2.386,0,0,1-.087-.537v-.257a1.933,1.933,0,0,1,.019-.332,5.053,5.053,0,0,1,1.457-3.106,1.481,1.481,0,0,1,2.093,0,5.022,5.022,0,0,1,1.453,3.084c.012.12.019.235.024.36A1.126,1.126,0,0,1,382.41,260.17Z" transform="translate(-364.238 -253.335)"/><path class="ah" d="M361.69,248.175a1.131,1.131,0,0,1,0,.129,2.3,2.3,0,0,1-.082.525,1.831,1.831,0,0,1-.558.471,4.165,4.165,0,0,1-3.767,0,1.785,1.785,0,0,1-.553-.471,2.386,2.386,0,0,1-.09-.537v-.257a1.7,1.7,0,0,1,.021-.334,5.062,5.062,0,0,1,1.455-3.108,1.481,1.481,0,0,1,2.093,0,5.022,5.022,0,0,1,1.453,3.084c0,.12.021.235.024.363a1.113,1.113,0,0,1,0,.134Z" transform="translate(-348.396 -244.16)"/><path class="ah" d="M359.6,273.379a1.193,1.193,0,0,1,0,.127,2.269,2.269,0,0,1-.082.525,1.769,1.769,0,0,1-.558.471,4.15,4.15,0,0,1-3.767,0,1.789,1.789,0,0,1-.553-.471,2.393,2.393,0,0,1-.09-.537v-.257a1.725,1.725,0,0,1,.021-.332,5.051,5.051,0,0,1,1.455-3.113,1.481,1.481,0,0,1,2.093,0,5.01,5.01,0,0,1,1.453,3.084c.012.12.021.235.024.36A1.15,1.15,0,0,1,359.6,273.379Z" transform="translate(-346.798 -263.427)"/><path class="ah" d="M338.84,261.4a1.131,1.131,0,0,1,0,.129,2.142,2.142,0,0,1-.085.525,1.8,1.8,0,0,1-.558.471,4.15,4.15,0,0,1-3.767,0,1.818,1.818,0,0,1-.553-.471,2.39,2.39,0,0,1-.087-.537v-.257a1.912,1.912,0,0,1,.019-.334,5.079,5.079,0,0,1,1.457-3.113,1.481,1.481,0,0,1,2.093,0,5.022,5.022,0,0,1,1.453,3.087c.012.12.019.235.023.36A1.106,1.106,0,0,1,338.84,261.4Z" transform="translate(-330.926 -254.268)"/></g><path class="e" d="M321.825,236.447,296.59,221.88l1.464,15.86a4.3,4.3,0,0,0,1.9,3L320.09,252.37a3.878,3.878,0,0,0,3.178.139l.073-.028.042-.021a1.789,1.789,0,0,0,.177-.089l11.991-6.924a4.306,4.306,0,0,0,1.9-3l1.462-15.86ZM304.4,239.261a.382.382,0,1,1-.657.381l-.655-.377a2.886,2.886,0,0,1-1.3-2.256v-5.731a1.265,1.265,0,0,1,.115-.558,1.234,1.234,0,0,1,.544.177l.652.379a2.87,2.87,0,0,1,1.3,2.256Zm6.51,3.767a1.251,1.251,0,0,1-.115.558,1.215,1.215,0,0,1-.542-.177l-.652-.377a2.877,2.877,0,0,1-1.3-2.253v-5.74a1.282,1.282,0,0,1,.113-.558,1.176,1.176,0,0,1,.544.177l.655.379a2.865,2.865,0,0,1,1.3,2.253Zm6.512,3.767a1.231,1.231,0,0,1-.118.558,1.252,1.252,0,0,1-.539-.174l-.655-.377a2.887,2.887,0,0,1-1.3-2.256V238.8a1.246,1.246,0,0,1,.115-.556,1.2,1.2,0,0,1,.544.177l.652.377a2.877,2.877,0,0,1,1.3,2.256Zm11.08-2.06a2.887,2.887,0,0,1-1.3,2.256l-.655.377a.382.382,0,1,1-.657-.381v-5.745a2.87,2.87,0,0,1,1.3-2.256l.652-.379a1.2,1.2,0,0,1,.544-.174,1.245,1.245,0,0,1,.115.556Zm5.7-3.3a2.875,2.875,0,0,1-1.3,2.253l-.65.377a1.2,1.2,0,0,1-.544.177,1.25,1.25,0,0,1-.115-.558v-5.738a2.877,2.877,0,0,1,1.3-2.253l.652-.377a1.159,1.159,0,0,1,.542-.177,1.208,1.208,0,0,1,.118.556Z" transform="translate(-295.472 -203.424)"/><path class="bx" d="M321.825,236.447,296.59,221.88l1.464,15.86a4.3,4.3,0,0,0,1.9,3L320.09,252.37a3.878,3.878,0,0,0,3.178.139l.073-.028.042-.021a1.789,1.789,0,0,0,.177-.089l11.991-6.924a4.306,4.306,0,0,0,1.9-3l1.462-15.86ZM304.4,239.261a.382.382,0,1,1-.657.381l-.655-.377a2.886,2.886,0,0,1-1.3-2.256v-5.731a1.265,1.265,0,0,1,.115-.558,1.234,1.234,0,0,1,.544.177l.652.379a2.87,2.87,0,0,1,1.3,2.256Zm6.51,3.767a1.251,1.251,0,0,1-.115.558,1.215,1.215,0,0,1-.542-.177l-.652-.377a2.877,2.877,0,0,1-1.3-2.253v-5.74a1.282,1.282,0,0,1,.113-.558,1.176,1.176,0,0,1,.544.177l.655.379a2.865,2.865,0,0,1,1.3,2.253Zm6.512,3.767a1.231,1.231,0,0,1-.118.558,1.252,1.252,0,0,1-.539-.174l-.655-.377a2.887,2.887,0,0,1-1.3-2.256V238.8a1.246,1.246,0,0,1,.115-.556,1.2,1.2,0,0,1,.544.177l.652.377a2.877,2.877,0,0,1,1.3,2.256Zm11.08-2.06a2.887,2.887,0,0,1-1.3,2.256l-.655.377a.382.382,0,1,1-.657-.381v-5.745a2.87,2.87,0,0,1,1.3-2.256l.652-.379a1.2,1.2,0,0,1,.544-.174,1.245,1.245,0,0,1,.115.556Zm5.7-3.3a2.875,2.875,0,0,1-1.3,2.253l-.65.377a1.2,1.2,0,0,1-.544.177,1.25,1.25,0,0,1-.115-.558v-5.738a2.877,2.877,0,0,1,1.3-2.253l.652-.377a1.159,1.159,0,0,1,.542-.177,1.208,1.208,0,0,1,.118.556Z" transform="translate(-295.472 -203.424)"/><path class="i" d="M403.77,251.708v14.913c0,.987.624,1.453,1.443,1.142l.073-.028.042-.021a1.8,1.8,0,0,0,.177-.09L417.5,260.7a4.306,4.306,0,0,0,1.9-3l1.462-15.86Zm6.682,8.271a2.887,2.887,0,0,1-1.3,2.256l-.654.377a.382.382,0,1,1-.657-.381V256.5a2.87,2.87,0,0,1,1.3-2.256l.652-.379a1.2,1.2,0,0,1,.544-.174,1.246,1.246,0,0,1,.115.556Zm5.7-3.3a2.875,2.875,0,0,1-1.3,2.253l-.65.377a1.2,1.2,0,0,1-.544.177,1.25,1.25,0,0,1-.115-.558V253.21a2.877,2.877,0,0,1,1.3-2.253l.652-.377a1.158,1.158,0,0,1,.542-.177,1.208,1.208,0,0,1,.118.556Z" transform="translate(-377.417 -218.684)"/><path class="c" d="M424.709,293.1v5.731a2.87,2.87,0,0,1-1.3,2.253l-.652.377c-.527.3-.979.2-1.177-.2a1.221,1.221,0,0,0,.539-.174l.655-.377a2.887,2.887,0,0,0,1.3-2.256v-5.731a1.245,1.245,0,0,0-.115-.556C424.4,292.153,424.709,292.5,424.709,293.1Z" transform="translate(-391.034 -257.168)"/><path class="c" d="M448.911,279.135v5.728a2.882,2.882,0,0,1-1.3,2.256l-.652.377c-.527.3-.979.2-1.177-.2a1.2,1.2,0,0,0,.544-.177l.65-.377a2.875,2.875,0,0,0,1.3-2.253v-5.731a1.209,1.209,0,0,0-.118-.556C448.6,278.186,448.911,278.53,448.911,279.135Z" transform="translate(-409.536 -246.488)"/><path class="c" d="M421.982,241.756v1.884a.612.612,0,0,1-.36.5l-16.985,9.8a1.792,1.792,0,0,1-.866.207v-1.884a1.765,1.765,0,0,0,.866-.207l16.985-9.795a.582.582,0,0,0,.356-.535A.077.077,0,0,1,421.982,241.756Z" transform="translate(-377.417 -218.6)"/><path class="c" d="M318.193,236.962v1.884a1.8,1.8,0,0,1-.869-.207L292.2,224.133a.612.612,0,0,1-.36-.5V221.71a.593.593,0,0,0,.358.539l25.124,14.5A1.768,1.768,0,0,0,318.193,236.962Z" transform="translate(-291.84 -203.294)"/><path class="i" d="M336.4,226.572a.61.61,0,0,1-.358.5l-16.985,9.806a1.909,1.909,0,0,1-1.735,0L292.2,222.371a.612.612,0,0,1-.36-.5h1.118l17.093,9.865,8.142,4.709,17.091-9.868Z" transform="translate(-291.84 -203.416)"/><path class="c" d="M371.27,292.295v5.731a2.884,2.884,0,0,0,1.3,2.256l.655.377c.525.3.977.2,1.177-.2a1.2,1.2,0,0,1-.542-.177l-.655-.377a2.877,2.877,0,0,1-1.3-2.253v-5.731a1.25,1.25,0,0,1,.115-.558C371.581,291.346,371.27,291.69,371.27,292.295Z" transform="translate(-352.569 -256.55)"/><path class="c" d="M343.61,276.325v5.731a2.877,2.877,0,0,0,1.3,2.256l.655.377c.527.3.977.2,1.177-.2a1.206,1.206,0,0,1-.542-.177l-.652-.377a2.874,2.874,0,0,1-1.3-2.253v-5.731a1.218,1.218,0,0,1,.118-.558C343.921,275.376,343.61,275.72,343.61,276.325Z" transform="translate(-331.421 -244.34)"/><path class="c" d="M316,260.364v5.731a2.873,2.873,0,0,0,1.3,2.253l.652.377c.527.3.98.2,1.177-.193a1.279,1.279,0,0,1-.542-.177l-.652-.377a2.877,2.877,0,0,1-1.3-2.256v-5.731a1.246,1.246,0,0,1,.115-.556C316.3,259.413,316,259.759,316,260.364Z" transform="translate(-310.312 -232.137)"/><path class="e" d="M327.36,243.63v.163a1.194,1.194,0,0,0,.678,1.257h0c.287.165.443-.042.443-.377v-.4Z" transform="translate(-318.997 -220.053)"/><path class="bk" d="M327.36,243.63v.163a1.194,1.194,0,0,0,.678,1.257h0c.287.165.443-.042.443-.377v-.4Z" transform="translate(-318.997 -220.053)"/><path class="e" d="M330.748,188.392a2.06,2.06,0,0,1,.85-1.142l.358,1.267-3.478,12.653-1.118-.647Z" transform="translate(-318.997 -176.947)"/><path class="bk" d="M330.748,188.392a2.06,2.06,0,0,1,.85-1.142l.358,1.267-3.478,12.653-1.118-.647Z" transform="translate(-318.997 -176.947)"/><path class="e" d="M345.07,190.39l.626,1.038,2.354,15.893-1.295-.746-2.277-15.017A1.267,1.267,0,0,1,345.07,190.39Z" transform="translate(-332.083 -179.348)"/><path class="e" d="M354.2,259.13v.162a1.355,1.355,0,0,0,.643,1.387h0a.436.436,0,0,0,.652-.377v-.426Z" transform="translate(-339.518 -231.903)"/></g></g></g></g></svg>