<svg xmlns="http://www.w3.org/2000/svg" xmlns:xlink="http://www.w3.org/1999/xlink" width="308.916" height="276.271" viewBox="0 0 308.916 276.271"><defs><style>.a{fill:#fff3d9;}.b{fill:#ebebeb;}.c{fill:#e0e0e0;}.d{fill:#fafafa;}.e{fill:#f9a531;}.f{fill:#263238;}.g{fill:#c7161d;}.h{fill:#f57e2a;}.i{fill:#f5f5f5;}.j{fill:#fff;}.k{opacity:0.6;}.l{opacity:0.4;}.m{fill:#ffbe9d;}.n{opacity:0.2;}.o{fill:#f7942e;}.p{fill:url(#a);}.q{fill:#455a64;}.r{opacity:0.3;}.s{fill:#d20400;}.t{fill:#eb996e;}.u{fill:#ffcf6b;}</style><linearGradient id="a" x1="0.5" x2="0.5" y2="1" gradientUnits="objectBoundingBox"><stop offset="0" stop-color="#f57e2a"/><stop offset="1" stop-color="#f9a531"/></linearGradient></defs><path class="a" d="M818.419,285.953c-3.532-7.706-6.838-15.686-8.489-24.34-5.287-27.706.774-61.244-24.026-81.1a58.284,58.284,0,0,0-41.4-12.382c-14.386,1.354-27.985,8.219-42.515,8.318-16.22.11-31.626-7.815-47.976-8.09-23.545-.393-46.964,12.065-58.8,32.595-6.467,11.216-8.191,25.45-16.761,35.45-8.873,10.359-23.858,15.112-34.281,24.378-22.9,20.364-32.233,55.252-11.025,80.312,11.3,13.358,28.525,20.777,38.63,35.212,8.047,11.5,8.193,26.434,13.858,39.074,15.747,35.131,69.113,33.548,98.677,19.286,9.581-4.621,16.492-9.115,27.541-8.918,10.714.19,20.973,4.238,31.749,4.045,22.158-.395,27.261-18.155,35.417-35.467,10.488-22.254,38.159-26.833,47.715-48.916C835.093,326.088,826.606,303.812,818.419,285.953Z" transform="translate(-521.257 -167.891)"/><g transform="translate(16.326 34.931)"><g transform="translate(0 12.194)"><g transform="translate(33.289 17.488)"><path class="b" d="M113.02,278.547c.054,0,.1-6.862.1-15.334s-.046-15.334-.1-15.334-.1,6.862-.1,15.334S112.951,278.547,113.02,278.547Z" transform="translate(-112.92 -189.558)"/><path class="c" d="M187.64,379.861c-.073,0-.13-11.332-.13-25.3s.057-25.3.13-25.3.13,11.328.13,25.3S187.7,379.861,187.64,379.861Z" transform="translate(-158.916 -239.742)"/><rect class="d" width="5.052" height="5.712" transform="translate(34.597 128.907)"/><path class="b" d="M362.177,95.84a4.658,4.658,0,0,1-1.917,0A4.658,4.658,0,0,1,362.177,95.84Z" transform="translate(-265.444 -95.74)"/><path class="b" d="M372.177,95.84a4.658,4.658,0,0,1-1.917,0A4.658,4.658,0,0,1,372.177,95.84Z" transform="translate(-271.611 -95.74)"/><path class="b" d="M382.177,95.84a4.657,4.657,0,0,1-1.917,0,4.658,4.658,0,0,1,1.917,0Z" transform="translate(-277.777 -95.74)"/><path class="b" d="M392.177,95.84a4.657,4.657,0,0,1-1.917,0A4.658,4.658,0,0,1,392.177,95.84Z" transform="translate(-283.944 -95.74)"/><path class="b" d="M402.177,95.84a4.658,4.658,0,0,1-1.917,0,4.658,4.658,0,0,1,1.917,0Z" transform="translate(-290.11 -95.74)"/><path class="b" d="M412.177,95.84a4.658,4.658,0,0,1-1.917,0A4.658,4.658,0,0,1,412.177,95.84Z" transform="translate(-296.277 -95.74)"/><path class="b" d="M422.177,95.84a4.658,4.658,0,0,1-1.917,0A4.658,4.658,0,0,1,422.177,95.84Z" transform="translate(-302.443 -95.74)"/><path class="b" d="M432.177,95.84a4.658,4.658,0,0,1-1.917,0A4.658,4.658,0,0,1,432.177,95.84Z" transform="translate(-308.61 -95.74)"/><path class="b" d="M442.177,95.84a4.658,4.658,0,0,1-1.917,0A4.658,4.658,0,0,1,442.177,95.84Z" transform="translate(-314.777 -95.74)"/><path class="b" d="M452.177,95.84a4.658,4.658,0,0,1-1.917,0A4.658,4.658,0,0,1,452.177,95.84Z" transform="translate(-320.943 -95.74)"/><path class="b" d="M462.177,95.84a4.658,4.658,0,0,1-1.917,0A4.658,4.658,0,0,1,462.177,95.84Z" transform="translate(-327.11 -95.74)"/><path class="b" d="M472.177,95.84a4.658,4.658,0,0,1-1.917,0A4.658,4.658,0,0,1,472.177,95.84Z" transform="translate(-333.276 -95.74)"/><path class="b" d="M482.177,95.84a4.657,4.657,0,0,1-1.917,0A4.658,4.658,0,0,1,482.177,95.84Z" transform="translate(-339.443 -95.74)"/><path class="b" d="M492.177,95.84a4.658,4.658,0,0,1-1.917,0A4.658,4.658,0,0,1,492.177,95.84Z" transform="translate(-345.609 -95.74)"/><path class="b" d="M502.177,95.84a4.658,4.658,0,0,1-1.917,0A4.658,4.658,0,0,1,502.177,95.84Z" transform="translate(-351.776 -95.74)"/><path class="b" d="M512.177,95.84a4.658,4.658,0,0,1-1.917,0A4.658,4.658,0,0,1,512.177,95.84Z" transform="translate(-357.943 -95.74)"/><path class="b" d="M522.177,95.84a4.658,4.658,0,0,1-1.917,0A4.658,4.658,0,0,1,522.177,95.84Z" transform="translate(-364.109 -95.74)"/><path class="b" d="M532.177,95.84a4.657,4.657,0,0,1-1.917,0,4.658,4.658,0,0,1,1.917,0Z" transform="translate(-370.276 -95.74)"/><path class="b" d="M542.177,95.84a4.658,4.658,0,0,1-1.917,0A4.658,4.658,0,0,1,542.177,95.84Z" transform="translate(-376.442 -95.74)"/><path class="b" d="M552.177,95.84a4.658,4.658,0,0,1-1.917,0A4.658,4.658,0,0,1,552.177,95.84Z" transform="translate(-382.609 -95.74)"/><path class="b" d="M562.177,95.84a4.658,4.658,0,0,1-1.917,0A4.658,4.658,0,0,1,562.177,95.84Z" transform="translate(-388.775 -95.74)"/><path class="b" d="M572.177,95.84a4.658,4.658,0,0,1-1.917,0A4.658,4.658,0,0,1,572.177,95.84Z" transform="translate(-394.942 -95.74)"/><path class="b" d="M582.177,95.84a4.658,4.658,0,0,1-1.917,0A4.658,4.658,0,0,1,582.177,95.84Z" transform="translate(-401.109 -95.74)"/><path class="b" d="M587.641,100.327a4.657,4.657,0,0,1,0-1.917,4.654,4.654,0,0,1,0,1.917Z" transform="translate(-405.591 -97.387)"/><path class="b" d="M587.641,110.327a4.657,4.657,0,0,1,0-1.917,4.654,4.654,0,0,1,0,1.917Z" transform="translate(-405.591 -103.553)"/><path class="b" d="M587.641,120.327a4.657,4.657,0,0,1,0-1.917,4.655,4.655,0,0,1,0,1.917Z" transform="translate(-405.591 -109.72)"/><path class="b" d="M587.66,130.327a4.66,4.66,0,0,1,0-1.917A4.658,4.658,0,0,1,587.66,130.327Z" transform="translate(-405.61 -115.886)"/><path class="b" d="M587.66,140.327a4.66,4.66,0,0,1,0-1.917A4.658,4.658,0,0,1,587.66,140.327Z" transform="translate(-405.61 -122.053)"/><path class="b" d="M588.4,149.579c0,.05-.318.088-.748.1h-.1v-.311a2.419,2.419,0,0,1,.1-.958,2.343,2.343,0,0,1,.1.958v.211l-.1-.1A1.778,1.778,0,0,1,588.4,149.579Z" transform="translate(-405.598 -128.219)"/><path class="b" d="M596.687,151.3a4.658,4.658,0,0,1-1.917,0A4.657,4.657,0,0,1,596.687,151.3Z" transform="translate(-410.056 -129.94)"/><path class="b" d="M606.687,151.3a4.658,4.658,0,0,1-1.917,0A4.657,4.657,0,0,1,606.687,151.3Z" transform="translate(-416.223 -129.94)"/><path class="b" d="M616.687,151.3a4.658,4.658,0,0,1-1.917,0A4.657,4.657,0,0,1,616.687,151.3Z" transform="translate(-422.389 -129.94)"/><path class="b" d="M626.687,151.3a4.658,4.658,0,0,1-1.917,0A4.657,4.657,0,0,1,626.687,151.3Z" transform="translate(-428.556 -129.94)"/><path class="b" d="M636.687,151.3a4.658,4.658,0,0,1-1.917,0A4.657,4.657,0,0,1,636.687,151.3Z" transform="translate(-434.723 -129.94)"/><path class="b" d="M646.687,151.3a4.658,4.658,0,0,1-1.917,0A4.657,4.657,0,0,1,646.687,151.3Z" transform="translate(-440.889 -129.94)"/><path class="b" d="M656.687,151.3a4.658,4.658,0,0,1-1.917,0A4.657,4.657,0,0,1,656.687,151.3Z" transform="translate(-447.056 -129.94)"/><path class="b" d="M666.687,151.3a4.658,4.658,0,0,1-1.917,0A4.657,4.657,0,0,1,666.687,151.3Z" transform="translate(-453.222 -129.94)"/><path class="b" d="M673.5,154.5a4.656,4.656,0,0,1,0-1.917A4.66,4.66,0,0,1,673.5,154.5Z" transform="translate(-458.544 -130.791)"/><path class="b" d="M673.5,164.5a4.656,4.656,0,0,1,0-1.917A4.66,4.66,0,0,1,673.5,164.5Z" transform="translate(-458.544 -136.957)"/><path class="b" d="M673.5,174.5a4.656,4.656,0,0,1,0-1.917A4.66,4.66,0,0,1,673.5,174.5Z" transform="translate(-458.544 -143.124)"/><path class="b" d="M673.5,184.5a4.656,4.656,0,0,1,0-1.917A4.66,4.66,0,0,1,673.5,184.5Z" transform="translate(-458.544 -149.291)"/><path class="b" d="M673.5,194.5a4.656,4.656,0,0,1,0-1.917A4.66,4.66,0,0,1,673.5,194.5Z" transform="translate(-458.544 -155.457)"/><path class="b" d="M673.5,204.5a4.656,4.656,0,0,1,0-1.917A4.66,4.66,0,0,1,673.5,204.5Z" transform="translate(-458.544 -161.624)"/><path class="b" d="M673.5,214.5a4.656,4.656,0,0,1,0-1.917A4.66,4.66,0,0,1,673.5,214.5Z" transform="translate(-458.544 -167.79)"/><path class="b" d="M673.5,224.5a4.656,4.656,0,0,1,0-1.917A4.66,4.66,0,0,1,673.5,224.5Z" transform="translate(-458.544 -173.957)"/><path class="b" d="M673.5,234.5a4.656,4.656,0,0,1,0-1.917A4.66,4.66,0,0,1,673.5,234.5Z" transform="translate(-458.544 -180.123)"/><path class="b" d="M673.5,244.5a4.656,4.656,0,0,1,0-1.917A4.66,4.66,0,0,1,673.5,244.5Z" transform="translate(-458.544 -186.29)"/><path class="b" d="M673.5,254.5a4.656,4.656,0,0,1,0-1.917A4.66,4.66,0,0,1,673.5,254.5Z" transform="translate(-458.544 -192.457)"/><path class="e" d="M366.853,112.73s-2.975-1.648-5.892,5.39a87.8,87.8,0,0,0-3.914,11.04s-.8,1.491-1.848.64-2.588-3.373-4.217-2.772c-1.679.629-2.093,2.588-1.533,5.367s1.533,8.943,1.614,9.5-.169,1.384-.974.916-5.589-5.014-7.613-2.618.767,9.921,1.073,10.734.153,1.2-.23,1.441-1.852-1.441-3.262-2.683-3.27-2.427-4.324-.947-.97,7.283,5.263,16.227l3.155,3.956,5.041-.679c10.691-2.108,14.778-6.225,15.05-8.023s-1.886-2.185-3.764-2.254-4.1.1-4.217-.337.054-.8.836-1.2,8.023-3.856,8.234-6.988-6.394-3.178-7.284-3.4-.506-1-.065-1.334,5.428-4.09,7.759-5.716,3.4-3.324,2.622-4.941c-.744-1.556-3.6-.813-4.949-.928s-.885-1.74-.885-1.74a88.047,88.047,0,0,0,4.849-10.665c2.787-7.088-.583-7.974-.583-7.974" transform="translate(-250.006 -106.114)"/><path class="c" d="M359,178.4c2.066-5.2,4.983-12.355,8.234-20.252s6.18-15.042,8.276-20.229c1.043-2.588,1.886-4.684,2.476-6.133l.675-1.668c.077-.184.134-.33.18-.433a1.554,1.554,0,0,1,.065-.146.39.39,0,0,1-.05.153c-.05.1-.092.249-.165.437-.15.383-.364.958-.644,1.683-.563,1.461-1.392,3.565-2.427,6.164-2.066,5.2-4.983,12.355-8.23,20.248s-6.18,15.046-8.276,20.233" transform="translate(-264.667 -116.583)"/><path class="c" d="M381.61,159.78a1.608,1.608,0,0,1,.157.33c.092.219.215.537.36.928.3.79.671,1.89,1.062,3.109s.725,2.3.993,3.132l.3.947a1.434,1.434,0,0,1,.1.353,1.612,1.612,0,0,1-.157-.33c-.092-.219-.215-.537-.356-.932-.288-.79-.648-1.894-1.043-3.117l-1.012-3.12c-.119-.383-.222-.686-.307-.947A1.434,1.434,0,0,1,381.61,159.78Z" transform="translate(-278.61 -135.231)"/><path class="c" d="M390.59,176.824c0-.046,2.216-.924,4.983-1.959s5.029-1.844,5.045-1.8-2.212.924-4.983,1.959S390.605,176.874,390.59,176.824Z" transform="translate(-284.147 -143.423)"/><path class="c" d="M376.15,212.143a1.535,1.535,0,0,1,.383-.05l1.012-.08c.855-.065,2.036-.161,3.335-.314s2.469-.326,3.316-.46l1-.157a1.294,1.294,0,0,1,.383-.034,1.793,1.793,0,0,1-.36.1c-.234.054-.575.126-1,.211-.839.161-2.013.357-3.316.51s-2.488.23-3.347.265c-.429,0-.767.027-1.016.023A1.733,1.733,0,0,1,376.15,212.143Z" transform="translate(-275.243 -166.843)"/><path class="c" d="M363.44,194.81a1.42,1.42,0,0,1,.222.265c.13.176.322.437.552.767.46.644,1.089,1.533,1.771,2.542s1.292,1.917,1.729,2.572c.218.33.383.6.506.79a1.364,1.364,0,0,1,.169.3,2.836,2.836,0,0,1-.222-.264c-.134-.176-.322-.437-.556-.767-.46-.648-1.085-1.533-1.771-2.542s-1.292-1.917-1.729-2.572c-.215-.33-.383-.6-.506-.79A1.237,1.237,0,0,1,363.44,194.81Z" transform="translate(-267.405 -156.832)"/><path class="c" d="M347.21,220.59a2.108,2.108,0,0,1,.28.341c.188.261.429.583.713.974.594.824,1.407,1.967,2.3,3.239s1.687,2.427,2.254,3.27c.268.383.491.736.667,1a2.688,2.688,0,0,1,.226.383,1.882,1.882,0,0,1-.28-.341l-.713-.97c-.594-.824-1.407-1.97-2.3-3.239s-1.683-2.427-2.25-3.27l-.667-1A1.915,1.915,0,0,1,347.21,220.59Z" transform="translate(-257.397 -172.73)"/><path class="c" d="M363.75,241.157a2.571,2.571,0,0,1,.468-.077l1.28-.146c1.081-.123,2.572-.3,4.217-.533s3.124-.491,4.194-.679l1.269-.222a2.579,2.579,0,0,1,.472-.061,2.474,2.474,0,0,1-.456.126c-.3.073-.728.169-1.261.276-1.066.222-2.549.494-4.194.728s-3.143.383-4.217.487c-.541.046-.981.077-1.284.092A2.645,2.645,0,0,1,363.75,241.157Z" transform="translate(-267.596 -184.354)"/><path class="b" d="M602.291,141.284c-.088,0-.161-3.833-.161-8.537s.073-8.537.161-8.537.161,3.833.161,8.537S602.379,141.284,602.291,141.284Z" transform="translate(-414.595 -113.296)"/><path class="b" d="M609.451,153.821c0,.088-.506.161-1.15.161s-1.131-.073-1.131-.161.506-.161,1.131-.161S609.451,153.729,609.451,153.821Z" transform="translate(-417.703 -131.457)"/></g><g transform="translate(0 157.865)"><path class="f" d="M294.443,462.03c0,.057-60.081.1-134.17.1s-134.193-.042-134.193-.1,60.07-.1,134.193-.1S294.443,461.976,294.443,462.03Z" transform="translate(-26.08 -461.93)"/></g><g transform="translate(32.164 120.671)"><path class="g" d="M131.4,400.512c5.167-3.584,6.36-10.262,6.176-16.269a6.613,6.613,0,0,0-.383-2.94,2.039,2.039,0,0,0-2.484-1.066c-.744.349-1.073,1.211-1.491,1.917a5.861,5.861,0,0,1-2.358,2.239,2.251,2.251,0,0,1-2.062.176c-.863-.479-.958-1.675-.951-2.683q.031-2.787.054-5.574a9.25,9.25,0,0,0-.28-2.936,3.1,3.1,0,0,0-1.94-2.1,1.87,1.87,0,0,0-2.323,1.25,8.933,8.933,0,0,0-.034,1.242,1.05,1.05,0,0,1-.617.985,1.22,1.22,0,0,1-1.093-.46,13.079,13.079,0,0,1-2.369-3.6,17.969,17.969,0,0,0-2.208-3.715,5.4,5.4,0,0,0-3.646-2.062,3.236,3.236,0,0,0-3.32,2.189c-.368,1.4.449,2.837,1.338,3.975a22.233,22.233,0,0,0,4.6,4.435,1.829,1.829,0,0,1,.767.836c.211.667-.418,1.323-1.077,1.533a11.327,11.327,0,0,1-2.327.253,2.233,2.233,0,0,0-1.917,1.15c-.41,1.02.437,2.089,1.273,2.791a18.987,18.987,0,0,0,5.635,3.278,6.463,6.463,0,0,1,2.093,1.027,1.623,1.623,0,0,1-1.464,2.883,14.287,14.287,0,0,1-2.185-.843c-1.369-.521-3.14-.433-4.021.747a3.163,3.163,0,0,0-.345,2.791,7.284,7.284,0,0,0,1.5,2.469,19.167,19.167,0,0,0,8.169,5.781,13.159,13.159,0,0,0,9.281.28" transform="translate(-109.984 -364.905)"/><path class="f" d="M133.544,403.555a19.937,19.937,0,0,0-1.2-5.463,88.938,88.938,0,0,0-3.511-9.633q-.537-1.253-1.05-2.476c-.349-.813-.69-1.618-1.077-2.384a44.346,44.346,0,0,0-2.476-4.27c-.847-1.326-1.7-2.549-2.511-3.692s-1.583-2.185-2.331-3.109a35.609,35.609,0,0,0-3.833-4.094c-.491-.449-.882-.767-1.15-1l-.307-.249c-.069-.057-.107-.084-.111-.08a1.329,1.329,0,0,0,.1.1l.3.264c.261.23.644.571,1.127,1.027a37.567,37.567,0,0,1,3.791,4.125c.74.924,1.507,1.974,2.3,3.117s1.648,2.369,2.5,3.692a45,45,0,0,1,2.442,4.27c.383.767.725,1.564,1.07,2.377s.694,1.641,1.05,2.476a91.561,91.561,0,0,1,3.519,9.61,20.637,20.637,0,0,1,1.231,5.424" transform="translate(-112.454 -366.258)"/><path class="f" d="M146.993,392.477a2.026,2.026,0,0,0,.1-.425c.054-.276.119-.675.192-1.173.142-.993.3-2.369.46-3.887s.333-2.89.491-3.879c.081-.495.146-.893.2-1.169a1.8,1.8,0,0,0,.054-.433,2.439,2.439,0,0,0-.126.418c-.069.272-.157.671-.253,1.15-.192.985-.383,2.361-.548,3.879s-.3,2.856-.406,3.895c-.05.468-.1.863-.13,1.177A1.708,1.708,0,0,0,146.993,392.477Z" transform="translate(-132.803 -375.145)"/><path class="f" d="M113.58,403.733a2.629,2.629,0,0,0,.514.065c.326.031.805.069,1.392.142,1.173.13,2.787.383,4.558.709s3.358.721,4.5,1.027c.571.15,1.031.284,1.349.383a3.1,3.1,0,0,0,.5.123,3.008,3.008,0,0,0-.479-.2c-.314-.111-.767-.265-1.338-.429-1.15-.341-2.726-.74-4.5-1.085a44.535,44.535,0,0,0-4.6-.656c-.59-.054-1.07-.077-1.4-.084A2.873,2.873,0,0,0,113.58,403.733Z" transform="translate(-112.202 -388.842)"/><path class="f" d="M161.44,421.033a.693.693,0,0,0,.092-.157c.057-.126.13-.28.219-.464.192-.4.449-.993.767-1.725.621-1.468,1.422-3.519,2.269-5.8s1.629-4.336,2.22-5.812l.709-1.748c.073-.192.138-.349.188-.475s.061-.169.054-.173a.741.741,0,0,0-.088.157l-.218.46c-.192.406-.452,1-.767,1.729-.625,1.464-1.422,3.519-2.269,5.8s-1.629,4.336-2.223,5.815c-.287.717-.529,1.307-.705,1.744-.077.192-.138.349-.188.479a.879.879,0,0,0-.058.173Z" transform="translate(-141.715 -389.433)"/><path class="f" d="M117.05,432.86a.846.846,0,0,0,.169.069l.495.169,1.825.6c1.533.5,3.653,1.227,5.992,2.024s4.466,1.507,6.015,1.978c.767.238,1.4.422,1.84.541l.506.138a1.014,1.014,0,0,0,.176.035,1.236,1.236,0,0,0-.169-.073l-.491-.165-1.809-.6c-1.533-.506-3.653-1.227-6-2.028s-4.462-1.507-6.011-1.978c-.767-.238-1.4-.422-1.84-.54l-.506-.134A.521.521,0,0,0,117.05,432.86Z" transform="translate(-114.341 -406.81)"/></g><g transform="translate(50.617)"><path class="h" d="M223.334,208.084h-53.35a12.1,12.1,0,0,1-11.864-11.972l.567-134.366A11.673,11.673,0,0,1,170.414,50.12l53.6.249a11.669,11.669,0,0,1,11.619,11.723l-.567,134.366A11.673,11.673,0,0,1,223.334,208.084Z" transform="translate(-158.12 -50.12)"/><path class="i" d="M229.659,63.735,219.266,63.7a2.58,2.58,0,0,0-2.534,2.626v1.886a2.584,2.584,0,0,1-2.534,2.626l-20.256-.1a2.58,2.58,0,0,1-2.511-2.649V66.215a2.591,2.591,0,0,0-2.515-2.653h-3.653l-9.1-.042a8.177,8.177,0,0,0-8.211,8.142L167.4,202.785A8.177,8.177,0,0,0,175.538,211l53.488.245a8.173,8.173,0,0,0,8.215-8.142l.541-131.153A8.181,8.181,0,0,0,229.659,63.735Z" transform="translate(-163.842 -58.383)"/><path class="i" d="M270.319,383.548c-.061,1.583-.119,3.067-.169,4.3h7.667l-.939-4.723Z" transform="translate(-227.204 -255.473)"/><path class="i" d="M189.13,386.274l.065,2.331h30.227c.05-1.311.107-2.76.165-4.255Z" transform="translate(-177.242 -256.225)"/><path class="i" d="M288.75,381.553l.943,4.742h14.168l-.172-5.685Z" transform="translate(-238.674 -253.919)"/><path class="i" d="M265.616,184.261l2.68-15.529-7.015-.521v16.051Z" transform="translate(-221.734 -122.941)"/><path class="i" d="M175.2,366.88l-7.613,2.982-.023,5.394,7.862-.5Z" transform="translate(-163.941 -245.452)"/><path class="i" d="M175.2,332.246l-.414-14.464h-.008v-5.1l-7.061.748-.092,21.778,7.571-2.967Z" transform="translate(-163.984 -212.029)"/><path class="i" d="M174.944,281.488l-7-.928-.05,11.907,7.054-.747Z" transform="translate(-164.145 -192.222)"/><path class="i" d="M308.7,312.907l-.3,4.148-8.273.889.64,3.281,9.388-.709-.138-4.7.747-3.113Z" transform="translate(-245.691 -212.042)"/><path class="i" d="M282.618,323.669l6.6-.5-1.438-7.36-5.758.583Z" transform="translate(-234.524 -213.96)"/><path class="i" d="M283.75,336.324l.5,6.137.893,8.418.368,1.844,15.069-.951-.5-16.683Z" transform="translate(-235.591 -225.849)"/><path class="i" d="M186.466,232.077l.579.993-11.619,6.789V255.94l12.267-.87,23.656-2.4-.866-10.538L187.9,239.184l.15-1.15,22.337,2.917-1.464-17.837-22.111,2.124-.073-.767,22.119-2.124-.767-9.308H186.815l-18.673,3.4-.092,21.314,7.065.958Zm-9.852,22.314s.088-13.256,0-13.751L186.1,235.6l1.23,18.121Z" transform="translate(-164.243 -150.586)"/><path class="i" d="M306.631,313.45l-8.591.866.652,3.335,7.7-.828Z" transform="translate(-244.403 -212.504)"/><path class="i" d="M270.747,376.81c-.027.7-.054,1.388-.077,2.07l6.394-.406-.33-1.648Z" transform="translate(-227.525 -251.576)"/><path class="i" d="M193.834,181.017l1.127-5.11h8.587V164.94L176.7,162.95v10.3l-8.384,1.9-.038,9.246,18.565-3.377Z" transform="translate(-164.385 -119.697)"/><path class="i" d="M268.227,100.844l-.23-.939,10.251-4.056-6.666-13.386a2.382,2.382,0,0,1-.383.031L259.87,82.44l.307,18.734Z" transform="translate(-220.865 -70.05)"/><path class="i" d="M304.332,82.293V64.019L296.86,64a2.58,2.58,0,0,0-2.534,2.626v1.886a2.683,2.683,0,0,1-1.1,2.162l6.67,13.394Z" transform="translate(-241.437 -58.679)"/><path class="i" d="M198.348,82.752l-.866-19.244h-2.074L187.3,63.47l-3.45,17.208ZM196.5,65.46l.276,15.671L186,79.555l2.358-14.1Z" transform="translate(-173.987 -58.352)"/><path class="i" d="M221.272,82.884v.161c0,1.5.046,4.217.069,7.1l14.118-.575-.307-18.749-8.545-.042a2.58,2.58,0,0,1-2.511-2.649V66.243a2.591,2.591,0,0,0-2.515-2.653H220.39l.866,19.294Z" transform="translate(-196.519 -58.426)"/><path class="i" d="M173.4,80.5l3.419-17.04a8.173,8.173,0,0,0-8.027,8.135l-.038,8.495.038-.249Z" transform="translate(-164.675 -58.346)"/><path class="i" d="M175.62,161.873l-7.18-.533-.05,11.634,7.23-1.637Z" transform="translate(-164.453 -118.704)"/><path class="i" d="M173.19,107.836l-4.569-.656-.081,18.841.985.073Z" transform="translate(-164.546 -85.306)"/><path class="i" d="M199.26,338.813l.119-15.123-12.079.855.429,14.816Z" transform="translate(-176.114 -218.819)"/><path class="i" d="M223.394,331.412l17.1,8.2c.207-5.367.383-10.35.383-10.684l.383-.019.184-.36c.242.119.242.119.115,3.772-.073,2.036-.172,4.746-.276,7.456H247.2l-.87-8.219-1.15-14.184-22.353,2.254Z" transform="translate(-198.024 -214.922)"/><path class="i" d="M300.391,285.347l-.2-2-20.505,2.135.863,10.507,17.707-1.786Z" transform="translate(-233.087 -193.943)"/><path class="i" d="M246.547,199.75h-7.663l-.874,3.96h8.537Z" transform="translate(-207.385 -142.39)"/><path class="i" d="M293.333,201.106l-19.186-1.326-.767,4.531.809,9.837,20.233-1.947Zm-18.481,3.2,1.031-2.86,16.664,1.054.962,8.181-18.094,2.147Z" transform="translate(-229.196 -142.409)"/><path class="i" d="M296.7,242.878l-.843-8.7-20.244,1.944.763,9.258Z" transform="translate(-230.571 -163.622)"/><path class="i" d="M175.427,389.415l-7.855.495-.031-.51-.012,2.315h7.962Z" transform="translate(-163.923 -259.339)"/><path class="i" d="M333.681,78.022l.115.3.011-6.026a8.181,8.181,0,0,0-8.138-8.211H323.12V82.2Z" transform="translate(-259.868 -58.728)"/><path class="i" d="M219.276,343.766,201.815,335.4,201.2,323.41l-.728.073-.126,15.525-11.9.564v.345h0l.23,8L219.18,346C219.219,345.257,219.249,344.509,219.276,343.766Zm-30.089-3.2,16.66-1.15,10.837,5.026-27.5,1.487Z" transform="translate(-176.817 -218.646)"/><path class="i" d="M321.557,128.92l.717-4.236c-6.264-2.235-6.7-8.767-6.678-10.734l-4.086,1.618,6.153,12.355Z" transform="translate(-252.709 -89.481)"/><path class="i" d="M278.453,272.407l8.514-.886L285.292,264l-7.452.92Z" transform="translate(-231.946 -182.01)"/><path class="i" d="M294.908,169.74h-15.9l-1.319-.1-1.8,10.415,18.876,1.3-.437-4.527,1.859-6.685Z" transform="translate(-230.744 -123.823)"/><path class="i" d="M299.17,136.7l.2-4.983-6.248-12.547L283.43,123l3.331,13.678Zm-6.429-15.989,5.727,10.895-.828,3.4-9.8-.383-2.45-10.3Z" transform="translate(-235.393 -92.7)"/><path class="i" d="M330.94,314.631l.3,9.764,6.889-.387.023.383-6.9.387.349,11.684,6.517-.414.046.767-6.54.414.176,5.808h6.348l.138-32.576-6.494.656Z" transform="translate(-264.691 -210.66)"/><path class="i" d="M192.359,111.413l-14.59-2.093L174.12,127.5l18.3,1.357C192.5,126.064,192.432,117.47,192.359,111.413Z" transform="translate(-167.986 -86.626)"/><path class="i" d="M269.765,144.267h2.208l-3.124-12.827-8.119.334.2,11.838Z" transform="translate(-221.395 -100.266)"/><path class="i" d="M167.43,419.79v0Z" transform="translate(-163.861 -278.08)"/><path class="i" d="M222.84,143.084l14.333,1.062-.192-11.8-14.122.575C222.9,136.916,222.9,141.171,222.84,143.084Z" transform="translate(-198.03 -100.828)"/><path class="i" d="M310.782,259.86,298.27,261.4l1.683,7.525,11.589-1.2Z" transform="translate(-244.544 -179.458)"/><path class="i" d="M329.524,117.214l.8-4.753,3.45.268.046-10.239-10.653,4.217C322.949,113.91,327.477,116.444,329.524,117.214Z" transform="translate(-259.893 -82.414)"/><path class="i" d="M329.06,178.739l.433,4.493,7.8.541.038-9.25L330.8,172.46Z" transform="translate(-263.531 -125.562)"/><path class="i" d="M335.447,285.407l-2.047,8.522,6.4-.648.038-8.936c-1.963-.517-3.676-.939-4.6-1.116Z" transform="translate(-266.208 -193.869)"/><path class="i" d="M327.48,158.034l8.89,2.81.023-5.056-8.733-2.258Z" transform="translate(-262.557 -113.888)"/><path class="i" d="M335.137,250.488a46.434,46.434,0,0,1,4.715,1.092l.084-19.55-6.517.629Z" transform="translate(-266.22 -162.296)"/><path class="i" d="M331.527,214.37l6.6-.636.038-9.61-7.686-.533Z" transform="translate(-264.407 -144.758)"/><path class="i" d="M341.68,134.808a35.845,35.845,0,0,0,3.492.893v-4.853l-2.81-.219Z" transform="translate(-271.314 -99.767)"/><path class="i" d="M339.67,146.72l4.244,1.1.019-4.382c-1.1-.222-2.3-.521-3.557-.9Z" transform="translate(-270.074 -107.105)"/><path class="j" d="M175.464,188.424l.065,2.3h.383l-.065-2.331,30.457-1.917c-.057,1.5-.115,2.944-.165,4.255h.767c.05-1.238.107-2.722.169-4.3l6.574-.418.939,4.723h.383l-.943-4.746,14.95-.943.172,5.689h1.917l-.176-5.811,6.54-.414-.046-.767-6.517.414-.349-11.684,6.9-.383-.023-.383-6.9.383-.3-9.764.847-3.515,6.494-.655v-.383l-6.4.648,2.047-8.522-.211-2.177c.924.176,2.637.6,4.6,1.116v-1.208c-2.641-.7-4-.985-4.715-1.093l-1.725-17.818,6.517-.629v-.767l-6.6.636-1.047-10.78,7.667.533v-1.15l-7.8-.541-.433-4.493,1.744-6.279,6.517,2.062v-2l-8.89-2.81.18-4.5,8.733,2.258V99.06l-4.244-1.1.705-4.19c1.273.383,2.457.682,3.557.9v-.383a35.852,35.852,0,0,1-3.492-.893l.7-4.178,2.81.219v-.767l-3.45-.268-.8,4.753c-2.047-.767-6.574-3.3-6.356-10.511l10.653-4.217v-.487l-.115-.3-10.534,4.171V63.7h-.383V81.97l-4.439,1.76-6.67-13.394a2.431,2.431,0,0,1-1.07.433l6.666,13.386-10.17,4.052.23.939-8.05.33-.307-18.734h-.383l.307,18.749-14.119.575c-.023-2.89-.054-5.593-.069-7.1V82.81h0l-.866-19.294h-.383l.866,19.244-14.5-2.082,3.45-17.208h-1.173l-3.419,17.04-4.6-.659-.038.249v.13l4.569.656-3.665,18.259-.985-.073v1.917l7.18.533v9.465l-7.23,1.637V113.8l8.384-1.917V101.624l26.834,1.99v10.971h-8.587l-1.127,5.106H186.42l-18.565,3.377v1.169l18.676-3.416H207.8l.767,9.308-22.119,2.124.073.767,22.111-2.124,1.464,17.837-22.337-2.917-.15,1.15,22.583,2.952.874,10.523-23.641,2.384-12.267.87v-16.07l11.619-6.778-.579-.993-11.366,6.62-7.084-.943v1.15l7.011.943v10.231l-7.053.748v1.15l7.061-.748v5.1h0l.418,14.464h0l-7.571,2.967v1.234l7.613-2.982.226,7.878-7.862.5v.257l.031.51Zm31.641-2.768c.023-.682.05-1.372.077-2.07h5.988l.33,1.648Zm6.777-.429-.383-1.844-.893-8.434-.5-6.133,16.33-1.234.5,16.679Zm3.7-25.063,8.595-.866-.241,3.373-7.7.828Zm-.383.038,1.438,7.36-6.6.5-.6-7.284Zm11.213,6.624-9.388.709-.64-3.281,8.273-.889.3-4.148,2.07-.207-.748,3.113Zm-11.117-26.485,1.675,7.521-8.514.886-.613-7.487Zm2.062,7.479-1.683-7.525,12.512-1.533.767,7.862Zm8.614-31.932-18.876-1.307,1.8-10.412,1.319.1h15.9l1.277.406-1.844,6.685Zm-1.15-33.094c-.019,1.978.414,8.51,6.678,10.734l-.69,4.263-3.895-1.008-6.153-12.37Zm-5.16,2.043,6.272,12.547-.2,4.983h-12.4L212,88.69Zm-10.274,4.688,3.124,12.827H212.33l-8.84-.652-.2-11.841Zm-8.5.349.192,11.8-14.333-1.062c.061-1.917.05-6.168,0-10.159Zm-29.169-8.817,14.59,2.093c.073,6.057.138,14.644.065,17.442l-18.3-1.357Zm36.778,23.1-2.683,15.529h-4.3V103.621Zm-15.062,11.573H203.1v3.956h-8.518Zm12.65,4.539.767-4.531,19.186,1.326,1.073,11.094L208.876,130.1Zm21.115,8.656.843,8.7-20.317,2.507-.767-9.262Zm-18.68,20.984,20.505-2.135.2,2-2.131,8.859-17.707,1.786Zm1.679,25.105.87,8.219H207.2c.1-2.71.2-5.42.276-7.456.126-3.653.126-3.653-.115-3.772l-.184.36-.383.019c0,.318-.165,5.328-.383,10.684l-17.078-8.223-.606-11.78,22.341-2.239Zm-25.017-11.776-.119,15.123-11.531.548L175.1,164.09Zm-11.631,16.407h0V179.3l11.9-.564.126-15.525.728-.073.617,11.987,17.461,8.368c-.027.744-.057,1.491-.084,2.235l-30.51,1.917Z" transform="translate(-163.96 -58.352)"/><path class="b" d="M207.05,365.1l-16.66,1.165v5.351l27.5-1.491Z" transform="translate(-178.02 -244.355)"/><path class="b" d="M294.915,205.174l-16.664-1.054-1.031,2.86.564,8.522,18.094-2.147Z" transform="translate(-231.564 -145.085)"/><path class="b" d="M175.557,415.683l53.488.245a8.173,8.173,0,0,0,8.215-8.142l.054-12.336H167.468l-.038,9.331v2.936A8.173,8.173,0,0,0,175.557,415.683Z" transform="translate(-163.861 -263.07)"/><path class="b" d="M200.236,84.331,199.96,68.66h-8.138l-2.361,14.1Z" transform="translate(-177.446 -61.553)"/><path class="b" d="M300.8,137.481l.828-3.4L295.9,123.19l-7.349,3.619,2.45,10.3Z" transform="translate(-238.551 -95.179)"/><path class="b" d="M190.39,276.885c.088.495,0,13.75,0,13.75l10.734-.675-1.231-18.121Z" transform="translate(-178.02 -186.845)"/><path class="b" d="M282.677,296.106l-.567-8.215,18.374-2.361v1.418L298.26,294.5Z" transform="translate(-234.579 -195.287)"/><path class="g" d="M240.938,131.789a2.239,2.239,0,1,1-2.239-2.239A2.239,2.239,0,0,1,240.938,131.789Z" transform="translate(-206.429 -99.101)"/><g class="k" transform="translate(30.029 30.451)"><path class="j" d="M240.931,131.7a2.239,2.239,0,1,1-2.331-2.139A2.239,2.239,0,0,1,240.931,131.7Z" transform="translate(-236.455 -129.555)"/></g><ellipse class="g" cx="1.487" cy="1.487" rx="1.487" ry="1.487" transform="translate(30.782 31.124)"/><path class="g" d="M329.447,366.974a.958.958,0,1,1-.279-.692A.958.958,0,0,1,329.447,366.974Z" transform="translate(-262.588 -244.909)"/><path class="g" d="M256.895,224.012l-.234-5.367-16.146.786a2.465,2.465,0,0,1-1.223-.261l-22.9-11.569a1.664,1.664,0,0,1-.908-1.4l-3.12-60.469a1.008,1.008,0,0,1,1.085-1.058l9.817.725V134.67h1.15v10.879a1.016,1.016,0,0,1-.307.747,1.031,1.031,0,0,1-.767.265l-9.81-.725,3.109,60.311a.514.514,0,0,0,.28.426l22.9,11.577a1.3,1.3,0,0,0,.648.138l16.284-.794a1.024,1.024,0,0,1,.732.264,1.008,1.008,0,0,1,.333.709l.234,5.493Z" transform="translate(-191.565 -102.258)"/><circle class="g" cx="2.898" cy="2.898" r="2.898" transform="translate(19.773 66.844)"/><circle class="d" cx="2.013" cy="2.013" r="2.013" transform="translate(20.658 67.729)"/><path class="g" d="M213.782,230.736a2.158,2.158,0,1,1,2.154-2.158,2.158,2.158,0,0,1-2.154,2.158Zm0-4.029a1.871,1.871,0,1,0,1.867,1.871,1.871,1.871,0,0,0-1.867-1.871Z" transform="translate(-191.111 -158.837)"/><path class="g" d="M237.636,200.34h-13.8a1.215,1.215,0,0,0-1.215,1.215v4.983a1.215,1.215,0,0,0,1.215,1.215H224v1.192l1.384-1.192h12.267a1.215,1.215,0,0,0,1.215-1.215v-4.983a1.215,1.215,0,0,0-1.227-1.215Z" transform="translate(-197.894 -142.754)"/><g class="l" transform="translate(24.726 57.586)"><path class="j" d="M237.636,200.34h-13.8a1.215,1.215,0,0,0-1.215,1.215v4.983a1.215,1.215,0,0,0,1.215,1.215H224v1.192l1.384-1.192h12.267a1.215,1.215,0,0,0,1.215-1.215v-4.983a1.215,1.215,0,0,0-1.227-1.215Z" transform="translate(-222.62 -200.34)"/></g><path class="j" d="M230.719,208.439a.828.828,0,1,1,.832.8.793.793,0,0,1-.832-.8Zm1.434,0a.606.606,0,1,0-.6.6.583.583,0,0,0,.6-.6Z" transform="translate(-202.888 -147.219)"/><path class="j" d="M237.033,208.606a.571.571,0,0,1-.594.6.494.494,0,0,1-.422-.2v.188h-.207V207.54h.215v.652a.506.506,0,0,1,.414-.188.571.571,0,0,1,.594.6Zm-.215,0a.165.165,0,1,0,.015,0Z" transform="translate(-206.028 -147.194)"/><path class="j" d="M238.75,209.524l.069-.165a.264.264,0,0,0,.176.057c.111,0,.176-.073.176-.207v-1.238h.211v1.234a.353.353,0,0,1-.383.383A.426.426,0,0,1,238.75,209.524Zm.383-1.917a.147.147,0,1,1,.142.138.134.134,0,0,1-.142-.142Z" transform="translate(-207.841 -147.151)"/><path class="j" d="M242.352,209.42h-.958a.383.383,0,0,0,.429.345.445.445,0,0,0,.341-.142l.119.138a.648.648,0,0,1-1.1-.41.579.579,0,0,1,.594-.6.567.567,0,0,1,.583.606A.385.385,0,0,1,242.352,209.42Zm-.958-.153h.767a.383.383,0,0,0-.767,0Z" transform="translate(-209.339 -147.94)"/><path class="j" d="M244.74,209.35a.59.59,0,0,1,.625-.6.521.521,0,0,1,.479.249l-.161.107a.383.383,0,0,0-.322-.172.418.418,0,0,0,0,.832.383.383,0,0,0,.322-.169l.161.1a.525.525,0,0,1-.479.253.594.594,0,0,1-.625-.6Z" transform="translate(-211.535 -147.938)"/><path class="j" d="M248.757,209.448a.422.422,0,0,1-.261.081.334.334,0,0,1-.383-.383v-.652h-.2v-.173h.2v-.261h.215v.261h.337v.173h-.337v.64a.173.173,0,0,0,.184.2.265.265,0,0,0,.165-.054Z" transform="translate(-213.49 -147.515)"/><path class="j" d="M250.69,207.6a.142.142,0,0,1,.146-.138.138.138,0,0,1,.146.134.146.146,0,0,1-.291,0Zm.038.383h.215v1.181h-.215Z" transform="translate(-215.204 -147.144)"/><path class="j" d="M253.124,208.78l-.518,1.181h-.219l-.518-1.181h.226l.383.947.414-.947Z" transform="translate(-215.932 -147.959)"/><path class="j" d="M256.462,209.42H255.5a.383.383,0,0,0,.429.345.445.445,0,0,0,.341-.142l.115.138a.579.579,0,0,1-.464.192.594.594,0,0,1-.636-.6.579.579,0,0,1,.594-.6.567.567,0,0,1,.583.606.382.382,0,0,1,0,.065Zm-.958-.153h.767a.383.383,0,1,0-.767,0Z" transform="translate(-218.04 -147.94)"/><path class="g" d="M240.675,111.131a2.867,2.867,0,1,0-5.328,1.449h0c.111.184.249.318.383.514l1.668,2.2a.518.518,0,0,0,.828,0l1.637-2.17a6.115,6.115,0,0,0,.418-.552h0a2.86,2.86,0,0,0,.395-1.445Zm-2.867,1.234a1.265,1.265,0,1,1,1.261-1.265A1.265,1.265,0,0,1,237.807,112.366Z" transform="translate(-205.492 -85.961)"/><path class="f" d="M200.583,410.336h-.533v-.2h1.288v.2H200.8V411.7h-.222Z" transform="translate(-183.976 -272.129)"/><path class="f" d="M203.359,411.671a.613.613,0,1,1,.617.606.587.587,0,0,1-.617-.606Zm1.012,0a.4.4,0,1,0-.4.4A.4.4,0,0,0,204.371,411.671Z" transform="translate(-186.017 -272.69)"/><path class="f" d="M207.72,411.78a.383.383,0,0,1-.257.084.337.337,0,0,1-.383-.383v-.648h-.2v-.176h.2V410.4h.23v.257h.337v.176h-.337v.64a.172.172,0,0,0,.184.2.288.288,0,0,0,.169-.057Z" transform="translate(-188.188 -272.289)"/><path class="f" d="M210.544,411.569v.713h-.2v-.153a.448.448,0,0,1-.383.169c-.268,0-.437-.142-.437-.349s.123-.345.471-.345h.341v-.042c0-.18-.1-.287-.318-.287a.574.574,0,0,0-.383.13l-.092-.161a.767.767,0,0,1,.491-.153.441.441,0,0,1,.514.479Zm-.215.353v-.165H210c-.211,0-.272.084-.272.184s.1.192.261.192A.341.341,0,0,0,210.329,411.922Z" transform="translate(-189.816 -272.71)"/><path class="f" d="M213.22,409.9h.215v1.652h-.215Z" transform="translate(-192.098 -271.981)"/><path class="f" d="M217.408,409.9v1.652h-.2v-.188a.5.5,0,0,1-.422.2.606.606,0,0,1,0-1.208.5.5,0,0,1,.414.192V409.9Zm-.211,1.062a.383.383,0,1,0-.1.294A.383.383,0,0,0,217.2,410.962Z" transform="translate(-193.951 -271.981)"/><path class="f" d="M220.27,409.949a.161.161,0,1,1,.146.138A.142.142,0,0,1,220.27,409.949Zm.038.364h.215v1.181h-.215Z" transform="translate(-196.445 -271.922)"/><path class="f" d="M221.6,412.169l.092-.172a.744.744,0,0,0,.414.123c.2,0,.28-.057.28-.157,0-.268-.767-.038-.767-.506,0-.215.192-.357.495-.357a.879.879,0,0,1,.429.107l-.092.169a.621.621,0,0,0-.341-.092c-.188,0-.276.069-.276.161,0,.28.767.054.767.51,0,.215-.2.353-.51.353a.877.877,0,0,1-.491-.138Z" transform="translate(-197.265 -272.721)"/><path class="f" d="M225.277,411.78a.383.383,0,0,1-.261.084.337.337,0,0,1-.383-.383v-.648h-.2v-.176h.219V410.4h.215v.257h.337v.176h-.337v.64a.172.172,0,0,0,.184.2.268.268,0,0,0,.165-.057Z" transform="translate(-199.01 -272.289)"/><path class="f" d="M228.114,411.571v.713h-.2v-.153a.452.452,0,0,1-.383.169c-.264,0-.437-.142-.437-.349s.123-.345.475-.345h.341v-.042c0-.18-.107-.287-.318-.287a.594.594,0,0,0-.383.13l-.088-.161a.767.767,0,0,1,.491-.153.441.441,0,0,1,.506.479Zm-.215.353v-.165h-.33c-.215,0-.272.084-.272.184s.1.192.261.192A.341.341,0,0,0,227.9,411.924Z" transform="translate(-200.651 -272.712)"/><path class="f" d="M231.891,411.591v.679h-.211v-.656c0-.23-.119-.345-.322-.345a.353.353,0,0,0-.383.383v.606h-.215v-1.181h.2v.18a.51.51,0,0,1,.429-.192.456.456,0,0,1,.5.525Z" transform="translate(-202.914 -272.698)"/><path class="f" d="M234.48,411.7a.59.59,0,0,1,.625-.6.533.533,0,0,1,.483.253l-.165.1a.383.383,0,0,0-.322-.169.418.418,0,0,0,0,.832.383.383,0,0,0,.322-.169l.165.1a.536.536,0,0,1-.483.257.594.594,0,0,1-.625-.606Z" transform="translate(-205.208 -272.719)"/><path class="f" d="M238.922,411.774h-.958a.383.383,0,0,0,.429.345.445.445,0,0,0,.341-.142l.119.138a.606.606,0,0,1-.468.192.594.594,0,0,1-.636-.606.579.579,0,0,1,.594-.6.567.567,0,0,1,.583.609.385.385,0,0,1,0,.065Zm-.958-.153h.767a.383.383,0,0,0-.767,0Z" transform="translate(-207.224 -272.72)"/><path class="f" d="M202.516,418.78V422.5h-.863V419.47h-.744v-.69Z" transform="translate(-184.507 -277.457)"/><path class="f" d="M207.756,426.414a1.269,1.269,0,0,1-.142.529l-.307.767h-.525l.234-.843a.464.464,0,0,1-.288-.452.514.514,0,0,1,1.027,0Z" transform="translate(-188.095 -281.847)"/><path class="f" d="M211.385,418.78V422.5H210.5V419.47h-.744v-.69Z" transform="translate(-189.964 -277.457)"/><path class="f" d="M215.64,420.547c0-1.227.678-1.917,1.595-1.917s1.595.7,1.595,1.917-.675,1.917-1.595,1.917S215.64,421.773,215.64,420.547Zm2.323,0c0-.843-.3-1.2-.728-1.2s-.724.353-.724,1.2.3,1.2.724,1.2S217.963,421.394,217.963,420.547Z" transform="translate(-193.59 -277.364)"/><path class="f" d="M225.05,420.547c0-1.227.682-1.917,1.6-1.917s1.595.7,1.595,1.917-.675,1.917-1.595,1.917S225.05,421.773,225.05,420.547Zm2.327,0c0-.843-.3-1.2-.728-1.2s-.725.353-.725,1.2.3,1.2.725,1.2S227.377,421.394,227.377,420.547Z" transform="translate(-199.393 -277.364)"/><path class="f" d="M243.69,422.142v1.637h-.828v-1.507c0-.464-.207-.678-.544-.678s-.633.242-.633.767v1.434h-.828v-1.507c0-.464-.2-.679-.54-.679s-.629.242-.629.767v1.434h-.828v-2.9h.79v.33a1.15,1.15,0,0,1,.9-.383,1.066,1.066,0,0,1,.939.468,1.292,1.292,0,0,1,1.031-.468A1.132,1.132,0,0,1,243.69,422.142Z" transform="translate(-207.909 -278.737)"/><ellipse class="g" cx="3.209" cy="3.209" rx="3.209" ry="3.209" transform="matrix(0.229, -0.973, 0.973, 0.229, 7.135, 143.412)"/><path class="d" d="M183.247,416.266a5.011,5.011,0,0,1,.824-.05c.525,0,1.277-.027,2.174-.034l-.065.142c-.257-.291-.529-.613-.82-.947l-.05-.058.05-.065.809-1.008.077.161h-3.017l.092-.088c0,.974-.023,1.794-.038,2.369a5.69,5.69,0,0,1-.054.909,6.33,6.33,0,0,1-.054-.909c0-.575-.027-1.4-.034-2.369v-.088h3.293l-.13.161-.817,1.008v-.123l.805.958.123.142h-.188c-.9,0-1.648-.023-2.174-.035a4.7,4.7,0,0,1-.805-.077Z" transform="translate(-173.549 -274.651)"/><path class="g" d="M303.628,403.73h-9.7a1.859,1.859,0,0,0-1.859,1.859v7.636a1.859,1.859,0,0,0,1.859,1.855h.245V416.9l2.112-1.821h7.341a1.859,1.859,0,0,0,1.859-1.855v-7.636A1.859,1.859,0,0,0,303.628,403.73Z" transform="translate(-240.721 -268.176)"/><path class="d" d="M299.33,412.642v3.918a.153.153,0,0,0,.153.153h8.211a.153.153,0,0,0,.15-.157l-.019-1.434a.15.15,0,0,0-.027-.088l-1.181-1.576a.146.146,0,0,0-.119-.061h-1.357a.153.153,0,0,1-.153-.15v-.594a.15.15,0,0,0-.15-.153h-5.367A.153.153,0,0,0,299.33,412.642Z" transform="translate(-245.198 -273.584)"/><path class="g" d="M315.09,415.525v1.261a.088.088,0,0,0,.088.088l1.813-.031a.088.088,0,0,0,.069-.138l-.855-1.257a.081.081,0,0,0-.073-.038l-.966.027A.084.084,0,0,0,315.09,415.525Z" transform="translate(-254.916 -275.378)"/><rect class="d" width="8.844" height="0.272" transform="translate(53.967 143.248)"/><path class="g" d="M303.706,422.664a.878.878,0,1,1-.874-.874A.878.878,0,0,1,303.706,422.664Z" transform="translate(-246.814 -279.313)"/><path class="d" d="M303.925,423.244a.518.518,0,1,1-.514-.514A.517.517,0,0,1,303.925,423.244Z" transform="translate(-247.393 -279.893)"/><path class="g" d="M314.012,416.694c-.023,0-.042-.947-.042-2.112a18.858,18.858,0,0,1,.042-2.112,19.509,19.509,0,0,1,.038,2.112C314.051,415.748,314.031,416.694,314.012,416.694Z" transform="translate(-254.226 -273.566)"/><path class="g" d="M316.188,422.664a.874.874,0,1,1-.874-.874A.874.874,0,0,1,316.188,422.664Z" transform="translate(-254.516 -279.313)"/><path class="d" d="M316.335,423.244a.518.518,0,1,1-.518-.514A.518.518,0,0,1,316.335,423.244Z" transform="translate(-255.046 -279.893)"/><path class="g" d="M315.79,419.792c0,.023-.126.038-.28.038s-.28,0-.28-.038.127-.042.28-.042S315.79,419.769,315.79,419.792Z" transform="translate(-255.003 -278.055)"/></g><g transform="translate(117.426 39.159)"><path class="m" d="M554.563,252.13s6.183,1.043,6.682,1.177,2.457,1.062,2.557,1.66a17.959,17.959,0,0,1,0,2.358s-.357.287-.575-.288a5.866,5.866,0,0,1-.188-1.714l-1.1-.422.6,1.062.1,2.488s-.767-.069-.916-.663a5.87,5.87,0,0,1-.146-1.261l-.8-.675.6.809.2,1.79s-.583.192-.767-.207a6.183,6.183,0,0,1-.2-1.583l-2.254-.79-1.491.832-2.787-1.556Z" transform="translate(-469.101 -213.85)"/><path class="g" d="M493.914,212.26c.031.123,7.452,10.35,7.452,10.35l14.912,4.638-.679,5.6-18.274-3.68-6.486-7.445Z" transform="translate(-430.104 -189.264)"/><g class="n" transform="translate(60.736 22.996)"><path d="M493.914,212.26c.031.123,7.452,10.35,7.452,10.35l14.912,4.638-.679,5.6-18.274-3.68-6.486-7.445Z" transform="translate(-490.84 -212.26)"/></g><rect class="i" width="32.806" height="5.938" rx="2.969" transform="translate(6.198 37.061)"/><path class="f" d="M380.052,254.672a1.038,1.038,0,0,0,.192-.027,1.15,1.15,0,0,0,.935-1.008v-3.761a1.15,1.15,0,0,0-.383-.82,1.116,1.116,0,0,0-.433-.226,1.76,1.76,0,0,0-.518-.034h-3.554l-26.685.031a1.074,1.074,0,0,0-.794.349,1.1,1.1,0,0,0-.276.824v3.354a1.6,1.6,0,0,0,.038.437,1.081,1.081,0,0,0,.916.786h7.536l11.995.023,8.089.031,2.2.019h0l-2.2.019-8.089.031-11.995.023h-7.586a1.307,1.307,0,0,1-.475-.153,1.269,1.269,0,0,1-.606-.767,1.558,1.558,0,0,1-.046-.491v-3.339a1.322,1.322,0,0,1,.333-.958,1.257,1.257,0,0,1,.939-.414l26.685.031h3.554a2.206,2.206,0,0,1,.548.046,1.211,1.211,0,0,1,.475.253,1.234,1.234,0,0,1,.425.9v2.5c0,.479,0,.9-.019,1.273a1.211,1.211,0,0,1-.464.8,1.15,1.15,0,0,1-.529.219.683.683,0,0,1-.211.05Z" transform="translate(-342.213 -211.673)"/><ellipse class="f" cx="15.675" cy="15.675" rx="15.675" ry="15.675" transform="translate(103.406 88.314) rotate(-2.75)"/><path class="f" d="M604.077,420.84v.042a15.675,15.675,0,1,0,31.346.452s0-.027,0-.042Z" transform="translate(-499.932 -317.886)"/><path class="d" d="M616.248,403.673a11.006,11.006,0,1,0,11.163-10.845,11.006,11.006,0,0,0-11.163,10.845Z" transform="translate(-507.437 -300.611)"/><path class="c" d="M627.413,392.828a11.006,11.006,0,0,0-11.163,10.845l22.008.318a11.006,11.006,0,0,0-10.845-11.163Z" transform="translate(-507.439 -300.612)"/><path class="f" d="M627.469,410.654a6.7,6.7,0,1,0,6.8-6.605A6.7,6.7,0,0,0,627.469,410.654Z" transform="translate(-514.357 -307.531)"/><path class="h" d="M608.018,360.582s16.047-4.853,22.682,12.581l-33.581,10.4Z" transform="translate(-495.642 -280.344)"/><ellipse class="f" cx="15.675" cy="15.675" rx="15.675" ry="15.675" transform="translate(6.696 88.316) rotate(-2.75)"/><path class="f" d="M351.787,420.84v.042a15.675,15.675,0,1,0,31.346.452v-.05Z" transform="translate(-344.355 -317.886)"/><path class="d" d="M364,403.673a11.006,11.006,0,1,0,11.163-10.845A11.006,11.006,0,0,0,364,403.673Z" transform="translate(-351.885 -300.611)"/><path class="c" d="M375.148,392.828A11.006,11.006,0,0,0,364,403.673l22.008.318a11.006,11.006,0,0,0-10.86-11.163Z" transform="translate(-351.887 -300.612)"/><path class="f" d="M375.179,410.654a6.7,6.7,0,1,0,6.8-6.605A6.7,6.7,0,0,0,375.179,410.654Z" transform="translate(-358.78 -307.531)"/><path class="o" d="M407.762,403.091c-.088.046-8.25-1.261-8.25-1.261h0a4.983,4.983,0,0,1-3.722,1.947c-3.527.169-6.973.326-9.967.46a5.06,5.06,0,0,0-4.83,5.263h0a5.064,5.064,0,0,0,4.857,4.845l17.377.686a11.6,11.6,0,0,0,8.434-3.856h0Z" transform="translate(-362.363 -306.163)"/><path class="p" d="M339.569,320.247s-.744-15.276,13.612-18.458V299.83h50.287v4.7s-7.379,8.89-4.983,16.269,3.163,8.135,3.163,8.135h28.62a19.551,19.551,0,0,0,3.615-10.845c.153-6.478-2.538-17.553-4.55-24.634-1.817-6.459-2.967-11.841-2.967-11.841l8.587-2.864s15.89,20.8,16.537,21.946a14.147,14.147,0,0,1,2.338,9.867c-.518,5.973-14.812,24.4-18.562,26.474s-7.138,2.208-10.515,2.726c-2.929.452-24.6.153-30.265.065a11.117,11.117,0,0,1-5.6-1.552c-1.694-1.027-2.967-2.729-4.374-5.52l-3-5.842Z" transform="translate(-336.818 -230.265)"/><path class="q" d="M339,384.26l-6.333,9.921a1.533,1.533,0,0,0,1.882,2.269,7.375,7.375,0,0,0,2.128-1.441c2.894-2.756,8.05-10.017,8.05-10.017Z" transform="translate(-332.402 -295.329)"/><path class="f" d="M398.341,361.1a.445.445,0,0,1,.038-.146l.126-.418a11.029,11.029,0,0,0,.333-1.637,11.554,11.554,0,0,0-.981-5.988,12.542,12.542,0,0,0-2.335-3.508,15.311,15.311,0,0,0-3.833-2.936,19.4,19.4,0,0,0-5.022-1.871,26.45,26.45,0,0,0-5.75-.594,43.324,43.324,0,0,0-5.75.426c-1.855.249-3.634.556-5.313.939a31.467,31.467,0,0,0-8.529,3.155,21.108,21.108,0,0,0-4.872,3.722c-.506.521-.87.954-1.112,1.25l-.272.341a.684.684,0,0,1-.1.111,12.881,12.881,0,0,1,1.426-1.756,20.7,20.7,0,0,1,4.861-3.791,31.19,31.19,0,0,1,8.56-3.212c1.679-.383,3.45-.7,5.325-.955a43.619,43.619,0,0,1,5.8-.429,26.38,26.38,0,0,1,5.781.6,19.638,19.638,0,0,1,5.068,1.917,15.415,15.415,0,0,1,3.883,2.982,12.621,12.621,0,0,1,2.342,3.565,11.5,11.5,0,0,1,.928,6.057,9.784,9.784,0,0,1-.383,1.637c-.061.176-.107.311-.146.414A.807.807,0,0,1,398.341,361.1Z" transform="translate(-346.319 -270.378)"/><path class="i" d="M442.51,362.729c-.023,0,.08-.242.188-.678a4.96,4.96,0,0,0,.057-1.917,7.879,7.879,0,0,0-.935-2.66,9.084,9.084,0,0,0-.928-1.4,8.41,8.41,0,0,0-1.246-1.292,10.884,10.884,0,0,0-2.99-1.748,14.073,14.073,0,0,0-2.745-.767,17.965,17.965,0,0,0-1.917-.219,5.612,5.612,0,0,1-.705-.054.62.62,0,0,1,.184,0H432a14.325,14.325,0,0,1,1.917.157,13.254,13.254,0,0,1,2.791.717,10.929,10.929,0,0,1,3.067,1.767,8.783,8.783,0,0,1,1.273,1.323,9.579,9.579,0,0,1,.932,1.43,7.629,7.629,0,0,1,.912,2.729,4.724,4.724,0,0,1-.119,1.94,2.755,2.755,0,0,1-.184.495A.672.672,0,0,1,442.51,362.729Z" transform="translate(-393.382 -275.43)"/><g class="l" transform="translate(39.28 73.889)"><path d="M434.87,345.035a20.14,20.14,0,0,1,7.571,3.067,13.382,13.382,0,0,1,5.072,6.3,11.053,11.053,0,0,1-.2,8.146l3.554.3a13.048,13.048,0,0,0-2.979-12.01,17.634,17.634,0,0,0-13.015-5.815" transform="translate(-434.87 -345.02)"/></g><path class="g" d="M5.538,0H32.125a5.538,5.538,0,0,1,5.538,5.538v15.8a5.538,5.538,0,0,1-5.538,5.538H5.538A5.538,5.538,0,0,1,0,21.338V5.538A5.538,5.538,0,0,1,5.538,0Z" transform="translate(3.771 42.7)"/><path class="f" d="M379.644,279.14c0,.057-8.468.1-18.91.1s-18.914-.042-18.914-.1,8.464-.1,18.914-.1S379.644,279.086,379.644,279.14Z" transform="translate(-338.21 -230.444)"/><path class="f" d="M425,338.25c0,.054-11.3.1-25.243.1s-25.243-.046-25.243-.1,11.3-.1,25.243-.1S425,338.2,425,338.25Z" transform="translate(-358.368 -266.895)"/><path class="q" d="M468.617,325.575a4.347,4.347,0,0,0,.912-2.254c.077-1.261-.5-2.841-1.859-2.841H450.3a5.1,5.1,0,0,0-5.095,5.095Z" transform="translate(-401.966 -255.998)"/><path class="h" d="M560.562,258.8l-3.021-6.3a3.833,3.833,0,0,1,1.533-4.926l9.031-5.386a3.029,3.029,0,0,1,1.56-.433h1.951l.767,12.731-3.005,1.162,1.917,3.1Z" transform="translate(-471.014 -207.455)"/><path class="b" d="M594.91,243s3.09.709,3.477,5.47-2.726,6.248-2.726,6.248Z" transform="translate(-494.279 -208.22)"/><path class="f" d="M556.305,262.565s-6.245,2.959-7.008,3.45a1.454,1.454,0,0,0-.567,1.967c.705,1.767,3.626.1,3.626.1l5.815-2.906s2.235-1.054,1.407-2.377C558.655,261.323,556.305,262.565,556.305,262.565Z" transform="translate(-465.703 -219.984)"/><path class="m" d="M545.117,260.54s5.869,1,6.367,1.15,2.453,1.062,2.553,1.66a17.959,17.959,0,0,1,0,2.358s-.353.288-.575-.287a6.048,6.048,0,0,1-.188-1.717l-1.1-.422.6,1.062.1,2.492s-.767-.069-.912-.667a5.816,5.816,0,0,1-.146-1.257l-.8-.679.6.809.2,1.794s-.583.188-.767-.211a6.16,6.16,0,0,1-.2-1.583l-2.254-.786-1.491.832-2.346-1.3Z" transform="translate(-463.354 -219.036)"/><path class="f" d="M561.686,232.3c0,2.377-1.093,4.3-2.438,4.3s-2.438-1.917-2.438-4.3,1.089-4.3,2.438-4.3S561.686,229.917,561.686,232.3Z" transform="translate(-470.785 -198.97)"/><path class="f" d="M564.21,245.552l1.342,4.646a1.2,1.2,0,0,0,.625-1.372c-.337-1.591-.529-2.722-.9-4.117-.046-.138-1.07.843-1.07.843" transform="translate(-475.348 -209.265)"/><g class="l" transform="translate(60.551 49.232)"><path d="M492.137,323.968c-.13-.383-.268-.767-.383-1.177s-.261-.767-.36-1.15a12.35,12.35,0,0,1-.337-1.752c-2.262,9.2,1.192,15.69,7.119,16.146,8.663.667,19.225,1.15,23.5.031,7.786-2.043,10.642-8.537,11.324-9.607s6.873-12.39,3.067-23.288A159.821,159.821,0,0,0,525.653,280.7l-6.3,2.116s1.15,5.367,2.979,11.822c2.013,7.08,4.7,18.155,4.55,24.634a19.55,19.55,0,0,1-3.615,10.845H494.652s-.613-.613-2.5-6.133" transform="translate(-490.357 -280.7)"/></g><path class="g" d="M336.578,377.265l.2-2.185,52.242,6.018a5.16,5.16,0,0,1,4.477,6.026l-.234,1.323-54.051-7.855A3.067,3.067,0,0,1,336.578,377.265Z" transform="translate(-334.969 -289.668)"/><g transform="translate(1.595 85.412)"><path class="h" d="M336.578,377.265l.2-2.185,52.242,6.018a5.16,5.16,0,0,1,4.477,6.026l-.234,1.323-54.051-7.855A3.067,3.067,0,0,1,336.578,377.265Z" transform="translate(-336.564 -375.08)"/></g><g class="r" transform="translate(103.187 79.616)"><path d="M601.58,382.554s11.5-12.65,13.873-22.594a22.363,22.363,0,0,1,3.561.264S612.214,378.713,601.58,382.554Z" transform="translate(-601.58 -359.959)"/></g><path class="f" d="M614.329,348.34a1.844,1.844,0,0,1,.061.318c.031.211.092.521.13.924a14.08,14.08,0,0,1-.088,3.45,17.424,17.424,0,0,1-1.533,4.861,55.1,55.1,0,0,1-3.044,5.443,72.706,72.706,0,0,1-6.731,9.1c-.935,1.108-1.71,1.99-2.246,2.6l-.621.694a2.7,2.7,0,0,1-.226.234,1.7,1.7,0,0,1,.2-.257l.594-.721,2.2-2.634a79.049,79.049,0,0,0,6.67-9.116,58.414,58.414,0,0,0,3.067-5.417,17.793,17.793,0,0,0,1.533-4.807,15.334,15.334,0,0,0,.15-3.4c-.027-.4-.077-.713-.092-.928A1.7,1.7,0,0,1,614.329,348.34Z" transform="translate(-497.437 -273.178)"/><path class="f" d="M579.766,413.079a15.361,15.361,0,0,1-1.844-1.664,15.769,15.769,0,0,1-1.7-1.806A30.725,30.725,0,0,1,579.766,413.079Z" transform="translate(-482.754 -310.961)"/><path class="f" d="M496.43,412.778a5.324,5.324,0,0,1,.847-1.637,5.394,5.394,0,0,1,1.208-1.392c.042.042-.483.671-1.043,1.5S496.484,412.8,496.43,412.778Z" transform="translate(-433.551 -311.047)"/><path class="f" d="M429.984,417.942a7.72,7.72,0,0,0,1.568-1.993,6.861,6.861,0,0,0,.767-2.626,6.1,6.1,0,0,0-2.752-5.75,6.85,6.85,0,0,0-2.522-1.054,7.711,7.711,0,0,0-2.534-.035.739.739,0,0,1,.169-.05,4.193,4.193,0,0,1,.506-.1,6.016,6.016,0,0,1,1.886.046,6.857,6.857,0,0,1,2.6,1.039,6.2,6.2,0,0,1,2.833,5.938,6.858,6.858,0,0,1-.828,2.683,5.946,5.946,0,0,1-1.15,1.5,3.936,3.936,0,0,1-.383.333.714.714,0,0,1-.157.073Z" transform="translate(-389.201 -308.908)"/><path class="f" d="M388.618,420.305a8.234,8.234,0,0,1-.188-1.84,8.706,8.706,0,0,1,0-1.855,17.2,17.2,0,0,1,.176,3.7Z" transform="translate(-366.922 -315.277)"/><path class="f" d="M391.881,420.3a17.751,17.751,0,0,1-.471-3.7,9.016,9.016,0,0,1,.333,1.84A8.925,8.925,0,0,1,391.881,420.3Z" transform="translate(-368.79 -315.271)"/><path class="f" d="M403.217,333.61c0,.054-6.352.1-14.184.1s-14.184-.046-14.184-.1,6.352-.1,14.184-.1S403.217,333.552,403.217,333.61Z" transform="translate(-358.578 -264.033)"/><path class="f" d="M395.03,281.477c-.057,0-.1-7.283-.1-16.246s.027-16.231.1-16.231.1,7.284.1,16.25S395.083,281.477,395.03,281.477Z" transform="translate(-370.96 -211.92)"/><path class="f" d="M384.989,281.419c-.054,0,.218-7.284.609-16.238s.767-16.235.8-16.231-.215,7.284-.606,16.238S385.062,281.423,384.989,281.419Z" transform="translate(-364.826 -211.889)"/><path class="q" d="M355.448,414.858a1.247,1.247,0,0,1-.169-.173c-.1-.115-.264-.28-.445-.514a14.716,14.716,0,0,1-1.414-2.078,15.882,15.882,0,0,1,.065-15.9,14.439,14.439,0,0,1,1.43-2.066c.184-.234.349-.383.452-.514s.165-.173.169-.165a.968.968,0,0,1-.138.192c-.092.126-.249.3-.422.537a16.409,16.409,0,0,0-.081,19.945c.169.242.322.414.414.541A1.14,1.14,0,0,1,355.448,414.858Z" transform="translate(-344.068 -300.994)"/><path class="q" d="M496.23,373.11l-.119.222-2.315,4.336-3.235,3.113,6.467,8.61,5.386-.893s-.6-1.231-3.308-1.468l-1.024-5.144,3.8-5.888" transform="translate(-429.931 -288.453)"/><path class="c" d="M490.58,392.083l6.467,8.61,5.386-.893-.74-.709-4.42.483-6-8.154Z" transform="translate(-429.944 -299.744)"/><path class="f" d="M509.31,402.9c-.031.061-.383-.065-.767.019s-.694.3-.744.257.192-.406.7-.495S509.352,402.849,509.31,402.9Z" transform="translate(-440.558 -306.677)"/><path class="f" d="M508.463,399.222c-.046.046-.341-.23-.767-.245s-.767.242-.8.192.027-.119.165-.23a1.038,1.038,0,0,1,.644-.2,1.008,1.008,0,0,1,.629.241A.425.425,0,0,1,508.463,399.222Z" transform="translate(-439.999 -304.257)"/><path class="f" d="M507.987,394.758c-.054.042-.291-.238-.686-.307s-.713.111-.767.054.034-.111.176-.192a.947.947,0,0,1,1.15.207C507.991,394.643,508.014,394.742,507.987,394.758Z" transform="translate(-439.772 -301.46)"/><path class="f" d="M511.366,390.529c-.057.031-.261-.249-.633-.41s-.709-.138-.725-.2.383-.222.824,0S511.432,390.509,511.366,390.529Z" transform="translate(-441.925 -298.745)"/><path class="f" d="M512.524,385.3c-.027.019-.238-.165-.563-.487l-.552-.571a1.763,1.763,0,0,1-.322-.383.434.434,0,0,1-.023-.333.334.334,0,0,1,.3-.222.981.981,0,0,1,.548.176,2.017,2.017,0,0,1,.383.318,1.867,1.867,0,0,1,.41.732,1.007,1.007,0,0,1,0,.767,5.751,5.751,0,0,0-.161-.7,1.916,1.916,0,0,0-.41-.633,1.758,1.758,0,0,0-.349-.268.894.894,0,0,0-.406-.142.1.1,0,0,0-.092.065.207.207,0,0,0,0,.157,1.694,1.694,0,0,0,.268.337l.525.609A2.3,2.3,0,0,1,512.524,385.3Z" transform="translate(-442.561 -294.737)"/><path class="f" d="M515.375,386.8c-.027,0-.054-.284.184-.655a1.365,1.365,0,0,1,1.533-.556.261.261,0,0,1,.115.18.323.323,0,0,1-.038.18.767.767,0,0,1-.165.2,2.556,2.556,0,0,1-.345.28,2.388,2.388,0,0,1-.675.314,1.1,1.1,0,0,1-.675.05c0-.038.249-.061.621-.211a2.682,2.682,0,0,0,.6-.334,2.435,2.435,0,0,0,.307-.268.61.61,0,0,0,.119-.142c.019-.054,0-.038,0-.05a.426.426,0,0,0-.165-.034,1.188,1.188,0,0,0-.2,0,1.34,1.34,0,0,0-.383.092,1.315,1.315,0,0,0-.533.383A4.767,4.767,0,0,0,515.375,386.8Z" transform="translate(-445.194 -296.111)"/><path class="c" d="M499.65,389.99a.648.648,0,1,1-.744-.533A.648.648,0,0,1,499.65,389.99Z" transform="translate(-434.743 -298.528)"/><path class="q" d="M556.55,382.27l1.729,11.224,13.98-2.078c-.284-1.323-7.912-2.929-7.912-2.929l-.813-7.237Z" transform="translate(-470.625 -293.472)"/><path class="c" d="M564.848,400.146a.575.575,0,0,0-.3.709.56.56,0,0,0,.7.3.61.61,0,0,0,.311-.767.575.575,0,0,0-.767-.234" transform="translate(-475.537 -305.093)"/><path class="c" d="M560.85,408.818l-.13-1.15,13.452-1.568s.663.18.659.629Z" transform="translate(-473.196 -308.796)"/><path class="f" d="M575.575,399.8c0,.069-.326.149-.633.418s-.437.583-.506.567-.023-.429.349-.747S575.583,399.734,575.575,399.8Z" transform="translate(-481.638 -304.887)"/><path class="f" d="M580.222,400.841c.027.065-.253.222-.441.548s-.211.636-.28.644-.169-.383.073-.767S580.21,400.776,580.222,400.841Z" transform="translate(-484.728 -305.543)"/><path class="f" d="M584.155,403.1c-.061.027-.207-.3-.088-.7s.418-.6.456-.544-.13.284-.226.613S584.221,403.087,584.155,403.1Z" transform="translate(-487.565 -306.174)"/><path class="f" d="M574.169,395.35c0,.065-.345.019-.728.1s-.663.253-.709.2.211-.341.659-.433S574.2,395.289,574.169,395.35Z" transform="translate(-480.6 -302.068)"/><path class="f" d="M571.359,390.025a1.33,1.33,0,0,1-.7.1,3.21,3.21,0,0,1-.767-.115,3.282,3.282,0,0,1-.448-.142.767.767,0,0,1-.234-.134.291.291,0,0,1-.084-.357.383.383,0,0,1,.276-.2.871.871,0,0,1,.264,0,2.174,2.174,0,0,1,.46.084,2.543,2.543,0,0,1,.709.326c.383.253.518.491.495.51s-.219-.165-.583-.364a2.729,2.729,0,0,0-.679-.257,2.07,2.07,0,0,0-.422-.065c-.153,0-.28,0-.307.073s0,.035.027.077a.711.711,0,0,0,.172.1,4.152,4.152,0,0,0,.4.157,3.947,3.947,0,0,0,.717.157A4.939,4.939,0,0,1,571.359,390.025Z" transform="translate(-478.361 -298.352)"/><path class="f" d="M574.277,388.02a1.2,1.2,0,0,1-.287-.648,2.366,2.366,0,0,1,0-.767,2.619,2.619,0,0,1,.115-.452.583.583,0,0,1,.383-.418.334.334,0,0,1,.322.15,1,1,0,0,1,.111.249,1.56,1.56,0,0,1,.069.472,1.629,1.629,0,0,1-.192.767c-.219.383-.491.525-.5.5a2.905,2.905,0,0,0,.345-.575,1.6,1.6,0,0,0,.123-.69,1.356,1.356,0,0,0-.073-.4c-.042-.146-.115-.257-.169-.234a.5.5,0,0,0-.211.264,2.326,2.326,0,0,0-.119.406,2.582,2.582,0,0,0-.031.717C574.2,387.752,574.312,388.005,574.277,388.02Z" transform="translate(-481.36 -296.237)"/><path class="f" d="M508.577,314.236,496.59,340.357l7.916,4.753,16.576-31.43" transform="translate(-433.65 -251.805)"/><path class="f" d="M503.6,330.906l-8.6,1.38-5.148-30.721-25.435,1.844a6.2,6.2,0,0,1-2-.188c-7.142-1.959-6.176-11.067-5.486-12.528l35.195-1.008a7.491,7.491,0,0,1,7.636,6.452Z" transform="translate(-408.902 -237.006)"/><path class="s" d="M452.654,237l.127-12.988s-1.675-8.434-2.174-11.765c-.767-5.152-1.825-7.6,6.616-11.263l1.848-.713,2.856.038c3.4.257,6.992,3.335,7.076,5.367l3.293,29.276Z" transform="translate(-404.982 -181.87)"/><path class="g" d="M454.959,210s-2.384,5.129-1.917,9.8l8.882,8.526a10.431,10.431,0,0,0,7.667,3.35l18.378,2.009.51-4.807-17.473-4.953c-.7-.13-1.047-.855-1.579-1.323L454.959,210" transform="translate(-406.758 -187.87)"/><path class="f" d="M454.39,212.811a1.256,1.256,0,0,1,.353-.238,4.384,4.384,0,0,1,1.188-.333,6.134,6.134,0,0,1,1.986,0,2.059,2.059,0,0,1,.583.2,5.865,5.865,0,0,1,.54.383c.353.276.709.594,1.073.939.736.686,1.434,1.556,2.25,2.438s1.71,1.829,2.683,2.821,2.02,2.032,3.14,3.105c.563.537,1.15,1.081,1.76,1.614.311.253.617.552.912.832a2.208,2.208,0,0,0,1.016.6h0l17.507,4.945.081.023v.084c-.035.341-.077.705-.115,1.077-.134,1.277-.268,2.542-.383,3.73v.1h-.1l-7.79-.866-3.68-.4-3.523-.357c-1.15-.126-2.258-.257-3.335-.414a15.017,15.017,0,0,1-3.09-.717,11.378,11.378,0,0,1-2.6-1.4c-.767-.541-1.487-1.1-2.151-1.66-2.626-2.239-4.554-4.244-5.892-5.608-.663-.686-1.173-1.227-1.514-1.595l-.383-.422-.127-.15s.05.042.142.134.226.234.383.41l1.533,1.572c1.353,1.346,3.3,3.335,5.926,5.555.663.548,1.372,1.108,2.143,1.641a11.461,11.461,0,0,0,2.576,1.372,15,15,0,0,0,3.067.7c1.077.153,2.189.284,3.331.406l3.523.345,3.68.4,7.782.847-.111.088c.127-1.188.261-2.453.383-3.734.042-.383.081-.736.115-1.077l.073.107-17.48-4.964h0a2.33,2.33,0,0,1-1.119-.648c-.31-.3-.59-.571-.909-.836-.617-.537-1.2-1.085-1.76-1.622-1.119-1.077-2.162-2.124-3.132-3.12s-1.859-1.947-2.683-2.841-1.5-1.76-2.227-2.446a12.762,12.762,0,0,0-1.058-.939,4.533,4.533,0,0,0-.529-.383,1.852,1.852,0,0,0-.556-.2,5.946,5.946,0,0,0-1.959-.031,4.429,4.429,0,0,0-1.185.3A2.682,2.682,0,0,0,454.39,212.811Z" transform="translate(-407.627 -189.201)"/><path class="m" d="M466.326,161.007l.889,12.65a3.941,3.941,0,0,0,3.933,3.661h0a3.941,3.941,0,0,0,3.933-4.2c-.081-1.2-.15-2.189-.15-2.189a3.667,3.667,0,0,0,3.1-3.538c.023-1.767-.284-5.777-.544-8.851a4.014,4.014,0,0,0-4.014-3.672H471.62a5.658,5.658,0,0,0-5.294,6.137Z" transform="translate(-414.974 -153.874)"/><path class="t" d="M482.4,194.821a7.134,7.134,0,0,1-3.991-1.131,3.76,3.76,0,0,0,4,1.917Z" transform="translate(-422.439 -177.812)"/><path class="f" d="M492.274,174.075a.437.437,0,0,1-.422.441.414.414,0,0,1-.452-.383.441.441,0,0,1,.422-.445A.422.422,0,0,1,492.274,174.075Z" transform="translate(-430.449 -165.477)"/><path class="f" d="M491.3,171.71c-.058.057-.383-.188-.859-.188s-.813.238-.866.18.031-.13.184-.238a1.181,1.181,0,0,1,.69-.215,1.15,1.15,0,0,1,.682.222C491.261,171.58,491.322,171.683,491.3,171.71Z" transform="translate(-429.313 -163.974)"/><path class="f" d="M480.754,174.075a.433.433,0,0,1-.422.441.414.414,0,0,1-.452-.383.441.441,0,0,1,.422-.445A.422.422,0,0,1,480.754,174.075Z" transform="translate(-423.345 -165.477)"/><path class="f" d="M479.207,171.94c-.054.057-.383-.188-.859-.188s-.813.238-.863.18.027-.13.18-.238a1.18,1.18,0,0,1,.69-.215,1.15,1.15,0,0,1,.682.219C479.207,171.81,479.249,171.913,479.207,171.94Z" transform="translate(-421.86 -164.116)"/><path class="f" d="M486.139,175.478a3.137,3.137,0,0,1,.767-.138c.119,0,.234-.038.253-.119a.575.575,0,0,0-.081-.357l-.36-.912a15.428,15.428,0,0,1-.8-2.392,16.28,16.28,0,0,1,.989,2.319l.337.92a.694.694,0,0,1,.065.471.3.3,0,0,1-.2.176.847.847,0,0,1-.2.027A3.066,3.066,0,0,1,486.139,175.478Z" transform="translate(-427.07 -164.166)"/><path class="f" d="M482.77,182.63c.077,0,.077.506.514.866s.981.307.985.383-.123.1-.353.1a1.273,1.273,0,0,1-.82-.288,1.1,1.1,0,0,1-.383-.728C482.678,182.772,482.736,182.626,482.77,182.63Z" transform="translate(-425.086 -170.992)"/><path class="f" d="M478.874,167.3c-.046.126-.514.069-1.066.134s-1,.219-1.073.1.046-.176.226-.3a1.855,1.855,0,0,1,1.629-.18C478.794,167.142,478.9,167.242,478.874,167.3Z" transform="translate(-421.393 -161.323)"/><path class="f" d="M491.037,168.127c-.081.107-.406,0-.794,0s-.721.069-.8-.042.019-.161.165-.261a1.085,1.085,0,0,1,.648-.176,1.108,1.108,0,0,1,.633.215C491.03,167.966,491.076,168.073,491.037,168.127Z" transform="translate(-429.228 -161.752)"/><path class="m" d="M465.773,176.723c-.054-.023-2.1-.625-2.036,1.468a1.572,1.572,0,0,0,2.154,1.533C465.9,179.663,465.773,176.723,465.773,176.723Z" transform="translate(-413.39 -167.289)"/><path class="t" d="M466.056,180.036a.624.624,0,0,1-.1.058.383.383,0,0,1-.272,0,.9.9,0,0,1-.441-.794,1.211,1.211,0,0,1,.084-.525.425.425,0,0,1,.264-.291.188.188,0,0,1,.219.1c.031.057.019.1.031.1s.042-.038.023-.123a.226.226,0,0,0-.088-.13.272.272,0,0,0-.2-.046.506.506,0,0,0-.383.337,1.215,1.215,0,0,0-.107.587.939.939,0,0,0,.56.886.383.383,0,0,0,.33-.065C466.056,180.086,466.063,180.04,466.056,180.036Z" transform="translate(-414.221 -168.371)"/><path class="f" d="M465.387,162.55a1.1,1.1,0,0,1,1.008.518c.134.3.165.636.3.935a.767.767,0,0,0,.767.494.644.644,0,0,0,.437-.479,1.738,1.738,0,0,0,0-.675c-.123-.978-.326-1.944-.364-2.929a4.983,4.983,0,0,1,.617-2.844,2.737,2.737,0,0,1,2.446-1.376c.652.054,1.246.383,1.894.483a2.561,2.561,0,0,0,2.124-.709,4.246,4.246,0,0,1,.383-.288,1.185,1.185,0,0,0-.219-.644,6.187,6.187,0,0,0-9.292,2.116,8.8,8.8,0,0,0-.111,5.4" transform="translate(-414.174 -153.189)"/><path class="g" d="M476.222,156.464s-8.027-2.584-11.5,4.362a12.946,12.946,0,0,1-.521-2.683,5.973,5.973,0,0,1,4.186-5.493C468.386,152.665,474.133,150.473,476.222,156.464Z" transform="translate(-413.676 -152.271)"/><path class="f" d="M477.289,161.362a1.748,1.748,0,0,0,2.783.253,1.027,1.027,0,0,0,1.944-.1,2.381,2.381,0,0,0,.767.571.8.8,0,0,0,.893-.188.767.767,0,0,0-.057-.92,1.871,1.871,0,0,0-.813-.548,5.884,5.884,0,0,0-3.028-.46,4.09,4.09,0,0,0-2.657,1.445" transform="translate(-421.644 -156.996)"/><g class="l" transform="translate(50.524 0.001)"><path d="M476.222,156.467a3.73,3.73,0,0,0-2.553-1.15,10.084,10.084,0,0,0-8.947,5.52,12.946,12.946,0,0,1-.521-2.683,5.973,5.973,0,0,1,4.186-5.493C468.386,152.668,474.133,150.475,476.222,156.467Z" transform="translate(-464.2 -152.275)"/></g><path class="g" d="M466.43,160.308a15.116,15.116,0,0,1,4.677-4.477,29.453,29.453,0,0,1,7-2.852,4.569,4.569,0,0,1,1.936-.2,1.744,1.744,0,0,1,1.434,1.173c.2.794-1.208,2.016-1.871,2.5a21.146,21.146,0,0,1-2.009,1.188s.019-1.472-2.335-1.775C472.061,155.447,466.43,160.308,466.43,160.308Z" transform="translate(-415.051 -152.565)"/><g class="r" transform="translate(48.553 33.83)"><path d="M459.06,240.52a37.593,37.593,0,0,0,2.864,6.26,11.04,11.04,0,0,0,4.8,4.217,10.354,10.354,0,0,0,7.962.146c.2-.088.6-.2.564-.418,0,0-.824-.1-1.081-.138-5.033-.836-5.581-1.449-7.993-3.366-1.5-1.185-4.834-4.776-7.111-6.7" transform="translate(-459.06 -240.52)"/></g><path class="f" d="M482.561,278.46a2.11,2.11,0,0,1-.211.468,5.851,5.851,0,0,1-.813,1.15,8.817,8.817,0,0,1-3.891,2.373,17.837,17.837,0,0,1-4.539.678c-.586.023-1.062.027-1.388.027a2.966,2.966,0,0,1-.51-.023,2.246,2.246,0,0,1,.506-.057l1.384-.088a19.862,19.862,0,0,0,4.489-.728,9.124,9.124,0,0,0,3.856-2.3A9.827,9.827,0,0,0,482.561,278.46Z" transform="translate(-417.999 -230.086)"/><path class="q" d="M524.263,352.163a.382.382,0,0,1-.031-.119,2.21,2.21,0,0,0-.069-.353c-.058-.322-.142-.767-.245-1.357-.211-1.2-.506-2.9-.874-5.006-.717-4.24-1.706-10.078-2.8-16.526-.487-2.921-.951-5.712-1.376-8.261l.1.081-11.006.794-3.159.215-.843.05h-.219l.219-.027.84-.077,3.155-.268,11-.878h.084v.084c.429,2.549.9,5.34,1.392,8.257,1.069,6.452,2.036,12.294,2.741,16.537.337,2.108.613,3.833.809,5.014l.207,1.369c.023.146.038.264.05.353A.5.5,0,0,1,524.263,352.163Z" transform="translate(-438.016 -255.967)"/><path class="q" d="M545.848,313.54c.035.046-.636.621-1.4,1.4s-1.326,1.453-1.372,1.415a9.131,9.131,0,0,1,2.768-2.81Z" transform="translate(-462.318 -251.719)"/><path class="f" d="M475.912,203.041a.643.643,0,0,1,.046.126,1.8,1.8,0,0,1,.073.383,3.147,3.147,0,0,1-.184,1.4,3.574,3.574,0,0,1-1.265,1.656,3.834,3.834,0,0,1-2.457.659,4.44,4.44,0,0,1-2.388-.9,5.074,5.074,0,0,1-1.357-1.583,5.477,5.477,0,0,1-.521-1.3,3.694,3.694,0,0,1-.077-.383.375.375,0,0,1,0-.134,8.7,8.7,0,0,0,.724,1.74,5.257,5.257,0,0,0,1.346,1.507,4.343,4.343,0,0,0,2.3.843,3.722,3.722,0,0,0,2.342-.61,3.535,3.535,0,0,0,1.234-1.556,3.255,3.255,0,0,0,.242-1.338C475.943,203.225,475.912,203.048,475.912,203.041Z" transform="translate(-415.882 -183.529)"/><path class="f" d="M501.195,230.351a1.611,1.611,0,0,1-.084-.383c-.042-.3-.092-.671-.153-1.1-.126-.978-.291-2.235-.471-3.626s-.31-2.683-.383-3.634c-.042-.464-.069-.843-.084-1.1a1.51,1.51,0,0,1,0-.406,1.894,1.894,0,0,1,.08.383c.042.3.092.667.15,1.1.123.978.28,2.235.452,3.626s.322,2.683.414,3.63c.042.468.073.843.092,1.108A1.741,1.741,0,0,1,501.195,230.351Z" transform="translate(-435.755 -194.098)"/></g></g><g transform="translate(16.783)"><circle class="u" cx="7.1" cy="7.1" r="7.1" transform="translate(227.856 17.428)"/><ellipse class="u" cx="5.164" cy="4.841" rx="5.164" ry="4.841" transform="translate(133.616)"/><ellipse class="u" cx="5.487" cy="5.164" rx="5.487" ry="5.164" transform="translate(0 61.321)"/><ellipse class="u" cx="4.841" cy="5.164" rx="4.841" ry="5.164" transform="translate(72.295 199.453)"/><circle class="u" cx="3.873" cy="3.873" r="3.873" transform="translate(12.91 36.792)"/><ellipse class="u" cx="3.227" cy="3.227" rx="3.227" ry="3.227" transform="translate(236.247 83.267)"/><circle class="u" cx="3.873" cy="3.873" r="3.873" transform="translate(199.455 191.062)"/><circle class="u" cx="1.936" cy="1.936" r="1.936" transform="translate(230.438 60.675)"/><ellipse class="u" cx="1.614" cy="1.614" rx="1.614" ry="1.614" transform="translate(2.582 142.006)"/></g></g></svg>