<svg xmlns="http://www.w3.org/2000/svg" xmlns:xlink="http://www.w3.org/1999/xlink" width="309.74" height="277.009" viewBox="0 0 309.74 277.009"><defs><style>.a{fill:#fff3d9;}.b{fill:#ffcf6b;}.c{opacity:0.9;}.d{fill:#c7161d;}.e,.f,.k,.r,.v,.w{fill:#fff;}.e{opacity:0.45;}.f{opacity:0.43;}.g{fill:#f57e2a;}.h{fill:#455a64;}.i,.m{fill:#ebebeb;}.j{opacity:0.5;}.l{fill:#898989;}.m{opacity:0.2;}.n{fill:#d20400;}.o{fill:#f1f0f8;}.p{fill:#7d97f4;}.q{fill:url(#a);}.r{opacity:0.78;}.s{fill:url(#b);}.t{fill:url(#d);}.u{fill:url(#e);}.v{opacity:0.8;}.w,.x{opacity:0.47;}.y{fill:url(#f);}.z{fill:#263238;}.aa{fill:url(#g);}.ab{fill:url(#h);}.ac{fill:url(#i);}.ad{fill:url(#j);}.ae{fill:url(#k);}.af{fill:url(#l);}</style><linearGradient id="a" x1="-0.184" y1="1.294" x2="0.486" y2="0.516" gradientUnits="objectBoundingBox"><stop offset="0" stop-color="#e1473d"/><stop offset="1" stop-color="#e9605a"/></linearGradient><linearGradient id="b" x1="-0.184" y1="1.294" x2="0.486" y2="0.516" xlink:href="#a"/><linearGradient id="d" x1="-0.184" y1="1.294" x2="0.486" y2="0.516" xlink:href="#a"/><linearGradient id="e" x1="-13.118" y1="-3.746" x2="-13.518" y2="-2.841" gradientUnits="objectBoundingBox"><stop offset="0" stop-color="#febbba"/><stop offset="1" stop-color="#ff928e"/></linearGradient><linearGradient id="f" x1="-14.426" y1="0.5" x2="-13.426" y2="0.5" xlink:href="#e"/><linearGradient id="g" x1="-27.736" y1="0.5" x2="-26.736" y2="0.5" xlink:href="#e"/><linearGradient id="h" x1="-15.877" y1="0.5" x2="-14.877" y2="0.5" xlink:href="#e"/><linearGradient id="i" x1="-44.942" y1="0.5" x2="-43.943" y2="0.5" xlink:href="#e"/><linearGradient id="j" x1="-23.344" y1="0.531" x2="-19.365" y2="0.806" xlink:href="#e"/><linearGradient id="k" x1="-14.623" y1="0.5" x2="-13.623" y2="0.5" gradientUnits="objectBoundingBox"><stop offset="0" stop-color="#2b3582"/><stop offset="1" stop-color="#150e42"/></linearGradient><linearGradient id="l" x1="-15.192" y1="0.5" x2="-14.192" y2="0.5" xlink:href="#k"/></defs><path class="a" d="M819.212,286.268c-3.541-7.726-6.856-15.728-8.511-24.4-5.3-27.78.776-61.407-24.091-81.313A58.439,58.439,0,0,0,745.1,168.136c-14.425,1.357-28.059,8.241-42.629,8.34-16.263.11-31.71-7.836-48.1-8.112-23.607-.394-47.089,12.1-58.957,32.682-6.484,11.246-8.213,25.518-16.806,35.545-8.9,10.386-23.921,15.152-34.372,24.443-22.965,20.419-32.319,55.4-11.054,80.526,11.335,13.394,28.6,20.832,38.733,35.306,8.068,11.527,8.215,26.5,13.895,39.178,15.789,35.225,69.3,33.638,98.94,19.337,9.607-4.633,16.536-9.139,27.614-8.942,10.742.19,21.029,4.25,31.834,4.056,22.217-.4,27.333-18.2,35.511-35.562,10.516-22.313,38.261-26.9,47.843-49.046C835.93,326.511,827.421,304.175,819.212,286.268Z" transform="translate(-521.256 -167.891)"/><g transform="translate(33.007 35.024)"><circle class="b" cx="7.119" cy="7.119" r="7.119" transform="translate(228.464 17.474)"/><ellipse class="b" cx="5.178" cy="4.854" rx="5.178" ry="4.854" transform="translate(133.972)"/><ellipse class="b" cx="5.501" cy="5.178" rx="5.501" ry="5.178" transform="translate(0 61.484)"/><ellipse class="b" cx="4.854" cy="5.178" rx="4.854" ry="5.178" transform="translate(72.488 199.986)"/><circle class="b" cx="3.883" cy="3.883" r="3.883" transform="translate(12.944 36.891)"/><ellipse class="b" cx="3.236" cy="3.236" rx="3.236" ry="3.236" transform="translate(236.877 83.489)"/><circle class="b" cx="3.883" cy="3.883" r="3.883" transform="translate(199.987 191.572)"/><circle class="b" cx="1.942" cy="1.942" r="1.942" transform="translate(231.053 60.837)"/><ellipse class="b" cx="1.618" cy="1.618" rx="1.618" ry="1.618" transform="translate(2.589 142.385)"/><g transform="translate(33.942 8.337)"><g transform="translate(0 0)"><g transform="translate(0)"><g class="c" transform="translate(106.026 16.876)"><path class="d" d="M2195.625,726.7c3.682,16.227,22.071,110.871-45.773,127.922,0,0-24.917-62.109,43.87-129C2194.323,725.039,2195.384,725.642,2195.625,726.7Z" transform="translate(-2145.453 -725.396)"/><path class="e" d="M2436.453,967.03c-.667,4.672-1.419,9.336-2.208,13.992s-1.628,9.3-2.514,13.941q-2.652,13.918-5.947,27.7-1.676,6.88-3.55,13.708c-1.273,4.544-2.625,9.065-4.088,13.55-1.482,4.477-3.086,8.914-4.875,13.271s-4.99,8.232-7.356,12.288c-.128.22,1.165.908,1.384,1.037a.46.46,0,0,0,.63-.164v0a103.821,103.821,0,0,0,6.131-12.833c1.786-4.386,3.367-8.853,4.833-13.351,1.447-4.5,2.781-9.043,4.035-13.6q1.857-6.845,3.491-13.747,3.255-13.8,5.823-27.751,1.3-6.969,2.452-13.963c.767-4.663,1.5-9.331,2.144-14.015a.195.195,0,0,0-.267-.211.2.2,0,0,0-.119.158Z" transform="translate(-2389.651 -951.787)"/></g><path class="b" d="M2412.694,1545.568c.011-.936-1.028-1.3-1.4-.485-3.6,7.849-13.577,28.062-24.676,37.015-18.072,14.579-35.477,42.408-29.3,61.2C2357.314,1643.293,2411.476,1647.591,2412.694,1545.568Z" transform="translate(-2236.875 -1476.627)"/><path class="f" d="M2531.935,1742.319c-.062.191-.148.437-.226.656l-.25.678-.507,1.352-1.041,2.692q-1.061,2.683-2.168,5.335-2.206,5.311-4.569,10.519c-3.172,6.927-6.49,13.754-10.11,20.337-1.823,3.28-3.655,6.553-5.6,9.728s-3.954,6.288-6.061,9.3a115.3,115.3,0,0,1-13.86,16.693.223.223,0,0,0-.023.275.146.146,0,0,0,.224.038,88.57,88.57,0,0,0,7.538-7.673c2.378-2.746,4.619-5.658,6.79-8.639a186.536,186.536,0,0,0,11.817-19.058c1.81-3.316,3.525-6.7,5.2-10.121s3.284-6.882,4.806-10.4,3.016-7.059,4.419-10.654q1.046-2.7,2.046-5.424c.329-.911.66-1.82.977-2.738l.468-1.38.228-.695c.073-.239.148-.452.221-.732a.209.209,0,0,0-.106-.245.154.154,0,0,0-.124.011.151.151,0,0,0-.074.1Z" transform="translate(-2360.108 -1661.823)"/><g class="c" transform="translate(6.339 32.597)"><path class="b" d="M555.379,978.147c-4.61,14.061-28.1,96.981,45.752,133,0,0,29.521-50.609-43.626-133.446a1.253,1.253,0,0,0-2.126.442Z" transform="translate(-548.189 -977.284)"/><path class="e" d="M695.985,1247.633c.975,4.629,2.044,9.232,3.153,13.828s2.275,9.174,3.5,13.744c2.434,9.136,5.075,18.219,7.994,27.216s6.116,17.912,9.784,26.637q2.733,6.553,5.947,12.9a119.724,119.724,0,0,0,7.115,12.319.509.509,0,1,0,.846-.566h0a118.478,118.478,0,0,1-7.119-12.179c-2.158-4.185-4.148-8.466-5.985-12.81-3.7-8.675-6.932-17.558-9.9-26.525s-5.644-18.026-8.124-27.14q-1.86-6.836-3.561-13.714c-1.132-4.585-2.224-9.183-3.221-13.793h0a.215.215,0,1,0-.421.09Z" transform="translate(-686.76 -1230.521)"/></g><rect class="g" width="57.223" height="62.675" rx="28.612" transform="translate(65.882 15.808)"/><rect class="h" width="38.936" height="50.691" rx="7.19" transform="translate(74.896)"/><path class="i" d="M1671.549,490.94h32.744a1.53,1.53,0,0,1,1.53,1.53V540.1a1.529,1.529,0,0,1-1.529,1.529h-32.745a1.529,1.529,0,0,1-1.529-1.529V492.47A1.529,1.529,0,0,1,1671.549,490.94Z" transform="translate(-1593.667 -488.697)"/><g class="j" transform="translate(78.809 6.095)"><rect class="k" width="21.534" height="1.296" rx="0.648"/><rect class="k" width="21.534" height="1.296" rx="0.648" transform="translate(0.149 3.489)"/><rect class="k" width="21.534" height="1.296" rx="0.648" transform="translate(0.075 7.171)"/><rect class="k" width="21.534" height="1.296" rx="0.648" transform="translate(0.432 30.05)"/><rect class="k" width="21.534" height="1.296" rx="0.648" transform="translate(0.432 34.641)"/><rect class="k" width="21.534" height="1.296" rx="0.648" transform="translate(0.224 10.66)"/><rect class="k" width="30.356" height="1.296" rx="0.648" transform="translate(0 14.598)"/><rect class="k" width="21.534" height="1.296" rx="0.648" transform="translate(0.149 18.237)"/><rect class="k" width="21.534" height="1.296" rx="0.648" transform="translate(0.075 22.424)"/><rect class="k" width="8.042" height="1.296" rx="0.648" transform="translate(22.763 18.403)"/><rect class="k" width="9.587" height="1.296" rx="0.648" transform="translate(0.432 26.007)"/></g><path class="g" d="M1345.632,1197.136c.476,19.594,2.019,87.179,1.282,111.129a4.76,4.76,0,0,1-4.556,4.657c-12.291.411-57.35,1.451-77.453.59a8.019,8.019,0,0,1-7.6-7.921c-.418-20.566-1.34-78.41.851-104.909a6.543,6.543,0,0,1,5.808-6.02c13.386-1.367,58.638-4.709,76.007-3.557A6.137,6.137,0,0,1,1345.632,1197.136Z" transform="translate(-1206.187 -1144.942)"/><path class="l" d="M1485.73,1343.1v16.6c0,3.183-2.02,5.766-4.512,5.766h-62.087c-2.491,0-4.512-2.581-4.512-5.766v-16.6c0-3.183,2.02-5.766,4.512-5.766h62.087C1483.712,1337.33,1485.73,1339.911,1485.73,1343.1Z" transform="translate(-1354.206 -1282.263)"/><path class="m" d="M1454.335,1398.484a2.721,2.721,0,0,1,2.106-1.129l58.1-.386c1.553-.011,2.843,1.509,2.961,3.486l.982,16.487c.081,1.349-1.671,2.461-3.884,2.465l-57.123.1c-2.21,0-4.022-1.1-4.022-2.446v-15.883A4.433,4.433,0,0,1,1454.335,1398.484Z" transform="translate(-1390.622 -1338.18)"/><path class="n" d="M1486.8,2750.114a5.143,5.143,0,0,0,5.144,5.144h6.261a5.143,5.143,0,0,0,5.143-5.144h0a5.144,5.144,0,0,0-5.143-5.144h-6.262A5.143,5.143,0,0,0,1486.8,2750.114Z" transform="translate(-1421.881 -2602.05)"/><path class="o" d="M2208.69,2750.114a5.144,5.144,0,0,0,5.144,5.144h6.261a5.144,5.144,0,0,0,5.144-5.143h0a5.144,5.144,0,0,0-5.144-5.144h-6.261A5.144,5.144,0,0,0,2208.69,2750.114Z" transform="translate(-2098.717 -2602.05)"/><path class="n" d="M1850.37,2750.114a5.144,5.144,0,0,0,5.143,5.144h6.262a5.144,5.144,0,0,0,5.144-5.144h0a5.144,5.144,0,0,0-5.143-5.144h-6.262A5.143,5.143,0,0,0,1850.37,2750.114Z" transform="translate(-1762.761 -2602.05)"/><rect class="o" width="10.318" height="8.075" rx="4.038" transform="translate(116.642 97.414)"/><rect class="o" width="10.318" height="8.075" rx="4.038" transform="translate(116.642 111.171)"/><rect class="o" width="10.318" height="8.075" rx="4.038" transform="translate(116.642 124.929)"/><rect class="o" width="10.318" height="8.075" rx="4.038" transform="translate(99.894 97.414)"/><rect class="o" width="10.318" height="8.075" rx="4.038" transform="translate(99.894 111.171)"/><rect class="o" width="10.318" height="8.075" rx="4.038" transform="translate(99.744 124.929)"/><rect class="o" width="10.318" height="8.075" rx="4.038" transform="translate(82.996 97.414)"/><rect class="o" width="10.318" height="8.075" rx="4.038" transform="translate(82.996 111.171)"/><rect class="o" width="10.318" height="8.075" rx="4.038" transform="translate(82.996 124.929)"/><rect class="o" width="10.318" height="8.075" rx="4.038" transform="translate(64.578 97.414)"/><rect class="o" width="10.318" height="8.075" rx="4.038" transform="translate(64.578 111.171)"/><rect class="o" width="10.318" height="8.075" rx="4.038" transform="translate(64.578 124.929)"/><rect class="p" width="11.215" height="3.29" rx="1.645" transform="translate(62.808 90.236)"/><rect class="o" width="11.215" height="3.29" rx="1.645" transform="translate(81.501 90.236)"/><rect class="o" width="11.215" height="3.29" rx="1.645" transform="translate(98.698 90.236)"/><rect class="o" width="11.215" height="3.29" rx="1.645" transform="translate(117.39 90.236)"/><circle class="q" cx="6.403" cy="6.403" r="6.403" transform="translate(0.226 28.528) rotate(-64.64)"/><circle class="n" cx="6.191" cy="6.191" r="6.191" transform="translate(0 25.48) rotate(-45)"/><path class="k" d="M501.5,771.459a.241.241,0,0,1-.214-.349,5.963,5.963,0,0,1,6.393-3.179.24.24,0,1,1-.086.473,5.546,5.546,0,0,0-.988-.089,5.45,5.45,0,0,0-4.889,3.011A.242.242,0,0,1,501.5,771.459Z" transform="translate(-497.851 -748.31)"/><circle class="r" cx="5.239" cy="5.239" r="5.239" transform="translate(1.48 25.615) rotate(-45)"/><path class="n" d="M553.87,813.613v-.57a4.663,4.663,0,0,1-1.6-.346.33.33,0,0,1-.182-.389l.145-.531a.333.333,0,0,1,.451-.218,3.863,3.863,0,0,0,1.477.312c.572,0,1-.194,1-.592,0-.359-.329-.572-1.123-.786-1.135-.312-1.95-.805-1.95-1.8,0-.9.66-1.591,1.8-1.775v-.57a.332.332,0,0,1,.332-.332h.335a.332.332,0,0,1,.332.332v.512a4.229,4.229,0,0,1,1.268.227.331.331,0,0,1,.207.4l-.133.491a.331.331,0,0,1-.437.224,3.46,3.46,0,0,0-1.243-.226c-.679,0-.874.282-.874.534,0,.312.408.524,1.29.8,1.261.378,1.785.9,1.785,1.843a1.943,1.943,0,0,1-1.882,1.833v.638a.332.332,0,0,1-.332.332H554.2a.332.332,0,0,1-.333-.333Z" transform="translate(-545.494 -784.103)"/><circle class="s" cx="11.147" cy="11.147" r="11.147" transform="translate(11.217 17.886) rotate(-45)"/><circle class="n" cx="10.777" cy="10.777" r="10.777" transform="translate(11.742 17.886) rotate(-45)"/><path class="k" d="M732.954,584.291a.24.24,0,0,1-.214-.349,10.144,10.144,0,0,1,9.1-5.6,10.264,10.264,0,0,1,1.837.166.24.24,0,1,1-.085.473,9.832,9.832,0,0,0-1.752-.157,9.667,9.667,0,0,0-8.672,5.339A.239.239,0,0,1,732.954,584.291Z" transform="translate(-714.859 -570.641)"/><circle class="r" cx="9.121" cy="9.121" r="9.121" transform="translate(14.318 18.121) rotate(-45)"/><path class="n" d="M821.451,655.166v-.992a8.075,8.075,0,0,1-2.785-.6.574.574,0,0,1-.317-.678l.25-.924a.578.578,0,0,1,.785-.378,6.718,6.718,0,0,0,2.571.541c1,0,1.739-.338,1.739-1.03,0-.624-.574-1-1.958-1.367-1.976-.541-3.395-1.4-3.395-3.141,0-1.571,1.148-2.77,3.141-3.091v-.992a.578.578,0,0,1,.578-.578h.583a.579.579,0,0,1,.579.578v.891a7.383,7.383,0,0,1,2.207.4.575.575,0,0,1,.359.695l-.232.854a.575.575,0,0,1-.758.389,6.028,6.028,0,0,0-2.165-.393c-1.182,0-1.52.489-1.52.929,0,.541.71.912,2.247,1.385,2.2.658,3.107,1.57,3.107,3.209,0,1.5-1.115,2.854-3.276,3.192v1.111a.579.579,0,0,1-.579.578h-.583a.578.578,0,0,1-.579-.578Z" transform="translate(-795.129 -630.263)"/><circle class="q" cx="11.47" cy="11.47" r="11.47" transform="translate(18.448 42.784) rotate(-45)"/><circle class="n" cx="11.089" cy="11.089" r="11.089" transform="translate(18.988 42.784) rotate(-45)"/><path class="k" d="M852,978.76a.24.24,0,0,1-.214-.349,10.432,10.432,0,0,1,9.358-5.762,10.6,10.6,0,0,1,1.889.17.242.242,0,1,1-.087.476,10.111,10.111,0,0,0-1.8-.162,9.955,9.955,0,0,0-8.929,5.5A.239.239,0,0,1,852,978.76Z" transform="translate(-826.479 -940.342)"/><circle class="r" cx="9.385" cy="9.385" r="9.385" transform="translate(21.638 43.026) rotate(-45)"/><path class="n" d="M942.962,1051.486v-1.021a8.266,8.266,0,0,1-2.865-.624.59.59,0,0,1-.326-.7l.26-.951a.6.6,0,0,1,.811-.39,6.9,6.9,0,0,0,2.645.557c1.025,0,1.79-.348,1.79-1.061,0-.643-.591-1.025-2.016-1.407-2.033-.556-3.495-1.442-3.495-3.232,0-1.616,1.182-2.85,3.232-3.183v-1.021a.595.595,0,0,1,.6-.595h.6a.6.6,0,0,1,.595.595v.917a7.6,7.6,0,0,1,2.271.407.593.593,0,0,1,.37.715l-.239.88a.593.593,0,0,1-.783.4,6.183,6.183,0,0,0-2.227-.4c-1.216,0-1.564.5-1.564.955,0,.556.73.936,2.309,1.425,2.259.678,3.2,1.617,3.2,3.3,0,1.547-1.147,2.937-3.37,3.285v1.143a.6.6,0,0,1-.6.595h-.6A.6.6,0,0,1,942.962,1051.486Z" transform="translate(-908.971 -1001.483)"/><circle class="t" cx="8.404" cy="8.404" r="8.404" transform="translate(40.98 18.755)"/><circle class="n" cx="8.125" cy="8.125" r="8.125" transform="translate(37.894 27.159) rotate(-45)"/><path class="k" d="M1126.935,770.746a.24.24,0,0,1-.215-.349,7.708,7.708,0,0,1,6.914-4.257,7.845,7.845,0,0,1,1.4.125.241.241,0,0,1-.087.473,7.33,7.33,0,0,0-1.311-.117,7.23,7.23,0,0,0-6.485,3.994A.24.24,0,0,1,1126.935,770.746Z" transform="translate(-1084.251 -746.721)"/><ellipse class="r" cx="6.876" cy="6.876" rx="6.876" ry="6.876" transform="translate(41.287 22.227) rotate(-13.28)"/><path class="n" d="M1194.548,824.98v-.749a6.107,6.107,0,0,1-2.1-.455.433.433,0,0,1-.239-.511l.187-.7a.437.437,0,0,1,.592-.285,5.066,5.066,0,0,0,1.938.408c.749,0,1.311-.255,1.311-.777,0-.471-.433-.749-1.477-1.031-1.489-.408-2.559-1.057-2.559-2.368,0-1.186.866-2.088,2.369-2.33v-.748a.437.437,0,0,1,.437-.437h.437a.437.437,0,0,1,.437.437v.672a5.553,5.553,0,0,1,1.664.3.437.437,0,0,1,.271.524l-.175.644a.437.437,0,0,1-.574.294,4.532,4.532,0,0,0-1.631-.3c-.891,0-1.146.369-1.146.7,0,.408.535.687,1.693,1.044,1.655.5,2.343,1.186,2.343,2.419a2.551,2.551,0,0,1-2.47,2.406v.838a.437.437,0,0,1-.437.437h-.437A.437.437,0,0,1,1194.548,824.98Z" transform="translate(-1145.662 -792.532)"/><path class="u" d="M859.611,2121.349s-.273,11.883-12.768,13.967L844.6,2133.1s10.82-3.679,13.636-11.366l-.6-4.077.424-2.7Z" transform="translate(-819.762 -2011.359)"/><path class="n" d="M1218.475,2237.934c-11.649,7.894-21.863,8.261-33.849,3.115a2.17,2.17,0,0,1-1.316-1.926l-.015-.489a2.167,2.167,0,0,1,2.824-2.132c10.315,3.288,18.008,4.931,30.039-2.228a2.166,2.166,0,0,1,3.245,1.55h0A2.169,2.169,0,0,1,1218.475,2237.934Z" transform="translate(-1137.317 -2122.944)"/><path class="n" d="M1623.471,2221.093l5.982-10.069a.472.472,0,0,0-.385-.712l-11.257-.489a.547.547,0,0,0-.511.8,24.117,24.117,0,0,1,5.347,10.448.47.47,0,0,0,.823.026Z" transform="translate(-1544.181 -2100.301)"/><path class="l" d="M899.992,1484.554l.363,31.147.056,4.823a1.149,1.149,0,0,1-1.1,1.186l-61.879,2.184a1.15,1.15,0,0,1-1.186-1.1l-.239-4.818-1.53-30.726a1.994,1.994,0,0,1,2.036-1.838l60.42-3.7a2.887,2.887,0,0,1,3.063,2.845Z" transform="translate(-810.266 -1417.626)"/><path class="l" d="M922.942,1544.725a1.083,1.083,0,0,1-1.053,1.105l-58.946,2.078a1.082,1.082,0,0,1-1.128-1.029l-1.662-33.168a1.885,1.885,0,0,1,1.941-1.716l57.558-3.5a2.784,2.784,0,0,1,2.04.714,2.664,2.664,0,0,1,.874,1.939Z" transform="translate(-834.344 -1442.744)"/><path class="o" d="M1740.283,1775.814a.2.2,0,0,1-.007-.392l6.6-.233a1.682,1.682,0,0,0,1.514-1.633l-.712-20.183a.2.2,0,0,1,.188-.2.2.2,0,0,1,.2.187l.712,20.182a2.072,2.072,0,0,1-1.892,2.039l-6.6.236Z" transform="translate(-1659.366 -1672.149)"/><path class="o" d="M858.608,1568.87a.2.2,0,0,1-.2-.187l-.428-12.1a2.617,2.617,0,0,1,.589-1.73,2.155,2.155,0,0,1,1.6-.825l5.243-.188a.2.2,0,0,1,.2.188.2.2,0,0,1-.187.2l-5.242.187a1.765,1.765,0,0,0-1.307.682,2.219,2.219,0,0,0-.5,1.467l.427,12.1a.2.2,0,0,1-.187.2Z" transform="translate(-832.309 -1485.259)"/><rect class="n" width="9.939" height="8.108" rx="4.054" transform="translate(31.186 81.149) rotate(-2.02)"/><path class="v" d="M995.9,1798.009a.546.546,0,0,1-.544-.525l-.067-1.918a.545.545,0,0,1,.525-.562l2.18-.077a.545.545,0,0,1,.562.525h0l.068,1.919a.543.543,0,0,1-.524.562l-2.18.078Zm2.113-2.691H998l-2.18.077a.151.151,0,0,0-.146.157l.067,1.918a.154.154,0,0,0,.049.106.157.157,0,0,0,.109.041l2.179-.077a.155.155,0,0,0,.106-.049.151.151,0,0,0,.04-.109l-.067-1.918A.151.151,0,0,0,998.01,1795.317Z" transform="translate(-961.043 -1711.299)"/><path class="k" d="M945.579,1809.443a.2.2,0,0,1-.006-.392l3.136-.11a.2.2,0,0,1,.2.187.2.2,0,0,1-.187.2l-3.139.112Z" transform="translate(-914.261 -1724.438)"/><path class="k" d="M946.019,1821.973a.2.2,0,0,1-.006-.393l3.137-.111a.2.2,0,0,1,.2.187.2.2,0,0,1-.187.2l-3.137.113Z" transform="translate(-914.674 -1736.186)"/><path class="k" d="M1050.283,1805.564a.2.2,0,0,1-.007-.392l3.4-.12a.2.2,0,1,1,.014.393l-3.4.12Z" transform="translate(-1012.43 -1720.792)"/><path class="k" d="M1050.723,1818.142a.2.2,0,0,1-.007-.392l3.4-.12a.2.2,0,0,1,.2.187.2.2,0,0,1-.187.2l-3.4.12Z" transform="translate(-1012.843 -1732.586)"/><path class="k" d="M995.16,1754.279a.2.2,0,0,1-.187-.145l-.774-2.821a.2.2,0,0,1,.379-.1l.775,2.821a.2.2,0,0,1-.138.242A.21.21,0,0,1,995.16,1754.279Z" transform="translate(-960.019 -1670.184)"/><path class="k" d="M1035.919,1752.239a.226.226,0,0,1-.041,0,.2.2,0,0,1-.152-.232l.6-2.871a.2.2,0,1,1,.385.08l-.6,2.871A.2.2,0,0,1,1035.919,1752.239Z" transform="translate(-998.956 -1668.209)"/><path class="k" d="M998.943,1839.111a.16.16,0,0,1-.038,0,.2.2,0,0,1-.154-.231l.573-2.871a.2.2,0,0,1,.385.077l-.573,2.871A.2.2,0,0,1,998.943,1839.111Z" transform="translate(-964.288 -1749.675)"/><path class="k" d="M1038.035,1837.59a.2.2,0,0,1-.187-.143l-.8-2.82a.2.2,0,1,1,.375-.107l.8,2.82a.2.2,0,0,1-.187.25Z" transform="translate(-1000.186 -1748.269)"/><path class="w" d="M932.4,1609.424a1.36,1.36,0,0,1-1.311,1.408l-8.52.3a1.362,1.362,0,0,1-1.408-1.311l0-.156a1.359,1.359,0,0,1,1.31-1.407l8.52-.3a1.36,1.36,0,0,1,1.407,1.311Z" transform="translate(-891.54 -1535.999)"/><g class="x" transform="translate(30.905 91.086)"><rect class="k" width="12.031" height="2.616" rx="1.308" transform="matrix(1, -0.04, 0.04, 1, 0, 1.67)"/><path class="k" d="M1162.649,1931.936a1.3,1.3,0,0,1-1.248,1.343l-9.43.333a1.3,1.3,0,0,1-1.343-1.248v-.02a1.3,1.3,0,0,1,1.251-1.342l9.43-.333a1.3,1.3,0,0,1,1.343,1.248Z" transform="translate(-1137.594 -1929.654)"/><path class="k" d="M1380.4,1924.256a1.3,1.3,0,0,1-1.248,1.342l-9.43.333a1.3,1.3,0,0,1-1.343-1.251v-.02a1.3,1.3,0,0,1,1.251-1.342l9.428-.33a1.3,1.3,0,0,1,1.343,1.248Z" transform="translate(-1341.754 -1922.453)"/><rect class="k" width="12.031" height="2.616" rx="1.308" transform="translate(40.426 0.424) rotate(-2.02)"/></g><g class="x" transform="translate(31.853 96.631)"><path class="k" d="M976.595,2030.531a1.032,1.032,0,0,1-1,1.067l-17.541.62a1.032,1.032,0,0,1-1.069-.993v-.028a1.033,1.033,0,0,1,.995-1.068l17.541-.619a1.032,1.032,0,0,1,1.068,1Z" transform="translate(-956.99 -2027.873)"/><path class="k" d="M1.032,0H8.646A1.032,1.032,0,0,1,9.678,1.032V1.06A1.032,1.032,0,0,1,8.646,2.092H1.032A1.032,1.032,0,0,1,0,1.06V1.032A1.032,1.032,0,0,1,1.032,0Z" transform="translate(40.457 0.341) rotate(-2.02)"/></g><path class="n" d="M1057.922,1324.65c10.366-10.1,20.642-12.321,33.71-9.28a2.233,2.233,0,0,1,1.681,1.713l.1.492a2.228,2.228,0,0,1-2.473,2.669c-11.04-1.462-19.127-1.734-30.013,7.693a2.228,2.228,0,0,1-3.569-.982h0A2.232,2.232,0,0,1,1057.922,1324.65Z" transform="translate(-1019.137 -1260.491)"/><path class="n" d="M1017.471,1378.7l-4.235,11.278a.485.485,0,0,0,.519.651l11.484-1.542a.562.562,0,0,0,.375-.9,24.77,24.77,0,0,1-7.3-9.611.484.484,0,0,0-.84.123Z" transform="translate(-977.843 -1320.751)"/><path class="y" d="M725.07,2832.591s-5.929,12.919-9.038,18.271c0,0-.618,3.371,0,4.426l.527.234-2.457-.071a44.043,44.043,0,0,1-.048-4.783.628.628,0,0,1,.512-.236s1.054-8.347,4.1-10.128l2.957-10.184Z" transform="translate(-697.302 -2681.885)"/><path class="z" d="M703.46,3160.892c0,.059-1.919.033-2.963.013a.829.829,0,0,1-.8-.656l-.789-4.143a.745.745,0,0,1,.566-.865l.44-.1a2.358,2.358,0,0,1,.43,1.673c-.2.811-.375,2.911.125,3.156a7.292,7.292,0,0,0,1.935.288S703.426,3160.358,703.46,3160.892Z" transform="translate(-683.153 -2986.621)"/><path class="z" d="M887.319,3216.06a.217.217,0,0,1-.11.405c-1.747-.017-5.663-.073-6.011-.218-.449-.187.164-1.8.811-2.348l3.562,1.163Z" transform="translate(-853.932 -3041.713)"/><path class="aa" d="M902.887,2856.5s-3.831,18.532-4.914,22.147l2.563,1.609s-1.284-.218-2.237-.287a3.269,3.269,0,0,1-1.829-1.163l.307-.489s.961-18.432.725-20.525Z" transform="translate(-868.395 -2706.619)"/><path class="ab" d="M1027.748,2081.744s.529,9.64-8.248,14.566l2.113,4.82s7.947-4.806,7.653-17.916a1.527,1.527,0,0,1,.375-1.027l1.689-1.959a3.029,3.029,0,0,0,.645-2.715l-.222-.888a.461.461,0,0,0-.678-.287l-.177.1a3.1,3.1,0,0,0-1.273,1.415l-.829,1.854a1.781,1.781,0,0,1-1.78,1.048l-.512-.044Z" transform="translate(-983.746 -1975.09)"/><path class="n" d="M880.939,2385.439c-1.469.407-6.443,1.716-9.549,1.662l1.91,10.76-.152,1.755,6.217-.028a47.864,47.864,0,0,1,3.131-6.091c.4-.585.1-1.284-.125-1.955l.312-.206a.846.846,0,0,0,.335-.967l-1.514-4.632A.462.462,0,0,0,880.939,2385.439Z" transform="translate(-844.88 -2264.941)"/><path class="z" d="M835.822,2594.438l-.125,1.061s1.757,5.261-.878,17.55a12.264,12.264,0,0,1-10.4-2.252s1.324-11.6,1.685-12.139c1.8-2.691,3-3.276,3-3.276l.054-1.162S834.178,2595.129,835.822,2594.438Z" transform="translate(-800.841 -2460.708)"/><path class="ac" d="M909.1,2339.744c.022-.029-1.3-3.984-1.3-3.984l-1.892.172-.738,4.488S908.135,2341.018,909.1,2339.744Z" transform="translate(-876.552 -2218.379)"/><path class="ad" d="M866.217,2232.912c.125.079,4.04,1.7,3.2,5.758a.763.763,0,0,1-.437.544,6.631,6.631,0,0,1-3.289.544c-2.05-.208-3.393-3.786-3.337-4.826S864.968,2232.135,866.217,2232.912Z" transform="translate(-836.406 -2121.769)"/><path class="z" d="M754.8,2209.085c.1.014,2.262.766,1.191,2.33s-1.472,2.485-.965,3.172c.461.624,1.483.269,1.394,1.571a.73.73,0,0,0,.312.66c.963.652,3.312,2.658.985,5.519a.729.729,0,0,0-.082.816c.682,1.223,2.114,4.806-3.071,6.792-5.123,1.964-6.973-1.385-7.489-2.723a.713.713,0,0,0-.706-.452c-.562.026-1.361-.067-1.324-.82a1.875,1.875,0,0,1,.644-1.194.714.714,0,0,0-.137-1.124,1.4,1.4,0,0,1-.691-.868,4.547,4.547,0,0,1,3.607-5.173.78.78,0,0,0,.6-.583v-.013a.712.712,0,0,0-.265-.7,1.85,1.85,0,0,1-.653-2.411,2.7,2.7,0,0,1,2.112-1.6.718.718,0,0,0,.592-.86C750.616,2210.326,750.821,2208.564,754.8,2209.085Z" transform="translate(-726.177 -2099.522)"/><path class="ae" d="M2434.348,2437.814h-.023a.53.53,0,0,1-.51-.552c.013-.332.357-8.176,3.995-11.172a4.954,4.954,0,0,1,4.068-1.085c3.063.475,5.258,2.778,6.348,6.661a20.788,20.788,0,0,1,.723,5.632.538.538,0,0,1-.548.514.531.531,0,0,1-.515-.547c0-.1.233-10.218-6.17-11.21a3.883,3.883,0,0,0-3.229.854c-3.272,2.7-3.6,10.316-3.606,10.393A.531.531,0,0,1,2434.348,2437.814Z" transform="translate(-2309.79 -2301.989)"/><path class="n" d="M2399.263,2614.813l-5.331-36.142-20.027-.331-6.455,38.481h30.078a1.753,1.753,0,0,0,1.735-2.009Z" transform="translate(-2247.569 -2445.819)"/><path class="n" d="M2293.466,2578.671l3.889-.331-6.455,38.481h-3.861a1.234,1.234,0,0,1-1.208-1.485Z" transform="translate(-2171.019 -2445.819)"/><path class="af" d="M2503.354,2436.538h-.02a.531.531,0,0,1-.51-.552c.012-.332.356-8.176,3.994-11.172a4.952,4.952,0,0,1,4.068-1.084c3.063.474,5.258,2.777,6.348,6.66a20.81,20.81,0,0,1,.723,5.632.532.532,0,0,1-1.061-.032c0-.1.233-10.219-6.17-11.209a3.877,3.877,0,0,0-3.229.853c-3.268,2.692-3.6,10.316-3.607,10.393A.532.532,0,0,1,2503.354,2436.538Z" transform="translate(-2374.493 -2300.794)"/></g></g></g></g></svg>